<svg width="48" height="48" viewBox="0 0 48 48" fill="none" xmlns="http://www.w3.org/2000/svg">
<circle cx="24" cy="24" r="24" fill="#DE8A2E"/>
<path fill-rule="evenodd" clip-rule="evenodd" d="M23.0597 13.0337C28.3941 12.5888 32.8876 16.6024 33 21.7773L33.0003 21.799C33.0003 23.6079 32.4337 25.2985 31.4294 26.7503L31.4194 26.7645L26.3437 33.8361C26.3337 33.8501 26.3232 33.8639 26.3125 33.8774C25.1458 35.3369 22.8512 35.4267 21.7302 33.8317L16.6529 26.7578C15.3294 24.8814 14.6339 22.5124 15.1963 20.0052C15.8898 16.2459 19.1677 13.4784 23.0292 13.0367C23.0393 13.0356 23.0495 13.0346 23.0597 13.0337ZM23.2412 15.0255C20.1506 15.3853 17.6686 17.5855 17.1602 20.3842C17.1576 20.3985 17.1547 20.4127 17.1514 20.4269C16.7277 22.2929 17.2252 24.0977 18.2849 25.6017L23.3652 32.6798C23.6359 33.0668 24.3111 33.1575 24.7364 32.6456L29.7893 25.6056C30.5713 24.4725 30.998 23.1813 31.0003 21.8099C30.9077 17.8316 27.4502 14.6828 23.2412 15.0255Z" fill="white"/>
<path fill-rule="evenodd" clip-rule="evenodd" d="M24.0016 19.9004C22.9522 19.9004 22.1016 20.751 22.1016 21.8004C22.1016 22.8497 22.9522 23.7004 24.0016 23.7004C25.0509 23.7004 25.9016 22.8497 25.9016 21.8004C25.9016 20.751 25.0509 19.9004 24.0016 19.9004ZM20.1016 21.8004C20.1016 19.6465 21.8477 17.9004 24.0016 17.9004C26.1555 17.9004 27.9016 19.6465 27.9016 21.8004C27.9016 23.9543 26.1555 25.7004 24.0016 25.7004C21.8477 25.7004 20.1016 23.9543 20.1016 21.8004Z" fill="white"/>
<path fill-rule="evenodd" clip-rule="evenodd" d="M24.0016 19.9004C22.9522 19.9004 22.1016 20.751 22.1016 21.8004C22.1016 22.8497 22.9522 23.7004 24.0016 23.7004C25.0509 23.7004 25.9016 22.8497 25.9016 21.8004C25.9016 20.751 25.0509 19.9004 24.0016 19.9004ZM20.1016 21.8004C20.1016 19.6465 21.8477 17.9004 24.0016 17.9004C26.1555 17.9004 27.9016 19.6465 27.9016 21.8004C27.9016 23.9543 26.1555 25.7004 24.0016 25.7004C21.8477 25.7004 20.1016 23.9543 20.1016 21.8004Z" fill="white"/>
<path fill-rule="evenodd" clip-rule="evenodd" d="M24.0016 19.9004C22.9522 19.9004 22.1016 20.751 22.1016 21.8004C22.1016 22.8497 22.9522 23.7004 24.0016 23.7004C25.0509 23.7004 25.9016 22.8497 25.9016 21.8004C25.9016 20.751 25.0509 19.9004 24.0016 19.9004ZM20.1016 21.8004C20.1016 19.6465 21.8477 17.9004 24.0016 17.9004C26.1555 17.9004 27.9016 19.6465 27.9016 21.8004C27.9016 23.9543 26.1555 25.7004 24.0016 25.7004C21.8477 25.7004 20.1016 23.9543 20.1016 21.8004Z" fill="white"/>
</svg>
