<svg width="96" height="96" viewBox="0 0 96 96" fill="none" xmlns="http://www.w3.org/2000/svg">
<path d="M79.9612 48.7951C79.9612 66.7741 65.5281 81.349 47.724 81.349C29.9199 81.349 15.4868 66.7741 15.4868 48.7951C15.4868 30.8161 29.9199 16.2412 47.724 16.2412C65.5281 16.2412 79.9612 30.8161 79.9612 48.7951Z" fill="white"/>
<path fill-rule="evenodd" clip-rule="evenodd" d="M81.9897 48.7951C81.9897 67.9054 66.6484 83.3973 47.7241 83.3973C28.7997 83.3973 13.4585 67.9054 13.4585 48.7951C13.4585 29.6848 28.7997 14.1929 47.7241 14.1929C66.6484 14.1929 81.9897 29.6848 81.9897 48.7951ZM47.7241 81.349C65.5282 81.349 79.9613 66.7741 79.9613 48.7951C79.9613 30.8161 65.5282 16.2412 47.7241 16.2412C29.92 16.2412 15.4869 30.8161 15.4869 48.7951C15.4869 66.7741 29.92 81.349 47.7241 81.349Z" fill="#8E4B98"/>
<path fill-rule="evenodd" clip-rule="evenodd" d="M43.6669 79.3009C61.4711 79.3009 75.9041 64.7261 75.9041 46.747C75.9041 34.8102 69.542 24.374 60.0552 18.7075C71.741 23.5969 79.9614 35.2265 79.9614 48.795C79.9614 66.774 65.5283 81.3489 47.7242 81.3489C41.7407 81.3489 36.138 79.7028 31.3359 76.8345C35.1345 78.4238 39.2993 79.3009 43.6669 79.3009Z" fill="#8E4B98"/>
<path fill-rule="evenodd" clip-rule="evenodd" d="M10.2115 26.5215C13.4599 37.1215 20.2285 49.8039 29.6954 62.1252C39.1622 74.4466 49.6457 84.2184 59.0064 90.0294C63.68 92.9306 68.1693 94.9044 72.1801 95.6586C76.1884 96.4123 79.9624 95.9829 82.8513 93.7194C85.7402 91.456 87.0897 87.871 87.3626 83.7631C87.6357 79.6525 86.8578 74.7709 85.236 69.4785C81.9877 58.8785 75.219 46.1961 65.7522 33.8748C56.2854 21.5534 45.8019 11.7816 36.4412 5.97066C31.7675 3.06936 27.2783 1.09563 23.2674 0.341447C19.2592 -0.412254 15.4852 0.0170943 12.5962 2.28056C9.70732 4.54403 8.35781 8.12896 8.08493 12.2369C7.81186 16.3475 8.58973 21.2291 10.2115 26.5215ZM31.298 60.8696C12.5843 36.5132 4.76791 11.0066 13.8396 3.89889C22.9114 -3.2088 45.4359 10.774 64.1496 35.1304C82.8633 59.4868 90.6796 84.9934 81.6079 92.1011C72.5362 99.2088 50.0116 85.226 31.298 60.8696Z" fill="#8E4B98"/>
<path fill-rule="evenodd" clip-rule="evenodd" d="M89.8785 35.9031C84.323 45.6521 74.8643 56.6081 62.8733 66.5788C50.8823 76.5496 38.4197 83.8216 27.8791 87.457C22.6199 89.2709 17.6799 90.2351 13.4348 90.0722C9.19365 89.9095 5.27826 88.5916 2.70416 85.4349C0.130049 82.2781 -0.399495 78.1448 0.256102 73.9104C0.912316 69.672 2.79722 64.9611 5.56909 60.097C11.1247 50.348 20.5833 39.3921 32.5743 29.4213C44.5653 19.4505 57.0279 12.1785 67.5686 8.54307C72.8277 6.72924 77.7678 5.76505 82.0129 5.92791C86.254 6.09062 90.1694 7.40846 92.7435 10.5652C95.3176 13.722 95.8471 17.8553 95.1915 22.0897C94.5353 26.3281 92.6504 31.039 89.8785 35.9031ZM60.9393 64.207C84.5058 44.611 97.6934 21.4691 90.3947 12.5183C83.096 3.56745 58.0748 12.1971 34.5083 31.7931C10.9419 51.3892 -2.24579 74.531 5.05292 83.4818C12.3516 92.4327 37.3728 83.803 60.9393 64.207Z" fill="#8E4B98"/>
<path d="M95.9997 26.4861C95.9997 28.6455 94.2662 30.3961 92.1278 30.3961C89.9894 30.3961 88.2559 28.6455 88.2559 26.4861C88.2559 24.3267 89.9894 22.5762 92.1278 22.5762C94.2662 22.5762 95.9997 24.3267 95.9997 26.4861Z" fill="#8E4B98"/>
<path d="M39.1745 30.3958C39.1745 32.5552 37.441 34.3057 35.3026 34.3057C33.1642 34.3057 31.4307 32.5552 31.4307 30.3958C31.4307 28.2364 33.1642 26.4858 35.3026 26.4858C37.441 26.4858 39.1745 28.2364 39.1745 30.3958Z" fill="#8E4B98"/>
<path d="M38.5477 82.0877C38.5477 85.4221 35.871 88.1251 32.569 88.1251C29.2671 88.1251 26.5903 85.4221 26.5903 82.0877C26.5903 78.7533 29.2671 76.0503 32.569 76.0503C35.871 76.0503 38.5477 78.7533 38.5477 82.0877Z" fill="#8E4B98"/>
</svg>
