<svg width="20" height="20" viewBox="0 0 20 20" fill="none" xmlns="http://www.w3.org/2000/svg">
<g clip-path="url(#clip0_132_26499)">
<path d="M10 20C15.5228 20 20 15.5228 20 10C20 4.47715 15.5228 0 10 0C4.47715 0 0 4.47715 0 10C0 15.5228 4.47715 20 10 20Z" fill="#64A8DF"/>
<path d="M15.2794 7.39493C15.6821 6.93182 15.6331 6.23004 15.1701 5.82737C14.707 5.4247 14.0052 5.47367 13.6025 5.93671L15.2794 7.39493ZM8.88541 13.0547L8.09975 13.8404C8.31764 14.0583 8.61619 14.1759 8.92408 14.1652C9.23203 14.1544 9.52169 14.0163 9.72386 13.7838L8.88541 13.0547ZM6.61553 9.21348C6.18164 8.77954 5.4781 8.77954 5.04419 9.21348C4.61027 9.64737 4.61027 10.3509 5.04419 10.7848L6.61553 9.21348ZM13.6025 5.93671L8.04697 12.3256L9.72386 13.7838L15.2794 7.39493L13.6025 5.93671ZM9.67108 12.269L6.61553 9.21348L5.04419 10.7848L8.09975 13.8404L9.67108 12.269Z" fill="white"/>
</g>
<defs>
<clipPath id="clip0_132_26499">
<rect width="20" height="20" fill="white"/>
</clipPath>
</defs>
</svg>
