<svg width="96" height="96" viewBox="0 0 96 96" fill="none" xmlns="http://www.w3.org/2000/svg">
<path d="M13.9316 56.5059C13.9316 53.1921 16.6179 50.5059 19.9316 50.5059H91.8179C92.87 50.5059 93.4166 52.2688 92.6675 53.0076C90.8561 54.7943 88.9817 57.5412 88.9817 61.2582C88.9817 65.0982 90.9823 67.9599 92.8472 69.7932C93.5888 70.5223 93.0558 72.2106 92.0158 72.2106H19.9316C16.6179 72.2106 13.9316 69.5243 13.9316 66.2106V56.5059Z" fill="#8E4B98"/>
<path d="M55.0112 15.3948C55.0112 20.9994 50.8305 27.5724 42.469 27.5724C34.1075 27.5724 29.9268 20.9994 29.9268 15.3948C29.9268 9.35255 33.886 8.04116 38.1775 8.1686C39.9388 8.22091 42.469 9.55452 42.469 9.55452C42.469 9.55452 44.9992 8.22091 46.7605 8.1686C51.052 8.04116 55.0112 9.30606 55.0112 15.3948Z" fill="white" stroke="#8E4B98" stroke-width="2" stroke-linecap="round" stroke-linejoin="round"/>
<path d="M46.1797 23.9347C47.4862 23.4322 50.3395 21.4607 51.3011 17.5938" stroke="#8E4B98" stroke-width="2" stroke-linecap="round" stroke-linejoin="round"/>
<path d="M42.7926 9.14935C40.2156 9.17355 37.8587 7.43527 37.2363 2.47656C39.6916 3.42839 43.6904 2.98243 42.7926 9.14935Z" fill="white" stroke="#8E4B98" stroke-width="2" stroke-linecap="round" stroke-linejoin="round"/>
<path d="M42.835 9.06958C43.9847 7.64028 45.7092 3.22243 44.2198 0" stroke="#8E4B98" stroke-width="2" stroke-linecap="round" stroke-linejoin="round"/>
<path d="M35.5719 17.0571C35.0354 16.0571 34.8839 14.4076 35.4317 13.1394" stroke="#8E4B98" stroke-width="2" stroke-linecap="round" stroke-linejoin="round"/>
<path d="M6.97168 34.4929C6.97168 31.2715 9.59737 28.6602 12.8363 28.6602H82.7511C82.7511 28.6602 77.3371 32.1356 76.7734 38.7037C76.2098 45.2718 82.7511 48.7017 82.7511 48.7017H12.8363C9.59738 48.7017 6.97168 46.0903 6.97168 42.869V34.4929Z" fill="white"/>
<path fill-rule="evenodd" clip-rule="evenodd" d="M83.8149 30.2921C83.814 30.2926 83.8132 30.2932 83.8123 30.2937L83.7934 30.3066C83.7685 30.3235 83.7255 30.3533 83.6669 30.3956C83.5495 30.4805 83.3704 30.6155 83.1485 30.7996C82.7031 31.1691 82.0954 31.7284 81.4718 32.4686C80.2202 33.9539 78.9588 36.0992 78.721 38.87C78.502 41.422 79.6432 43.4064 80.9842 44.8447C81.6522 45.5612 82.3417 46.1084 82.8647 46.4754C83.1244 46.6577 83.338 46.792 83.4805 46.8774C83.5515 46.92 83.6044 46.9502 83.636 46.9679C83.6517 46.9767 83.6621 46.9823 83.6667 46.9848L83.6651 46.984L83.6639 46.9834C83.6655 46.9842 83.6671 46.9851 83.6687 46.9859C84.4597 47.4042 84.8639 48.3041 84.6486 49.1696C84.4327 50.0373 83.6497 50.6468 82.7509 50.6468H12.8361C8.51753 50.6468 5.0166 47.1649 5.0166 42.8699V34.4937C5.0166 30.1986 8.51753 26.7168 12.8361 26.7168H82.7509C83.6177 26.7168 84.3811 27.2845 84.6261 28.1114C84.8704 28.936 84.5413 29.8219 83.8173 30.2905C83.8165 30.291 83.8157 30.2915 83.8149 30.2921ZM80.1384 46.7583C81.4994 48.0463 82.7509 48.7026 82.7509 48.7026H12.8361C9.59718 48.7026 6.97148 46.0912 6.97148 42.8699V34.4937C6.97148 31.2724 9.59718 28.661 12.8361 28.661H82.7509C82.7509 28.661 81.725 29.3196 80.5198 30.6053C78.9564 32.273 77.0915 34.9957 76.7732 38.7046C76.4561 42.3998 78.3878 45.1017 80.1384 46.7583Z" fill="#8E4B98"/>
<path d="M1.95508 79.8464C1.95508 76.6251 4.58077 74.0137 7.81973 74.0137H77.7345C77.7345 74.0137 72.8242 77.0669 72.0087 83.9069C71.1932 90.7469 77.7345 94.0552 77.7345 94.0552H7.81973C4.58078 94.0552 1.95508 91.4438 1.95508 88.2225V79.8464Z" fill="white"/>
<path fill-rule="evenodd" clip-rule="evenodd" d="M78.7755 75.6601C78.7753 75.6602 78.7757 75.66 78.7755 75.6601C78.7744 75.6607 78.7734 75.6614 78.7723 75.6621C78.7722 75.6621 78.7723 75.6621 78.7723 75.6621M75.5518 75.9588C76.7285 74.64 77.7343 74.0145 77.7343 74.0145H7.81953C4.58058 74.0145 1.95488 76.6259 1.95488 79.8472V88.2234C1.95488 91.4447 4.58058 94.0561 7.81954 94.0561H77.7343C77.7343 94.0561 76.4655 93.4144 75.1151 92.1118C73.3994 90.4569 71.5521 87.7353 72.0085 83.9078C72.4549 80.1635 74.1284 77.5539 75.5518 75.9588ZM78.6219 92.3238C78.6238 92.3247 78.6257 92.3257 78.6276 92.3267C78.6283 92.3271 78.6285 92.3272 78.6276 92.3267C79.4288 92.736 79.8455 93.6373 79.6354 94.5092C79.4247 95.3837 78.6385 96.0003 77.7343 96.0003H7.81954C3.50093 96.0003 0 92.5185 0 88.2234V79.8472C0 75.5522 3.50092 72.0703 7.81953 72.0703H77.7343C78.6064 72.0703 79.3729 72.6448 79.6134 73.4784C79.8528 74.3083 79.5131 75.1954 78.7806 75.6569C78.7791 75.6578 78.777 75.6591 78.7755 75.6601M78.6264 92.326C78.6224 92.324 78.6127 92.3189 78.5977 92.3107C78.5675 92.2943 78.5162 92.2658 78.4468 92.2252C78.3078 92.1438 78.0984 92.0148 77.8442 91.8382C77.3319 91.4824 76.6589 90.9486 76.0139 90.241C74.7319 88.8348 73.6282 86.8338 73.9498 84.1367C74.3052 81.1559 75.5463 79.0198 76.6911 77.6263C77.2655 76.9272 77.8138 76.4179 78.2078 76.0905C78.4043 75.9272 78.5608 75.8105 78.6606 75.7393C78.7105 75.7038 78.746 75.6798 78.7651 75.6671L78.7755 75.6601L78.7735 75.6613L78.7723 75.6621M78.6264 92.326L78.6253 92.3255L78.6232 92.3244" fill="#8E4B98"/>
<path d="M19.7881 56.3799H65.3583" stroke="white" stroke-width="2" stroke-linecap="round" stroke-linejoin="round"/>
<path d="M19.7881 61.3584H44.6635" stroke="white" stroke-width="2" stroke-linecap="round" stroke-linejoin="round"/>
<path d="M60.6553 27.9941H68.7551V39.8546C68.7551 40.7442 67.6807 41.191 67.05 40.5636L65.4104 38.933C65.0203 38.545 64.3901 38.545 64 38.933L62.3604 40.5636C61.7297 41.191 60.6553 40.7442 60.6553 39.8546V27.9941Z" fill="#8E4B98"/>
<path d="M6.41016 79.0566H51.9803" stroke="#8E4B98" stroke-width="2" stroke-linecap="round" stroke-linejoin="round"/>
<path d="M6.41016 84.0352H31.2856" stroke="#8E4B98" stroke-width="2" stroke-linecap="round" stroke-linejoin="round"/>
<path d="M12.2627 33.8584H50.5165" stroke="#8E4B98" stroke-width="2" stroke-linecap="round" stroke-linejoin="round"/>
</svg>
