<svg width="96" height="83" viewBox="0 0 96 83" fill="none" xmlns="http://www.w3.org/2000/svg">
<g style="color: #CEDA42;">
<g id="chat-balloons">
<path d="M42.1054 26.9492C48.9199 26.9492 54.4441 32.4597 54.4441 39.2572V60.7867C54.4441 67.5842 48.9199 73.0947 42.1054 73.0947H28.8625L21.092 82.6625C20.5538 83.3252 19.4795 82.9456 19.4795 82.0927V73.0947H19.4462C12.6317 73.0947 7.10742 67.5842 7.10742 60.7867V39.2572C7.10742 32.4597 12.6317 26.9492 19.4462 26.9492H42.1054Z" fill="currentcolor"/>
<path d="M55.623 6.21973C48.8084 6.21973 43.2842 11.7302 43.2842 18.5277V51.8619C43.2842 58.6594 48.8084 64.1699 55.623 64.1699H71.7462L82.0157 76.8147C82.5539 77.4774 83.6282 77.0978 83.6282 76.2449V64.1699H83.6613C90.4758 64.1699 96.0001 58.6594 96.0001 51.8619V18.5277C96.0001 11.7302 90.4758 6.21973 83.6613 6.21973H55.623Z" fill="currentcolor"/>
<path fill-rule="evenodd" clip-rule="evenodd" d="M36.4464 23.415C43.4626 23.415 49.1504 29.0886 49.1504 36.0873V56.8882C49.1504 63.8869 43.4626 69.5605 36.4464 69.5605H23.5686L14.1854 81.114V69.5563C7.32277 69.3805 1.81368 63.7761 1.81368 56.8882V36.0873C1.81368 29.0886 7.50146 23.415 14.5177 23.415H36.4464Z" fill="white"/>
<path fill-rule="evenodd" clip-rule="evenodd" d="M23.5701 69.5623H36.4479C43.4642 69.5623 49.1519 63.8887 49.1519 56.89V36.0891C49.1519 29.0904 43.4642 23.4168 36.4479 23.4168H14.5192C7.503 23.4168 1.81522 29.0904 1.81522 36.0891V56.89C1.81522 63.7779 7.32431 69.3823 14.187 69.558V81.1157L23.5701 69.5623ZM12.3721 71.2152C5.37131 70.1799 0.000366211 64.1608 0.000366211 56.89V36.0891C0.000366211 28.0905 6.50068 21.6064 14.5192 21.6064H36.4479C44.4665 21.6064 50.9668 28.0905 50.9668 36.0891V56.89C50.9668 64.8885 44.4665 71.3726 36.4479 71.3726H24.4355L15.5971 82.2553C15.1133 82.8511 14.3056 83.0782 13.581 82.8221C12.8564 82.5661 12.3721 81.8825 12.3721 81.1157V71.2152Z" fill="currentcolor"/>
<path fill-rule="evenodd" clip-rule="evenodd" d="M2.80469 36.4215C2.80469 29.9226 8.08619 24.6543 14.6013 24.6543H36.3639C42.879 24.6543 48.1605 29.9226 48.1605 36.4214V56.7177C48.1605 63.2166 42.879 68.4849 36.3639 68.4849H23.3621C22.861 68.4849 22.4547 68.0796 22.4547 67.5797C22.4547 67.0798 22.861 66.6746 23.3621 66.6746H36.3639C41.8767 66.6746 46.3456 62.2167 46.3456 56.7177V36.4214C46.3456 30.9224 41.8767 26.4646 36.3639 26.4646H14.6013C9.08851 26.4646 4.61954 30.9225 4.61954 36.4215V56.7178C4.61954 62.2167 9.08851 66.6746 14.6013 66.6746H15.4893C15.9905 66.6746 16.3968 67.0798 16.3968 67.5797C16.3968 68.0796 15.9905 68.4849 15.4893 68.4849H14.6013C8.0862 68.4849 2.80469 63.2166 2.80469 56.7178V36.4215Z" fill="currentcolor"/>
<path fill-rule="evenodd" clip-rule="evenodd" d="M9.14453 42.8758C9.14453 42.1259 9.75394 41.518 10.5057 41.518H21.7048C22.4565 41.518 23.066 42.1259 23.066 42.8758C23.066 43.6256 22.4565 44.2335 21.7048 44.2335H10.5057C9.75394 44.2335 9.14453 43.6256 9.14453 42.8758Z" fill="currentcolor"/>
<path fill-rule="evenodd" clip-rule="evenodd" d="M9.14453 34.2904C9.14453 33.5405 9.75394 32.9326 10.5057 32.9326H36.895C37.6468 32.9326 38.2562 33.5405 38.2562 34.2904C38.2562 35.0402 37.6468 35.6481 36.895 35.6481H10.5057C9.75394 35.6481 9.14453 35.0402 9.14453 34.2904Z" fill="currentcolor"/>
<path fill-rule="evenodd" clip-rule="evenodd" d="M9.14453 50.9244C9.14453 50.1745 9.75394 49.5666 10.5057 49.5666H15.1648C15.9166 49.5666 16.526 50.1745 16.526 50.9244C16.526 51.6742 15.9166 52.2821 15.1648 52.2821H10.5057C9.75394 52.2821 9.14453 51.6742 9.14453 50.9244Z" fill="currentcolor"/>
<path fill-rule="evenodd" clip-rule="evenodd" d="M48.9442 1.81152C41.928 1.81152 36.2402 7.48512 36.2402 14.4838V47.0894C36.2402 54.0881 41.928 59.7617 48.9442 59.7617H64.7026L76.5846 74.392V59.7574C83.4472 59.5816 88.9561 53.9772 88.9561 47.0894V14.4838C88.9561 7.48511 83.2684 1.81152 76.2521 1.81152H48.9442Z" fill="white"/>
<path fill-rule="evenodd" clip-rule="evenodd" d="M64.703 59.7605H48.9446C41.9284 59.7605 36.2406 54.0869 36.2406 47.0882V14.4826C36.2406 7.48392 41.9284 1.81033 48.9446 1.81033H76.2525C83.2688 1.81033 88.9565 7.48392 88.9565 14.4826V47.0882C88.9565 53.976 83.4476 59.5804 76.585 59.7562V74.3907L64.703 59.7605ZM78.3999 61.4134C85.4006 60.3779 90.7714 54.3589 90.7714 47.0882V14.4826C90.7714 6.4841 84.2711 0 76.2525 0H48.9446C40.9261 0 34.4258 6.48411 34.4258 14.4826V47.0882C34.4258 55.0867 40.9261 61.5708 48.9446 61.5708H63.8376L75.1749 75.5303C75.6587 76.1261 76.4664 76.3532 77.191 76.0972C77.9156 75.8411 78.3999 75.1575 78.3999 74.3907V61.4134Z" fill="currentcolor"/>
<path fill-rule="evenodd" clip-rule="evenodd" d="M37.3857 15.0738C37.3857 8.57496 42.6672 3.30664 49.1823 3.30664H75.8804C82.3955 3.30664 87.677 8.57497 87.677 15.0738V46.2298C87.677 52.7286 82.3955 57.9969 75.8804 57.9969H75.5604C75.0592 57.9969 74.653 57.5917 74.653 57.0918C74.653 56.5919 75.0592 56.1866 75.5604 56.1866H75.8804C81.3932 56.1866 85.8621 51.7288 85.8621 46.2298V15.0738C85.8621 9.57479 81.3932 5.11697 75.8804 5.11697H49.1823C43.6696 5.11697 39.2006 9.57478 39.2006 15.0738V46.2298C39.2006 51.7288 43.6696 56.1866 49.1823 56.1866H65.4358C65.9369 56.1866 66.3432 56.5919 66.3432 57.0918C66.3432 57.5917 65.9369 57.9969 65.4358 57.9969H49.1823C42.6672 57.9969 37.3857 52.7286 37.3857 46.2298V15.0738Z" fill="currentcolor"/>
<path fill-rule="evenodd" clip-rule="evenodd" d="M45.8117 33.4348C45.8117 32.435 46.6242 31.6244 47.6265 31.6244H77.5826C78.5849 31.6244 79.3974 32.435 79.3974 33.4348C79.3974 34.4346 78.5849 35.2451 77.5826 35.2451H47.6265C46.6242 35.2451 45.8117 34.4346 45.8117 33.4348Z" fill="currentcolor"/>
<path fill-rule="evenodd" clip-rule="evenodd" d="M45.8117 24.0279C45.8117 23.0281 46.6242 22.2176 47.6265 22.2176H77.5826C78.5849 22.2176 79.3974 23.0281 79.3974 24.0279C79.3974 25.0278 78.5849 25.8383 77.5826 25.8383H47.6265C46.6242 25.8383 45.8117 25.0278 45.8117 24.0279Z" fill="currentcolor"/>
<path fill-rule="evenodd" clip-rule="evenodd" d="M45.8115 14.9773C45.8115 13.9775 46.6241 13.167 47.6264 13.167H77.5824C78.5847 13.167 79.3973 13.9775 79.3973 14.9773C79.3973 15.9771 78.5847 16.7877 77.5824 16.7877H47.6264C46.6241 16.7877 45.8115 15.9771 45.8115 14.9773Z" fill="currentcolor"/>
<path fill-rule="evenodd" clip-rule="evenodd" d="M45.8117 42.2526C45.8117 41.2527 46.6242 40.4422 47.6265 40.4422H63.8884C64.8907 40.4422 65.7032 41.2527 65.7032 42.2526C65.7032 43.2524 64.8907 44.0629 63.8884 44.0629H47.6265C46.6242 44.0629 45.8117 43.2524 45.8117 42.2526Z" fill="currentcolor"/>
</g>
</g>
</svg>
