<?xml version="1.0" encoding="UTF-8" standalone="no"?>
<svg width="100%" height="100%" viewBox="0 0 24 24" version="1.1" xmlns="http://www.w3.org/2000/svg" fill="black">
  <g id="circle-check" transform="matrix(0.857143,0,0,0.857143,0,0)">
    <path d="M14,0C21.727,0 28,6.273 28,14C28,21.727 21.727,28 14,28C6.273,28 0,21.727 0,14C0,6.273 6.273,0 14,0ZM18.624,9.293L11.997,15.919C11.997,15.919 9.371,13.293 9.371,13.293C8.981,12.903 8.347,12.903 7.957,13.293C7.567,13.683 7.567,14.317 7.957,14.707L11.29,18.04C11.681,18.431 12.314,18.431 12.705,18.04L20.038,10.707C20.428,10.317 20.428,9.683 20.038,9.293C19.648,8.903 19.014,8.903 18.624,9.293Z" />
  </g>
</svg>
