<svg width="20" height="20" viewBox="0 0 20 20" fill="none" xmlns="http://www.w3.org/2000/svg">
<path d="M10.0013 1.66699C5.41797 1.66699 1.66797 5.41699 1.66797 10.0003C1.66797 14.5837 5.41797 18.3337 10.0013 18.3337C14.5846 18.3337 18.3346 14.5837 18.3346 10.0003C18.3346 5.41699 14.5846 1.66699 10.0013 1.66699ZM10.0013 16.667C6.33464 16.667 3.33464 13.667 3.33464 10.0003C3.33464 6.33366 6.33464 3.33366 10.0013 3.33366C13.668 3.33366 16.668 6.33366 16.668 10.0003C16.668 13.667 13.668 16.667 10.0013 16.667Z" fill="#64A8DF"/>
<path d="M11.0833 9.16699H8.91667C8.5 9.16699 8.16667 8.83366 8.16667 8.41699C8.16667 8.00033 8.5 7.66699 8.91667 7.66699H12C12.5 7.66699 12.8333 7.33366 12.8333 6.83366C12.8333 6.33366 12.5 6.00033 12 6.00033H10.8333V5.25033C10.8333 4.75033 10.5 4.41699 10 4.41699C9.5 4.41699 9.16667 4.75033 9.16667 5.25033V6.00033H8.91667C7.58333 6.00033 6.5 7.08366 6.5 8.41699C6.5 9.75033 7.58333 10.8337 8.91667 10.8337H11C11.4167 10.8337 11.75 11.167 11.75 11.5837C11.75 12.0003 11.4167 12.3337 11 12.3337H7.91667C7.41667 12.3337 7.08333 12.667 7.08333 13.167C7.08333 13.667 7.41667 14.0003 7.91667 14.0003H9.16667V14.7503C9.16667 15.2503 9.5 15.5837 10 15.5837C10.5 15.5837 10.8333 15.2503 10.8333 14.7503V14.0003H11.0833C12.4167 14.0003 13.5 12.917 13.5 11.5837C13.5 10.2503 12.4167 9.16699 11.0833 9.16699Z" fill="#64A8DF"/>
</svg>
