<svg width="48" height="48" viewBox="0 0 48 48" fill="none" xmlns="http://www.w3.org/2000/svg">
<circle cx="24" cy="24" r="24" fill="#64A8DF"/>
<path fill-rule="evenodd" clip-rule="evenodd" d="M17.6173 17C16.246 17 15 18.2276 15 19.9724V28.0276C15 29.7724 16.246 31 17.6173 31H30.4787C31.8543 31 33.0741 29.7764 32.9966 28.0731C32.9959 28.0579 32.9955 28.0428 32.9955 28.0276V19.9724C32.9955 18.2276 31.7495 17 30.3783 17H17.6173ZM13 19.9724C13 17.3034 14.9693 15 17.6173 15H30.3783C33.0262 15 34.9955 17.3034 34.9955 19.9724V28.0061C35.1061 30.7062 33.1146 33 30.4787 33H17.6173C14.9693 33 13 30.6966 13 28.0276V19.9724Z" fill="white"/>
<path fill-rule="evenodd" clip-rule="evenodd" d="M17.1302 19.5071C17.4025 19.0266 18.0127 18.8579 18.4932 19.1302L23.172 21.7817C23.7137 22.073 24.2867 22.073 24.8283 21.7817L29.5071 19.1302C29.9876 18.8579 30.5979 19.0266 30.8702 19.5071C31.1425 19.9876 30.9737 20.5979 30.4932 20.8702L25.8057 23.5267L25.7898 23.5355C24.6485 24.1551 23.3519 24.1551 22.2106 23.5355L22.1946 23.5267L17.5071 20.8702C17.0266 20.5979 16.8579 19.9876 17.1302 19.5071Z" fill="white"/>
</svg>
