<svg width="96" height="74" viewBox="0 0 96 74" fill="none" xmlns="http://www.w3.org/2000/svg">
<path d="M7.24517 20.6665C6.93799 19.7359 7.43041 18.7281 8.34504 18.4155L46.0034 5.54627C46.918 5.23371 47.9085 5.73475 48.2157 6.66538L64.7165 56.6553C65.0236 57.586 64.5312 58.5938 63.6166 58.9063L25.9582 71.7756C25.0436 72.0881 24.0531 71.5871 23.7459 70.6564L7.24517 20.6665Z" fill="#64A8DF"/>
<path d="M2.92095 18.4702C2.61377 17.5396 3.10619 16.5318 4.02082 16.2192L41.6792 3.34998C42.5938 3.03742 43.5843 3.53846 43.8915 4.46909L60.3922 54.459C60.6994 55.3897 60.207 56.3975 59.2924 56.71L21.634 69.5793C20.7194 69.8918 19.7289 69.3908 19.4217 68.4602L2.92095 18.4702Z" fill="white"/>
<path fill-rule="evenodd" clip-rule="evenodd" d="M3.46692 14.5322L41.1253 1.66295C42.9545 1.03783 44.9355 2.03992 45.5498 3.90117L62.0506 53.8911C62.665 55.7524 61.6801 57.768 59.8509 58.3931L22.1925 71.2623C20.3633 71.8875 18.3823 70.8854 17.768 69.0241L1.2672 19.0342C0.652827 17.1729 1.63768 15.1573 3.46692 14.5322ZM4.02313 16.2172C3.10851 16.5298 2.61608 17.5376 2.92327 18.4682L19.424 68.4582C19.7312 69.3888 20.7217 69.8898 21.6363 69.5773L59.2947 56.708C60.2093 56.3955 60.7017 55.3877 60.3945 54.4571L43.8938 4.46711C43.5866 3.53648 42.5961 3.03544 41.6815 3.348L4.02313 16.2172Z" fill="#64A8DF"/>
<path fill-rule="evenodd" clip-rule="evenodd" d="M14.2005 25.7321C14.0469 25.2668 14.2931 24.7629 14.7504 24.6066L37.1818 16.941C37.6391 16.7847 38.1343 17.0353 38.2879 17.5006C38.4415 17.9659 38.1953 18.4698 37.738 18.6261L15.3066 26.2917C14.8493 26.448 14.3541 26.1974 14.2005 25.7321Z" fill="#64A8DF"/>
<path fill-rule="evenodd" clip-rule="evenodd" d="M15.9891 31.1516C15.8355 30.6863 16.0818 30.1824 16.5391 30.0261L38.9704 22.3605C39.4277 22.2042 39.923 22.4547 40.0766 22.92C40.2301 23.3853 39.9839 23.8892 39.5266 24.0455L17.0953 31.7111C16.638 31.8674 16.1427 31.6169 15.9891 31.1516Z" fill="#64A8DF"/>
<path fill-rule="evenodd" clip-rule="evenodd" d="M17.7784 36.5711C17.6248 36.1058 17.871 35.6019 18.3283 35.4456L40.7597 27.78C41.217 27.6238 41.7122 27.8743 41.8658 28.3396C42.0194 28.8049 41.7732 29.3088 41.3159 29.4651L18.8846 37.1307C18.4272 37.287 17.932 37.0365 17.7784 36.5711Z" fill="#64A8DF"/>
<path fill-rule="evenodd" clip-rule="evenodd" d="M19.5671 41.9905C19.4135 41.5252 19.6597 41.0213 20.117 40.865L42.5484 33.1994C43.0057 33.0431 43.5009 33.2936 43.6545 33.7589C43.8081 34.2242 43.5619 34.7281 43.1046 34.8844L20.6732 42.55C20.2159 42.7063 19.7207 42.4558 19.5671 41.9905Z" fill="#64A8DF"/>
<path fill-rule="evenodd" clip-rule="evenodd" d="M21.3557 47.4097C21.2021 46.9444 21.4484 46.4405 21.9057 46.2842L44.337 38.6186C44.7943 38.4623 45.2896 38.7128 45.4432 39.1782C45.5968 39.6435 45.3505 40.1474 44.8932 40.3037L22.4619 47.9693C22.0046 48.1256 21.5093 47.875 21.3557 47.4097Z" fill="#64A8DF"/>
<path fill-rule="evenodd" clip-rule="evenodd" d="M33.8564 49.1611C34.0103 49.6263 33.7644 50.1304 33.3072 50.287L24.2511 53.3885C23.7939 53.5451 23.2985 53.2949 23.1446 52.8297C22.9907 52.3645 23.2366 51.8604 23.6938 51.7038L32.7499 48.6023C33.2071 48.4457 33.7025 48.6959 33.8564 49.1611Z" fill="#64A8DF"/>
<path d="M51.5734 6.64444C51.8276 5.69741 52.7882 5.13936 53.719 5.398L92.0411 16.0472C92.9718 16.3058 93.5203 17.2832 93.2661 18.2302L79.6119 69.1013C79.3577 70.0483 78.3971 70.6064 77.4663 70.3477L39.1442 59.6985C38.2135 59.4399 37.665 58.4625 37.9192 57.5155L51.5734 6.64444Z" fill="white"/>
<path fill-rule="evenodd" clip-rule="evenodd" d="M54.1801 3.68071L92.5024 14.3293C94.3639 14.8466 95.4608 16.8014 94.9524 18.6954L81.2989 69.5667C80.7905 71.4607 78.8694 72.5769 77.0079 72.0596L38.6856 61.411C36.8241 60.8937 35.7272 58.939 36.2356 57.0449L49.8891 6.17366C50.3975 4.27959 52.3186 3.16346 54.1801 3.68071ZM53.7199 5.39547C52.7891 5.13684 51.8286 5.69491 51.5744 6.64194L37.9208 57.5132C37.6667 58.4602 38.2151 59.4376 39.1459 59.6962L77.4681 70.3449C78.3989 70.6035 79.3595 70.0454 79.6136 69.0984L93.2672 18.2272C93.5213 17.2801 92.9729 16.3027 92.0421 16.0441L53.7199 5.39547Z" fill="#64A8DF"/>
<path fill-rule="evenodd" clip-rule="evenodd" d="M70.2673 51.0135C70.6047 51.1106 70.8523 51.4037 70.8961 51.7577L71.975 60.4865C72.0352 60.9735 71.696 61.418 71.2173 61.4793C70.7387 61.5405 70.3019 61.1954 70.2417 60.7083L69.4199 54.06L65.2534 59.3379C64.9513 59.7206 64.4015 59.7816 64.0254 59.4742C63.6493 59.1668 63.5893 58.6074 63.8914 58.2247L69.3484 51.3121C69.5681 51.0339 69.9299 50.9163 70.2673 51.0135Z" fill="#64A8DF"/>
<path fill-rule="evenodd" clip-rule="evenodd" d="M66.1629 55.6953C66.29 55.2218 66.7703 54.9427 67.2357 55.072L70.8807 56.085C71.3461 56.2143 71.6203 56.703 71.4932 57.1765C71.3661 57.65 70.8859 57.929 70.4205 57.7997L66.7754 56.7868C66.3101 56.6575 66.0358 56.1688 66.1629 55.6953Z" fill="#64A8DF"/>
<path fill-rule="evenodd" clip-rule="evenodd" d="M75.5082 55.7908C75.9735 55.9201 76.2478 56.4088 76.1207 56.8823L75.4341 59.4401C75.307 59.9137 74.8267 60.1927 74.3614 60.0634C73.896 59.934 73.6218 59.4453 73.7489 58.9718L74.4354 56.414C74.5625 55.9405 75.0428 55.6615 75.5082 55.7908Z" fill="#64A8DF"/>
<path fill-rule="evenodd" clip-rule="evenodd" d="M77.0296 58.5078C76.9025 58.9813 76.4223 59.2603 75.9569 59.131L73.4431 58.4324C72.9777 58.3031 72.7035 57.8144 72.8306 57.3409C72.9577 56.8674 73.4379 56.5884 73.9033 56.7177L76.4171 57.4162C76.8825 57.5456 77.1567 58.0343 77.0296 58.5078Z" fill="#64A8DF"/>
<path d="M77.0317 34.944C77.7932 34.5017 78.058 33.5149 77.6232 32.7401C77.1885 31.9653 76.2187 31.6959 75.4572 32.1382L66.1247 37.56C65.2868 38.0468 64.2198 37.7503 63.7414 36.8977L60.7543 31.5745C60.3195 30.7997 59.3498 30.5302 58.5883 30.9726C57.8269 31.415 57.562 32.4017 57.9968 33.1765L61.849 40.0415C61.8496 40.0425 61.8492 40.0439 61.8482 40.0445C61.8471 40.0451 61.8468 40.0464 61.8474 40.0475L63.4197 42.8494C63.4203 42.8505 63.4216 42.8509 63.4226 42.8503L63.4227 42.8502C63.4237 42.8497 63.425 42.85 63.4256 42.851C63.4261 42.8521 63.4274 42.8524 63.4285 42.8519L66.1823 41.252C66.1833 41.2514 66.1837 41.2501 66.1831 41.249C66.1825 41.248 66.1829 41.2467 66.1839 41.2461L77.0317 34.944Z" fill="white"/>
<path fill-rule="evenodd" clip-rule="evenodd" d="M65.2572 36.013L74.5898 30.5912C76.1891 29.662 78.2259 30.228 79.1391 31.8554C80.0522 33.4827 79.496 35.5552 77.8966 36.4843L67.1518 42.7266C67.1179 42.7495 67.0831 42.7714 67.0473 42.7923L64.2934 44.3921C63.8772 44.6339 63.4044 44.6827 62.9752 44.5661C62.537 44.4488 62.1437 44.1594 61.9013 43.7274L60.329 40.9254C60.3083 40.8886 60.2891 40.8513 60.2712 40.8136L56.4784 34.0545C55.5652 32.4271 56.1215 30.3547 57.7209 29.4256C59.3202 28.4964 61.357 29.0624 62.2702 30.6897L65.2572 36.013ZM77.622 32.7367C78.0567 33.5115 77.7919 34.4983 77.0304 34.9406L66.1826 41.2427C66.1816 41.2433 66.1813 41.2446 66.1818 41.2457C66.1821 41.246 66.1821 41.2464 66.1821 41.2468C66.1821 41.2476 66.1817 41.2482 66.1811 41.2486L63.4272 42.8485C63.4262 42.8491 63.4249 42.8487 63.4243 42.8477C63.4237 42.8466 63.4224 42.8463 63.4214 42.8469L63.4214 42.8469C63.4203 42.8475 63.419 42.8471 63.4184 42.8461L61.8461 40.0441C61.8455 40.043 61.8459 40.0417 61.8469 40.0411C61.848 40.0405 61.8483 40.0391 61.8477 40.0381L57.9955 33.1731C57.5608 32.3983 57.8256 31.4116 58.5871 30.9692C59.3485 30.5268 60.3183 30.7963 60.7531 31.5711L63.7401 36.8943C64.2185 37.7469 65.2856 38.0434 66.1234 37.5566L75.456 32.1348C76.2175 31.6925 77.1872 31.9619 77.622 32.7367Z" fill="#64A8DF"/>
</svg>
