<svg width="67" height="96" viewBox="0 0 67 96" fill="none" xmlns="http://www.w3.org/2000/svg">
<path fill-rule="evenodd" clip-rule="evenodd" d="M33.5295 70.5645C34.5819 70.5645 35.435 71.4182 35.435 72.4713V89.108C35.435 90.1611 34.5819 91.0148 33.5295 91.0148C32.4772 91.0148 31.624 90.1611 31.624 89.108V72.4713C31.624 71.4182 32.4772 70.5645 33.5295 70.5645Z" fill="#64A8DF"/>
<path fill-rule="evenodd" clip-rule="evenodd" d="M34.7112 1.67404C34.8398 2.71929 34.0973 3.67098 33.0528 3.79969C30.2217 4.14856 27.3872 4.87064 24.6126 5.99458C7.57632 12.8957 -0.6439 32.3109 6.25225 49.3595C13.1484 66.4081 32.5495 74.6343 49.5858 67.7331C52.628 66.5008 55.3863 64.8711 57.827 62.9292C58.6508 62.2738 59.8495 62.4107 60.5045 63.2351C61.1594 64.0594 61.0225 65.259 60.1988 65.9144C57.4751 68.0815 54.4002 69.8973 51.0157 71.2683C32.0285 78.9597 10.4056 69.7915 2.71967 50.7905C-4.96623 31.7894 4.19537 10.1509 23.1827 2.45944C26.2691 1.20918 29.4279 0.403782 32.5871 0.0144911C33.6316 -0.114219 34.5826 0.628785 34.7112 1.67404Z" fill="#64A8DF"/>
<path fill-rule="evenodd" clip-rule="evenodd" d="M21.0908 0.913227C22.0296 0.43734 23.1762 0.813169 23.6517 1.75266L57.713 69.0451C58.1885 69.9846 57.813 71.132 56.8741 71.6078C55.9353 72.0837 54.7888 71.7079 54.3132 70.7684L20.2519 3.476C19.7764 2.53651 20.152 1.38911 21.0908 0.913227Z" fill="#64A8DF"/>
<path d="M65.0949 37.6195C65.0949 53.1625 52.5039 65.7625 36.9722 65.7625C21.4405 65.7625 8.84961 53.1625 8.84961 37.6195C8.84961 22.0766 21.4405 9.47656 36.9722 9.47656C52.5039 9.47656 65.0949 22.0766 65.0949 37.6195Z" fill="white"/>
<path fill-rule="evenodd" clip-rule="evenodd" d="M66.9996 37.6202C66.9996 54.2163 53.5556 67.6701 36.9715 67.6701C20.3874 67.6701 6.94336 54.2163 6.94336 37.6202C6.94336 21.0241 20.3874 7.57031 36.9715 7.57031C53.5556 7.57031 66.9996 21.0241 66.9996 37.6202ZM36.9715 65.7632C52.5032 65.7632 65.0941 53.1631 65.0941 37.6202C65.0941 22.0772 52.5032 9.4772 36.9715 9.4772C21.4398 9.4772 8.84887 22.0772 8.84887 37.6202C8.84887 53.1631 21.4398 65.7632 36.9715 65.7632Z" fill="#64A8DF"/>
<path fill-rule="evenodd" clip-rule="evenodd" d="M28.0551 20.5356C28.3307 20.223 28.7773 20.1258 29.1577 20.2957L37.074 23.8301C37.0867 23.8358 37.0993 23.8418 37.1118 23.848L41.2527 25.9199C41.6674 26.1275 41.8727 26.6037 41.7388 27.048L39.4248 34.7263C39.3034 35.1289 38.9328 35.4044 38.5126 35.4044H34.285L34.6209 37.3542L38.9474 39.5745C39.2088 39.7087 39.3938 39.9562 39.4486 40.2451C39.5034 40.534 39.422 40.832 39.2278 41.0528L34.1066 46.8766V50.295C34.1066 50.5725 33.9858 50.8363 33.7756 51.0175L29.3912 54.7956C29.0571 55.0836 28.5691 55.1044 28.2117 54.8461L23.8574 51.699L18.8957 48.6715C18.6932 48.5479 18.544 48.3531 18.4774 48.1252L17.0159 43.1283C16.9502 42.9037 16.9694 42.6628 17.0697 42.4514L19.2004 37.9624L17.0526 32.8718C16.9423 32.6104 16.9541 32.3134 17.0847 32.0616L20.373 25.724C20.3931 25.6852 20.4159 25.6479 20.4411 25.6122L22.5115 22.6872C22.6901 22.4348 22.98 22.2848 23.289 22.2848H26.5127L28.0551 20.5356ZM29.0207 22.3226L27.6571 23.8691C27.4762 24.0742 27.216 24.1917 26.9427 24.1917H23.7817L22.034 26.6609L18.9821 32.5427L21.122 37.6145C21.2277 37.8651 21.2215 38.1488 21.1049 38.3945L18.9467 42.9414L20.2026 47.2355L24.8811 50.0903C24.9022 50.1032 24.9229 50.1169 24.9429 50.1314L28.7177 52.8596L32.2011 49.8578V46.5168C32.2011 46.2849 32.2856 46.061 32.4386 45.8869L36.9888 40.7125L33.3281 38.8338C33.0616 38.697 32.8748 38.4428 32.8239 38.1474L32.215 34.613C32.1672 34.3358 32.2442 34.0518 32.4252 33.8367C32.6062 33.6216 32.8729 33.4975 33.1539 33.4975H37.8048L39.6827 27.2663L36.2784 25.563L29.0207 22.3226Z" fill="#64A8DF"/>
<path fill-rule="evenodd" clip-rule="evenodd" d="M58.6907 31.813C58.9829 31.984 59.1625 32.2973 59.1625 32.6361V39.3787C59.1625 39.5154 59.1331 39.6506 59.0762 39.7751L56.8189 44.7165V49.4925C56.8189 49.8537 56.615 50.1838 56.2922 50.3453L49.5545 53.7166C49.2881 53.8499 48.9748 53.8509 48.7076 53.7192C48.4404 53.5875 48.2501 53.3384 48.1932 53.0458L47.1679 47.769C47.1333 47.5908 47.1502 47.4064 47.2167 47.2376L49.0192 42.6587L48.1931 38.3872C48.1503 38.166 48.1872 37.9368 48.2972 37.7402L50.3478 34.0757C50.4957 33.8113 50.7604 33.6331 51.0609 33.5955L55.5622 33.0324L57.7426 31.8051C58.0376 31.639 58.3985 31.642 58.6907 31.813ZM57.257 34.2663L56.3333 34.7863C56.2255 34.8469 56.107 34.886 55.9843 34.9013L51.7751 35.4279L50.1301 38.3674L50.9427 42.5688C50.9771 42.7467 50.9601 42.9308 50.8937 43.0994L49.0914 47.6779L49.8243 51.4497L54.9134 48.9033V44.5089C54.9134 44.3721 54.9428 44.2369 54.9997 44.1125L57.257 39.1711V34.2663Z" fill="#64A8DF"/>
<path d="M33.253 83.2314C24.2719 83.2314 16.9912 86.8496 16.9912 91.3129H49.5148C49.5148 86.8496 42.2342 83.2314 33.253 83.2314Z" fill="white"/>
<path fill-rule="evenodd" clip-rule="evenodd" d="M16.9915 93.2194C15.9391 93.2194 15.0859 92.3657 15.0859 91.3125C15.0859 87.9627 17.7664 85.4509 20.9069 83.8902C24.1651 82.271 28.5328 81.3242 33.2533 81.3242C37.9737 81.3242 42.3414 82.271 45.5996 83.8902C48.7401 85.4509 51.4206 87.9627 51.4206 91.3125C51.4206 92.3657 50.5674 93.2194 49.5151 93.2194H16.9915ZM49.0597 89.4057C47.3352 85.8626 40.9126 83.2311 33.2533 83.2311C25.5939 83.2311 19.1714 85.8626 17.4468 89.4057C17.1492 90.0171 16.9915 90.6557 16.9915 91.3125H49.5151C49.5151 90.6557 49.3574 90.0171 49.0597 89.4057Z" fill="#64A8DF"/>
<path d="M12.5107 93.1789C12.5107 92.6745 12.9194 92.2656 13.4234 92.2656H53.6354C54.1395 92.2656 54.5481 92.6745 54.5481 93.1789C54.5481 93.6833 54.1395 94.0923 53.6354 94.0923H13.4234C12.9194 94.0923 12.5107 93.6833 12.5107 93.1789Z" fill="#64A8DF"/>
<path fill-rule="evenodd" clip-rule="evenodd" d="M53.6356 94.0929C54.1397 94.0929 54.5483 93.684 54.5483 93.1796C54.5483 92.6752 54.1397 92.2663 53.6356 92.2663H13.4236C12.9196 92.2663 12.511 92.6752 12.511 93.1796C12.511 93.684 12.9196 94.0929 13.4236 94.0929H53.6356ZM13.4236 90.3594H53.6356C55.1921 90.3594 56.4538 91.622 56.4538 93.1796C56.4538 94.7371 55.1921 95.9998 53.6356 95.9998H13.4236C11.8672 95.9998 10.6055 94.7371 10.6055 93.1796C10.6055 91.622 11.8672 90.3594 13.4236 90.3594Z" fill="#64A8DF"/>
</svg>
