<?xml version="1.0" encoding="UTF-8" standalone="no"?>
<!DOCTYPE svg PUBLIC "-//W3C//DTD SVG 1.1//EN" "http://www.w3.org/Graphics/SVG/1.1/DTD/svg11.dtd">
<svg width="100%" height="100%" viewBox="0 0 20 10" version="1.1" xmlns="http://www.w3.org/2000/svg" xmlns:xlink="http://www.w3.org/1999/xlink" xml:space="preserve" xmlns:serif="http://www.serif.com/" style="fill-rule:evenodd;clip-rule:evenodd;stroke-linejoin:round;stroke-miterlimit:2;">
    <g transform="matrix(0.152138,0,0,0.152138,3.18733,1.54202)">
        <path d="M44.73,14.691L42.689,12.066C41.142,10.066 39.595,8.441 38.049,7.004C34.028,3.379 29.512,1.191 24.686,0.566C23.696,0.441 22.706,0.379 21.655,0.379C20.046,0.379 18.438,0.504 16.953,0.816C14.107,3.816 11.076,7.816 9.344,12.566C9.653,12.129 10.21,11.441 10.643,11.004L10.705,11.004C13.179,8.441 16.767,6.754 21.717,6.754C30.501,6.754 36.007,13.066 40.214,19.254L40.771,20.066L41.142,20.629L44.73,14.691Z" style="fill:rgb(239,219,52);fill-rule:nonzero;"/>
    </g>
    <g transform="matrix(0.152138,0,0,0.152138,3.18733,1.54202)">
        <path d="M79.619,29.568C79.557,29.631 79.557,29.631 79.557,29.693L79.495,29.756C77.082,32.693 73.247,34.693 67.865,34.693C59.08,34.693 53.574,28.381 49.367,22.193L48.81,21.381L48.439,20.818L44.789,26.756L44.789,26.818L46.831,29.443C48.377,31.443 49.924,33.068 51.47,34.506C55.492,38.131 60.008,40.318 64.833,40.943C65.823,41.068 66.813,41.131 67.865,41.131C69.473,41.131 71.081,41.006 72.566,40.693C75.412,37.693 78.443,33.693 80.176,28.943L79.619,29.568Z" style="fill:rgb(206,218,66);fill-rule:nonzero;"/>
    </g>
    <g transform="matrix(0.152138,0,0,0.152138,3.18733,1.54202)">
        <path d="M75.04,1.496C74.978,1.496 74.978,1.434 74.916,1.434C74.668,1.371 74.421,1.309 74.174,1.246C73.74,1.121 73.369,1.059 72.936,0.934C72.751,0.871 72.565,0.871 72.379,0.809C71.946,0.746 71.452,0.684 71.018,0.621C70.895,0.621 70.709,0.621 70.585,0.559C70.09,0.496 69.596,0.496 69.101,0.496L68.915,0.496C68.42,0.496 67.925,0.559 67.43,0.559L66.688,0.559C66.441,0.559 66.131,0.621 65.884,0.621C65.451,0.684 64.956,0.684 64.523,0.809C64.213,0.871 63.904,0.934 63.595,0.996C63.224,1.059 62.852,1.121 62.481,1.246C62.172,1.309 61.801,1.371 61.491,1.496C61.368,1.559 61.244,1.559 61.12,1.621C58.151,2.434 55.49,3.809 53.016,5.684C52.954,5.684 52.954,5.746 52.892,5.746C52.583,5.996 52.274,6.184 52.026,6.434C51.84,6.559 51.655,6.746 51.469,6.934C51.284,7.121 51.098,7.246 50.913,7.434C50.851,7.496 50.789,7.559 50.727,7.621C50.665,7.684 50.665,7.684 50.603,7.746C46.829,11.309 44.664,14.746 44.664,14.746L41.014,20.684L40.086,22.184C39.777,22.621 39.468,23.121 39.158,23.559C39.096,23.684 38.973,23.809 38.911,23.934C38.663,24.309 38.416,24.684 38.106,24.996C38.045,25.121 37.921,25.246 37.859,25.371C37.179,26.309 36.436,27.184 35.632,28.059C35.57,28.184 35.446,28.246 35.385,28.309C35.075,28.684 34.704,28.996 34.333,29.309C34.271,29.371 34.147,29.496 34.085,29.559C33.219,30.371 32.229,31.059 31.24,31.684C31.116,31.746 30.992,31.809 30.93,31.871C30.497,32.121 30.064,32.371 29.569,32.559L29.507,32.621C29.446,32.621 29.446,32.684 29.384,32.684C23.63,37.496 17.382,38.871 12.309,39.059C12.99,39.371 13.732,39.684 14.474,39.934C14.536,39.934 14.536,39.996 14.598,39.996C14.846,40.059 15.093,40.121 15.341,40.184C15.774,40.309 16.145,40.371 16.578,40.496C16.763,40.559 16.949,40.559 17.135,40.621C17.568,40.684 18.063,40.746 18.496,40.809C18.619,40.809 18.805,40.809 18.929,40.871C19.424,40.934 19.918,40.934 20.413,40.934L20.599,40.934C21.094,40.934 21.589,40.871 22.084,40.871L22.826,40.871C23.074,40.871 23.383,40.809 23.63,40.809C24.063,40.746 24.558,40.746 24.991,40.621C25.301,40.559 25.61,40.496 25.919,40.434C26.29,40.371 26.662,40.309 27.033,40.184C27.342,40.121 27.713,40.059 28.023,39.934C28.146,39.871 28.27,39.871 28.394,39.809C31.735,38.871 34.766,37.246 37.55,34.996C37.983,34.621 38.416,34.246 38.849,33.809C39.282,33.371 39.715,32.934 40.148,32.496C40.581,32.059 41.014,31.559 41.447,31.059C41.88,30.559 42.313,29.996 42.746,29.496L44.355,27.434L44.912,26.746L48.562,20.809L48.933,20.184L49.49,19.371C49.799,18.934 50.108,18.434 50.418,17.996C50.479,17.871 50.603,17.746 50.665,17.621C50.913,17.246 51.16,16.871 51.469,16.559C51.531,16.434 51.655,16.309 51.717,16.184C52.397,15.246 53.14,14.371 53.944,13.496C54.006,13.371 54.129,13.309 54.191,13.246C54.501,12.871 54.872,12.559 55.243,12.246C55.305,12.184 55.429,12.059 55.49,11.996C56.357,11.184 57.346,10.496 58.336,9.871C58.46,9.809 58.584,9.746 58.646,9.684C59.079,9.434 59.512,9.184 60.007,8.996L60.068,8.934C60.13,8.934 60.13,8.871 60.192,8.871C65.946,4.059 72.194,2.684 77.267,2.496C76.524,1.996 75.782,1.746 75.04,1.496Z" style="fill:rgb(142,75,152);fill-rule:nonzero;"/>
    </g>
    <g transform="matrix(0.152138,0,0,0.152138,3.18733,1.54202)">
        <path d="M16.58,33.943C16.27,33.881 15.961,33.756 15.652,33.631C15.59,33.631 15.528,33.631 15.528,33.568L15.466,33.568C15.157,33.443 14.847,33.318 14.538,33.193C14.414,33.131 14.291,33.068 14.167,33.006C13.981,32.881 13.796,32.818 13.61,32.693C13.486,32.631 13.301,32.568 13.177,32.443C13.053,32.381 12.93,32.256 12.806,32.193C9.094,29.693 6.681,25.506 6.681,20.693C6.681,17.631 7.671,14.881 9.28,12.568C11.012,7.818 14.105,3.818 16.889,0.818C16.147,0.943 15.466,1.131 14.786,1.318L14.724,1.318C14.414,1.443 14.043,1.506 13.734,1.631C13.425,1.756 13.115,1.881 12.806,2.006C12.806,2.006 12.744,2.006 12.744,2.068C11.445,2.631 10.208,3.256 9.094,4.006C7.98,4.756 6.929,5.631 6.001,6.631C2.474,10.381 0.495,15.506 0.371,21.068C0.557,29.068 5.382,35.943 12.187,39.068C17.26,38.943 23.508,37.506 29.262,32.693C29.262,32.693 29.076,32.756 28.953,32.818C28.829,32.881 28.643,32.943 28.519,33.006C28.21,33.131 27.963,33.256 27.653,33.318C27.468,33.381 27.282,33.443 27.158,33.506C26.849,33.631 26.478,33.693 26.107,33.818C25.983,33.881 25.859,33.881 25.735,33.943C25.241,34.068 24.808,34.131 24.251,34.256C24.127,34.256 23.941,34.318 23.818,34.318C23.447,34.381 23.014,34.443 22.642,34.443C22.457,34.443 22.333,34.443 22.147,34.506C21.591,34.568 21.034,34.568 20.415,34.568C19.611,34.568 18.745,34.506 17.941,34.318C17.879,34.318 17.755,34.256 17.693,34.256C17.508,34.193 17.322,34.193 17.198,34.131C16.951,34.068 16.765,34.006 16.58,33.943Z" style="fill:rgb(222,138,46);fill-rule:nonzero;"/>
    </g>
    <g transform="matrix(0.152138,0,0,0.152138,3.18733,1.54202)">
        <path d="M74.725,1.377C74.602,1.314 74.478,1.314 74.416,1.252C74.354,1.252 74.23,1.189 74.169,1.189C74.416,1.252 74.663,1.314 74.911,1.377C74.849,1.439 74.787,1.439 74.725,1.377Z" style="fill:rgb(86,66,146);fill-rule:nonzero;"/>
    </g>
    <g transform="matrix(0.152138,0,0,0.152138,3.18733,1.54202)">
        <path d="M72.866,7.438C73.175,7.5 73.485,7.625 73.794,7.75C73.856,7.75 73.918,7.75 73.918,7.812L73.98,7.812C74.289,7.937 74.598,8.063 74.908,8.188C75.031,8.25 75.155,8.313 75.279,8.375C75.464,8.5 75.65,8.563 75.836,8.688C75.959,8.75 76.145,8.813 76.269,8.938C76.392,9 76.516,9.125 76.64,9.188C80.352,11.688 82.764,15.875 82.764,20.688C82.764,23.75 81.775,26.5 80.166,28.813C78.434,33.563 75.341,37.563 72.557,40.563C73.299,40.438 73.98,40.25 74.66,40.063L74.722,40.063C75.031,39.938 75.402,39.875 75.712,39.75C76.021,39.625 76.33,39.5 76.64,39.375C76.64,39.375 76.702,39.375 76.702,39.313C78.001,38.75 79.238,38.125 80.352,37.375C81.465,36.625 82.517,35.75 83.445,34.75C86.971,31 88.951,25.875 89.075,20.313C88.889,12.313 84.063,5.438 77.258,2.313C72.186,2.438 65.937,3.875 60.184,8.688C60.122,8.688 60.122,8.75 60.06,8.75C60.246,8.687 60.369,8.625 60.555,8.5C60.679,8.438 60.864,8.375 60.988,8.313C61.297,8.188 61.545,8.063 61.854,8C62.04,7.938 62.225,7.875 62.349,7.812C62.658,7.687 63.03,7.625 63.401,7.5C63.525,7.437 63.648,7.438 63.772,7.375C64.267,7.25 64.7,7.188 65.257,7.063C65.38,7.063 65.566,7 65.69,7C66.061,6.938 66.494,6.875 66.865,6.875C67.051,6.875 67.175,6.875 67.36,6.813C67.917,6.75 68.474,6.75 69.092,6.75C69.897,6.75 70.763,6.813 71.567,7C71.629,7 71.752,7.063 71.814,7.063C72,7.125 72.186,7.125 72.309,7.187C72.495,7.375 72.68,7.375 72.866,7.438Z" style="fill:rgb(100,168,223);fill-rule:nonzero;"/>
    </g>
</svg>
