<svg width="18" height="18" viewBox="0 0 18 18" fill="none" xmlns="http://www.w3.org/2000/svg">
<path d="M10.9683 7.41711C10.9551 7.31311 10.9279 7.21141 10.8841 7.11421C10.8774 7.09941 10.8688 7.08581 10.8614 7.07121C10.8114 6.97231 10.7498 6.87761 10.667 6.79501C9.90005 6.02871 8.89305 5.64551 7.88615 5.64551C6.87935 5.64551 5.87235 6.02851 5.10625 6.79501L1.39951 10.5019C-0.13317 12.0346 -0.13317 14.529 1.39951 16.0622C2.16585 16.8292 3.17325 17.2121 4.17985 17.2121C5.18665 17.2121 6.19395 16.8292 6.96025 16.0622L9.14245 13.88C8.36675 13.7444 7.63425 13.4479 6.98535 13.0033L5.44335 14.5453C4.76875 15.2199 3.59105 15.2199 2.91645 14.5453C2.22029 13.8486 2.22029 12.715 2.91645 12.0188L4.94405 9.99081C4.94465 9.99021 4.94525 9.99001 4.94565 9.98941L6.62295 8.31171C6.79535 8.13971 6.99465 8.01081 7.20735 7.92391C7.31895 7.87821 7.43385 7.84441 7.55085 7.82221C8.11245 7.71591 8.71595 7.87881 9.14985 8.31191C9.56895 8.73091 10.2487 8.73091 10.6667 8.31191C10.8124 8.16631 10.9039 7.98841 10.9485 7.80181C10.9496 7.79681 10.9518 7.79211 10.953 7.78681C10.9765 7.68071 10.9815 7.57241 10.9726 7.46451C10.9714 7.44841 10.9703 7.43301 10.9683 7.41711Z" fill="#1E1515"/>
<path d="M16.5968 1.93993C15.8546 1.19711 14.8672 0.788086 13.8165 0.788086C12.7663 0.788086 11.7787 1.19711 11.0365 1.93993L8.85203 4.1244C9.61253 4.2576 10.3489 4.5494 11.01 5.0004L12.5536 3.4569C13.2288 2.7817 14.4059 2.78228 15.0799 3.4569C15.4172 3.7942 15.6032 4.243 15.6032 4.7203C15.6032 5.1976 15.4174 5.6459 15.0795 5.9831L14.3995 6.6636L14.3971 6.6665L11.3734 9.6898C10.6988 10.3644 9.52172 10.3644 8.84693 9.6898C8.42893 9.2707 7.74893 9.2707 7.33003 9.6898C6.91083 10.1084 6.91083 10.7878 7.33003 11.207C8.07223 11.9498 9.05963 12.3588 10.11 12.3588C11.1601 12.3588 12.1477 11.9498 12.8903 11.207L15.9147 8.1832L15.9176 8.1809L16.597 7.5005C17.3396 6.758 17.7487 5.7709 17.7487 4.7205C17.7487 3.6701 17.3396 2.68275 16.5968 1.93993Z" fill="#1E1515"/>
</svg>
