<svg width="16" height="16" viewBox="0 0 16 16" fill="none" xmlns="http://www.w3.org/2000/svg">
<g opacity="0.4">
<path d="M12.1333 2.26668C10.8666 1.13335 9.19997 0.53335 7.46663 0.73335C4.79997 0.93335 2.59997 2.86668 2.1333 5.33335C1.79997 6.93335 2.1333 8.53335 3.1333 9.86668L6.5333 14.6C6.79997 15.0667 7.39997 15.3334 7.99997 15.3334C8.59997 15.3334 9.19997 15.0667 9.5333 14.5333L12.9333 9.80002C13.6666 8.80002 14 7.66668 14 6.46668C14 4.86668 13.3333 3.33335 12.1333 2.26668Z" fill="#1E1515"/>
<path d="M8.00007 8.73353C9.25191 8.73353 10.2667 7.71871 10.2667 6.46686C10.2667 5.21502 9.25191 4.2002 8.00007 4.2002C6.74822 4.2002 5.7334 5.21502 5.7334 6.46686C5.7334 7.71871 6.74822 8.73353 8.00007 8.73353Z" fill="white"/>
</g>
</svg>
