<svg width="20" height="20" viewBox="0 0 20 20" fill="none" xmlns="http://www.w3.org/2000/svg">
<path fill-rule="evenodd" clip-rule="evenodd" d="M9.21642 0.861104C13.6617 0.490372 17.4064 3.83497 17.5 8.14744L17.5002 8.16553C17.5002 9.67295 17.0281 11.0818 16.1911 12.2916L16.1828 12.3034L11.9531 18.1964C11.9447 18.2081 11.936 18.2196 11.927 18.2308C10.9548 19.4471 9.04268 19.5219 8.10846 18.1928L3.87738 12.2979C2.77447 10.7342 2.1949 8.75998 2.66359 6.67069C3.24151 3.5379 5.97309 1.23166 9.19099 0.863618C9.19945 0.86265 9.20793 0.861812 9.21642 0.861104ZM9.36769 2.52095C6.79214 2.82076 4.72386 4.65424 4.30014 6.9865C4.29797 6.99841 4.29555 7.01028 4.29287 7.02208C3.93973 8.57709 4.35434 10.0811 5.23743 11.3344L9.47099 17.2328C9.69659 17.5554 10.2593 17.6309 10.6137 17.2043L14.8245 11.3377C15.4761 10.3934 15.8317 9.31746 15.8336 8.17458C15.7564 4.85936 12.8752 2.23536 9.36769 2.52095Z" fill="#64A8DF"/>
<path fill-rule="evenodd" clip-rule="evenodd" d="M10 6.58366C9.12555 6.58366 8.41667 7.29254 8.41667 8.16699C8.41667 9.04144 9.12555 9.75033 10 9.75033C10.8745 9.75033 11.5833 9.04144 11.5833 8.16699C11.5833 7.29254 10.8745 6.58366 10 6.58366ZM6.75 8.16699C6.75 6.37207 8.20507 4.91699 10 4.91699C11.7949 4.91699 13.25 6.37207 13.25 8.16699C13.25 9.96192 11.7949 11.417 10 11.417C8.20507 11.417 6.75 9.96192 6.75 8.16699Z" fill="#64A8DF"/>
<path fill-rule="evenodd" clip-rule="evenodd" d="M10 6.58366C9.12555 6.58366 8.41667 7.29254 8.41667 8.16699C8.41667 9.04144 9.12555 9.75033 10 9.75033C10.8745 9.75033 11.5833 9.04144 11.5833 8.16699C11.5833 7.29254 10.8745 6.58366 10 6.58366ZM6.75 8.16699C6.75 6.37207 8.20507 4.91699 10 4.91699C11.7949 4.91699 13.25 6.37207 13.25 8.16699C13.25 9.96192 11.7949 11.417 10 11.417C8.20507 11.417 6.75 9.96192 6.75 8.16699Z" fill="#64A8DF"/>
<path fill-rule="evenodd" clip-rule="evenodd" d="M10 6.58366C9.12555 6.58366 8.41667 7.29254 8.41667 8.16699C8.41667 9.04144 9.12555 9.75033 10 9.75033C10.8745 9.75033 11.5833 9.04144 11.5833 8.16699C11.5833 7.29254 10.8745 6.58366 10 6.58366ZM6.75 8.16699C6.75 6.37207 8.20507 4.91699 10 4.91699C11.7949 4.91699 13.25 6.37207 13.25 8.16699C13.25 9.96192 11.7949 11.417 10 11.417C8.20507 11.417 6.75 9.96192 6.75 8.16699Z" fill="#64A8DF"/>
</svg>
