<svg width="16" height="16" viewBox="0 0 16 16" fill="none" xmlns="http://www.w3.org/2000/svg">
<path d="M12.1328 2.26668C10.8661 1.13335 9.19948 0.53335 7.46615 0.73335C4.79948 0.93335 2.59948 2.86668 2.13281 5.33335C1.79948 6.93335 2.13281 8.53335 3.13281 9.86668L6.53281 14.6C6.79948 15.0667 7.39948 15.3334 7.99948 15.3334C8.59948 15.3334 9.19948 15.0667 9.53281 14.5333L12.9328 9.80002C13.6661 8.80002 13.9995 7.66668 13.9995 6.46668C13.9995 4.86668 13.3328 3.33335 12.1328 2.26668Z" fill="black" fill-opacity="0.4"/>
<path d="M8.00104 8.73353C9.25289 8.73353 10.2677 7.71871 10.2677 6.46686C10.2677 5.21502 9.25289 4.2002 8.00104 4.2002C6.7492 4.2002 5.73438 5.21502 5.73438 6.46686C5.73438 7.71871 6.7492 8.73353 8.00104 8.73353Z" fill="white"/>
</svg>
