<svg width="20" height="17" viewBox="0 0 20 17" fill="none" xmlns="http://www.w3.org/2000/svg">
<path fill-rule="evenodd" clip-rule="evenodd" d="M1.69847 7.41037C6.86638 5.1588 10.3125 3.67442 12.0367 2.95725C16.9598 0.909567 17.9828 0.553863 18.6495 0.542117C18.7962 0.539534 19.1241 0.575878 19.3365 0.748222C19.5158 0.893747 19.5652 1.09033 19.5888 1.2283C19.6124 1.36628 19.6418 1.68058 19.6184 1.92617C19.3516 4.72929 18.1973 11.5317 17.61 14.6713C17.3615 15.9997 16.8722 16.4452 16.3985 16.4887C15.369 16.5835 14.5873 15.8084 13.5902 15.1548C12.03 14.132 11.1485 13.4954 9.63404 12.4973C7.88379 11.344 9.0184 10.71 10.0159 9.67403C10.2769 9.4029 14.8127 5.27721 14.9005 4.90294C14.9115 4.85614 14.9217 4.68166 14.8181 4.58953C14.7144 4.4974 14.5614 4.5289 14.451 4.55396C14.2945 4.58947 11.802 6.23693 6.97349 9.49632C6.266 9.98214 5.62517 10.2188 5.05102 10.2064C4.41806 10.1928 3.20049 9.84855 2.29536 9.55433C1.18518 9.19345 0.302831 9.00266 0.379664 8.38978C0.419683 8.07055 0.859286 7.74408 1.69847 7.41037Z" fill="#26A4E2"/>
</svg>
