<?xml version="1.0" encoding="UTF-8" standalone="no"?>
<svg width="100%" height="100%" viewBox="0 0 667 667" version="1.1" xmlns="http://www.w3.org/2000/svg" xmlns:xlink="http://www.w3.org/1999/xlink" xml:space="preserve" xmlns:serif="http://www.serif.com/" style="fill-rule:evenodd;clip-rule:evenodd;"><g id="circle-arrow-right-filled" style="fill-rule:nonzero;stroke-linejoin:round;stroke-miterlimit:2;"><path d="M333.333,0c184.095,0 333.334,149.238 333.334,333.333c-0,184.095 -149.239,333.334 -333.334,333.334c-184.095,-0 -333.333,-149.239 -333.333,-333.334c0,-184.095 149.238,-333.333 333.333,-333.333Zm26.011,182.299l-2.804,-2.421c-8.699,-6.455 -20.64,-6.534 -29.419,-0.239l-3.132,2.66l-2.421,2.804c-6.455,8.699 -6.534,20.64 -0.239,29.42l2.66,3.131l90.654,90.656l-223,-0l-3.392,0.228c-11.093,1.505 -19.875,10.286 -21.38,21.38l-0.228,3.392l0.228,3.392c1.505,11.093 10.287,19.875 21.38,21.38l3.392,0.228l223,-0l-90.674,90.68l-2.421,2.803c-7.264,9.786 -6.46,23.675 2.414,32.552c8.874,8.877 22.763,9.687 32.551,2.427l2.804,-2.42l133.385,-133.334l2.421,-2.804c6.457,-8.699 6.538,-20.641 0.242,-29.422l-2.66,-3.132l-133.361,-133.361l-2.804,-2.421l2.804,2.421Z"/></g></svg>