<svg width="96" height="82" viewBox="0 0 96 82" fill="none" xmlns="http://www.w3.org/2000/svg">
<path d="M50.4944 13.7556L87.7759 8.3887C90.9697 7.92894 93.8573 10.3232 93.9644 13.5199L95.997 74.1769C96.0944 77.0856 93.8343 79.5409 90.9028 79.7109L51.5887 81.9907C48.4801 82.1709 45.8592 79.721 45.8592 76.6348V19.0649C45.8592 16.3998 47.8332 14.1387 50.4944 13.7556Z" fill="#DE8A2E"/>
<path d="M45.5056 13.7556L8.22406 8.3887C5.03034 7.92894 2.14273 10.3232 2.03561 13.5199L0.00303711 74.1769C-0.0944298 77.0856 2.16572 79.5409 5.09717 79.7109L44.4113 81.9907C47.5199 82.1709 50.1408 79.721 50.1408 76.6348V19.0649C50.1408 16.3998 48.1668 14.1387 45.5056 13.7556Z" fill="#DE8A2E"/>
<path d="M49.6379 11.8557L86.2224 5.74404C87.3025 5.56361 88.2943 6.37069 88.326 7.45576L90.2336 72.7599C90.2617 73.7207 89.5183 74.5317 88.5506 74.596L50.0586 77.1534C49.0168 77.2226 48.1334 76.4038 48.1334 75.369V13.6192C48.1334 12.7462 48.7694 12.0008 49.6379 11.8557Z" fill="white"/>
<path fill-rule="evenodd" clip-rule="evenodd" d="M85.9217 3.97637L49.3373 10.0881C47.6001 10.3783 46.3282 11.8691 46.3282 13.615V75.3648C46.3282 77.4343 48.0951 79.0719 50.1785 78.9335L88.6706 76.3761C90.606 76.2475 92.0927 74.6256 92.0365 72.7039L90.129 7.3998C90.0656 5.22967 88.0819 3.61551 85.9217 3.97637ZM86.2217 5.73984L49.6372 11.8515C48.7686 11.9966 48.1327 12.742 48.1327 13.615V75.3648C48.1327 76.3995 49.0161 77.2183 50.0578 77.1491L88.5499 74.5917C89.5176 74.5274 90.2609 73.7165 90.2329 72.7556L88.3253 7.45155C88.2936 6.36648 87.3017 5.5594 86.2217 5.73984Z" fill="#DE8A2E"/>
<path d="M50.294 11.7168L81.7035 1.87729C82.8458 1.51945 84.0163 2.3439 84.051 3.53073L85.9553 68.721C85.9809 69.5977 85.3613 70.3633 84.4923 70.5289L51.1786 76.8771C50.0657 77.0892 49.0334 76.2441 49.0334 75.1209V13.422C49.0334 12.642 49.5436 11.9519 50.294 11.7168Z" fill="white"/>
<path fill-rule="evenodd" clip-rule="evenodd" d="M81.1628 0.168648L49.7534 10.0082C48.2524 10.4784 47.2322 11.8585 47.2322 13.4186V75.1175C47.2322 77.3637 49.2968 79.0539 51.5224 78.6298L84.8362 72.2816C86.5742 71.9505 87.8134 70.4191 87.7621 68.6658L85.8579 3.47551C85.7885 1.10186 83.4474 -0.547043 81.1628 0.168648ZM81.7067 1.87383L50.2972 11.7134C49.5467 11.9485 49.0366 12.6385 49.0366 13.4186V75.1175C49.0366 76.2406 50.0689 77.0857 51.1817 76.8737L84.4955 70.5255C85.3645 70.3599 85.9841 69.5942 85.9585 68.7175L84.0542 3.52727C84.0195 2.34044 82.849 1.51599 81.7067 1.87383Z" fill="#DE8A2E"/>
<path d="M57.2773 8.25306L62.817 6.46094V21.1581L60.0472 19.474L57.2773 22.2191V8.25306Z" fill="#DE8A2E"/>
<path fill-rule="evenodd" clip-rule="evenodd" d="M55.4707 8.24845C55.4707 7.47459 55.9729 6.78852 56.7152 6.54839L62.2548 4.75626C62.8043 4.57849 63.4065 4.67239 63.8744 5.00881C64.3423 5.34523 64.6192 5.88344 64.6192 6.45632V21.1535C64.6192 21.801 64.2661 22.3978 63.696 22.7141C63.126 23.0303 62.428 23.0164 61.8711 22.6778L60.3145 21.7313L58.5511 23.479C58.035 23.9905 57.2589 24.1435 56.5846 23.8667C55.9103 23.5899 55.4707 22.9378 55.4707 22.2144V8.24845ZM62.8148 21.1535L60.045 19.4693L57.2751 22.2144V8.24845L62.8148 6.45632V21.1535Z" fill="#DE8A2E"/>
<path d="M45.5595 11.8522L9.2302 5.74436C8.14945 5.56266 7.15624 6.37013 7.12472 7.45609L5.22928 72.7586C5.2014 73.7191 5.94424 74.5297 6.9115 74.5944L45.1363 77.1502C46.1783 77.2199 47.0622 76.401 47.0622 75.3659V13.6154C47.0622 12.7431 46.4272 11.9981 45.5595 11.8522Z" fill="white"/>
<path fill-rule="evenodd" clip-rule="evenodd" d="M9.53761 3.98091L45.8669 10.0888C47.6024 10.3805 48.8722 11.8706 48.8722 13.6151V75.3656C48.8722 77.4357 47.1045 79.0736 45.0204 78.9342L6.79566 76.3783C4.86113 76.249 3.37545 74.6278 3.43121 72.7069L5.32665 7.40437C5.38969 5.23246 7.37611 3.61751 9.53761 3.98091ZM9.23582 5.74406L45.5652 11.8519C46.4329 11.9978 47.0678 12.7428 47.0678 13.6151V75.3656C47.0678 76.4007 46.1839 77.2196 45.1419 77.1499L6.91713 74.5941C5.94986 74.5294 5.20702 73.7188 5.2349 72.7584L7.13034 7.4558C7.16186 6.36984 8.15507 5.56236 9.23582 5.74406Z" fill="#DE8A2E"/>
<path fill-rule="evenodd" clip-rule="evenodd" d="M37.0224 29.5986C38.2129 29.0753 39.5736 29.1259 40.6126 29.612C41.0632 29.8229 41.256 30.3558 41.0433 30.8024C40.8306 31.2489 40.2929 31.44 39.8423 31.2292C39.2746 30.9636 38.4621 30.9221 37.754 31.2334C37.0897 31.5254 36.467 32.1499 36.2619 33.3418C36.0582 34.5257 36.3283 35.6596 36.9247 36.412C37.4901 37.1252 38.41 37.5795 39.7678 37.3518C40.2591 37.2694 40.7248 37.5973 40.8079 38.0842C40.8911 38.5711 40.5602 39.0326 40.0689 39.115C38.0909 39.4468 36.4989 38.7696 35.5058 37.5168C34.5436 36.3031 34.2087 34.6362 34.4831 33.0412C34.7865 31.278 35.7879 30.1412 37.0224 29.5986Z" fill="#DE8A2E"/>
<path fill-rule="evenodd" clip-rule="evenodd" d="M82.1435 25.1292C82.0479 24.6445 81.5741 24.3283 81.085 24.423L52.3157 29.9929C51.8266 30.0876 51.5076 30.5573 51.6032 31.042C51.6987 31.5266 52.1726 31.8428 52.6616 31.7481L81.431 26.1782C81.92 26.0835 82.239 25.6138 82.1435 25.1292Z" fill="#DE8A2E"/>
<path fill-rule="evenodd" clip-rule="evenodd" d="M82.1435 29.2404C82.0479 28.7557 81.5741 28.4395 81.085 28.5342L52.3157 34.1041C51.8266 34.1988 51.5076 34.6685 51.6032 35.1532C51.6987 35.6378 52.1726 35.954 52.6616 35.8593L81.431 30.2894C81.92 30.1947 82.239 29.725 82.1435 29.2404Z" fill="#DE8A2E"/>
<path fill-rule="evenodd" clip-rule="evenodd" d="M82.1435 45.7514C82.0479 45.2667 81.5741 44.9505 81.085 45.0452L52.3157 50.6151C51.8266 50.7098 51.5076 51.1795 51.6032 51.6642C51.6987 52.1488 52.1726 52.465 52.6616 52.3703L81.431 46.8004C81.92 46.7057 82.239 46.236 82.1435 45.7514Z" fill="#DE8A2E"/>
<path fill-rule="evenodd" clip-rule="evenodd" d="M82.1435 33.4842C82.0479 32.9996 81.5741 32.6834 81.085 32.7781L52.3157 38.348C51.8266 38.4427 51.5076 38.9124 51.6032 39.397C51.6987 39.8817 52.1726 40.1979 52.6616 40.1032L81.431 34.5333C81.92 34.4386 82.239 33.9689 82.1435 33.4842Z" fill="#DE8A2E"/>
<path fill-rule="evenodd" clip-rule="evenodd" d="M82.1435 49.9952C82.0479 49.5106 81.5741 49.1944 81.085 49.2891L52.3157 54.859C51.8266 54.9537 51.5076 55.4233 51.6032 55.908C51.6987 56.3927 52.1726 56.7089 52.6616 56.6142L81.431 51.0442C81.92 50.9496 82.239 50.4799 82.1435 49.9952Z" fill="#DE8A2E"/>
<path fill-rule="evenodd" clip-rule="evenodd" d="M82.1435 37.8939C82.0479 37.4092 81.5741 37.0931 81.085 37.1878L52.3157 42.7577C51.8266 42.8524 51.5076 43.322 51.6032 43.8067C51.6987 44.2914 52.1726 44.6075 52.6616 44.5129L81.431 38.9429C81.92 38.8483 82.239 38.3786 82.1435 37.8939Z" fill="#DE8A2E"/>
<path fill-rule="evenodd" clip-rule="evenodd" d="M82.1435 54.405C82.0479 53.9204 81.5741 53.6042 81.085 53.6989L52.3157 59.2688C51.8266 59.3635 51.5076 59.8331 51.6032 60.3178C51.6987 60.8025 52.1726 61.1187 52.6616 61.024L81.431 55.454C81.92 55.3594 82.239 54.8897 82.1435 54.405Z" fill="#DE8A2E"/>
<path fill-rule="evenodd" clip-rule="evenodd" d="M69.1002 61.5523C69.0156 61.0656 68.5489 60.7391 68.0578 60.823L52.3351 63.5087C51.844 63.5926 51.5146 64.0551 51.5992 64.5418C51.6838 65.0284 52.1505 65.3549 52.6415 65.2711L68.3643 62.5853C68.8554 62.5014 69.1848 62.0389 69.1002 61.5523Z" fill="#DE8A2E"/>
<path fill-rule="evenodd" clip-rule="evenodd" d="M11.1747 44.3243C11.2203 43.8325 11.6594 43.4704 12.1556 43.5155L41.3264 46.1679C41.8226 46.213 42.1879 46.6482 42.1424 47.14C42.0969 47.6318 41.6577 47.9938 41.1615 47.9487L11.9907 45.2964C11.4946 45.2513 11.1292 44.816 11.1747 44.3243Z" fill="#DE8A2E"/>
<path fill-rule="evenodd" clip-rule="evenodd" d="M11.1747 56.2566C11.2203 55.7648 11.6594 55.4027 12.1556 55.4478L41.3264 58.1002C41.8226 58.1453 42.1879 58.5805 42.1424 59.0723C42.0969 59.5641 41.6577 59.9262 41.1615 59.8811L11.9907 57.2287C11.4946 57.1836 11.1292 56.7484 11.1747 56.2566Z" fill="#DE8A2E"/>
<path fill-rule="evenodd" clip-rule="evenodd" d="M11.173 48.5824C11.2064 48.0897 11.6365 47.7171 12.1337 47.7502L28.0572 48.8112C28.5544 48.8443 28.9303 49.2706 28.8969 49.7633C28.8634 50.256 28.4333 50.6286 27.9362 50.5955L12.0127 49.5346C11.5155 49.5014 11.1396 49.0751 11.173 48.5824Z" fill="#DE8A2E"/>
<path fill-rule="evenodd" clip-rule="evenodd" d="M11.1732 60.5124C11.208 60.0198 11.6391 59.6484 12.1362 59.6829L34.9886 61.2683C35.4856 61.3028 35.8604 61.7301 35.8256 62.2227C35.7908 62.7154 35.3596 63.0868 34.8626 63.0523L12.0102 61.4668C11.5131 61.4323 11.1384 61.005 11.1732 60.5124Z" fill="#DE8A2E"/>
<path fill-rule="evenodd" clip-rule="evenodd" d="M11.173 64.3218C11.2064 63.8291 11.6365 63.4565 12.1337 63.4897L28.0572 64.5506C28.5544 64.5837 28.9303 65.01 28.8969 65.5027C28.8634 65.9955 28.4333 66.368 27.9362 66.3349L12.0127 65.274C11.5155 65.2409 11.1396 64.8146 11.173 64.3218Z" fill="#DE8A2E"/>
<path fill-rule="evenodd" clip-rule="evenodd" d="M17.1024 18.3057C17.4873 18.3239 17.818 18.5824 17.9257 18.9491L23.2781 37.184C23.4173 37.6582 23.1423 38.1544 22.6638 38.2923C22.1854 38.4303 21.6847 38.1577 21.5455 37.6835L16.9269 21.9486L10.8726 37.0348C10.6885 37.4937 10.1639 37.7177 9.70086 37.5352C9.23786 37.3527 9.0118 36.8328 9.19595 36.3739L16.221 18.8684C16.3634 18.5135 16.7175 18.2875 17.1024 18.3057Z" fill="#DE8A2E"/>
<path fill-rule="evenodd" clip-rule="evenodd" d="M21.0081 30.5016C21.0081 30.9955 20.6041 31.3958 20.1058 31.3958L12.5789 31.3958C12.0806 31.3958 11.6767 30.9955 11.6767 30.5016C11.6767 30.0078 12.0806 29.6074 12.5789 29.6075L20.1058 29.6075C20.6041 29.6075 21.0081 30.0078 21.0081 30.5016Z" fill="#DE8A2E"/>
<path fill-rule="evenodd" clip-rule="evenodd" d="M27.1941 25.6258V29.279C27.4311 29.2882 27.6851 29.3143 27.9413 29.3532C28.293 29.325 28.6776 29.2635 29.0408 29.1506C29.4682 29.0176 29.7982 28.8338 30.0126 28.613C30.2072 28.4127 30.3407 28.1501 30.3407 27.7475C30.3407 26.9654 29.8748 26.441 29.0229 26.0695C28.4548 25.8218 27.792 25.6853 27.1941 25.6258ZM30.7738 30.3006C30.965 30.1721 31.1468 30.024 31.3127 29.8532C31.827 29.3236 32.1451 28.6181 32.1451 27.7475C32.1451 25.9834 30.9606 24.9607 29.7496 24.4326C28.558 23.913 27.177 23.7791 26.2675 23.8035C25.7789 23.8166 25.3896 24.2129 25.3896 24.6973V37.5613C25.3896 37.957 25.6521 38.3056 26.0348 38.4184C27.012 38.7063 28.6093 38.8116 30.0536 38.356C30.7891 38.124 31.5232 37.7342 32.1071 37.11C32.6994 36.4768 33.0961 35.6451 33.2103 34.608C33.4485 32.4436 32.1522 31.0747 30.7738 30.3006ZM27.1941 31.156C27.3966 31.1635 27.6176 31.1627 27.85 31.1511C28.3926 31.2488 29.0218 31.4298 29.602 31.7096C30.7864 32.2807 31.5577 33.1312 31.4165 34.4141C31.342 35.0909 31.098 35.5583 30.7837 35.8943C30.4611 36.2392 30.0228 36.489 29.5064 36.6519C28.7304 36.8966 27.8657 36.9173 27.1941 36.8329V31.156Z" fill="#DE8A2E"/>
</svg>
