<svg width="48" height="48" viewBox="0 0 48 48" fill="none" xmlns="http://www.w3.org/2000/svg">
<circle cx="24" cy="24" r="24" fill="#8E4B98"/>
<path fill-rule="evenodd" clip-rule="evenodd" d="M15.575 13.7851C16.864 12.5001 19.0254 12.8594 19.938 14.3756L19.9444 14.3861L22.0481 17.9812C22.6676 19.0618 22.5113 20.4511 21.5871 21.3724L21.2381 21.7202C22.4736 23.658 24.3503 25.575 26.2473 26.7248L26.5942 26.4175C27.5184 25.5164 28.898 25.3683 29.9731 25.9807L29.9809 25.9852L33.5408 28.0552C34.4222 28.4771 34.8861 29.2924 34.981 30.1064C35.0759 30.9196 34.8156 31.8022 34.1826 32.4332L32.983 33.629C31.7376 34.8705 29.7101 35.4199 27.9799 34.636C25.7025 33.7053 22.2868 31.9491 19.1737 28.8459C16.0525 25.7347 14.2931 22.2235 13.3688 20.0757C12.5802 18.3562 13.1236 16.3401 14.3604 15.0955L15.5473 13.8138C15.5563 13.804 15.5655 13.7945 15.575 13.7851ZM16.9996 15.1837L15.8168 16.461C15.8077 16.4707 15.7985 16.4803 15.7891 16.4897C15.0404 17.2361 14.7912 18.3922 15.1902 19.2538C15.194 19.262 15.1977 19.2704 15.2013 19.2788C16.0777 21.3172 17.7164 24.5749 20.5874 27.4367C23.4635 30.3037 26.635 31.9343 28.7561 32.7993C28.7697 32.8048 28.7831 32.8107 28.7965 32.8168C29.6608 33.2145 30.8206 32.9661 31.5693 32.2198L32.7689 31.024C32.9356 30.8578 33.0252 30.5946 32.9951 30.3366C32.9669 30.095 32.8472 29.9294 32.6622 29.8457C32.6315 29.8317 32.6014 29.8162 32.5722 29.7992L28.9781 27.7093C28.6631 27.5317 28.2592 27.5759 27.9848 27.8495C27.971 27.8633 27.9567 27.8767 27.9421 27.8896L27.0424 28.6868C26.7325 28.9613 26.2849 29.0168 25.9171 28.8261C23.2199 27.4281 20.5882 24.6858 19.1083 22.0515C18.8896 21.6622 18.9572 21.1755 19.2737 20.86L20.1733 19.9632C20.4478 19.6896 20.4921 19.287 20.3139 18.9731L18.221 15.3967C17.9362 14.9294 17.3128 14.8868 16.9996 15.1837Z" fill="white"/>
<path fill-rule="evenodd" clip-rule="evenodd" d="M28.2554 19.7446C27.754 19.2432 26.9795 19.0634 26.4318 19.246C25.862 19.4359 25.2461 19.128 25.0561 18.5581C24.8662 17.9883 25.1741 17.3723 25.744 17.1824C27.154 16.7124 28.7723 17.1852 29.7935 18.2065C30.8148 19.2277 31.2876 20.846 30.8176 22.256C30.6277 22.8259 30.0117 23.1338 29.4419 22.9439C28.872 22.7539 28.5641 22.138 28.754 21.5682C28.9366 21.0205 28.7568 20.246 28.2554 19.7446Z" fill="white"/>
<path fill-rule="evenodd" clip-rule="evenodd" d="M30.9493 17.0507C29.1752 15.2765 26.5962 14.6522 24.2855 15.2743C23.7415 15.4207 23.1818 15.0985 23.0353 14.5545C22.8889 14.0105 23.2111 13.4508 23.7551 13.3043C26.7486 12.4984 30.0859 13.3021 32.3919 15.6081C34.6979 17.9141 35.5016 21.2514 34.6957 24.2449C34.5492 24.7889 33.9895 25.1111 33.4455 24.9647C32.9015 24.8182 32.5793 24.2585 32.7257 23.7145C33.3478 21.4037 32.7235 18.8248 30.9493 17.0507Z" fill="white"/>
</svg>
