<svg width="16" height="16" viewBox="0 0 16 16" fill="none" xmlns="http://www.w3.org/2000/svg">
<g opacity="0.4" clip-path="url(#clip0_991_30873)">
<path d="M15.3207 12.1218C15.2542 11.5196 14.9217 11.0512 14.3897 10.7166L11.9959 9.31147C11.2644 8.90999 10.3334 9.04382 9.73496 9.57913L9.46897 9.84678C8.20552 9.04382 6.94208 7.77247 6.14412 6.50112L6.41011 6.23347C7.00858 5.69816 7.14157 4.76138 6.74259 4.02533L5.34615 1.61646C5.08017 1.08115 4.54819 0.746585 3.94972 0.679672C3.41774 0.612759 2.81927 0.813499 2.42029 1.21498L1.62232 2.01794C0.691363 2.95472 0.425375 4.22607 0.890854 5.36359C1.55582 6.9026 2.68627 9.17765 4.74768 11.252C6.80909 13.3263 9.06999 14.5307 10.5994 15.1329C10.9984 15.2667 11.3974 15.3337 11.7299 15.3337C12.5278 15.3337 13.3258 14.9991 13.9243 14.3969L14.7222 13.5939C15.1877 13.2593 15.3872 12.6571 15.3207 12.1218Z" fill="#1E1515"/>
</g>
<defs>
<clipPath id="clip0_991_30873">
<rect width="16" height="16" fill="white"/>
</clipPath>
</defs>
</svg>
