<svg width="96" height="67" viewBox="0 0 96 67" fill="none" xmlns="http://www.w3.org/2000/svg">
<g style="color: #EFDB34;">
<g id="planet-icon">
<path d="M80.7392 33.4999C80.7392 50.9653 66.7116 65.1238 49.4077 65.1238C32.1038 65.1238 18.0762 50.9653 18.0762 33.4999C18.0762 16.0345 32.1038 1.87598 49.4077 1.87598C66.7116 1.87598 80.7392 16.0345 80.7392 33.4999Z" fill="white"/>
<path fill-rule="evenodd" clip-rule="evenodd" d="M82.5982 33.5C82.5982 52.0015 67.7385 67 49.408 67C31.0775 67 16.2178 52.0015 16.2178 33.5C16.2178 14.9985 31.0775 0 49.408 0C67.7385 0 82.5982 14.9985 82.5982 33.5ZM49.408 65.1239C66.7119 65.1239 80.7395 50.9654 80.7395 33.5C80.7395 16.0346 66.7119 1.87608 49.408 1.87608C32.1041 1.87608 18.0765 16.0346 18.0765 33.5C18.0765 50.9654 32.1041 65.1239 49.408 65.1239Z" fill="currentcolor"/>
<path fill-rule="evenodd" clip-rule="evenodd" d="M45.691 61.3718C62.9949 61.3718 77.0225 47.2133 77.0225 29.7479C77.0225 21.9703 74.2408 14.8486 69.6268 9.34082C76.424 15.1417 80.74 23.8122 80.74 33.5C80.74 50.9654 66.7124 65.1239 49.4085 65.1239C39.8102 65.1239 31.2199 60.7677 25.4727 53.9071C30.9295 58.5641 37.9854 61.3718 45.691 61.3718Z" fill="currentcolor"/>
<path d="M57.1638 49.5121C82.1319 34.9622 98.2719 15.9983 93.2134 7.15493C90.1563 1.81045 80.0563 1.38554 67.0315 5.09755C68.7772 6.23711 70.6313 7.73361 71.3401 8.33942C78.0192 7.16719 82.8684 7.87932 84.5278 10.7803C88.2102 17.218 74.7893 31.9973 54.5514 43.7907C34.3134 55.5842 14.9221 59.9259 11.2396 53.4881C9.4565 50.3709 11.6836 45.2978 16.7529 39.5549C16.4031 37.7271 16.213 35.0574 16.2028 33.925C5.05393 44.1951 -0.480649 54.1169 2.79579 59.8448C7.85428 68.6881 32.1957 64.062 57.1638 49.5121Z" fill="white"/>
<path fill-rule="evenodd" clip-rule="evenodd" d="M18.024 29.7077L18.0618 33.908C18.0712 34.9536 18.2543 37.5067 18.5783 39.1992L18.7526 40.1102L18.1411 40.803C15.6785 43.5928 14.0027 46.1159 13.1461 48.2195C12.2767 50.3541 12.3745 51.7196 12.8496 52.5502C13.3405 53.4083 14.5249 54.1991 16.9315 54.4841C19.2959 54.764 22.4704 54.4987 26.2849 53.6446C33.8917 51.9415 43.6209 47.9943 53.6223 42.1661C63.6237 36.3379 71.8751 29.8071 77.1398 24.0096C79.7799 21.1022 81.5948 18.46 82.5367 16.2533C83.4956 14.0072 83.4092 12.5765 82.9184 11.7184C82.4763 10.9457 81.4788 10.227 79.4994 9.88104C77.536 9.53782 74.8879 9.62112 71.6589 10.1878L70.8026 10.3381L70.1393 9.77124C69.4649 9.1949 67.6774 7.75332 66.0224 6.67296L62.5705 4.41964L66.5267 3.29213C73.1506 1.40438 79.1595 0.528103 83.9864 0.85834C88.7441 1.18385 92.8291 2.73052 94.8234 6.21696C96.4745 9.10342 96.2609 12.5888 94.9692 16.1095C93.6725 19.6442 91.1995 23.4909 87.8588 27.4161C81.1657 35.2803 70.7096 43.7851 58.0935 51.137C45.4774 58.4888 32.9521 63.3763 22.8579 65.2947C17.8197 66.2522 13.2827 66.4904 9.60146 65.8566C5.93484 65.2253 2.83748 63.6694 1.18639 60.7829C-0.945357 57.0561 -0.0102553 52.3609 2.45011 47.7053C4.95423 42.967 9.28974 37.7535 14.9501 32.5393L18.024 29.7077ZM69.403 4.45931C81.2735 1.45657 90.3448 2.13953 93.2137 7.155C98.2722 15.9983 82.1322 34.9623 57.1641 49.5122C32.196 64.0621 7.8546 68.6882 2.7961 59.8449C-0.300476 54.4314 4.47316 45.2719 14.4184 35.6126C14.996 35.0515 15.5911 34.4888 16.2031 33.925C16.208 34.4687 16.2544 35.3668 16.34 36.3559C16.4327 37.427 16.5714 38.6048 16.7533 39.555C11.6839 45.2979 9.45681 50.3709 11.2399 53.4882C14.9224 59.9259 34.3137 55.5843 54.5517 43.7908C74.7896 31.9974 88.2105 17.2181 84.5281 10.7804C82.8687 7.87939 78.0195 7.16727 71.3404 8.3395C70.9035 7.96604 70.0313 7.25409 69.0175 6.49594C68.3868 6.02425 67.7014 5.53468 67.0318 5.09762C67.8336 4.86912 68.6243 4.65628 69.403 4.45931Z" fill="currentcolor"/>
<path fill-rule="evenodd" clip-rule="evenodd" d="M91.3554 6.2168C96.4139 15.0601 80.2739 34.0241 55.3058 48.574C34.6275 60.624 14.3792 65.8674 5.1582 62.29C13.2486 67.543 34.9587 62.4523 57.1645 49.5121C82.1326 34.9622 98.2726 15.9982 93.2141 7.15484C92.345 5.63543 90.9066 4.51364 88.9937 3.77148C90.0001 4.42493 90.7957 5.23843 91.3554 6.2168ZM70.0687 7.30242C70.6167 7.73379 71.0653 8.10386 71.3408 8.33934C75.5159 7.60658 78.976 7.61014 81.3888 8.42437C79.1862 6.80012 75.1972 6.47442 70.0687 7.30242ZM16.4163 37.1528C15.8913 37.6176 15.3224 38.148 14.8949 38.6168C10.9634 42.9276 7.59846 49.4328 9.38157 52.55C10.0037 53.6376 11.0741 54.4175 12.5212 54.9058C11.9855 54.5108 11.5554 54.0389 11.2403 53.4881C9.4572 50.3708 11.6843 45.2977 16.7536 39.5548C16.6161 38.8361 16.5032 37.9872 16.4163 37.1528Z" fill="currentcolor"/>
<path fill-rule="evenodd" clip-rule="evenodd" d="M82.3431 4.69555C80.0663 4.55101 77.5512 4.81598 75.2387 5.24213C74.9862 5.28865 74.7442 5.11979 74.6981 4.86497C74.652 4.61015 74.8193 4.36586 75.0717 4.31934C77.4254 3.88561 80.0218 3.60829 82.4015 3.75936C84.7701 3.90973 86.9927 4.48869 88.5289 5.83356C88.7228 6.00329 88.7436 6.29951 88.5755 6.49519C88.4073 6.69087 88.1138 6.71191 87.92 6.54219C86.61 5.39534 84.6311 4.8408 82.3431 4.69555Z" fill="currentcolor"/>
<path fill-rule="evenodd" clip-rule="evenodd" d="M36.1292 57.1461C36.3431 57.617 36.1382 58.1738 35.6716 58.3896C27.7089 62.0733 17.952 63.1826 14.0485 63.2821C13.5354 63.2952 13.109 62.8859 13.096 62.368C13.083 61.8501 13.4885 61.4197 14.0016 61.4066C17.7654 61.3107 27.2465 60.2234 34.8971 56.6842C35.3637 56.4683 35.9154 56.6751 36.1292 57.1461Z" fill="white"/>
<path d="M69.7244 26.4736C69.7244 27.4126 68.9703 28.1738 68.0399 28.1738C67.1096 28.1738 66.3555 27.4126 66.3555 26.4736C66.3555 25.5346 67.1096 24.7734 68.0399 24.7734C68.9703 24.7734 69.7244 25.5346 69.7244 26.4736Z" fill="currentcolor"/>
<path d="M41.8572 11.041C41.8572 11.98 41.1031 12.7412 40.1728 12.7412C39.2424 12.7412 38.4883 11.98 38.4883 11.041C38.4883 10.102 39.2424 9.34082 40.1728 9.34082C41.1031 9.34082 41.8572 10.102 41.8572 11.041Z" fill="currentcolor"/>
<path d="M29.5916 24.0107C29.5916 24.9497 28.8374 25.7109 27.9071 25.7109C26.9768 25.7109 26.2227 24.9497 26.2227 24.0107C26.2227 23.0718 26.9768 22.3105 27.9071 22.3105C28.8374 22.3105 29.5916 23.0718 29.5916 24.0107Z" fill="currentcolor"/>
<path d="M37.8976 41.1304C37.8976 42.5875 36.7274 43.7687 35.2838 43.7687C33.8402 43.7687 32.6699 42.5875 32.6699 41.1304C32.6699 39.6734 33.8402 38.4922 35.2838 38.4922C36.7274 38.4922 37.8976 39.6734 37.8976 41.1304Z" fill="currentcolor"/>
<path d="M49.6496 23.8355C49.6496 25.2926 48.4793 26.4738 47.0357 26.4738C45.5921 26.4738 44.4219 25.2926 44.4219 23.8355C44.4219 22.3784 45.5921 21.1973 47.0357 21.1973C48.4793 21.1973 49.6496 22.3784 49.6496 23.8355Z" fill="currentcolor"/>
<path d="M62.549 12.7418C62.549 14.1988 61.3787 15.38 59.9351 15.38C58.4915 15.38 57.3213 14.1988 57.3213 12.7418C57.3213 11.2847 58.4915 10.1035 59.9351 10.1035C61.3787 10.1035 62.549 11.2847 62.549 12.7418Z" fill="currentcolor"/>
<path d="M58.3341 38.4918C58.3341 39.9488 57.1639 41.13 55.7203 41.13C54.2767 41.13 53.1064 39.9488 53.1064 38.4918C53.1064 37.0347 54.2767 35.8535 55.7203 35.8535C57.1639 35.8535 58.3341 37.0347 58.3341 38.4918Z" fill="currentcolor"/>
</g>
</g>
</svg>
