<svg width="31" height="24" viewBox="0 0 31 24" fill="none" xmlns="http://www.w3.org/2000/svg">
<path d="M0 24V17.3983C0 15.4499 0.362176 13.3983 1.08653 11.2436C1.81088 9.08882 2.81818 7.02578 4.10843 5.05444C5.39869 3.08309 6.9153 1.39828 8.65827 0L13.6835 3.6447C12.3027 5.68481 11.1256 7.81662 10.1522 10.0401C9.1789 12.2636 8.69222 14.6819 8.69222 17.2951V24H0ZM17.3165 24V17.3983C17.3165 15.4499 17.6787 13.3983 18.4031 11.2436C19.1274 9.08882 20.1347 7.02578 21.425 5.05444C22.7152 3.08309 24.2318 1.39828 25.9748 0L31 3.6447C29.6192 5.68481 28.4421 7.81662 27.4688 10.0401C26.4954 12.2636 26.0088 14.6819 26.0088 17.2951V24H17.3165Z" fill="#A6D6C9"/>
</svg>
