<svg width="40" height="26" viewBox="0 0 40 26" fill="none" xmlns="http://www.w3.org/2000/svg">
<path fill-rule="evenodd" clip-rule="evenodd" d="M7.48333 5.91961C8.12538 5.77321 8.78168 5.69951 9.44 5.69987C14.6533 5.69987 18.8783 10.2557 18.8783 15.8734C18.8783 21.4928 14.6533 26.0486 9.44 26.0486C4.22667 26.0486 0 21.4945 0 15.8734C0 15.709 0.00333333 15.543 0.0116667 15.3786H0C0 6.89923 6.4 0 14.2667 0V3.41523C11.715 3.41523 9.36167 4.35123 7.48333 5.91961ZM28.6067 5.91961C29.2367 5.77535 29.89 5.69987 30.56 5.69987C35.7733 5.69987 40 10.2557 40 15.8734C40 21.4928 35.7733 26.0486 30.56 26.0486C25.3467 26.0486 21.1217 21.4945 21.1217 15.8734C21.1217 15.709 21.125 15.543 21.1333 15.3786H21.1217C21.1217 6.89923 27.5217 0 35.3883 0V3.41523C32.835 3.41523 30.485 4.35123 28.6067 5.91961Z" fill="#254B6A"/>
</svg>
