<svg width="20" height="20" viewBox="0 0 20 20" fill="none" xmlns="http://www.w3.org/2000/svg">
<path d="M10.0013 18.3337C5.41797 18.3337 1.66797 14.5837 1.66797 10.0003C1.66797 5.41699 5.41797 1.66699 10.0013 1.66699C14.5846 1.66699 18.3346 5.41699 18.3346 10.0003C18.3346 14.5837 14.5846 18.3337 10.0013 18.3337ZM10.0013 3.33366C6.33464 3.33366 3.33464 6.33366 3.33464 10.0003C3.33464 13.667 6.33464 16.667 10.0013 16.667C13.668 16.667 16.668 13.667 16.668 10.0003C16.668 6.33366 13.668 3.33366 10.0013 3.33366Z" fill="#64A8DF"/>
<path d="M14.0846 10.833H10.0013C9.5013 10.833 9.16797 10.4997 9.16797 9.99967V5.91634C9.16797 5.41634 9.5013 5.08301 10.0013 5.08301C10.5013 5.08301 10.8346 5.41634 10.8346 5.91634V9.16634H14.0846C14.5846 9.16634 14.918 9.49967 14.918 9.99967C14.918 10.4997 14.5846 10.833 14.0846 10.833Z" fill="#64A8DF"/>
</svg>
