<svg width="16" height="16" viewBox="0 0 16 16" fill="none" xmlns="http://www.w3.org/2000/svg">
<path d="M8.0026 14.6673C4.33594 14.6673 1.33594 11.6673 1.33594 8.00065C1.33594 4.33398 4.33594 1.33398 8.0026 1.33398C11.6693 1.33398 14.6693 4.33398 14.6693 8.00065C14.6693 11.6673 11.6693 14.6673 8.0026 14.6673Z" fill="black" fill-opacity="0.4"/>
<path d="M11.2693 8.66641H8.0026C7.6026 8.66641 7.33594 8.39974 7.33594 7.99974V4.73307C7.33594 4.33307 7.6026 4.06641 8.0026 4.06641C8.4026 4.06641 8.66927 4.33307 8.66927 4.73307V7.33307H11.2693C11.6693 7.33307 11.9359 7.59974 11.9359 7.99974C11.9359 8.39974 11.6693 8.66641 11.2693 8.66641Z" fill="white"/>
</svg>
