<svg width="24" height="18" viewBox="0 0 24 18" fill="white" xmlns="http://www.w3.org/2000/svg">
<path id="youtube-icon-filled" fill-rule="evenodd" clip-rule="evenodd" d="M21.3904 1.11166C22.4184 1.38843 23.2289 2.19897 23.5057 3.22697C24.0197 5.10505 23.9999 9.01937 23.9999 9.01937C23.9999 9.01937 23.9999 12.9139 23.5057 14.792C23.2289 15.82 22.4184 16.6305 21.3904 16.9073C19.5123 17.4015 11.9999 17.4015 11.9999 17.4015C11.9999 17.4015 4.50739 17.4015 2.60954 16.8875C1.58154 16.6108 0.771002 15.8002 0.494232 14.7722C0 12.9139 0 8.9996 0 8.9996C0 8.9996 0 5.10505 0.494232 3.22697C0.771002 2.19897 1.60131 1.36866 2.60954 1.09189C4.48762 0.597656 11.9999 0.597656 11.9999 0.597656C11.9999 0.597656 19.5123 0.597656 21.3904 1.11166ZM15.8545 9.00035L9.60742 12.5984V5.40234L15.8545 9.00035Z"/>
</svg>
