<svg width="26" height="26" viewBox="0 0 26 26" fill="none" xmlns="http://www.w3.org/2000/svg">
<path d="M13 1C6.37256 1 1 6.37257 1 13C1 19.6274 6.37256 25 13 25C19.6274 25 25 19.6274 25 13C25 6.37257 19.6274 1 13 1ZM13 2.10541C13.6154 2.10541 14.2182 2.15731 14.8057 2.25541C15.072 2.74424 15.3208 3.35847 15.5068 4.08203C16.1697 6.47332 16.0492 9.91574 15.6767 13.6812C15.4763 15.8138 15.1979 17.8445 14.7579 19.5869C13.9403 19.541 13.0989 19.434 12.2473 19.2591C12.3308 19.0237 12.3882 18.7746 12.4117 18.5148C12.5009 17.509 12.1333 16.5502 11.7161 15.6731C9.92398 12.2101 7.88725 9.38429 7.0991 6.98558C6.6938 5.89975 6.52473 4.97031 6.46379 4.28374C8.2847 2.91582 10.5476 2.1054 13.0003 2.1054L13 2.10541ZM6.36099 4.36244C6.37656 5.0542 6.48672 5.98162 6.82423 7.07534C7.48835 9.56324 9.4524 12.5516 11.1944 15.9215C11.6007 16.7688 11.9244 17.6401 11.8608 18.4665C11.8441 18.7002 11.7934 18.9255 11.7174 19.1405C11.6459 19.1237 11.5746 19.1068 11.5031 19.0889C9.51927 18.6252 7.68327 17.9415 6.1828 17.0333C4.68195 16.1289 3.54508 14.9733 2.89605 13.8141C2.52976 13.1601 2.29755 12.5467 2.15141 12.0014C2.43417 8.89393 4.02105 6.16385 6.36096 4.36256L6.36099 4.36244ZM6.69631 21.7127C6.61143 21.7099 6.5279 21.7062 6.4452 21.7023C3.80966 19.714 2.10549 16.5556 2.10549 13.0002C2.10549 12.8584 2.10917 12.7174 2.11436 12.5771C2.2344 13.0032 2.40348 13.4639 2.64189 13.9519C3.25007 15.1907 4.38999 16.4592 5.92363 17.4461C7.45577 18.438 9.34079 19.1773 11.3712 19.6514C11.402 19.6593 11.4325 19.666 11.4629 19.6735C11.2669 19.9958 11.0124 20.2805 10.7262 20.5137C9.48032 21.5142 7.91651 21.7213 6.69611 21.7129L6.69631 21.7127ZM12.7627 23.8917C10.5824 23.8452 8.55991 23.1578 6.87545 22.0109C8.10408 22.0629 9.66416 21.9119 11.0307 20.8944C11.4044 20.6111 11.7469 20.2368 11.9995 19.7962C12.8835 19.9827 13.7604 20.0902 14.6136 20.1287C14.3038 21.224 13.9212 22.1888 13.4426 22.9705C13.2277 23.3307 12.997 23.6346 12.7626 23.8917L12.7627 23.8917ZM13.0641 23.8939C13.2784 23.6713 13.4884 23.4178 13.685 23.128C14.248 22.3161 14.7042 21.2999 15.0733 20.1429C15.9035 20.1567 16.7079 20.1046 17.4711 19.9973C17.4407 20.1372 17.4119 20.2762 17.3858 20.4135C17.2358 21.0676 17.2101 21.9676 17.8373 22.4393C17.9367 22.5086 18.0372 22.5637 18.1383 22.6091C16.6252 23.4193 14.8982 23.8832 13.064 23.8939L13.0641 23.8939ZM18.5571 22.3723C18.3845 22.3209 18.2229 22.2451 18.0853 22.1322C17.6833 21.8035 17.6934 21.1504 17.8628 20.5139C17.9031 20.312 17.9514 20.1111 18.0061 19.9117C19.4902 19.6455 20.7948 19.1672 21.7941 18.5508C22.1246 18.3598 22.4244 18.1651 22.6969 17.9709C21.7579 19.7992 20.3172 21.3258 18.5571 22.3723ZM22.9486 8.55304C23.5565 9.91093 23.8952 11.4159 23.8952 12.9999C23.8952 14.6331 23.5352 16.182 22.891 17.5728C22.5311 17.8158 22.1213 18.0614 21.6572 18.2966C20.702 18.8136 19.5051 19.2053 18.1562 19.4225C18.4843 18.454 18.9949 17.5142 19.7343 16.6097C21.648 14.0424 22.9014 11.2602 22.9412 9.10238C22.9498 8.91171 22.9518 8.72872 22.9486 8.55313L22.9486 8.55304ZM22.6535 9.07838C22.473 11.1441 21.1458 13.7417 19.2686 16.2681C18.7999 16.9029 18.3194 17.5622 18.0106 18.285C17.8316 18.6903 17.6978 19.0983 17.5915 19.5009C16.8425 19.5913 16.0527 19.6292 15.2362 19.6062C15.735 17.864 16.0547 15.8435 16.2529 13.7348C16.6276 9.95936 16.6073 6.41096 15.7847 4.00025C15.5699 3.32876 15.3018 2.75538 15.0204 2.29282C18.3852 2.92363 21.2047 5.10065 22.7124 8.05839C22.7128 8.37178 22.6959 8.7123 22.6533 9.0786L22.6535 9.07838Z" fill="#254B6A" stroke="#254B6A" stroke-width="0.5"/>
</svg>
