<svg width="24" height="24" viewBox="0 0 24 24" fill="none" xmlns="http://www.w3.org/2000/svg">
<path d="M16.8608 18.2825L18.2821 16.8612C20.1695 18.7699 21.9996 20.4197 22.8713 21.1889C23.2829 21.0145 23.6489 21.007 23.8498 21.2077C24.2067 21.5648 23.9047 22.4457 23.1751 23.1754C22.4452 23.905 21.5645 24.207 21.2074 23.8501C21.0068 23.6492 21.0142 23.2834 21.1886 22.8714C20.4192 21.9999 18.7694 20.17 16.8608 18.2825ZM14.803 11.6748C11.8865 7.43476 3.89871 0.462915 3.89871 0.462915C3.54882 0.113024 2.95671 -0.0468724 2.6607 0.0119277C2.13235 0.116727 1.44025 0.477658 0.958965 0.959159C0.477508 1.44079 0.116564 2.13272 0.011907 2.66106C-0.0468545 2.95671 0.113192 3.54902 0.462893 3.89908C0.462893 3.89908 7.43447 11.887 11.6748 14.8034C12.9145 15.6559 14.2763 15.8244 15.5851 17.0525L17.052 15.5856C15.8239 14.2766 15.6551 12.9147 14.803 11.6748Z" fill="#254B6A"/>
</svg>
