<svg width="24" height="24" viewBox="0 0 24 24" fill="none" xmlns="http://www.w3.org/2000/svg">
<path d="M12 0C5.37257 0 0 5.37258 0 12C0 18.6275 5.37257 24 12 24C18.6274 24 24 18.6275 24 12C24 5.37258 18.6274 0 12 0ZM20.226 5.20586C19.3588 4.42556 18.6252 3.93103 18.4509 3.81669C18.2906 3.58935 17.95 3.25149 17.5449 2.8842C18.5619 3.50413 19.4683 4.28928 20.226 5.20586ZM15.9498 5.6254C16.9653 6.88968 17.0697 8.50489 17.1386 9.57563L17.1403 9.60108C16.5202 10.2299 14.2853 12.2068 13.8702 12.573C12.5507 11.7975 9.9957 11.261 9.53053 11.1675C9.20408 10.116 8.69045 8.30867 8.57512 7.00839L8.5711 6.96503C8.8624 6.55387 9.976 5.11733 11.8312 4.28328C12.3055 4.29299 14.6822 4.6469 15.9497 5.6254L15.9498 5.6254ZM4.28456 5.23349C4.36743 5.08031 4.69521 4.60537 5.98646 3.18792C6.80627 2.62726 7.69809 2.18514 8.6379 1.87323C8.74521 1.87206 8.85587 1.87139 8.9677 1.87139C9.91308 1.87139 10.7831 1.91776 11.1293 1.93885L11.5472 3.95263C10.411 4.48568 9.55968 5.22411 9.03768 5.76099C8.64377 6.16612 8.37777 6.51364 8.24016 6.70684C8.02972 6.62013 7.74678 6.57744 7.38336 6.57744C6.36648 6.57744 4.9939 6.91192 4.5079 7.03914C4.21677 6.29548 4.26917 5.41875 4.28457 5.23343L4.28456 5.23349ZM1.3587 12.7605C1.34062 12.5072 1.33175 12.2519 1.33175 12.0001C1.33175 9.86027 1.96372 7.79643 3.15939 6.03012C3.47881 5.78821 3.70063 5.63486 3.85115 5.53812C3.84612 5.96167 3.88714 6.66278 4.156 7.28506C3.41989 8.77769 2.99985 9.97182 2.90727 10.8359C2.86743 11.2074 2.89673 11.4508 2.93942 11.6048C2.356 11.9724 1.79685 12.6049 1.51977 12.9432C1.47123 12.8824 1.41749 12.8215 1.35873 12.7606L1.3587 12.7605ZM5.37471 19.8508L4.50634 19.5896C3.53537 18.631 2.76797 17.5173 2.22489 16.2781C1.61049 14.2638 1.67863 13.5292 1.70254 13.3865C1.83815 13.2109 2.48451 12.3961 3.1371 11.9752C3.46606 12.4649 4.47707 13.8372 5.76527 14.3156C5.73916 15.3983 6.0723 16.4734 6.36309 17.1973C6.59445 17.7723 6.83083 18.2129 6.95421 18.4292C6.55008 18.8116 5.60537 19.647 5.37471 19.8507V19.8508ZM7.38647 18.3377C7.26577 18.1368 6.12167 16.182 6.18549 14.2859C6.37483 14.1093 6.97046 13.5558 7.61066 12.995C8.85201 11.9075 9.28779 11.6396 9.43659 11.5765C9.86281 11.6627 12.6618 12.2502 13.8316 13.0437C14.1215 13.8121 14.7153 16.6281 14.8068 17.0655C14.3834 17.5581 13.0804 18.9958 11.6978 19.7362C10.0263 19.6259 8.94287 19.2513 8.32629 18.9548C7.7256 18.666 7.44167 18.3945 7.38626 18.3377H7.38647ZM12 22.6684C11.8572 22.6684 11.7143 22.6656 11.5711 22.6601C12.0091 22.5466 12.2916 22.4213 12.4403 22.3442C12.5493 22.384 12.6605 22.4272 12.7765 22.4721C12.8907 22.5168 13.0095 22.5625 13.1336 22.6083C12.7574 22.6483 12.3786 22.6684 12 22.6684ZM19.3008 18.9363L19.2773 19.0714C19.2092 19.4667 19.0068 19.8869 18.6758 20.3206C17.3417 21.3924 15.755 22.1329 14.0832 22.4644C13.651 22.3616 13.2835 22.2193 12.9281 22.0812C12.8012 22.0319 12.68 21.9849 12.5593 21.941C12.071 21.1723 12.0047 20.3249 11.9965 20.0503C13.43 19.2473 14.7475 17.7792 15.1488 17.31C15.6757 17.3853 16.1732 17.424 16.6287 17.424C17.9263 17.424 18.6241 17.1136 18.9313 16.9226C19.1268 17.3205 19.3607 17.9885 19.3701 18.9191L19.3008 18.9363ZM22.235 11.0442C22.3563 11.2828 22.5199 11.6864 22.6632 12.3219C22.6289 13.4852 22.4079 14.6243 22.0061 15.7076C21.6209 16.7477 21.0762 17.718 20.3871 18.5931C20.1678 18.6811 19.957 18.7519 19.7876 18.804C19.7588 17.7987 19.4858 17.0803 19.2717 16.666C20.5105 15.5939 20.6821 12.8539 20.7047 12.2843C21.3308 11.9605 21.8995 11.4089 22.235 11.0441L22.235 11.0442ZM21.5066 7.15439C21.5817 7.30121 21.6542 7.45272 21.723 7.60491C21.8126 8.35491 22.0113 10.0759 22.0113 10.6265L22.0095 10.6682C21.7177 10.9963 21.1594 11.5667 20.5486 11.893C19.7246 10.8048 18.1686 9.88639 17.5568 9.55121C17.4914 8.53369 17.3836 6.86291 16.3965 5.51929L18.2558 4.19089C18.6012 4.42225 20.2125 5.54459 21.5066 7.15439Z" fill="#254B6A"/>
</svg>
