<svg width="26" height="27" viewBox="0 0 26 27" fill="none" xmlns="http://www.w3.org/2000/svg">
<path d="M24.9437 24.0374L24.8948 24.0863L18.7805 18.2525C18.7935 15.6432 18.3524 9.03086 13.9464 4.62528C10.0188 0.697693 4.52469 -0.176364 1.67511 2.6731C-1.17452 5.52274 -0.300283 11.0171 3.62747 14.9444C7.9655 19.2827 14.5545 19.7507 17.2193 19.7475L23.0972 25.8841L23.039 25.9423C22.9873 25.994 22.9873 26.0778 23.039 26.1293L23.872 26.9627C23.9235 27.0142 24.0075 27.0139 24.0587 26.9627L25.9632 25.0582C26.0143 25.0071 26.0143 24.9231 25.9632 24.8716L25.1297 24.0385C25.0786 23.9861 24.9952 23.9861 24.9433 24.0378L24.9437 24.0374ZM9.27916 3.0937L9.30184 3.07103C9.58007 3.18911 9.85777 3.32097 10.134 3.46753C10.2064 3.5058 10.2784 3.54498 10.35 3.58524L10.0604 3.87473L9.27916 3.0937ZM10.3598 4.17452L10.728 3.80632C11.0458 4.00058 11.3563 4.21153 11.6581 4.43842L11.141 4.95554L10.3598 4.17452ZM11.4408 5.25553L11.9951 4.70122C12.2795 4.93102 12.5563 5.17572 12.824 5.43453L12.2218 6.03672L11.4408 5.25553ZM12.5214 6.33617L13.1236 5.73398C13.3826 6.00133 13.6278 6.27739 13.8582 6.5616L13.3022 7.11755L12.5214 6.33617ZM13.6022 7.417L14.1215 6.89769C14.3488 7.19932 14.5605 7.5093 14.7549 7.82653L14.3833 8.19818L13.6022 7.417ZM14.6829 8.49763L14.9765 8.20398C15.0202 8.28143 15.0629 8.35942 15.1044 8.43778C15.2646 8.74014 15.408 9.04415 15.5343 9.34866L14.6829 8.49763ZM6.29618 2.36568C6.57786 2.37602 6.86642 2.40395 7.16136 2.44984L6.77104 2.84016L6.29618 2.36568ZM7.07049 3.14L7.66595 2.54472C7.82864 2.58027 7.99152 2.6209 8.15456 2.66661L8.63031 3.14236L7.85149 3.92119L7.07049 3.14ZM8.1515 4.221L8.93031 3.44218L9.7115 4.22337L8.93268 5.00219L8.1515 4.221ZM9.23213 5.30164L10.0109 4.52282L10.7918 5.30401L10.0133 6.08283L9.23213 5.30164ZM10.3129 6.38247L11.0918 5.60364L11.8729 6.38483L11.0941 7.16366L10.3129 6.38247ZM11.3939 7.4631L12.1728 6.68428L12.9539 7.46547L12.1751 8.24397L11.3939 7.4631ZM12.4748 8.54411L13.2533 7.76529L14.0346 8.54648L13.2558 9.3253L12.4748 8.54411ZM13.5554 9.62494L14.3342 8.84611L15.1154 9.6273L14.3366 10.4061L13.5554 9.62494ZM14.6364 10.7056L15.4149 9.92675L15.9044 10.4163C15.9481 10.5717 15.9871 10.727 16.0214 10.8823L15.4174 11.4866L14.6364 10.7056ZM15.717 11.7866L16.1177 11.3856C16.1658 11.689 16.195 11.9857 16.2057 12.2748L15.717 11.7866ZM4.30291 2.62719C4.3965 2.59617 4.49227 2.56788 4.58949 2.54212C4.7228 2.50694 4.85866 2.47719 4.99686 2.45216L4.56264 2.88638L4.30291 2.62719ZM4.86247 3.18657L5.64129 2.40775L6.42248 3.18856L5.64366 3.96739L4.86247 3.18657ZM5.9431 4.26721L6.72192 3.48871L7.50311 4.26953L6.72429 5.04835L5.9431 4.26721ZM7.02392 5.34821L7.80274 4.56939L8.58392 5.35058L7.80511 6.12941L7.02392 5.34821ZM8.10455 6.42904L8.88337 5.65022L9.66456 6.43141L8.88574 7.21023L8.10455 6.42904ZM9.18555 7.50968L9.96437 6.73085L10.7456 7.51204L9.96674 8.29087L9.18555 7.50968ZM10.2662 8.59068L11.045 7.81186L11.8262 8.59305L11.0474 9.37155L10.2662 8.59068ZM11.347 9.67132L12.1258 8.8925L12.907 9.67369L12.1282 10.4525L11.347 9.67132ZM12.4276 10.7521L13.2064 9.97332L13.9876 10.7541L13.2088 11.5333L12.4276 10.7521ZM13.5086 11.8328L14.2871 11.054L15.0683 11.8352L14.2898 12.6136L13.5086 11.8328ZM14.5893 12.9138L15.3681 12.135L16.1493 12.9162L15.3705 13.695L14.5893 12.9138ZM15.6705 13.9946L16.1246 13.5401C16.0987 13.6901 16.0666 13.8374 16.0287 13.9816C16.0029 14.0788 15.9748 14.1742 15.944 14.2678L15.6705 13.9946ZM2.85639 3.43526C3.13952 3.19113 3.45602 2.98726 3.80339 2.82476L4.21366 3.23504L3.43485 4.01386L2.85639 3.43526ZM3.73481 4.3135L4.51362 3.53468L5.29481 4.31587L4.51599 5.09469L3.73481 4.3135ZM4.81544 5.39432L5.59425 4.6155L6.37544 5.39669L5.59662 6.17551L4.81544 5.39432ZM5.89625 6.47496L6.67507 5.69614L7.45626 6.47733L6.67744 7.25615L5.89625 6.47496ZM6.97726 7.55597L7.75607 6.77715L8.53726 7.55834L7.75844 8.33716L6.97726 7.55597ZM8.05789 8.63661L8.83671 7.85811L9.61789 8.6393L8.83907 9.41812L8.05789 8.63661ZM9.1387 9.71743L9.91752 8.93861L10.6987 9.7198L9.91989 10.4986L9.1387 9.71743ZM10.2197 10.7984L10.9985 10.0196L11.7797 10.8008L11.0009 11.5796L10.2197 10.7984ZM11.3003 11.8793L12.0792 11.1004L12.8603 11.8816L12.0815 12.6605L11.3003 11.8793ZM12.3812 12.9599L13.16 12.1811L13.9412 12.9623L13.1623 13.7411L12.3812 12.9599ZM13.4618 14.0409L14.2406 13.2621L15.0218 14.0433L14.243 14.8218L13.4618 14.0409ZM14.543 15.1215L15.3215 14.3427L15.7455 14.7672C15.5832 15.1145 15.3793 15.4312 15.135 15.7142L14.543 15.1215ZM1.87239 4.70567C2.04197 4.36486 2.25256 4.05542 2.50322 3.77919L3.08619 4.36216L2.30737 5.14098L1.87239 4.70567ZM2.60714 5.44062L3.38596 4.66179L4.16714 5.44298L3.38832 6.22181L2.60714 5.44062ZM3.68777 6.52125L4.46659 5.74243L5.24777 6.52362L4.46896 7.30244L3.68777 6.52125ZM4.76877 7.60208L5.54759 6.82326L6.32878 7.60445L5.54996 8.38327L4.76877 7.60208ZM5.84959 8.68309L6.62841 7.90426L7.40959 8.68545L6.63077 9.46428L5.84959 8.68309ZM6.93022 9.76372L7.70904 8.9849L8.49022 9.76609L7.71141 10.5449L6.93022 9.76372ZM8.01122 10.8445L8.79004 10.0657L9.57123 10.8469L8.79241 11.6257L8.01122 10.8445ZM9.09185 11.9252L9.87067 11.1464L10.6519 11.9276L9.87304 12.7061L9.09185 11.9252ZM10.1727 13.0062L10.9515 12.2274L11.7327 13.0086L10.9539 13.7874L10.1727 13.0062ZM11.2533 14.0868L12.0321 13.308L12.8133 14.0892L12.0345 14.868L11.2533 14.0868ZM12.3343 15.1677L13.1131 14.3892L13.8943 15.1703L13.1155 15.9488L12.3343 15.1677ZM13.4151 16.2483L14.1936 15.4698L14.7907 16.0666C14.5143 16.317 14.2048 16.5276 13.8642 16.6974L13.4151 16.2483ZM1.54364 5.58632C1.57901 5.45247 1.61928 5.32187 1.66462 5.19491L1.95864 5.48892L1.45368 5.99369C1.47871 5.85584 1.50846 5.71982 1.54364 5.58632ZM1.47944 6.56741L2.25825 5.78859L3.03944 6.56978L2.26062 7.3486L1.47944 6.56741ZM2.56025 7.64842L3.33907 6.8696L4.12025 7.65079L3.34144 8.42961L2.56025 7.64842ZM3.64088 8.72906L4.4197 7.95056L5.20089 8.73175L4.42207 9.51057L3.64088 8.72906ZM4.72188 9.80988L5.5007 9.03106L6.28189 9.81225L5.50307 10.5911L4.72188 9.80988ZM5.8027 10.8905L6.58152 10.1117L7.3627 10.8929L6.58389 11.6717L5.8027 10.8905ZM6.88333 11.9715L7.66215 11.1927L8.44334 11.9739L7.66452 12.7527L6.88333 11.9715ZM7.96433 13.0522L8.74315 12.2733L9.52434 13.0545L8.74552 13.833L7.96433 13.0522ZM9.04515 14.133L9.82397 13.3542L10.6052 14.1354L9.82634 14.9139L9.04515 14.133ZM10.1258 15.214L10.9046 14.4352L11.6858 15.2164L10.907 15.9952L10.1258 15.214ZM8.3501 16.3901L8.25125 16.4889C7.97954 16.3732 7.70854 16.244 7.43867 16.1009C7.36032 16.0594 7.28232 16.0168 7.20487 15.9731L7.5689 15.6092L8.3501 16.3901ZM7.26947 15.3092L6.82745 15.7516C6.51022 15.5568 6.20024 15.3455 5.89861 15.1179L6.48826 14.5279L7.26947 15.3092ZM6.18865 14.2286L5.56218 14.8551C5.27796 14.6247 5.00211 14.3797 4.73456 14.1205L5.40746 13.4478L6.18865 14.2286ZM5.10765 13.1476L4.43493 13.8203C4.17629 13.5524 3.9316 13.2758 3.70162 12.9914L4.32646 12.3665L5.10765 13.1476ZM4.02702 12.0669L3.43936 12.6546C3.21228 12.3524 3.00152 12.0422 2.80727 11.7245L3.24621 11.2859L4.02702 12.0669ZM2.9462 10.9861L2.58598 11.3462C2.5459 11.2747 2.50672 11.2027 2.46827 11.1301C2.3219 10.8537 2.19003 10.5762 2.07195 10.298L2.165 10.2049L2.9462 10.9861ZM11.4211 17.2063C11.0863 17.201 10.7411 17.1704 10.3871 17.1145L10.8584 16.6431L11.4211 17.2063ZM10.5583 16.3437L9.88359 17.0184C9.79254 16.9984 9.70148 16.9765 9.61061 16.9531L8.99844 16.3409L9.77726 15.5624L10.5583 16.3437ZM9.47767 15.2628L8.69885 16.0413L7.91767 15.2602L8.69649 14.4817L9.47767 15.2628ZM8.39686 14.182L7.61804 14.9608L6.83685 14.1797L7.61567 13.4008L8.39686 14.182ZM7.31623 13.1014L6.53741 13.8802L5.75622 13.099L6.53504 12.3205L7.31623 13.1014ZM6.23522 12.0204L5.45641 12.7992L4.67522 12.018L5.45404 11.2392L6.23522 12.0204ZM5.15441 10.9395L4.37559 11.7184L3.5944 10.9376L4.37322 10.1587L5.15441 10.9395ZM4.07378 9.85891L3.29496 10.6377L2.51377 9.85654L3.29259 9.07772L4.07378 9.85891ZM2.99277 8.7779L2.21428 9.55673L1.61627 8.95871C1.59088 8.85986 1.56766 8.76137 1.54608 8.66288L2.21193 7.99703L2.99277 8.7779ZM1.91196 7.69727L1.45126 8.15833C1.39738 7.8128 1.36836 7.47581 1.36311 7.14841L1.91196 7.69727ZM11.2069 16.2948L11.9857 15.5158L12.7669 16.2972L11.9881 17.076L11.2069 16.2948ZM13.0664 16.5968L13.3745 16.905C13.2474 16.9501 13.1172 16.9906 12.9829 17.026C12.8386 17.0639 12.6915 17.0962 12.5416 17.1219L13.0664 16.5968ZM15.3778 18.3988C14.9389 18.3539 14.4292 18.2849 13.8548 18.1817C14.6222 17.9046 15.3149 17.4778 15.8973 16.8954C16.4962 16.2965 16.9306 15.5809 17.2065 14.7879C17.3137 15.3769 17.3844 15.8987 17.4303 16.3463C17.4669 16.7031 17.4898 17.0292 17.5034 17.3227L16.3536 18.4724C16.0603 18.4585 15.7344 18.4354 15.3778 18.3988L15.3778 18.3988Z" fill="#254B6A"/>
</svg>
