<svg width="24" height="24" viewBox="0 0 24 24" fill="none" xmlns="http://www.w3.org/2000/svg">
<path fill-rule="evenodd" clip-rule="evenodd" d="M22.3953 18.5653C21.0282 18.5653 20.3172 17.9275 19.7455 17.4149C19.266 16.9849 18.949 16.7008 18.2369 16.7008C17.5245 16.7008 17.2078 16.985 16.7285 17.4149C16.1566 17.9275 15.4453 18.5653 14.0785 18.5653C12.7122 18.5653 12.0003 17.9275 11.4289 17.4149C10.9499 16.9849 10.6329 16.7008 9.92049 16.7008C9.20809 16.7008 8.892 16.985 8.41256 17.4149C7.84066 17.9275 7.12934 18.5653 5.763 18.5653C4.39614 18.5653 3.68518 17.9275 3.11296 17.4149C2.63364 16.9849 2.31739 16.7008 1.60503 16.7008C1.13278 16.7008 0.75 16.318 0.75 15.8461C0.75 15.374 1.13279 14.9914 1.60503 14.9914C2.97142 14.9914 3.68317 15.6295 4.25459 16.1423C4.73392 16.572 5.0506 16.8563 5.76268 16.8563C6.4746 16.8563 6.79132 16.572 7.27061 16.1423C7.84251 15.6295 8.55382 14.9914 9.92016 14.9914C11.2873 14.9914 11.9983 15.6295 12.5696 16.1423C13.0489 16.572 13.3656 16.8563 14.078 16.8563C14.7908 16.8563 15.1071 16.572 15.5861 16.1423C16.1583 15.6295 16.8693 14.9914 18.2363 14.9914C19.603 14.9914 20.3144 15.6295 20.8861 16.1423C21.3656 16.572 21.6825 16.8563 22.3947 16.8563C22.8665 16.8563 23.2494 17.2387 23.2494 17.7113C23.25 18.1829 22.8671 18.5654 22.3953 18.5654L22.3953 18.5653ZM5.76316 15.9238C6.47508 15.9238 6.7918 15.6398 7.27109 15.2097C7.84299 14.6971 8.5543 14.0591 9.92065 14.0591C11.2878 14.0591 11.9988 14.6972 12.57 15.2097C13.0494 15.6399 13.3661 15.9238 14.0785 15.9238C14.7913 15.9238 15.1075 15.6398 15.5865 15.2097C16.1588 14.6971 16.8698 14.0591 18.2367 14.0591C18.369 14.0591 18.4935 14.0668 18.614 14.0782L13.9043 6.15869L18.6357 5.08753C19.4313 4.90751 19.9298 4.11682 19.7494 3.32158C19.5697 2.52617 18.7787 2.02787 17.9836 2.20755L11.3309 3.71392C10.8778 3.81656 10.4991 4.12683 10.3097 4.55091C10.1196 4.97576 10.141 5.46465 10.3668 5.87069L12.1291 9.04385L2.85038 14.2723C3.46531 14.5028 3.88967 14.8818 4.25521 15.2095C4.73422 15.6399 5.0511 15.9236 5.76314 15.9236L5.76316 15.9238ZM17.1822 9.27666C17.1822 10.7488 18.3761 11.9424 19.848 11.9424C21.3206 11.9424 22.5142 10.7488 22.5142 9.27666C22.5142 7.80433 21.3206 6.61091 19.848 6.61091C18.3761 6.61107 17.1822 7.80449 17.1822 9.27666ZM22.3953 21.8288C22.8671 21.8288 23.2501 21.4463 23.2501 20.9742C23.2501 20.5021 22.8671 20.1195 22.3953 20.1195C21.683 20.1195 21.3663 19.8355 20.8868 19.4054C20.315 18.8931 19.6036 18.2549 18.2369 18.2549C16.8698 18.2549 16.1588 18.8931 15.5867 19.4054C15.1077 19.8356 14.7913 20.1195 14.0786 20.1195C13.3663 20.1195 13.0495 19.8355 12.5702 19.4054C11.9987 18.8931 11.2876 18.2549 9.92081 18.2549C8.55442 18.2549 7.84347 18.8931 7.27125 19.4054C6.79225 19.8356 6.47524 20.1195 5.76332 20.1195C5.05124 20.1195 4.7344 19.8355 4.25523 19.4054C3.68349 18.8931 2.97202 18.2549 1.60568 18.2549C1.13342 18.2549 0.750643 18.6373 0.750643 19.1092C0.750643 19.5815 1.13343 19.9639 1.60568 19.9639C2.31804 19.9639 2.63432 20.2483 3.11361 20.678C3.6855 21.1908 4.39682 21.8286 5.76364 21.8286C7.13003 21.8286 7.8413 21.1908 8.4132 20.678C8.89252 20.2483 9.20877 19.9639 9.92113 19.9639C10.6335 19.9639 10.9502 20.2483 11.4295 20.678C12.001 21.1908 12.7129 21.8286 14.0791 21.8286C15.446 21.8286 16.1572 21.1908 16.7291 20.6782C17.2085 20.2481 17.5251 19.9638 18.2375 19.9638C18.9496 19.9638 19.2666 20.2482 19.7461 20.6779C20.3173 21.1909 21.0282 21.8288 22.3954 21.8288H22.3953Z" fill="#254B6A"/>
</svg>
