<svg width="24" height="24" viewBox="0 0 24 24" fill="none" xmlns="http://www.w3.org/2000/svg">
<path d="M7.80945 12.7462C8.0033 13.1175 8.19733 13.4679 8.39118 13.798L5.26 13.8049L3.97027 14.9899C1.60695 14.4884 0 12.8475 0 7.4789C0 3.3486 3.37144 0 7.53032 0C9.17511 0 10.6963 0.524136 11.9351 1.41294C11.732 1.49782 11.5322 1.58989 11.3363 1.69084C9.3786 2.69947 7.93356 4.40503 7.26744 6.49292C6.60149 8.58085 6.79383 10.8017 7.80949 12.7461L7.80945 12.7462ZM8.76202 14.405C8.95136 14.7019 9.1412 14.9801 9.33154 15.2398C8.85073 15.6825 8.62526 16.4598 8.7558 17.8163C9.03236 20.6978 9.46328 20.8756 9.48235 22.5156C9.5021 24.156 7.66313 23.9916 7.66313 23.9916C7.66313 23.9916 5.82785 24.1987 5.8089 22.5585C5.78915 20.9179 6.21587 20.7242 6.42428 17.8366C6.52991 16.3813 6.24281 15.6054 5.67913 15.1932C5.55307 15.1013 5.30431 14.9684 5.02171 14.8507L5.49999 14.4111L8.76202 14.405ZM20.2279 13.3023L16.2976 15.3375L15.7241 16.92C13.4778 17.5328 11.369 16.8375 8.96944 12.2435C7.12344 8.70935 8.51156 4.35834 12.07 2.52493C15.6285 0.691527 20.0101 2.07027 21.8563 5.60426C24.1773 10.0476 23.5501 12.2265 21.7594 13.7569L21.7736 13.7358L20.2279 13.3023ZM14.1979 9.98481C14.1979 8.95741 13.3594 8.12457 12.325 8.12457C11.2904 8.12457 10.4519 8.95745 10.4519 9.98481C10.4519 11.0122 11.2904 11.8447 12.325 11.8447C13.3594 11.8447 14.1979 11.012 14.1979 9.98481ZM22.9068 22.9944C22.9068 22.9944 21.4291 23.9802 20.6799 22.5857C19.93 21.1905 20.2084 20.8368 19.0959 18.2743C18.5358 16.9824 17.9436 16.4454 17.2771 16.3411C17.1282 16.318 16.8559 16.314 16.5616 16.3378L16.7745 15.751L20.2931 13.9288L20.83 14.0794C20.83 14.0794 20.5374 14.5112 20.4734 14.6478C20.1905 15.255 20.3135 16.0477 21.0817 17.2287C22.6067 19.5723 23.0548 19.5346 23.8038 20.9293C24.5536 22.3243 22.9068 22.9944 22.9068 22.9944Z" fill="#254B6A"/>
</svg>
