<svg width="28" height="28" viewBox="0 0 28 28" fill="none" xmlns="http://www.w3.org/2000/svg">
<path d="M27.9808 25.4423L27.3616 24.8231C27.3233 24.7849 27.2415 24.8046 27.179 24.8671L27.12 24.9261L22.4856 20.6334C22.4856 20.6334 21.6869 19.8436 21.3524 20.1781L14.4128 13.2386C16.5464 10.6208 16.6589 7.05349 13.6481 4.04246C10.393 0.787525 6.23056 -2.09411 2.06802 2.06804C-2.09413 6.23059 0.787553 10.3931 4.04263 13.6477C7.05361 16.6587 10.6212 16.5459 13.2387 14.4127L20.1783 21.3523C19.8593 21.6713 20.631 22.4883 20.631 22.4883L24.9381 27.1079L24.8672 27.179C24.8045 27.2415 24.785 27.3235 24.8233 27.3616L25.4424 27.9807C25.4807 28.019 25.5626 27.9993 25.6252 27.937L27.937 25.6253C27.9991 25.5624 28.0188 25.4807 27.9807 25.4422L27.9808 25.4423ZM14.6226 10.5191L14.2191 10.1156L14.8166 9.51815C14.7871 9.85488 14.7219 10.189 14.6226 10.5191ZM9.13358 7.46324L8.30643 6.63608L9.17619 5.76617L10.0033 6.59333L9.13358 7.46324ZM10.3502 6.94059L11.1774 7.76775L10.3076 8.63751L9.48044 7.81035L10.3502 6.94059ZM8.78668 7.81015L7.91677 8.68026L7.08961 7.8531L7.95937 6.98334L8.78668 7.81015ZM7.95952 6.28923L7.13236 5.46207L8.00212 4.59231L8.82928 5.41947L7.95952 6.28923ZM7.61264 6.6365L6.74289 7.50626L5.91573 6.6791L6.78549 5.80934L7.61264 6.6365ZM5.56887 6.33201L4.74172 5.50485L5.61148 4.63494L6.43863 5.4621L5.56887 6.33201ZM5.222 6.67908L4.35224 7.54899L3.52508 6.72183L4.39484 5.85207L5.222 6.67908ZM5.56887 7.02596L6.39603 7.85312L5.52627 8.72303L4.69912 7.89587L5.56887 7.02596ZM6.74289 8.19982L7.57004 9.02698L6.70014 9.89674L5.87298 9.06958L6.74289 8.19982ZM7.91675 9.37383L8.74391 10.201L7.87415 11.0708L7.04699 10.2436L7.91675 9.37383ZM8.26363 9.02676L9.13338 8.157L9.96054 8.98416L9.09078 9.85392L8.26363 9.02676ZM10.3076 9.33125L11.1348 10.1584L10.2648 11.0282L9.43769 10.201L10.3076 9.33125ZM10.6543 8.98418L11.524 8.11442L12.3512 8.94158L11.4814 9.81134L10.6543 8.98418ZM11.8709 7.76757L12.7407 6.89766L13.5678 7.72482L12.698 8.59473L11.8709 7.76757ZM11.5242 7.42049L10.6971 6.59333L11.5668 5.72357L12.394 6.55073L11.5242 7.42049ZM10.3502 6.24663L9.52304 5.41947L10.3928 4.54956L11.22 5.37672L10.3502 6.24663ZM9.17619 5.07262L8.34903 4.24546L9.21879 3.3757L10.0459 4.20286L9.17619 5.07262ZM8.00217 3.8986L7.17501 3.07144L8.04477 2.20169L8.87193 3.02884L8.00217 3.8986ZM7.6553 4.24548L6.78554 5.11539L5.95838 4.28823L6.82814 3.41832L7.6553 4.24548ZM5.61153 3.94138L4.78437 3.11402L5.65428 2.24426L6.48143 3.07142L5.61153 3.94138ZM5.26465 4.28845L4.39489 5.15821L3.56773 4.33105L4.43749 3.46129L5.26465 4.28845ZM4.04804 5.50507L3.17828 6.37483L2.35112 5.54767L3.22088 4.67791L4.04804 5.50507ZM4.00546 7.89569L3.1357 8.76545L2.30854 7.93829L3.1783 7.06853L4.00546 7.89569ZM4.35195 8.24257L5.1791 9.06973L4.30934 9.93964L3.48219 9.11248L4.35195 8.24257ZM5.52616 9.41659L6.35331 10.2437L5.48356 11.1135L4.6564 10.2863L5.52616 9.41659ZM6.70017 10.5906L7.52733 11.4178L6.65757 12.2877L5.83041 11.4605L6.70017 10.5906ZM7.87418 11.7645L8.70134 12.5916L7.83158 13.4615L7.00442 12.6344L7.87418 11.7645ZM8.22106 11.4174L9.09082 10.5476L9.91797 11.3748L9.04822 12.2445L8.22106 11.4174ZM10.2648 11.7219L11.092 12.549L10.2222 13.4188L9.39507 12.5916L10.2648 11.7219ZM10.6117 11.375L11.4815 10.5052L12.3086 11.3324L11.4387 12.2022L10.6117 11.375ZM11.8283 10.1584L12.6981 9.28863L13.5252 10.1158L12.6555 10.9855L11.8283 10.1584ZM13.0449 8.94178L13.9147 8.07201L14.742 8.89917L13.8721 9.76893L13.0449 8.94178ZM14.7551 8.21852L14.2615 7.72496L14.5477 7.43843C14.6381 7.69644 14.7071 7.95656 14.7551 8.21852ZM13.7416 5.89699C13.9836 6.23918 14.1863 6.5886 14.3488 6.9439L13.9149 7.37828L13.0877 6.55112L13.7416 5.89699ZM12.8474 4.84328C13.0627 5.05852 13.2609 5.27863 13.4423 5.50249L12.7406 6.20384L11.9134 5.37669L12.6462 4.64388C12.713 4.7095 12.78 4.7757 12.8474 4.84328ZM12.2937 4.30322L11.5668 5.03018L10.7396 4.20302L11.4254 3.51726C11.7064 3.75828 11.9955 4.01982 12.2937 4.30322ZM10.3857 2.69171C10.6025 2.84913 10.8228 3.01905 11.0474 3.20126L10.3927 3.85597L9.56555 3.02881L10.1023 2.4921C10.1964 2.55656 10.2908 2.62295 10.3857 2.69171ZM8.60794 1.63859C8.95677 1.79543 9.31574 1.9886 9.68315 2.2177L9.21869 2.68216L8.39153 1.855L8.60794 1.63859ZM8.11379 1.43898L8.04485 1.50793L7.90598 1.36906C7.97453 1.39094 8.04407 1.41437 8.11379 1.43898ZM6.75638 1.1423C6.84075 1.14816 6.92552 1.15695 7.01087 1.16769L7.69798 1.8548L6.82807 2.72471L6.00091 1.89735L6.75638 1.1423ZM5.45792 1.25929C5.6544 1.2089 5.85225 1.17335 6.05187 1.15284L5.65421 1.5507L5.3837 1.28018C5.40831 1.27335 5.4333 1.26593 5.45792 1.25929ZM4.86941 1.45949L5.3073 1.89738L4.43755 2.76714L3.76489 2.09448C4.12993 1.82749 4.49871 1.61534 4.86941 1.45949ZM2.86839 2.8687C3.03675 2.70034 3.20628 2.54467 3.3766 2.40053L4.09025 3.11419L3.22049 3.9841L2.49919 3.26259C2.6152 3.13076 2.73786 2.99911 2.86833 2.86864L2.86839 2.8687ZM2.18578 3.64291L2.87409 4.33082L2.00433 5.20073L1.52503 4.72143C1.69163 4.35912 1.91214 3.99937 2.18578 3.64291ZM1.25922 5.45818C1.27973 5.37869 1.30376 5.29919 1.32915 5.2197L1.65708 5.54725L1.15257 6.05175C1.17308 5.85253 1.20825 5.65486 1.25922 5.45818ZM1.14203 6.75665L2.00414 5.89454L2.8313 6.7217L1.96139 7.59145L1.14323 6.7733C1.14265 6.76763 1.14226 6.76197 1.14206 6.75669L1.14203 6.75665ZM1.43911 8.11406C1.40922 8.03027 1.3809 7.94726 1.35571 7.86484C1.32875 7.77831 1.30531 7.69238 1.28324 7.60703L1.6145 7.93847L1.43911 8.11406ZM1.63833 8.60821L1.96118 8.28516L2.78834 9.11232L2.21743 9.68342C1.98833 9.31603 1.79497 8.95706 1.63833 8.60821ZM2.69144 10.386C2.62269 10.2911 2.55628 10.1967 2.49183 10.1026L3.13518 9.45922L3.96234 10.2864L3.20098 11.0475C3.01876 10.8231 2.84883 10.6028 2.69143 10.386L2.69144 10.386ZM3.51685 11.4256L4.3096 10.6332L5.13676 11.4604L4.30315 12.294C4.01956 11.9958 3.7577 11.7067 3.51685 11.4256ZM4.84301 12.8477C4.77523 12.7803 4.70922 12.7133 4.64398 12.6467L5.48344 11.8073L6.3106 12.6344L5.50219 13.4428C5.27836 13.2614 5.05827 13.0631 4.84301 12.8477ZM5.89672 13.7419L6.65728 12.9811L7.48444 13.8083L6.94343 14.3493C6.58835 14.1868 6.23852 13.9836 5.89672 13.7419ZM7.43813 14.5485L7.8313 14.1554L8.47136 14.7952C8.12429 14.7501 7.77934 14.6675 7.43813 14.5485ZM9.00515 14.6356L8.17799 13.8085L9.04775 12.9387L9.87491 13.7659L9.00515 14.6356ZM9.51766 14.8167L10.222 14.1124L10.681 14.5714C10.2985 14.7003 9.90966 14.7823 9.51766 14.8167ZM11.1923 14.3692C11.1878 14.3714 11.1831 14.3731 11.1786 14.3751L10.5688 13.7655L11.4386 12.8956L12.273 13.73C11.9277 13.9857 11.5666 14.1994 11.1924 14.3693L11.1923 14.3692ZM13.055 13.0554C12.9259 13.1845 12.7937 13.3065 12.6591 13.4224L11.7858 12.5491L12.6556 11.6793L13.5194 12.5432C13.3755 12.7184 13.2206 12.8891 13.055 13.0553L13.055 13.0554ZM13.8192 12.1495L13.0022 11.3325L13.8721 10.4627L14.4398 11.0299C14.4171 11.0842 14.3939 11.1385 14.3692 11.1926C14.2192 11.5219 14.0355 11.8416 13.8192 12.1495Z" fill="#254B6A"/>
</svg>
