<svg width="24" height="24" viewBox="0 0 24 24" fill="none" xmlns="http://www.w3.org/2000/svg">
<path d="M12 0C5.37257 0 0 5.37257 0 12C0 18.6274 5.37257 24 12 24C18.6274 24 24 18.6274 24 12C24 5.37257 18.6274 0 12 0ZM12 1.22177C12.5513 1.22177 13.1064 1.26429 13.6505 1.348C15.3779 2.02064 19.4842 4.33596 20.9131 11.4173C20.4078 11.3016 18.957 10.8925 16.8256 9.65058C16.773 9.28429 16.4839 7.5799 15.4573 5.80116C14.7892 4.64384 13.9461 3.70064 12.9522 2.99753C11.8863 2.24367 10.6446 1.76671 9.2531 1.5757C10.1459 1.34065 11.0673 1.22179 12.0002 1.22179L12 1.22177ZM1.22186 11.9999C1.22186 7.54277 3.89742 3.60977 8.04042 1.97306C8.27446 1.97356 9.98725 2.00235 11.4174 2.70681C10.7143 2.97802 8.87395 3.76684 7.01815 5.223C4.00444 7.58717 2.1993 10.8754 1.6473 15.0034C1.36505 14.0299 1.22191 13.0224 1.22191 11.9996L1.22186 11.9999ZM2.07617 16.2093C2.01456 15.1329 2.40329 11.4247 4.92467 8.09473C6.38198 6.17001 8.25012 4.89201 9.56095 4.15873C10.8035 3.46363 11.7932 3.11323 12.0319 3.03339C12.2306 3.14455 13.0099 3.61397 13.969 4.63299C13.2794 5.25827 9.42316 8.82729 7.51173 12.133C5.67141 15.3161 4.78311 17.5463 4.49515 19.7333C3.46692 18.734 2.63387 17.5215 2.07638 16.2094L2.07617 16.2093ZM4.96332 20.1609C5.05088 19.3963 5.55008 16.2136 8.05036 12.2443C10.6417 8.13099 13.6784 5.53457 14.2951 5.02886C14.6582 5.53796 16.074 7.64246 16.2782 9.77229C15.9484 10.0257 14.3754 11.2701 12.8001 13.1078C11.7633 14.3173 10.9269 15.5448 10.3147 16.7555C9.56875 18.2302 9.15475 19.685 9.08275 21.0815C8.96271 21.0885 8.76115 21.0969 8.50838 21.0969C7.73845 21.0969 6.30492 21.0153 5.33914 20.4708C5.21308 20.3715 5.08702 20.2674 4.96347 20.1606L4.96332 20.1609ZM12 22.7781C10.1741 22.7781 8.4002 22.3219 6.81775 21.4519C7.33105 21.5621 7.94373 21.655 8.55145 21.655C8.81478 21.655 9.06475 21.6374 9.2954 21.6024C9.52124 21.722 10.6221 22.2873 12.1278 22.7775C12.085 22.7778 12.0426 22.7782 12.0001 22.7782L12 22.7781ZM13.5655 22.6641C12.599 22.3809 10.1483 21.6071 9.60355 21.1931C9.6223 20.8518 9.74451 19.2573 10.4287 17.717C10.7105 17.9541 11.398 18.497 12.4363 19.0936C13.6315 19.7803 15.5225 20.6588 17.8654 21.0426C16.5702 21.8837 15.0913 22.4418 13.5652 22.6642L13.5655 22.6641ZM18.4893 20.6053C17.893 20.5471 14.4055 20.0917 10.6602 17.224C10.8644 16.8051 11.6804 15.1891 12.4883 14.3891C12.7834 14.523 13.8003 14.9656 15.2208 15.4029C16.8137 15.8932 19.2651 16.4788 21.8165 16.4552C21.074 18.089 19.9276 19.5194 18.4895 20.6054L18.4893 20.6053ZM22.03 15.9502C20.8371 15.9279 17.1053 15.7078 12.8106 13.9558C13.3398 13.3471 15.4075 11.0072 16.6452 10.1549C17.1478 10.4688 19.8561 12.0903 22.124 12.0903C22.3531 12.0903 22.5724 12.0733 22.7785 12.0398C22.7736 13.3881 22.5218 14.7033 22.0301 15.9501L22.03 15.9502ZM22.1189 11.526C21.9184 11.526 21.6949 11.5182 21.4537 11.5028C21.3849 11.0559 21.0849 9.35858 20.251 7.44106C19.6818 6.13139 18.978 4.97476 18.1599 4.00362C17.4546 3.16606 16.6617 2.46544 15.7932 1.91065C19.7456 3.40512 22.5625 7.16665 22.7656 11.4892C22.6285 11.5086 22.4219 11.5262 22.1189 11.5262L22.1189 11.526Z" fill="#254B6A"/>
</svg>
