<?xml version="1.0" encoding="utf-8"?>
<!-- Generator: Adobe Illustrator 19.2.1, SVG Export Plug-In . SVG Version: 6.00 Build 0)  -->
<svg version="1.1" id="layer" xmlns="http://www.w3.org/2000/svg" xmlns:xlink="http://www.w3.org/1999/xlink" x="0px" y="0px"
	 viewBox="0 0 652 652" style="enable-background:new 0 0 652 652;" xml:space="preserve">
<g>
	<path d="M167.6,322.1h-10.5c-0.1-8.3-5.7-13.5-13.9-13.5c-12.3,0-16,11.1-16,22c0,10.6,5.1,19.3,16.8,19.3c6.8,0,12.3-5,12.5-12.2
		h11.2c-0.3,15.4-13.3,20.2-24.1,20.2c-19.3,0-28.6-12.3-28.6-28.2c0-16.8,8.6-29.1,26.2-29.1c6.6,0,12,1.8,15.7,7.4l0.2,0.2v-6.4
		h10.5V322.1z"/>
	<path d="M212.8,337.1c0,13.1-8.7,20.8-21,20.8c-12.3,0-21-7.7-21-20.8c0-13.1,8.6-20.8,21-20.8C204.2,316.2,212.8,324,212.8,337.1
		 M191.8,349.9c7.1,0,9.4-6.6,9.4-12.9c0-6.2-2.3-12.9-9.4-12.9s-9.4,6.6-9.4,12.9C182.4,343.3,184.7,349.9,191.8,349.9"/>
	<polygon points="213.1,349.2 218.5,349.2 218.5,308.2 213.1,308.2 213.1,300.6 229.7,300.6 229.7,349.2 235.2,349.2 235.2,356.7 
		213.1,356.7 	"/>
	<polygon points="239.3,349.2 244.7,349.2 244.7,308.2 239.3,308.2 239.3,300.6 255.9,300.6 255.9,349.2 261.3,349.2 261.3,356.7 
		239.3,356.7 	"/>
	<path d="M274.3,340.3c0,6.2,3.6,10.1,9.8,10.1c3.9,0,6.6-1.6,7.7-5.8h10.5c-1.9,9.5-9.6,13.3-18.6,13.3c-13.8,0-21.1-8.2-21.1-21.3
		c0-12.3,8.4-20.3,20.8-20.3c9.5,0,17.1,5.5,18.8,15.1c0.5,3.1,0.5,6.1,0.5,8.9L274.3,340.3L274.3,340.3z M291.7,333.1
		c0-5.6-2.9-9.3-8.7-9.3c-5.6,0-8.7,4-8.7,9.3H291.7z"/>
	<path d="M353.6,325h-5.5v28.1c0,10-5,19.1-20.8,19.1c-11.6,0-17.7-3.7-18.3-13h12.2c0.3,4.8,3.7,5.5,7.3,5.5c5,0,8.5-4.8,8.5-9.7
		v-4.4c-3.7,4-6.4,5.7-13.2,5.7c-10.6,0-16.8-9.1-16.8-19.1c0-11.6,5.3-20.7,18-20.7c6.3,0,10.2,2.9,12.8,7.1h0.2v-6h15.6L353.6,325
		L353.6,325z M328,348.2c6.9,0,9.6-5.5,9.6-11.9c0-6-2.4-11.8-9.4-11.8c-7.1,0-9.7,6-9.7,12.3C318.5,342.7,321.7,348.2,328,348.2"/>
	<path d="M366.5,340.3c0,6.2,3.6,10.1,9.8,10.1c3.9,0,6.6-1.6,7.7-5.8h10.5c-1.8,9.5-9.6,13.3-18.6,13.3c-13.8,0-21.1-8.2-21.1-21.3
		c0-12.3,8.4-20.3,20.8-20.3c9.5,0,17.1,5.5,18.8,15.1c0.5,3.1,0.5,6.1,0.5,8.9L366.5,340.3L366.5,340.3z M383.9,333.1
		c0-5.6-2.9-9.3-8.7-9.3c-5.6,0-8.7,4-8.7,9.3H383.9z"/>
	<path d="M397.5,348.7h6.9v-39h-6.9v-8h26.4c10,0,21.7,0.3,21.7,13.4c0,7.3-3.8,11.6-11.2,12.5v0.2c7,0.3,12.9,5.5,12.9,12.8
		c0,16.5-15.3,16-23.9,16h-25.9C397.5,356.7,397.5,348.7,397.5,348.7z M416,324.7h6.6c5.5,0,11.4-1.1,11.4-7.9c0-6.6-6-7.1-11.1-7.1
		h-7V324.7z M416,348.7h7.7c7.1,0,12-1.2,12-8.6c0-7.9-6-7.9-11.9-7.9H416V348.7z"/>
	<path d="M491.2,337.1c0,13.1-8.6,20.8-21,20.8c-12.3,0-21-7.7-21-20.8c0-13.1,8.6-20.8,21-20.8C482.6,316.2,491.2,324,491.2,337.1
		 M470.2,349.9c7.1,0,9.4-6.6,9.4-12.9c0-6.2-2.3-12.9-9.4-12.9c-7.1,0-9.4,6.6-9.4,12.9C460.8,343.3,463.1,349.9,470.2,349.9"/>
	<path d="M521.1,351h-0.2c-3.4,5.3-7.1,6.9-13,6.9c-7.3,0-13.7-4.2-13.7-12.6c0-12.9,12.9-13.3,22.8-13.3h4v-3c0-4.6-3.4-6-7.6-6
		c-4.4,0-7.1,1.8-7.4,6.4h-10.5c0.7-11.3,9.9-13.1,19.1-13.1c12.7,0,16.8,5.3,16.8,17.2v15.7h5v7.6h-15.4L521.1,351L521.1,351z
		 M515.6,338.8c-5.7,0-10.8,0.9-10.8,6.2c0,3.7,2.5,5.4,6,5.4c6.6,0,10.4-4.9,10.3-11.6H515.6z"/>
	<path d="M540.6,349.2h5.5V325h-5.5v-7.6h15.9v7.6h0.2c2.4-5,6.3-8.8,12.1-8.8c1.6,0,3.3,0.2,4.8,0.5v9.2c-1.6-0.4-3.4-0.4-5-0.4
		c-7.4,0-10.8,5.5-11.3,12.3v11.4h6.7v7.6h-23.3L540.6,349.2L540.6,349.2z"/>
	<path d="M614.9,348.8h5.5v7.6h-15.5v-6.6h-0.2c-3.5,5.5-7,7.7-13.9,7.7c-11.4,0-17-9.7-17-20.2c0-14.5,7.4-21.4,17.6-21.4
		c6.6,0,10.3,3.2,12.2,7h0.2v-15h-5.5v-7.6h16.6V348.8z M604.4,336.1c0-6.5-2.8-12.3-9.7-12.3c-7.1,0-9.3,6.4-9.3,12.9
		c0,8.5,3.5,12.8,8.3,12.8C602.1,349.6,604.4,344.4,604.4,336.1"/>
	<path d="M100,302.5c-1.2-5.4-5.1-9.1-10.5-11.4c0,0-2.7-1.1-4.5-1.5c-2.4-0.7-4.5-1.1-7-1.5c-3.3-0.6-12.2-1.4-13.7-1.5
		c-0.5,0-0.2-0.5,0-0.8c0.5-0.7,1.2-1.4,1.7-2.1c1.1-1.5,2-3.2,2.4-4.9c0.5-2,0.6-4.1,0.4-6.2c-0.1-0.7-0.2-1.5-0.4-2.2
		c-0.1-0.3-0.3-0.9-0.6-1.1c-0.3-0.2-0.8,0-1.1,0.1c-0.7,0.2-1.4,0.5-2,0.9c-4,2.1-7.8,4.9-10,8.7c-0.9,1.5-1.5,3.2-1.7,4.9
		c0,0.5,0,1-0.1,1.5c0,0.3,0,0.7-0.2,1c-0.2,0.4-0.7,0.5-1.1,0.5c-0.8,0.1-5.9,0.6-7.5,0.9c-3.7,0.6-7.4,1.4-10.9,2.6
		c-1.3,0.4-2.6,1-3.9,1.7c-0.1,0-0.1,0.1-0.2,0.1c-0.6,0.3-1.1,0.6-1.7,1c-0.1,0-0.1,0.1-0.2,0.1c-0.6,0.4-1.1,0.8-1.6,1.2
		c-0.4,0.3-0.7,0.6-1,1c-0.1,0.1-0.3,0.2-0.4,0.4c-0.1,0.2-0.3,0.3-0.5,0.5c-0.7,0.7-1.2,1.6-1.7,2.5c0,0.1-0.1,0.2-0.1,0.2
		c-0.2,0.4-0.4,0.8-0.5,1.1c-0.1,0.2-0.2,0.5-0.3,0.7c0,0.1-0.1,0.3-0.1,0.4c-0.1,0.5-0.3,0.9-0.4,1.4c-0.3,1.1-0.3,2.3-0.3,3.4
		c0,0.4,0,0.8,0.1,1.2c0,0.2,0.1,0.5,0.1,0.7c0,0.2,0.1,0.5,0.1,0.7c0.6,3,1.7,5.2,1.7,5.2c1.1,2.4,2.7,5.4,5.1,7.9
		c0,0,0.4,0.5,0.4,1.2c0.1,1.8,0.5,5.7,2.2,10.8c4.2,12.7,13,22.2,18.5,26.5c0,0,2.9,2.4,4.1,3.4c1.6,1.4,4.5,3.4,4.5,3.4
		c1.1,0.7,1.7,1,3.2,1c1.8,0,3.2-0.9,4.5-1.8c1.7-1.1,8.3-6.8,8.3-6.8c7.1-6.2,18.3-18.2,19.6-36.4l0,0c0-0.7,0.4-1.3,0.4-1.3
		c2.4-2.4,4-5.4,5.1-7.9C98.3,313.6,101.2,308,100,302.5 M58.7,283.8c0.1-0.9,0.3-1.7,0.6-2.5c0.8-1.9,2-3.8,3.5-5.3
		c0.5-0.5,1-0.9,1.5-1.3c0.2-0.1,0.6-0.4,0.9-0.3c0.6,0.1-0.5,2.8-0.6,3.1c-0.7,1.8-1.5,3.5-2.8,5c-0.6,0.7-1.2,1.3-1.9,1.9
		c-0.2,0.2-0.8,0.7-1.1,0.6C58.6,284.8,58.6,284.1,58.7,283.8 M90.9,309.4c-0.1,0.3-0.5,1-0.7,1.3c0,0-4.7,7-4,11
		c0.5,2.6,2,6.3-1.6,14.7c-2,4.6-4.4,10.1-11.8,18.6c0,0-2.5,2.6-3.8,3.6c0,0-6.2,5.2-8.4,5.1c-1.9,0-3.4-1.1-4.7-2.2
		c-1-0.9-3.3-3.4-3.4-3.6c-11.2-14.1-11.7-25.6-9.6-33.7c0.7-2.6,2.4-4.5,4.5-6c4.2-2.9,9.6-3.7,10.4-3.8c2.2-0.2,3.2-0.3,5.4-0.3
		c1.7,0,3.3,0,5,0c0.9,0,1.9,0.1,2.8,0.1c1.3,0.1,2.6,0.3,3.9,0.5c0.8,0.1,1.6,0.4,2.4,0.5c0.6,0.1,1.3,0,1.4-0.7c0-0.1,0-0.2,0-0.4
		c-0.3-0.7-1.5-1.9-6.1-3.1c-0.9-0.2-2-0.4-3.2-0.5c-0.7-0.1-1.4-0.1-2.1-0.2c-0.4,0-0.9,0-1.3-0.1c-0.1,0-0.1,0-0.2,0
		c-0.4,0-0.9,0-1.3,0c-0.1,0-0.1,0-0.1,0c-0.5,0-1,0-1.5,0c-0.5,0-1,0-1.5,0h0c-7.8,0.1-14.8,0.8-14.8,0.8S34,312.9,34,303.8
		c0-9,11.4-11.1,18.9-12.1c0.1,0,0.1,0,0.2,0l0,0h0c0,0,0,0,0,0c0,0,0.1,0,0.1,0h0c0.4-0.1,0.8-0.1,1.1-0.1c0.2,0,0.5,0,0.7-0.1
		c0.5-0.1,1.1-0.1,1.6-0.2c1.2-0.1,2.6-0.2,4-0.2c0.2,0,0.7,0,0.7,0c2.9,0,5.8,0.2,8.6,0.6c2.1,0.3,4.2,0.6,6.2,1.1
		C85.9,294.9,95.4,299.4,90.9,309.4"/>
</g>
</svg>
