<svg width="144" height="56" viewBox="0 0 144 56" fill="none" xmlns="http://www.w3.org/2000/svg">
<g clip-path="url(#clip0_914_12764)">
<path fill-rule="evenodd" clip-rule="evenodd" d="M30.3904 16.3008L28.8574 4.82982C28.8574 4.82982 40.7363 2.84921 48.5475 10.6836L41.1196 19.7891C41.1196 19.7891 37.3328 15.9908 30.3904 16.3008Z" fill="#DB5150"/>
<path fill-rule="evenodd" clip-rule="evenodd" d="M39.1543 23.3156L47.084 14.9082C47.084 14.9082 56.0884 22.9276 54.9253 33.9453L43.1949 33.8772C43.1949 33.8772 43.7594 28.5356 39.1543 23.3156Z" fill="#E59750"/>
<path fill-rule="evenodd" clip-rule="evenodd" d="M39.1781 34.6491L50.6754 35.6322C50.6754 35.6322 50.0313 47.6925 40.7141 53.6445L33.459 44.3995C33.459 44.3995 37.976 41.5141 39.1781 34.6491Z" fill="#F8DB5C"/>
<path fill-rule="evenodd" clip-rule="evenodd" d="M30.3592 41.7321L36.7559 51.3646C36.7559 51.3646 26.9488 58.3732 16.502 54.7718L19.192 43.3203C19.192 43.3203 24.2565 45.0662 30.3592 41.7321Z" fill="#5BB16E"/>
<path fill-rule="evenodd" clip-rule="evenodd" d="M19.34 39.2266L15.8129 50.2461C15.8129 50.2461 4.23717 46.9188 0.537109 36.4792L11.1438 31.4552C11.1438 31.4552 12.9377 36.5161 19.34 39.2266Z" fill="#4E9ECD"/>
<path fill-rule="evenodd" clip-rule="evenodd" d="M14.4291 29.0189L3.63775 33.1172C3.63775 33.1172 -0.979461 21.9628 4.85717 12.556L15.3838 17.7472C15.3838 17.7472 12.5543 22.3075 14.4291 29.0189Z" fill="#3669AA"/>
<path fill-rule="evenodd" clip-rule="evenodd" d="M19.3316 18.8047L9.41211 12.8919C9.41211 12.8919 15.2348 2.32023 26.2074 1.03849L28.7172 12.531C28.7172 12.531 23.3975 13.1525 19.3316 18.8047Z" fill="#844897"/>
<path fill-rule="evenodd" clip-rule="evenodd" d="M21.5975 22.2207C22.4323 21.3837 23.4052 20.7355 24.4896 20.2943C25.537 19.8689 26.6436 19.6531 27.779 19.6531C28.9144 19.6531 30.0209 19.8689 31.0684 20.2943C32.1537 20.7355 33.1262 21.3837 33.9601 22.2207C34.7946 23.0571 35.4407 24.0339 35.8808 25.121C36.3053 26.1716 36.5205 27.282 36.5205 28.4204C36.5205 29.5591 36.3053 30.6692 35.8808 31.7195C35.4407 32.8073 34.7949 33.7831 33.9601 34.6198C33.1262 35.4569 32.1529 36.1047 31.0684 36.5459C30.0209 36.9717 28.9144 37.1875 27.779 37.1875C26.6436 37.1875 25.537 36.9722 24.4896 36.5459C23.4048 36.1047 22.4323 35.4569 21.5975 34.6198C20.7635 33.7831 20.1176 32.8069 19.6773 31.7195C19.2527 30.6692 19.0371 29.5591 19.0371 28.4204C19.0371 27.282 19.2527 26.1716 19.6773 25.121C20.1176 24.0339 20.763 23.0574 21.5975 22.2207ZM27.0863 36.1799C27.4269 36.354 27.7771 36.5014 28.1364 36.6211C26.6086 36.6877 25.0656 36.3287 23.7012 35.5435L27.0084 36.1345C27.0337 36.1507 27.0594 36.1664 27.0863 36.1799ZM21.222 32.1123C20.8009 31.8472 20.4129 31.5418 20.0697 31.1823C19.5449 29.7014 19.4556 28.0983 19.8032 26.5765C19.9673 26.2528 20.1533 25.9425 20.3637 25.6448C20.3864 25.6126 20.4086 25.5799 20.4309 25.5472C20.4719 25.4867 20.5131 25.4261 20.5583 25.368L22.5307 26.5391V26.5886C22.5259 27.6528 22.6335 28.7092 22.8482 29.7503C22.8485 29.7538 22.8491 29.7563 22.8497 29.7591L22.8504 29.7623L21.3205 32.168C21.2874 32.1509 21.2543 32.1326 21.222 32.1123ZM23.1719 34.8845L27.0745 35.582C27.1346 35.5119 27.1925 35.4414 27.2474 35.3682C27.5757 34.927 27.8976 34.4813 28.2155 34.0332L26.3833 30.8559C26.3496 30.8525 26.3112 30.847 26.2668 30.8406L26.2668 30.8406L26.2374 30.8365C25.2576 30.6936 24.2842 30.5115 23.3283 30.2544C23.297 30.2463 23.2683 30.2392 23.2418 30.2326L23.2417 30.2326L23.2137 30.2256L21.6855 32.6291C21.7385 32.7458 21.8036 32.8568 21.8686 32.9677C21.8966 33.0155 21.9246 33.0633 21.9516 33.1115C22.3044 33.7403 22.7151 34.3284 23.1719 34.8845ZM33.5681 34.2269C33.2571 34.5387 32.9273 34.8198 32.5826 35.0703C32.5251 34.6117 32.4262 34.1616 32.2871 33.7224L34.2418 30.0648C34.78 29.8187 35.2995 29.54 35.7817 29.1941C35.8447 29.1498 35.8977 29.0995 35.9375 29.0447C35.796 30.9347 35.0061 32.7846 33.5681 34.2269ZM33.6945 29.9052C33.6223 29.7626 33.5504 29.6221 33.4777 29.483C33.0849 28.7286 32.6323 28.011 32.1546 27.3084L28.2547 27.7101L28.2422 27.7343C28.0544 28.1005 27.8663 28.467 27.6746 28.8308C27.3867 29.3799 27.0963 29.9277 26.8027 30.4739L28.6872 33.7422C29.7246 33.7367 30.7537 33.6352 31.7744 33.4439C31.7839 33.4427 31.7933 33.4406 31.803 33.4384L31.8061 33.4377L33.6945 29.9052ZM32.6886 25.2961C32.5208 25.7416 32.3418 26.183 32.1626 26.6248L32.1088 26.7573L28.3101 27.1484C28.2648 27.0883 28.2173 27.0296 28.1681 26.9729C27.8376 26.598 27.5059 26.2246 27.1741 25.8511L27.1739 25.8508L26.8171 25.4491C26.8195 25.446 26.8221 25.4433 26.8246 25.4407L26.8246 25.4407L26.8293 25.4356L26.7068 25.313L26.7065 25.3127C26.5653 25.1714 26.424 25.03 26.2832 24.8883L27.3406 21.695C27.4138 21.6754 27.4869 21.6592 27.5614 21.6511C27.6725 21.6398 27.7837 21.6282 27.8949 21.6166L27.8953 21.6166L27.8957 21.6165L27.896 21.6165C28.3596 21.5681 28.8238 21.5197 29.2881 21.4929C29.6413 21.473 29.9964 21.4616 30.3551 21.487L32.9717 24.4452L32.9455 24.5286L32.9455 24.5286L32.9455 24.5287L32.9455 24.5287C32.8647 24.7862 32.7837 25.0441 32.6886 25.2961ZM35.2409 25.0508C34.8459 24.1677 34.2871 23.3408 33.5652 22.6165C32.7708 21.8206 31.8527 21.2215 30.8727 20.8218C30.8688 20.9487 30.8596 21.0745 30.8418 21.2003L33.4175 24.1118C33.5064 24.1425 33.5942 24.1738 33.6798 24.2093C34.2294 24.4355 34.7523 24.7134 35.2409 25.0508ZM25.1558 20.6666C25.1597 20.6695 25.1629 20.6722 25.1656 20.6745C25.1699 20.6782 25.1732 20.681 25.1767 20.682C25.7655 20.8858 26.3012 21.1866 26.8059 21.5427L25.8178 24.5272C25.8126 24.5286 25.8078 24.53 25.803 24.5325C25.7321 24.5618 25.6608 24.5901 25.5895 24.6184L25.5895 24.6184C25.4573 24.6708 25.3251 24.7232 25.1959 24.7822C24.3754 25.1556 23.5758 25.5699 22.8228 26.0664L20.873 24.9094C20.8761 24.8484 20.8861 24.7864 20.907 24.7313L20.9557 24.6012C21.0702 24.2943 21.1849 23.9872 21.3147 23.6869C21.4288 23.4224 21.559 23.1675 21.7005 22.9181C21.7933 22.8152 21.8895 22.7135 21.9888 22.6143C22.9147 21.6859 24.0087 21.0267 25.1741 20.6367L25.1712 20.6412C25.166 20.6493 25.1606 20.6577 25.1558 20.6666Z" fill="#837F7F"/>
<path fill-rule="evenodd" clip-rule="evenodd" d="M64.1855 17.9664H68.4299V31.9795H73.6769V36H68.4299H64.1855V31.9795V17.9664Z" fill="#222222"/>
<path fill-rule="evenodd" clip-rule="evenodd" d="M89.9358 22.4988H86.7079V23.9214C85.4807 22.825 83.8652 22.1588 82.095 22.1588C78.2528 22.1588 75.1387 25.2956 75.1387 29.1654C75.1387 33.035 78.2528 36.1719 82.095 36.1719C83.8652 36.1719 85.4807 35.5058 86.7079 34.4092V36.1719H89.9358V22.4988ZM82.6845 25.4846C84.6217 25.4846 86.1923 27.0663 86.1923 29.0176C86.1923 30.969 84.6217 32.5508 82.6845 32.5508C80.7471 32.5508 79.1765 30.969 79.1765 29.0176C79.1765 27.0663 80.7471 25.4846 82.6845 25.4846Z" fill="#222222"/>
<path fill-rule="evenodd" clip-rule="evenodd" d="M126.131 22.4966H122.903V23.9192C121.675 22.8228 120.06 22.1566 118.29 22.1566C114.449 22.1566 111.334 25.2935 111.334 29.1633C111.334 33.0328 114.449 36.1697 118.29 36.1697C120.06 36.1697 121.675 35.5036 122.903 34.407C122.903 34.407 122.812 34.6053 122.632 34.8986C122.115 35.741 120.863 37.37 118.917 37.37C116.294 37.37 115.868 36.2913 115.868 36.2913L111.74 36.3794C114.21 43.0687 125.118 42.5185 126.131 36.1697V34.5468V22.4966ZM118.88 25.4824C120.817 25.4824 122.388 27.0641 122.388 29.0154C122.388 30.9668 120.817 32.5487 118.88 32.5487C116.942 32.5487 115.372 30.9668 115.372 29.0154C115.372 27.0641 116.942 25.4824 118.88 25.4824Z" fill="#222222"/>
<path fill-rule="evenodd" clip-rule="evenodd" d="M142.99 22.4988H139.762V23.9214C138.535 22.825 136.92 22.1588 135.149 22.1588C131.308 22.1588 128.193 25.2956 128.193 29.1654C128.193 33.035 131.308 36.1719 135.149 36.1719C136.92 36.1719 138.535 35.5058 139.762 34.4092V36.1719H142.99V22.4988ZM135.739 25.4846C137.676 25.4846 139.247 27.0663 139.247 29.0176C139.247 30.969 137.676 32.5508 135.739 32.5508C133.802 32.5508 132.231 30.969 132.231 29.0176C132.231 27.0663 133.802 25.4846 135.739 25.4846Z" fill="#222222"/>
<path fill-rule="evenodd" clip-rule="evenodd" d="M105.314 22.354H109.382V35.9531H105.314V22.354Z" fill="#222222"/>
<path fill-rule="evenodd" clip-rule="evenodd" d="M107.349 15.6718C108.651 15.6718 109.707 16.7307 109.707 18.0371C109.707 19.3434 108.651 20.4023 107.349 20.4023C106.046 20.4023 104.99 19.3434 104.99 18.0371C104.99 16.7307 106.046 15.6718 107.349 15.6718Z" fill="#837F7F"/>
<path fill-rule="evenodd" clip-rule="evenodd" d="M93.6621 17.9664H97.9071V31.9795H103.154V36H97.9071H93.6621V31.9795V17.9664Z" fill="#222222"/>
</g>
<defs>
<clipPath id="clip0_914_12764">
<rect width="142.706" height="55.0712" fill="white" transform="translate(0.646484 0.464844)"/>
</clipPath>
</defs>
</svg>
