<svg width="64" height="64" viewBox="0 0 64 64" fill="none" xmlns="http://www.w3.org/2000/svg">
<g clip-path="url(#clip0_914_12723)">
<path d="M37.9254 18.3132C37.8834 18.3657 37.7888 18.6074 37.7047 18.8386L37.5576 19.2695H37.9675H38.3773L38.2092 18.7651C38.0095 18.1766 38.0095 18.1766 37.9254 18.3132Z" fill="#1E1515" fill-opacity="0.5"/>
<path d="M35.1189 47.9175C34.9192 48.1593 34.9613 48.8108 35.1925 48.979C35.6339 49.3048 36.0753 49.0105 36.0753 48.3905C36.0753 48.1803 36.0227 47.9491 35.9491 47.8755C35.7705 47.6968 35.2871 47.7179 35.1189 47.9175Z" fill="#1E1515" fill-opacity="0.5"/>
<path d="M39.2287 47.9506C38.966 48.4446 39.2708 49.1172 39.7437 49.1172C39.9959 49.1172 40.2797 48.7389 40.2797 48.4026C40.2797 47.9612 40.0905 47.751 39.7017 47.751C39.4494 47.751 39.3023 47.814 39.2287 47.9506Z" fill="#1E1515" fill-opacity="0.5"/>
<g clip-path="url(#clip1_914_12723)">
<path fill-rule="evenodd" clip-rule="evenodd" d="M24.3082 1.58001C19.8627 1.76918 15.2071 2.09497 11.2766 2.50484C7.53528 2.89368 7.49324 2.90419 7.20949 3.22999L6.96777 3.51374L6.98879 25.4468L7.02032 47.3799L7.31458 48.0104C8.40756 50.3435 11.7285 53.0654 17.5087 56.3864C19.8627 57.7316 26.3365 60.979 29.1531 62.2296C29.2146 62.257 29.2745 62.2837 29.333 62.3097C30.4989 62.8291 31.0819 63.0888 31.6648 63.0888C32.2477 63.0888 32.8306 62.8291 33.9965 62.3098C34.0551 62.2837 34.115 62.257 34.1766 62.2296C36.993 60.979 43.4668 57.7316 45.8209 56.3864C51.6011 53.0654 54.9221 50.3435 56.015 48.0104L56.3093 47.3799L56.3409 25.4363L56.3618 3.49272L56.0781 3.19846C55.7943 2.92521 55.6788 2.90419 53.7345 2.6835C49.289 2.17905 44.7174 1.82173 40.1249 1.61154C38.1176 1.51696 26.221 1.49594 24.3082 1.58001ZM40.4927 3.50323C44.8751 3.72393 52.6731 4.35449 54.1339 4.61722L54.4702 4.68028V14.7587V24.8373H51.9479H49.4257V20.644V16.4508L49.7514 16.3877C50.4556 16.2511 50.6658 16.3036 50.7078 16.6084C50.7393 16.8711 50.7814 16.9027 51.2122 16.9342C51.4645 16.9552 51.8323 16.9447 52.0215 16.9027L52.3683 16.8396V15.7572V14.6852H51.6116C50.8865 14.6957 50.855 14.6852 50.7919 14.433C50.7288 14.1912 50.6868 14.1702 50.0983 14.1702C49.7619 14.1808 49.3521 14.2123 49.1944 14.2543L48.9001 14.3279V19.5931V24.8477L47.8808 24.8162L46.8509 24.7847L46.8194 20.045C46.7983 16.3772 46.7668 15.2843 46.6617 15.2422C46.5987 15.2212 43.1936 14.3804 39.1054 13.3926L31.6648 11.5744L24.2347 13.382C20.136 14.3804 16.731 15.2212 16.6679 15.2422C16.5628 15.2843 16.5313 16.3772 16.5103 20.045L16.4788 24.7847L12.6639 24.8162L8.85946 24.8373V14.7587V4.68028L9.25882 4.61722C10.7722 4.3755 17.2249 3.82902 21.1659 3.60832C26.5362 3.29304 35.2695 3.251 40.4927 3.50323ZM20.4303 17.4807C20.5354 17.5437 20.63 17.6804 20.63 17.796C20.63 17.9746 20.5774 17.9851 20.1255 17.9326C19.7577 17.8906 19.5895 17.9221 19.4949 18.0377C19.3058 18.2689 19.4424 18.5106 19.9573 18.8049C20.7981 19.2988 20.9558 19.8032 20.4303 20.3288C20.178 20.581 20.0309 20.6335 19.6316 20.6335C19.001 20.6335 18.7383 20.4864 18.7383 20.1501C18.7383 19.9294 18.7698 19.8874 18.9274 19.9609C19.022 20.0029 19.3163 20.045 19.579 20.045C19.9889 20.0555 20.0519 20.0239 20.0834 19.8243C20.115 19.6456 19.9889 19.5195 19.5265 19.2253C18.8538 18.7943 18.6647 18.4371 18.8538 17.9851C19.0641 17.4702 19.9048 17.2075 20.4303 17.4807ZM22.1854 18.0797L22.2169 18.7418H22.8894H23.5621L23.5936 18.0797C23.6251 17.4597 23.6357 17.4282 23.8879 17.4282H24.1506V19.0046V20.581L23.8668 20.6125L23.5726 20.644V19.9609V19.2673H22.8894H22.2064V19.9609V20.644L21.9226 20.6125L21.6283 20.581L21.5968 19.1096C21.5863 18.311 21.5968 17.5858 21.6283 17.5017C21.6599 17.4282 21.786 17.3756 21.9121 17.3966C22.1328 17.4282 22.1538 17.4912 22.1854 18.0797ZM27.3454 17.5647C27.8184 17.817 28.0916 18.3425 28.0916 19.0046C28.0916 20.0765 27.4506 20.686 26.4206 20.602C25.9267 20.5704 25.8006 20.5074 25.5063 20.1816C24.9598 19.5931 24.9072 18.7733 25.3592 18.0272C25.7375 17.4071 26.6624 17.1969 27.3454 17.5647ZM29.5524 18.5001C29.6995 19.0992 29.8467 19.5825 29.8887 19.5825C29.9202 19.5825 30.0674 19.1727 30.1935 18.6578C30.4983 17.5017 30.5613 17.3756 30.8766 17.3756C31.1393 17.3756 31.2549 17.6593 31.5702 19.0361C31.6438 19.3409 31.7279 19.5825 31.7699 19.5825C31.8014 19.5825 31.9485 19.0992 32.0957 18.5001C32.3374 17.4912 32.3689 17.4282 32.6422 17.3966C32.989 17.3546 32.989 17.3966 32.7052 18.416C32.6823 18.4998 32.6602 18.5805 32.6389 18.6581C32.2096 20.2267 32.1175 20.5629 31.9403 20.6162C31.892 20.6307 31.8373 20.6242 31.7677 20.6159C31.7582 20.6148 31.7485 20.6137 31.7384 20.6125C31.4231 20.581 31.4126 20.5599 31.1498 19.551C31.0027 18.994 30.8556 18.5317 30.8241 18.5317C30.782 18.5317 30.698 18.7839 30.6138 19.0781C30.2356 20.602 30.2145 20.644 29.8572 20.6125C29.7828 20.6053 29.7253 20.5997 29.6758 20.577C29.5084 20.5003 29.4306 20.2282 29.0903 19.037L29.09 19.0361C28.8483 18.1848 28.6696 17.4597 28.7117 17.4282C28.7432 17.3966 28.8903 17.3756 29.027 17.3966C29.2687 17.4282 29.3107 17.5122 29.5524 18.5001ZM35.7425 17.4386C35.9106 17.4912 35.9736 17.5858 35.9736 17.8065C35.9736 18.0797 35.9526 18.1007 35.7004 18.0061C34.6915 17.6173 33.8087 18.5211 34.2291 19.5195C34.4603 20.0765 35.0278 20.2657 35.7004 20.0029C35.9526 19.9084 35.9736 19.9294 35.9736 20.1606C35.9736 20.4864 35.7004 20.6335 35.0804 20.6335C34.2712 20.6335 33.7666 20.2657 33.567 19.53C33.2202 18.1953 34.3867 17.0814 35.7425 17.4386ZM38.8743 18.931C39.1895 19.7507 39.4417 20.4759 39.4417 20.5284C39.4417 20.5914 39.3156 20.6335 39.1685 20.6335C38.9478 20.6335 38.8637 20.5495 38.7376 20.2131L38.5695 19.7928H37.9704H37.3714L37.2453 20.2131C37.1402 20.581 37.0771 20.6335 36.8144 20.6335C36.6358 20.6335 36.4991 20.6125 36.4991 20.581C36.4991 20.4549 37.5921 17.6173 37.6867 17.5017C37.7497 17.4282 37.9074 17.3756 38.0545 17.3966C38.2752 17.4282 38.3698 17.6068 38.8743 18.931ZM41.6907 17.4386C41.7959 17.4807 41.8589 17.6278 41.8589 17.8065C41.8589 18.0903 41.8378 18.1113 41.6487 18.0061C41.5226 17.9431 41.2809 17.9011 41.0917 17.9221C40.8185 17.9431 40.7449 18.0061 40.7239 18.2374C40.6924 18.4686 40.7554 18.5526 41.0392 18.6998C41.6277 18.994 41.964 19.3724 41.964 19.7507C41.964 20.4128 41.3334 20.7596 40.4507 20.5914C40.1143 20.5284 40.0723 20.4864 40.0723 20.1921C40.0723 19.9294 40.1039 19.8874 40.2615 19.9609C40.3561 20.0029 40.6293 20.045 40.8605 20.045C41.2388 20.0555 41.2809 20.0345 41.2809 19.7928C41.2809 19.6141 41.1653 19.467 40.9131 19.2988C40.2615 18.8679 40.0723 18.6367 40.0723 18.2689C40.0723 17.6278 40.9761 17.1654 41.6907 17.4386ZM44.5913 17.6383C44.5913 17.8906 44.5598 17.9011 44.0134 17.9011H43.4353V18.3214V18.7418H44.0134C44.5598 18.7418 44.5913 18.7523 44.5913 19.0046C44.5913 19.2568 44.5598 19.2673 44.0134 19.2673H43.4353V19.6877V20.1081H44.0659C44.6649 20.1081 44.6964 20.1185 44.6964 20.3707C44.6964 20.6335 44.6859 20.6335 43.8031 20.6335H42.9099V19.0046V17.3756H43.7506C44.5809 17.3756 44.5913 17.3756 44.5913 17.6383ZM20.4303 22.315C20.5354 22.3781 20.63 22.5252 20.63 22.6408C20.63 22.8299 20.5774 22.8405 20.1255 22.7774C19.7472 22.7354 19.5895 22.7564 19.4949 22.872C19.3058 23.1032 19.4424 23.3449 19.9573 23.6392C20.7981 24.1331 20.9558 24.6376 20.4303 25.163C20.178 25.4152 20.0309 25.4678 19.6316 25.4678C19.001 25.4678 18.7383 25.3207 18.7383 24.9844C18.7383 24.7637 18.7698 24.7216 18.9274 24.7952C19.022 24.8373 19.3163 24.8793 19.579 24.8793C19.9889 24.8898 20.0519 24.8583 20.0834 24.6586C20.115 24.4799 19.9889 24.3538 19.5265 24.0595C18.8538 23.6287 18.6647 23.2713 18.8538 22.8195C19.0641 22.3045 19.9048 22.0417 20.4303 22.315ZM24.3923 22.273C24.55 22.315 24.6235 22.4201 24.6235 22.5988C24.6235 22.8405 24.6025 22.8405 24.119 22.7774C23.436 22.6934 23.0051 22.9141 22.8369 23.4185C22.5532 24.2802 23.0366 24.9949 23.8353 24.9213L23.9408 24.9072C24.1413 24.8804 24.3419 24.8535 24.4133 24.8267C24.5079 24.8057 24.5815 24.8688 24.6025 25.0159C24.655 25.3522 24.2872 25.4994 23.5621 25.4468C23.0576 25.4152 22.879 25.3417 22.6268 25.1C21.807 24.3118 22.0592 22.8195 23.0997 22.357C23.436 22.2099 24.0035 22.1679 24.3923 22.273ZM26.8095 22.9141L26.841 23.5762H27.5136H28.1862L28.2178 22.9141C28.2493 22.294 28.2598 22.2624 28.512 22.2624H28.7747V23.8388V25.4152L28.491 25.4468L28.1967 25.4783V24.7952V24.1016H27.5136H26.8305V24.7952V25.4783L26.5467 25.4468L26.2525 25.4152L26.221 23.944C26.2104 23.1452 26.221 22.4201 26.2525 22.336C26.284 22.2624 26.4101 22.2099 26.5362 22.2309C26.7569 22.2624 26.7779 22.3255 26.8095 22.9141ZM32.6842 22.3885C33.1991 22.6303 33.4514 23.0822 33.4514 23.7653C33.4514 24.8373 32.9049 25.4678 31.9801 25.4678C31.0448 25.4678 30.4562 24.8583 30.4562 23.9019C30.4562 22.5988 31.5597 21.8526 32.6842 22.3885ZM37.2453 22.4516C38.4854 23.2713 38.065 25.2997 36.6252 25.4468C35.9316 25.5098 35.3956 25.2576 35.1329 24.7216C34.5444 23.5866 35.2695 22.2099 36.4466 22.2099C36.7304 22.2099 37.014 22.294 37.2453 22.4516ZM40.1774 23.5762V24.9423H40.8185C41.4175 24.9423 41.449 24.9529 41.4175 25.1736C41.386 25.3943 41.3229 25.4152 40.5242 25.4468L39.6519 25.4783V23.8388V22.2099H39.9146H40.1774V23.5762ZM44.3917 22.315C44.4967 22.3781 44.5913 22.5252 44.5913 22.6408C44.5913 22.8299 44.5388 22.8405 44.0869 22.7774C43.7085 22.7354 43.5509 22.7564 43.4563 22.872C43.2671 23.1032 43.4038 23.3449 43.9188 23.6392C44.7595 24.1331 44.9171 24.6376 44.3917 25.163C44.1395 25.4152 43.9923 25.4678 43.593 25.4678C42.9624 25.4678 42.6996 25.3207 42.6996 24.9844C42.6996 24.7637 42.7312 24.7216 42.8888 24.7952C42.9834 24.8373 43.2461 24.8898 43.4668 24.9213C44.2656 25.0159 44.2445 24.522 43.4353 24.0175C42.8678 23.6707 42.6576 23.3029 42.7627 22.872C42.8993 22.357 43.8556 22.0313 44.3917 22.315ZM14.9864 30.3442C15.7956 30.6804 16.132 31.5002 15.8587 32.446C15.6906 33.0031 15.4488 33.2868 13.9775 34.5689C13.1788 35.2626 13.2629 35.3466 14.7447 35.3466H16.0058V35.767V36.1874H14.1667H12.3276V35.746C12.3276 35.0103 12.6744 34.4849 13.7463 33.56C14.8603 32.6142 15.102 32.1728 14.8603 31.5843C14.6081 30.9747 13.9985 30.8907 13.1263 31.3425L12.5377 31.6578V31.1849C12.5377 30.7225 12.5483 30.712 13.0947 30.4597C13.7148 30.1655 14.461 30.1235 14.9864 30.3442ZM19.9784 30.4808C20.693 31.0063 21.0188 32.0782 20.9242 33.6021C20.8401 34.9157 20.3672 35.8195 19.6105 36.1453C18.7908 36.4921 17.7609 36.1663 17.33 35.4202C16.6153 34.1906 16.773 31.5317 17.6138 30.7435C18.2233 30.176 19.3898 30.0394 19.9784 30.4808ZM24.3923 30.4072C24.8968 30.6385 25.2436 31.2375 25.2541 31.889C25.2541 32.4356 24.7917 33.2763 24.2242 33.7387C23.3624 34.4323 22.7318 35.0524 22.7318 35.1995C22.7318 35.3151 23.0051 35.3466 24.0455 35.3466H25.3592V35.767V36.1874H23.4675H21.5758V35.788C21.5758 35.3781 21.8595 34.695 22.1748 34.3482C22.2799 34.2327 22.7108 33.8333 23.1312 33.4655C23.9509 32.7508 24.2032 32.383 24.2032 31.91C24.2032 31.1954 23.52 30.8696 22.6793 31.1849C22.4271 31.29 22.1643 31.4371 22.1012 31.5212C21.8805 31.7839 21.786 31.6893 21.786 31.1954C21.786 30.775 21.8175 30.712 22.1223 30.5543C22.9105 30.1445 23.7092 30.0919 24.3923 30.4072ZM28.4069 33.1922V36.1874H27.8814H27.356V33.8228V31.4686L26.9146 31.6683C26.2735 31.9626 26.1999 31.9416 26.1999 31.4792C26.1999 31.1008 26.221 31.0798 27.0722 30.6594C27.5451 30.4178 28.0391 30.2181 28.1757 30.2075L28.4069 30.1971V33.1922ZM35.7109 30.4072C36.289 30.691 36.5517 31.1429 36.5412 31.8785C36.5307 32.6457 36.331 32.9925 35.4376 33.7913L35.3622 33.8575C34.4414 34.6657 34.0201 35.0355 34.0893 35.2045C34.1476 35.347 34.5544 35.3469 35.3043 35.3466C35.3376 35.3466 35.3715 35.3466 35.4061 35.3466H36.7198L36.6883 35.7355L36.6568 36.1348L34.7755 36.1663L32.8944 36.1874L32.9469 35.6199C33.01 34.8737 33.3253 34.4218 34.4183 33.5075C35.3221 32.7403 35.6163 32.2674 35.5112 31.7419C35.4272 31.311 35.28 31.1639 34.8597 31.0798C34.4603 31.0063 33.6616 31.248 33.4514 31.5212C33.2307 31.7839 33.1361 31.6789 33.1361 31.1954C33.1361 30.9756 33.1361 30.8558 33.1885 30.7666C33.2513 30.6599 33.3893 30.5973 33.6928 30.4599L33.6931 30.4597C34.3762 30.134 35.1119 30.1129 35.7109 30.4072ZM40.5768 30.4808C41.2599 30.9853 41.5436 31.7945 41.5436 33.2132C41.5436 35.2205 40.6503 36.4186 39.2841 36.2609C38.6536 36.1979 38.1281 35.8406 37.8758 35.3046C37.2558 34.033 37.3609 31.9416 38.0861 30.9117C38.58 30.2181 39.9146 29.9868 40.5768 30.4808ZM45.0117 30.4282C46.1888 31.0378 46.0942 32.6982 44.8226 33.7387C43.9608 34.4323 43.3302 35.0524 43.3302 35.1995C43.3302 35.3151 43.6034 35.3466 44.6439 35.3466H45.9576V35.767V36.1874H44.0659H42.1742V35.788C42.1847 35.1154 42.5105 34.6005 43.5404 33.6546C44.5598 32.7193 44.8016 32.3935 44.8016 31.91C44.8016 31.1954 44.1184 30.8696 43.2777 31.1849C43.0255 31.29 42.7627 31.4371 42.6996 31.5212C42.4789 31.7839 42.3844 31.6893 42.3844 31.1954C42.3844 30.775 42.4159 30.712 42.7207 30.5543C43.5404 30.1235 44.3286 30.0919 45.0117 30.4282ZM49.6358 30.4282C50.8129 31.0378 50.7183 32.6982 49.4467 33.7387C48.5849 34.4323 47.9544 35.0524 47.9544 35.1995C47.9544 35.3151 48.2276 35.3466 49.268 35.3466H50.5817V35.767V36.1874H48.6795H46.7668L46.8298 35.6724C46.9244 34.9052 47.1136 34.6215 48.1751 33.6441C49.1839 32.7193 49.4257 32.383 49.4257 31.91C49.4257 31.1954 48.7425 30.8696 47.9018 31.1849C47.6496 31.29 47.3869 31.4371 47.3238 31.5212C47.1031 31.7839 47.0085 31.6893 47.0085 31.1954C47.0085 30.775 47.0401 30.712 47.3448 30.5543C48.1645 30.1235 48.9527 30.0919 49.6358 30.4282ZM32.0852 33.9278V34.2957H30.9291H29.7731V33.9278V33.56H30.9291H32.0852V33.9278ZM24.8337 46.6442V47.8528H23.6251H22.4165V46.6442V45.4356H23.6251H24.8337V46.6442ZM42.2163 46.2343C42.5 46.3499 42.4159 46.6757 42.1006 46.7178C41.8694 46.7388 41.7959 46.8124 41.7748 47.0331C41.7433 47.3063 41.7643 47.3273 42.1111 47.3273C42.437 47.3273 42.4895 47.2958 42.4895 47.0751C42.4895 46.8544 42.6576 46.6967 42.9099 46.6967C42.9624 46.6967 43.0149 46.8228 43.036 46.9805C43.057 47.1907 43.1306 47.2853 43.3092 47.3063C43.6455 47.3588 43.6245 47.7477 43.2777 47.7477C43.0255 47.7477 43.0149 47.7792 43.0149 48.3152C43.0149 48.8827 43.1936 49.2085 43.4353 49.0613C43.4984 49.0193 43.5404 49.1034 43.5404 49.261C43.5404 49.5027 43.4984 49.5343 43.1831 49.5343C42.6681 49.5343 42.4895 49.24 42.4895 48.4098V47.7477H42.1217H41.7538V48.641C41.7538 49.5238 41.7538 49.5343 41.491 49.5343C41.2283 49.5343 41.2283 49.5238 41.2283 48.641C41.2283 47.8213 41.2073 47.7477 41.0182 47.7477C40.8815 47.7477 40.808 47.6741 40.808 47.5375C40.808 47.4009 40.8815 47.3273 41.0182 47.3273C41.1758 47.3273 41.2283 47.2538 41.2283 47.0541C41.2283 46.4656 41.7328 46.0452 42.2163 46.2343ZM27.1142 46.5076C27.1773 46.5812 27.398 47.1066 27.6187 47.6636L28.0181 48.6935L28.4384 47.6636C28.9218 46.455 28.9744 46.3815 29.3632 46.3815H29.668V47.9579V49.5343H29.4053H29.1425L29.132 48.3993C29.1312 48.2942 29.1308 48.1977 29.1305 48.1098C29.129 47.7058 29.1281 47.4862 29.0825 47.4764C29.0283 47.4648 28.9106 47.7502 28.653 48.3751C28.6042 48.4935 28.5504 48.6241 28.491 48.7671C28.3123 49.198 28.1126 49.5343 28.0285 49.5343C27.8709 49.5343 27.6292 49.0929 27.2509 48.1155C27.1142 47.7687 26.9776 47.4534 26.9461 47.4114C26.9146 47.3694 26.8831 47.8213 26.8831 48.4098V49.4817H26.6203H26.3575L26.326 48.0735C26.3155 47.2958 26.326 46.5917 26.3471 46.5181C26.4206 46.3395 26.9776 46.3395 27.1142 46.5076ZM30.698 46.6757C30.74 46.97 30.4457 47.0961 30.225 46.8754C30.0043 46.6547 30.1305 46.3605 30.4247 46.4025C30.5823 46.4235 30.6769 46.5181 30.698 46.6757ZM32.5476 47.2853C32.6422 47.3168 32.7158 47.4534 32.7158 47.5795C32.7158 47.7687 32.6527 47.8002 32.2744 47.8002C31.9065 47.8002 31.8014 47.8423 31.6753 48.0735C31.3495 48.6515 31.875 49.2926 32.4635 49.0298C32.7158 48.9037 32.7262 48.9142 32.6947 49.1875C32.6632 49.4607 32.6212 49.4817 32.1588 49.5133C31.7279 49.5448 31.6227 49.5027 31.3495 49.2295C30.4983 48.3888 31.4441 46.8649 32.5476 47.2853ZM34.1766 47.7792C33.8192 47.6846 33.6616 47.9999 33.6616 48.8196C33.6616 49.5133 33.6511 49.5343 33.3988 49.5343H33.1361V48.4308V47.3273H33.3988C33.546 47.3273 33.6616 47.3799 33.6616 47.4429C33.6616 47.4955 33.7667 47.4745 33.8928 47.3904C34.1976 47.1697 34.3342 47.2222 34.3762 47.5585C34.4077 47.8002 34.3762 47.8317 34.1766 47.7792ZM36.373 47.5795C36.5937 47.8002 36.6462 47.9474 36.6462 48.3888C36.6462 48.8722 36.6042 48.9668 36.31 49.2295C35.6583 49.818 34.639 49.5553 34.4393 48.7566C34.2922 48.1681 34.6074 47.4955 35.1329 47.2958C35.4587 47.1592 36.1103 47.3063 36.373 47.5795ZM38.1176 47.2853C38.2122 47.3168 38.2857 47.4639 38.2857 47.6006C38.2857 47.8213 38.2542 47.8317 38.023 47.7477C37.7287 47.6321 37.445 47.7056 37.445 47.8948C37.445 47.9579 37.6236 48.105 37.8338 48.2206C38.065 48.3362 38.2752 48.5569 38.3278 48.7145C38.4118 48.9563 38.3908 49.0509 38.1807 49.2716C37.9704 49.5027 37.8443 49.5343 37.445 49.5133C37.014 49.4817 36.9721 49.4502 36.9405 49.198C36.909 48.9248 36.9195 48.9248 37.2137 49.0298C37.5606 49.1665 37.8864 49.0824 37.8128 48.8827C37.7813 48.8091 37.5816 48.6515 37.3609 48.5359C36.9615 48.3152 36.8565 48.105 36.9615 47.7056C37.0561 47.3378 37.6761 47.1171 38.1176 47.2853ZM40.2825 47.3799C40.6818 47.5901 40.808 47.8317 40.808 48.4308C40.808 48.8302 40.7554 48.9773 40.5032 49.2295C40.251 49.4817 40.1039 49.5343 39.7045 49.5343C39.3051 49.5343 39.158 49.4817 38.9058 49.2295C38.3803 48.7041 38.5379 47.6531 39.179 47.3694C39.5993 47.1802 39.9146 47.1907 40.2825 47.3799ZM30.698 48.3993L30.6978 48.403C30.6664 49.4713 30.6661 49.4817 30.4037 49.4817C30.1413 49.4817 30.141 49.4713 30.1095 48.4036L30.1095 48.403L30.1095 48.3993L30.0779 47.3273H30.4037H30.7295L30.698 48.3993ZM24.8337 49.2716V50.4801H23.6251H22.4165V49.2716V48.063H23.6251H24.8337V49.2716ZM22.1012 49.3241V50.4801H20.9452H19.7892V49.3241V48.1681H20.9452H22.1012V49.3241ZM19.7865 45.4225H22.1353V47.8659H19.7865V45.4225ZM25.7295 18.9849C25.7295 18.4804 25.7715 18.3753 26.0238 18.1546C26.4126 17.8288 26.875 17.8288 27.2008 18.1651C27.4215 18.3753 27.4635 18.5225 27.4635 19.0059C27.4635 19.731 27.1588 20.1094 26.5913 20.1094C26.0343 20.1094 25.7295 19.71 25.7295 18.9849ZM31.0809 24.1339C30.9968 23.7135 31.1965 23.0934 31.4907 22.8938C31.827 22.6625 32.2684 22.6941 32.5627 22.9988C32.7834 23.209 32.8254 23.3562 32.8254 23.8396C32.8254 24.323 32.7834 24.4702 32.5627 24.6803C32.0477 25.2058 31.2385 24.9116 31.0809 24.1339ZM35.8626 23.0391C35.5158 23.3964 35.4528 24.0059 35.7155 24.5104C35.9572 24.9833 36.5983 25.0989 37.0292 24.7521C37.2709 24.5524 37.418 23.8693 37.3024 23.4174C37.1237 22.7028 36.3881 22.5136 35.8626 23.0391ZM18.5522 35.3354C17.785 34.915 17.6589 32.0775 18.3736 31.3103C18.899 30.7428 19.5611 31.0686 19.7923 32.0039C19.992 32.7711 19.8869 34.4736 19.6242 34.9255C19.3509 35.3985 18.9411 35.5561 18.5522 35.3354ZM38.9712 31.31C38.2566 32.0772 38.3827 34.9148 39.1499 35.3351C39.5282 35.5558 39.9486 35.3982 40.2218 34.9358C40.4636 34.5259 40.5687 33.2227 40.4425 32.2454C40.3164 31.1629 39.5492 30.6795 38.9712 31.31Z" fill="#3478D3"/>
</g>
</g>
<defs>
<clipPath id="clip0_914_12723">
<rect width="63.0563" height="63.0563" fill="white" transform="translate(0.47168 0.472656)"/>
</clipPath>
<clipPath id="clip1_914_12723">
<rect width="49.4049" height="61.7561" fill="white" transform="translate(6.95996 1.42188)"/>
</clipPath>
</defs>
</svg>
