<svg width="88" height="58" viewBox="0 0 88 58" fill="none" xmlns="http://www.w3.org/2000/svg">
<g clip-path="url(#clip0_914_12737)">
<path d="M14.7466 13.0579L14.7634 13.2314C15.127 13.4462 15.317 13.6197 15.6888 13.8592C16.6638 14.4789 17.8622 15.5776 17.7134 19.3531C17.9942 20.1793 18.1182 21.7902 18.3661 22.3024C18.8703 23.3186 19.2173 23.9795 19.366 24.9296C19.366 24.9296 19.5148 26.4166 19.7048 26.524C20.7128 26.7554 20.4238 26.8545 20.5642 27.0362C20.721 27.2345 21.3077 27.2263 21.3077 27.7715C21.5144 28.0441 21.6714 28.3168 21.7787 28.6142V8.97674C21.7787 6.72963 19.9608 4.91211 17.7214 4.91211H13.8458C14.4656 5.13517 14.8209 5.39953 15.0276 5.81261C15.5231 5.85391 16.1102 6.96921 15.1927 8.62976C15.5975 8.91065 15.2835 9.32372 14.9943 9.79462C14.9034 9.94333 14.8125 10.216 14.5398 10.1994C14.1762 10.9512 13.7547 11.6617 13.4327 11.703C13.3419 11.8187 13.2756 12.1409 13.416 12.2896C13.8874 12.5044 14.4573 12.7853 14.7466 13.0579Z" fill="#D43550"/>
<path d="M18.3647 53.6403L18.3235 53.6486C20.1 52.5664 19.001 50.5176 18.6623 49.3115L18.7283 49.1047C18.8192 48.9395 18.6292 48.5513 18.6292 48.5513C18.4062 48.3695 18.3565 47.3618 18.2407 46.8991C18.0509 46.1473 18.5795 44.8338 18.5795 44.3876C18.5795 43.9413 18.2407 43.3301 17.6294 42.5536C17.4805 42.3801 17.0343 38.5716 16.6377 37.605C16.084 36.2748 15.9187 36.4895 15.2578 34.8953C14.7537 33.7798 15.1503 32.1359 14.0101 28.3191L14.2661 28.0796C14.2661 28.0796 13.3572 24.7585 13.0596 23.8497C12.7703 22.941 12.2334 22.8831 12.2334 22.8831L12.2663 22.4122C12.3078 22.2718 13.3736 19.5042 13.4645 19.4133C13.4726 19.3555 15.0015 18.3063 15.0261 18.4633C15.15 19.1407 15.745 22.5857 16.0011 23.131C16.2572 23.6845 17.1416 25.3698 17.5464 26.419C15.9681 26.8073 14.7864 28.2365 14.7864 29.9302C14.7864 31.9295 16.4061 33.5569 18.4058 33.5569C19.9342 33.5569 21.2566 32.6069 21.7853 31.2686L21.777 49.6339C21.7774 51.666 20.3148 53.3429 18.3647 53.6403Z" fill="#D43550"/>
<path d="M12.5708 4.91211C11.2487 5.42432 11.0669 5.99436 11.0175 7.8284C10.7944 7.85318 10.3315 7.63838 10.4886 8.75368C10.4886 8.75368 10.5713 9.49721 10.8687 9.37329C10.6374 10.9925 10.8212 11.3978 9.74505 11.513C9.51368 11.5378 9.23262 11.5543 8.88568 11.5708L8.77826 11.7195C7.30741 11.86 6.57887 11.766 5.62987 13.0166C5.26629 13.4957 4.87792 14.1732 4.39865 15.1398C4.39865 15.1398 3.9607 16.222 3.82838 16.6681C3.40695 17.5521 2.37406 19.5101 2.06832 20.7658C1.96927 21.1954 1.77911 21.3276 2.05179 21.9472C2.45669 22.8394 1.78737 23.0708 4.08454 23.0047V23.5334C4.08454 23.5334 3.47306 24.0621 3.34085 24.3761C3.2169 24.6983 2.86158 26.2762 2.87823 27.028C2.91943 28.9859 4.51434 30.6216 4.98522 32.5714L6.05118 32.7202C6.6296 34.0503 9.15814 37.6356 9.74494 38.214C9.7532 38.2222 9.76146 38.2306 9.76973 38.2389C9.90182 38.5775 10.5547 38.9989 10.9347 39.4203C11.1662 39.6433 12.2323 40.7999 13.6534 41.8988C14.1752 42.3021 14.7361 42.7001 15.3226 43.0389C15.3061 43.0305 15.6696 43.7576 15.8514 44.3523C15.1243 44.9388 16.5373 46.013 16.967 47.7892C16.9918 48.0286 16.5537 48.2684 17.2066 48.8548C17.1653 51.5396 16.3473 52.9444 17.7189 53.6877H5.62987C3.43197 53.6381 1.65527 51.8372 1.65527 49.6313V8.97674C1.65527 6.75441 3.43186 4.96168 5.62987 4.91211H12.5708Z" fill="#2C67B3"/>
<path fill-rule="evenodd" clip-rule="evenodd" d="M29.1006 4.88477V53.6268H34.3697C34.3835 41.0744 34.6682 28.4715 33.8956 16.066L39.9703 53.6268H47.5308V4.88477H42.3133C42.207 17.8083 42.666 30.5513 43.5426 43.1609L37.2303 4.88477H29.1006Z" fill="#2D68AF"/>
<path fill-rule="evenodd" clip-rule="evenodd" d="M74.7795 4.85352L69.6006 53.6365H76.0441L76.8872 43.7722H81.1026L81.9457 53.6365H88.3592L83.3308 4.85352H74.7795ZM78.9949 18.6232L80.6209 38.0488H77.369L78.9949 18.6232Z" fill="#2D68AF"/>
<path d="M51.5928 4.88479V53.6005H61.0172C62.5621 53.6005 67.8221 52.2508 67.8221 45.4868V35.7571C67.8221 34.732 67.8308 31.5181 65.0219 29.6298C66.777 29.6298 67.8221 26.2255 67.8221 23.1321V12.6955C67.8221 8.62902 65.2905 4.87373 60.2043 4.88479H51.5928ZM57.404 11.1131H60.2645C61.5748 11.1131 62.0109 12.5594 62.0109 13.6718V25.0175C62.0109 26.9581 61.3727 27.1048 60.0537 27.1048H57.404V11.1131ZM57.404 32.4241H60.2645C61.5748 32.4241 62.0109 33.8704 62.0109 34.9828V45.1165C62.0109 46.4368 61.3525 47.4395 60.0537 47.4395L57.404 47.4731V32.4241Z" fill="#2D68AF"/>
</g>
<defs>
<clipPath id="clip0_914_12737">
<rect width="87.9469" height="56.4188" fill="white" transform="translate(0.0263672 0.791016)"/>
</clipPath>
</defs>
</svg>
