<svg width="76" height="70" viewBox="0 0 76 70" fill="none" xmlns="http://www.w3.org/2000/svg">
<path fill-rule="evenodd" clip-rule="evenodd" d="M37.8939 43.9362C37.7672 43.9385 37.6403 43.9396 37.5131 43.9396C29.662 43.9396 22.8276 39.5867 19.2917 33.1626H25.9555L37.8939 43.9362ZM37.905 43.936C45.5912 43.7938 52.2575 39.4795 55.7344 33.1626H49.8432L37.905 43.936ZM58.9625 29.3649C59.5323 27.3934 59.8376 25.3097 59.8376 23.1547C59.8376 10.8251 49.8426 0.830078 37.5131 0.830078C25.1835 0.830078 15.1885 10.8251 15.1885 23.1547C15.1885 25.4476 15.5342 27.6599 16.1763 29.7421L6.71973 33.1626H17.5519C21.2212 40.4668 28.7818 45.4792 37.5131 45.4792C46.2443 45.4792 53.8049 40.4668 57.4742 33.1626H69.4619L58.9625 29.3649ZM17.6263 29.2176C17.0422 27.2995 16.7281 25.2638 16.7281 23.1547C16.7281 11.6754 26.0338 2.3697 37.5131 2.3697C37.6045 2.3697 37.6958 2.3703 37.787 2.37147L35.205 11.2241L22.1182 18.1524V27.5929L17.6263 29.2176ZM37.9966 2.37522C49.2524 2.63215 58.298 11.837 58.298 23.1547C58.298 25.1259 58.0236 27.033 57.5109 28.8399L53.6805 27.4544V18.1524L40.2088 11.2241L37.9966 2.37522Z" fill="black"/>
<path d="M38.2883 39.3266L27.126 32.7832L38.2883 37.0172L48.2958 32.7832L38.2883 39.3266Z" fill="white"/>
<path d="M28.6656 26.2401L27.126 21.2363L29.0505 25.4703L33.2845 27.7797L28.6656 26.2401Z" fill="white"/>
<path d="M47.141 26.2401L48.6807 21.2363L46.7561 25.4703L42.5222 27.7797L47.141 26.2401Z" fill="white"/>
<path d="M15.0616 50.5455V50.8266C14.7932 50.8266 14.5754 50.8747 14.4083 50.9709C14.2412 51.0671 14.0817 51.2469 13.9298 51.5102C13.8285 51.6874 13.669 52.1103 13.4512 52.7787L10.5799 61.0812H10.2761L7.9289 54.4954L5.59693 61.0812H5.32347L2.26228 52.5281C2.0344 51.89 1.89007 51.5127 1.8293 51.3963C1.72802 51.2038 1.58876 51.062 1.41152 50.9709C1.23935 50.8747 1.00387 50.8266 0.705092 50.8266V50.5455H4.51829V50.8266H4.33599C4.0676 50.8266 3.8625 50.8873 3.72071 51.0089C3.57892 51.1304 3.50802 51.2773 3.50802 51.4494C3.50802 51.6267 3.61943 52.0343 3.84225 52.6724L5.87038 58.453L7.57949 53.5383L7.27565 52.6724L7.03257 51.9812C6.92623 51.728 6.80722 51.5051 6.67556 51.3127C6.60973 51.2165 6.5287 51.1355 6.43249 51.0696C6.30589 50.9785 6.17929 50.9126 6.05269 50.8721C5.95647 50.8418 5.80455 50.8266 5.59693 50.8266V50.5455H9.60762V50.8266H9.33417C9.05058 50.8266 8.84296 50.8873 8.71129 51.0089C8.57963 51.1304 8.5138 51.295 8.5138 51.5026C8.5138 51.7609 8.62774 52.2116 8.85562 52.8547L10.8306 58.453L12.7904 52.7787C13.0132 52.1508 13.1246 51.7153 13.1246 51.4722C13.1246 51.3557 13.0866 51.2469 13.0106 51.1456C12.9397 51.0443 12.8486 50.9734 12.7372 50.9329C12.5447 50.862 12.2941 50.8266 11.9852 50.8266V50.5455H15.0616ZM17.7202 50.0442V55.1335C18.2823 54.5157 18.7279 54.1207 19.0571 53.9485C19.3862 53.7713 19.7154 53.6827 20.0445 53.6827C20.4395 53.6827 20.7788 53.7915 21.0624 54.0093C21.346 54.227 21.5562 54.5689 21.6929 55.0348C21.7891 55.3588 21.8372 55.9513 21.8372 56.8122V59.2733C21.8372 59.7139 21.8727 60.0152 21.9436 60.1773C21.9942 60.2988 22.0803 60.395 22.2018 60.4659C22.3234 60.5368 22.5462 60.5722 22.8703 60.5722V60.8457H19.4521V60.5722H19.6116C19.9357 60.5722 20.161 60.5241 20.2876 60.4279C20.4142 60.3266 20.5028 60.1798 20.5535 59.9874C20.5687 59.9063 20.5763 59.6683 20.5763 59.2733V56.8122C20.5763 56.0526 20.5358 55.5538 20.4547 55.3158C20.3788 55.0778 20.2547 54.9006 20.0825 54.7841C19.9104 54.6625 19.7027 54.6018 19.4597 54.6018C19.2115 54.6018 18.9533 54.6676 18.6849 54.7993C18.4165 54.9309 18.0949 55.1968 17.7202 55.5969V59.2733C17.7202 59.7493 17.7455 60.0456 17.7961 60.1621C17.8518 60.2785 17.9506 60.3773 18.0924 60.4583C18.2392 60.5343 18.4899 60.5722 18.8444 60.5722V60.8457H15.3958V60.5722C15.7047 60.5722 15.9478 60.5241 16.125 60.4279C16.2263 60.3773 16.3073 60.2811 16.3681 60.1393C16.4288 59.9975 16.4592 59.7088 16.4592 59.2733V52.9762C16.4592 52.1812 16.439 51.6925 16.3985 51.5102C16.363 51.3279 16.3048 51.2038 16.2238 51.138C16.1478 51.0722 16.044 51.0392 15.9123 51.0392C15.806 51.0392 15.6338 51.0798 15.3958 51.1608L15.2894 50.8949L17.3707 50.0442H17.7202ZM25.225 50.0442C25.4377 50.0442 25.6175 50.1201 25.7643 50.2721C25.9163 50.4189 25.9922 50.5987 25.9922 50.8114C25.9922 51.0241 25.9163 51.2064 25.7643 51.3583C25.6175 51.5102 25.4377 51.5862 25.225 51.5862C25.0123 51.5862 24.83 51.5102 24.6781 51.3583C24.5262 51.2064 24.4502 51.0241 24.4502 50.8114C24.4502 50.5987 24.5237 50.4189 24.6705 50.2721C24.8224 50.1201 25.0073 50.0442 25.225 50.0442ZM25.8555 53.6827V59.2733C25.8555 59.7088 25.8859 60 25.9467 60.1469C26.0125 60.2887 26.1062 60.395 26.2277 60.4659C26.3543 60.5368 26.5822 60.5722 26.9113 60.5722V60.8457H23.5311V60.5722C23.8704 60.5722 24.0983 60.5393 24.2148 60.4735C24.3312 60.4077 24.4224 60.2988 24.4882 60.1469C24.5591 59.9949 24.5946 59.7038 24.5946 59.2733V56.5919C24.5946 55.8374 24.5718 55.3487 24.5262 55.1259C24.4907 54.9639 24.435 54.8524 24.3591 54.7917C24.2831 54.7258 24.1793 54.6929 24.0476 54.6929C23.9059 54.6929 23.7337 54.7309 23.5311 54.8069L23.4248 54.5334L25.5213 53.6827H25.8555ZM29.8054 51.6014V53.8878H31.431V54.4195H29.8054V58.9315C29.8054 59.3822 29.8687 59.686 29.9953 59.843C30.127 60 30.2941 60.0785 30.4967 60.0785C30.6638 60.0785 30.8258 60.0279 30.9828 59.9266C31.1398 59.8202 31.2613 59.6658 31.3474 59.4632H31.6437C31.4664 59.9595 31.2158 60.3342 30.8917 60.5874C30.5676 60.8356 30.2333 60.9596 29.889 60.9596C29.656 60.9596 29.4282 60.8963 29.2053 60.7697C28.9825 60.6381 28.8179 60.4532 28.7116 60.2152C28.6053 59.9722 28.5521 59.6 28.5521 59.0986V54.4195H27.4507V54.1688C27.7292 54.0574 28.0128 53.87 28.3014 53.6067C28.5951 53.3383 28.8559 53.0218 29.0838 52.6572C29.2003 52.4648 29.3623 52.1128 29.5699 51.6014H29.8054ZM33.2844 56.5084C33.2793 57.5414 33.53 58.3517 34.0364 58.9391C34.5428 59.5265 35.1378 59.8202 35.8215 59.8202C36.2772 59.8202 36.6722 59.6962 37.0064 59.448C37.3457 59.1948 37.6293 58.7644 37.8572 58.1567L38.0927 58.3086C37.9863 59.0024 37.6774 59.6354 37.166 60.2076C36.6545 60.7748 36.0139 61.0584 35.2442 61.0584C34.4086 61.0584 33.6921 60.7343 33.0945 60.0861C32.502 59.4328 32.2058 58.5568 32.2058 57.4579C32.2058 56.2678 32.5096 55.3411 33.1173 54.6777C33.73 54.0093 34.4972 53.6751 35.4189 53.6751C36.1987 53.6751 36.8393 53.9333 37.3407 54.4499C37.842 54.9613 38.0927 55.6475 38.0927 56.5084H33.2844ZM33.2844 56.0678H36.5051C36.4798 55.6222 36.4266 55.3082 36.3456 55.1259C36.219 54.8423 36.0291 54.6195 35.7759 54.4575C35.5278 54.2954 35.267 54.2144 34.9935 54.2144C34.5732 54.2144 34.1959 54.379 33.8617 54.7081C33.5325 55.0322 33.3401 55.4854 33.2844 56.0678ZM45.6735 50.31V53.8726H45.3924C45.3013 53.1889 45.1367 52.6445 44.8987 52.2394C44.6658 51.8343 44.3315 51.5127 43.896 51.2747C43.4605 51.0367 43.0098 50.9177 42.5439 50.9177C42.0173 50.9177 41.5818 51.0798 41.2374 51.4039C40.8931 51.7229 40.7209 52.0875 40.7209 52.4977C40.7209 52.8117 40.8298 53.0978 41.0475 53.356C41.3615 53.7358 42.1084 54.2422 43.2884 54.8752C44.2505 55.3918 44.9063 55.7893 45.2557 56.0678C45.6102 56.3413 45.8811 56.6654 46.0685 57.0401C46.2609 57.4148 46.3571 57.8073 46.3571 58.2175C46.3571 58.9973 46.0533 59.6709 45.4456 60.238C44.843 60.8001 44.0657 61.0812 43.1136 61.0812C42.8149 61.0812 42.5338 61.0584 42.2705 61.0128C42.1135 60.9875 41.7869 60.8963 41.2906 60.7394C40.7994 60.5773 40.488 60.4963 40.3563 60.4963C40.2297 60.4963 40.1284 60.5343 40.0525 60.6102C39.9816 60.6862 39.9284 60.8432 39.8929 61.0812H39.6119V57.549H39.8929C40.0246 58.2884 40.2018 58.8429 40.4247 59.2126C40.6475 59.5772 40.9868 59.881 41.4425 60.1241C41.9033 60.3672 42.4072 60.4887 42.9541 60.4887C43.5871 60.4887 44.0859 60.3216 44.4505 59.9874C44.8202 59.6531 45.0051 59.2581 45.0051 58.8024C45.0051 58.5492 44.9342 58.2934 44.7924 58.0352C44.6556 57.7769 44.4404 57.5364 44.1467 57.3136C43.9492 57.1616 43.4099 56.8401 42.5288 56.3489C41.6476 55.8526 41.0197 55.4576 40.6449 55.1639C40.2753 54.8702 39.9942 54.5461 39.8018 54.1916C39.6094 53.8371 39.5131 53.4472 39.5131 53.0218C39.5131 52.2825 39.7967 51.6469 40.3639 51.1152C40.9311 50.5784 41.6527 50.31 42.5288 50.31C43.0757 50.31 43.6555 50.4442 44.2682 50.7126C44.5518 50.8392 44.7519 50.9025 44.8683 50.9025C45 50.9025 45.1063 50.8645 45.1874 50.7886C45.2734 50.7076 45.3418 50.548 45.3924 50.31H45.6735ZM49.7298 50.0442V55.1335C50.2919 54.5157 50.7375 54.1207 51.0667 53.9485C51.3958 53.7713 51.725 53.6827 52.0542 53.6827C52.4491 53.6827 52.7884 53.7915 53.072 54.0093C53.3556 54.227 53.5658 54.5689 53.7025 55.0348C53.7987 55.3588 53.8468 55.9513 53.8468 56.8122V59.2733C53.8468 59.7139 53.8823 60.0152 53.9532 60.1773C54.0038 60.2988 54.0899 60.395 54.2114 60.4659C54.333 60.5368 54.5558 60.5722 54.8799 60.5722V60.8457H51.4617V60.5722H51.6212C51.9453 60.5722 52.1706 60.5241 52.2972 60.4279C52.4238 60.3266 52.5124 60.1798 52.5631 59.9874C52.5783 59.9063 52.5859 59.6683 52.5859 59.2733V56.8122C52.5859 56.0526 52.5454 55.5538 52.4643 55.3158C52.3884 55.0778 52.2643 54.9006 52.0921 54.7841C51.92 54.6625 51.7123 54.6018 51.4693 54.6018C51.2211 54.6018 50.9629 54.6676 50.6945 54.7993C50.4261 54.9309 50.1045 55.1968 49.7298 55.5969V59.2733C49.7298 59.7493 49.7551 60.0456 49.8057 60.1621C49.8614 60.2785 49.9602 60.3773 50.102 60.4583C50.2488 60.5343 50.4995 60.5722 50.854 60.5722V60.8457H47.4054V60.5722C47.7143 60.5722 47.9574 60.5241 48.1346 60.4279C48.2359 60.3773 48.3169 60.2811 48.3777 60.1393C48.4385 59.9975 48.4688 59.7088 48.4688 59.2733V52.9762C48.4688 52.1812 48.4486 51.6925 48.4081 51.5102C48.3726 51.3279 48.3144 51.2038 48.2334 51.138C48.1574 51.0722 48.0536 51.0392 47.9219 51.0392C47.8156 51.0392 47.6434 51.0798 47.4054 51.1608L47.2991 50.8949L49.3804 50.0442H49.7298ZM59.4071 59.843C58.6931 60.395 58.2449 60.714 58.0626 60.8001C57.7891 60.9267 57.498 60.99 57.1891 60.99C56.708 60.99 56.3105 60.8254 55.9965 60.4963C55.6876 60.1671 55.5331 59.7342 55.5331 59.1974C55.5331 58.8581 55.6091 58.5644 55.761 58.3162C55.9686 57.9719 56.3282 57.6478 56.8396 57.3439C57.3562 57.0401 58.212 56.6704 59.4071 56.2349V55.9615C59.4071 55.2677 59.2957 54.7917 59.0729 54.5334C58.8551 54.2752 58.5361 54.146 58.1158 54.146C57.7967 54.146 57.5435 54.2321 57.3562 54.4043C57.1637 54.5765 57.0675 54.774 57.0675 54.9968L57.0827 55.4373C57.0827 55.6703 57.0219 55.8501 56.9004 55.9767C56.7839 56.1033 56.6295 56.1666 56.4371 56.1666C56.2497 56.1666 56.0952 56.1007 55.9737 55.9691C55.8572 55.8374 55.799 55.6576 55.799 55.4297C55.799 54.9942 56.0218 54.5942 56.4674 54.2296C56.9131 53.865 57.5385 53.6827 58.3437 53.6827C58.9615 53.6827 59.4679 53.7865 59.8629 53.9941C60.1616 54.1511 60.3819 54.3967 60.5237 54.7309C60.6149 54.9487 60.6604 55.3943 60.6604 56.0678V58.4302C60.6604 59.0936 60.6731 59.5012 60.6984 59.6531C60.7237 59.8 60.7643 59.8987 60.82 59.9494C60.8807 60 60.9491 60.0253 61.025 60.0253C61.1061 60.0253 61.177 60.0076 61.2377 59.9722C61.3441 59.9063 61.5492 59.7215 61.853 59.4177V59.843C61.2858 60.6026 60.744 60.9824 60.2275 60.9824C59.9793 60.9824 59.7818 60.8963 59.635 60.7242C59.4881 60.552 59.4122 60.2583 59.4071 59.843ZM59.4071 59.3493V56.6983C58.6424 57.0021 58.1487 57.2173 57.9259 57.3439C57.5258 57.5668 57.2397 57.7997 57.0675 58.0428C56.8953 58.2858 56.8093 58.5517 56.8093 58.8404C56.8093 59.205 56.9181 59.5088 57.1359 59.7519C57.3536 59.9899 57.6043 60.1089 57.8879 60.1089C58.2728 60.1089 58.7792 59.8557 59.4071 59.3493ZM64.4129 53.6827V55.2474C64.9952 54.2043 65.5928 53.6827 66.2055 53.6827C66.484 53.6827 66.7145 53.7687 66.8968 53.9409C67.0791 54.108 67.1702 54.303 67.1702 54.5258C67.1702 54.7233 67.1044 54.8904 66.9727 55.0272C66.8411 55.1639 66.6841 55.2322 66.5018 55.2322C66.3245 55.2322 66.1245 55.1462 65.9017 54.974C65.6839 54.7967 65.5219 54.7081 65.4155 54.7081C65.3244 54.7081 65.2256 54.7588 65.1193 54.86C64.8914 55.0677 64.6559 55.4095 64.4129 55.8855V59.2202C64.4129 59.605 64.461 59.8962 64.5572 60.0937C64.623 60.2304 64.7395 60.3444 64.9066 60.4355C65.0737 60.5267 65.3143 60.5722 65.6282 60.5722V60.8457H62.0657V60.5722C62.4202 60.5722 62.6835 60.5165 62.8557 60.4051C62.9823 60.3241 63.0709 60.195 63.1215 60.0177C63.1469 59.9316 63.1595 59.686 63.1595 59.2809V56.5843C63.1595 55.7741 63.1418 55.293 63.1064 55.1411C63.076 54.9841 63.0152 54.8702 62.924 54.7993C62.838 54.7284 62.7291 54.6929 62.5974 54.6929C62.4404 54.6929 62.2632 54.7309 62.0657 54.8069L61.9897 54.5334L64.0938 53.6827H64.4129ZM69.6161 50.0442V56.9717L71.386 55.3538C71.7607 55.0094 71.9785 54.7917 72.0393 54.7005C72.0798 54.6398 72.1 54.579 72.1 54.5182C72.1 54.4169 72.057 54.3309 71.9709 54.26C71.8899 54.184 71.7531 54.141 71.5607 54.1308V53.8878H74.5839V54.1308C74.1687 54.141 73.8218 54.2043 73.5433 54.3207C73.2698 54.4372 72.9685 54.6448 72.6394 54.9436L70.8543 56.5919L72.6394 58.848C73.1356 59.4708 73.4698 59.8658 73.642 60.0329C73.8851 60.2709 74.0978 60.4254 74.2801 60.4963C74.4067 60.5469 74.627 60.5722 74.9409 60.5722V60.8457H71.5607V60.5722C71.7531 60.5672 71.8823 60.5393 71.9481 60.4887C72.019 60.433 72.0545 60.357 72.0545 60.2608C72.0545 60.1443 71.9532 59.957 71.7506 59.6987L69.6161 56.9717V59.2809C69.6161 59.7316 69.6465 60.0279 69.7073 60.1697C69.7731 60.3115 69.8643 60.4127 69.9807 60.4735C70.0972 60.5343 70.3504 60.5672 70.7403 60.5722V60.8457H67.2006V60.5722C67.5551 60.5722 67.8209 60.5292 67.9982 60.4431C68.1045 60.3874 68.1856 60.3013 68.2413 60.1848C68.3172 60.0177 68.3552 59.7291 68.3552 59.3189V52.9838C68.3552 52.1787 68.3375 51.6874 68.302 51.5102C68.2666 51.3279 68.2083 51.2038 68.1273 51.138C68.0463 51.0671 67.9399 51.0317 67.8083 51.0317C67.7019 51.0317 67.5424 51.0747 67.3297 51.1608L67.2006 50.8949L69.2667 50.0442H69.6161Z" fill="black"/>
<path d="M8.69689 69.4646C8.34127 69.4646 8.02121 69.4126 7.73672 69.3087C7.45222 69.2004 7.22869 69.0488 7.06612 68.8539C6.90355 68.659 6.82227 68.4317 6.82227 68.1718H7.75196C7.77228 68.3667 7.86118 68.5269 8.01867 68.6525C8.18124 68.7781 8.40731 68.8409 8.69689 68.8409C8.99663 68.8409 9.23032 68.7803 9.39797 68.659C9.56562 68.5334 9.64944 68.3732 9.64944 68.1783C9.64944 68.0267 9.5961 67.9033 9.48942 67.808C9.38781 67.7127 9.25826 67.6391 9.10077 67.5871C8.94836 67.5352 8.73499 67.4789 8.46066 67.4182C8.1152 67.3403 7.83324 67.2623 7.61479 67.1844C7.40142 67.1021 7.21853 66.9765 7.06612 66.8076C6.91371 66.6387 6.83751 66.4135 6.83751 66.132C6.83751 65.8721 6.91371 65.6447 7.06612 65.4499C7.21853 65.255 7.4319 65.1056 7.70624 65.0016C7.98057 64.8977 8.29809 64.8457 8.65879 64.8457C9.1719 64.8457 9.59102 64.9561 9.91616 65.177C10.2464 65.3936 10.4293 65.6924 10.4648 66.0735H9.50466C9.48942 65.9089 9.39797 65.7682 9.23032 65.6512C9.06267 65.5343 8.84168 65.4758 8.56734 65.4758C8.31841 65.4758 8.1152 65.53 7.95771 65.6383C7.80022 65.7465 7.72148 65.9024 7.72148 66.106C7.72148 66.2446 7.76974 66.3593 7.86626 66.4503C7.96787 66.5369 8.09488 66.6062 8.24729 66.6582C8.39969 66.7101 8.60799 66.7664 8.87216 66.8271C9.2227 66.9094 9.5072 66.9917 9.72565 67.0739C9.94918 67.1562 10.1372 67.284 10.2896 67.4572C10.447 67.6261 10.5258 67.8535 10.5258 68.1393C10.5258 68.3689 10.4521 68.5854 10.3048 68.789C10.1626 68.9925 9.95172 69.1571 9.67231 69.2827C9.39797 69.4039 9.07283 69.4646 8.69689 69.4646Z" fill="black"/>
<path d="M18.4473 64.9042L16.8775 69.4191H15.8945L14.7819 66.002L13.6008 69.4191L12.6253 69.4256L11.1241 64.9042H12.0462L13.1435 68.5811L14.3323 64.9042H15.3077L16.4127 68.5616L17.5177 64.9042H18.4473Z" fill="black"/>
<path d="M20.0326 64.9042V69.4191H19.1638V64.9042H20.0326Z" fill="black"/>
<path d="M26.7513 64.9042V69.4191H25.8826V66.3269L24.267 69.4191H23.665L22.0419 66.3269V69.4191H21.1731V64.9042H22.1104L23.9698 68.4447L25.8216 64.9042H26.7513Z" fill="black"/>
<path d="M33.4713 64.9042V69.4191H32.6025V66.3269L30.987 69.4191H30.385L28.7618 66.3269V69.4191H27.8931V64.9042H28.8304L30.6898 68.4447L32.5416 64.9042H33.4713Z" fill="black"/>
<path d="M35.4818 64.9042V69.4191H34.6131V64.9042H35.4818Z" fill="black"/>
<path d="M40.9736 69.4191H40.1049L37.4911 66.0475V69.4191H36.6224V64.8977H37.4911L40.1049 68.2628V64.8977H40.9736V69.4191Z" fill="black"/>
<path d="M45.9475 66.2034C45.8103 65.9782 45.6198 65.8093 45.376 65.6967C45.1321 65.5798 44.8502 65.5213 44.5301 65.5213C44.1796 65.5213 43.8671 65.5884 43.5928 65.7227C43.3185 65.857 43.1025 66.0475 42.9451 66.2944C42.7926 66.5412 42.7164 66.8271 42.7164 67.1519C42.7164 67.4767 42.7926 67.7647 42.9451 68.0159C43.1025 68.2628 43.3185 68.4533 43.5928 68.5876C43.8671 68.7218 44.1796 68.789 44.5301 68.789C45.0026 68.789 45.3861 68.6764 45.6808 68.4512C45.9754 68.226 46.1558 67.9206 46.2218 67.5352H44.2329V66.944H47.1515V67.5222C47.0956 67.873 46.9483 68.1956 46.7095 68.4901C46.4759 68.7846 46.1685 69.0207 45.7875 69.1982C45.4115 69.3715 44.9924 69.4581 44.5301 69.4581C44.0322 69.4581 43.5776 69.3606 43.166 69.1658C42.7545 68.9665 42.4269 68.6915 42.183 68.3407C41.9442 67.9899 41.8249 67.5936 41.8249 67.1519C41.8249 66.7101 41.9442 66.3139 42.183 65.9631C42.4269 65.6123 42.7545 65.3394 43.166 65.1445C43.5826 64.9453 44.0373 64.8457 44.5301 64.8457C45.094 64.8457 45.5944 64.9648 46.0313 65.203C46.4733 65.4369 46.7934 65.7703 46.9915 66.2034H45.9475Z" fill="black"/>
<path d="M53.4095 64.9042V65.5083H51.9997V69.4191H51.1309V65.5083H49.7135V64.9042H53.4095Z" fill="black"/>
<path d="M55.158 65.5018V66.8271H56.9869V67.4312H55.158V68.815H57.2155V69.4191H54.2893V64.8977H57.2155V65.5018H55.158Z" fill="black"/>
<path d="M61.4785 68.4966H59.2609L58.8799 69.4191H57.9731L59.8706 64.8977H60.8765L62.7739 69.4191H61.8595L61.4785 68.4966ZM61.2346 67.8925L60.3735 65.7942L59.5048 67.8925H61.2346Z" fill="black"/>
<path d="M69.1771 64.9042V69.4191H68.3084V66.3269L66.6929 69.4191H66.0909L64.4677 66.3269V69.4191H63.599V64.9042H64.5363L66.3957 68.4447L68.2474 64.9042H69.1771Z" fill="black"/>
</svg>
