<svg width="98" height="82" viewBox="0 0 98 82" fill="none" xmlns="http://www.w3.org/2000/svg">
<path d="M51.5204 13.7556L89.1903 8.3887C92.4173 7.92894 95.335 10.3232 95.4432 13.5199L97.4969 74.177C97.5954 77.0857 95.3117 79.5409 92.3497 79.7109L52.6261 81.9907C49.4851 82.171 46.8369 79.7211 46.8369 76.6348V19.0649C46.8369 16.3998 48.8315 14.1387 51.5204 13.7556Z" fill="#DE8A2E"/>
<path d="M46.4796 13.7556L8.80973 8.3887C5.58274 7.92894 2.66505 10.3232 2.55681 13.5199L0.503069 74.177C0.404587 77.0857 2.68828 79.5409 5.65026 79.7109L45.3739 81.9907C48.5149 82.171 51.1631 79.7211 51.1631 76.6348V19.0649C51.1631 16.3998 49.1685 14.1387 46.4796 13.7556Z" fill="#DE8A2E"/>
<path d="M50.6555 11.8557L87.621 5.74404C88.7123 5.56361 89.7145 6.37069 89.7466 7.45576L91.674 72.7599C91.7024 73.7207 90.9513 74.5317 89.9735 74.596L51.0805 77.1534C50.0279 77.2226 49.1353 76.4038 49.1353 75.3691V13.6192C49.1353 12.7462 49.7779 12.0008 50.6555 11.8557Z" fill="white"/>
<path fill-rule="evenodd" clip-rule="evenodd" d="M87.317 3.97637L50.3515 10.0881C48.5962 10.3783 47.3111 11.8691 47.3111 13.615V75.3648C47.3111 77.4344 49.0963 79.0719 51.2015 78.9335L90.0945 76.3761C92.0501 76.2475 93.5522 74.6256 93.4955 72.7039L91.568 7.3998C91.504 5.22967 89.4996 3.61551 87.317 3.97637ZM87.6201 5.73984L50.6545 11.8515C49.7769 11.9966 49.1343 12.742 49.1343 13.615V75.3648C49.1343 76.3996 50.0269 77.2184 51.0795 77.1492L89.9725 74.5918C90.9503 74.5275 91.7014 73.7165 91.673 72.7557L89.7456 7.45155C89.7136 6.36648 88.7114 5.55941 87.6201 5.73984Z" fill="#DE8A2E"/>
<path d="M51.3181 11.7168L83.0547 1.87729C84.2089 1.51945 85.3917 2.3439 85.4267 3.53073L87.3508 68.7211C87.3767 69.5977 86.7506 70.3634 85.8726 70.529L52.2118 76.8772C51.0874 77.0892 50.0443 76.2441 50.0443 75.121V13.422C50.0443 12.642 50.5598 11.9519 51.3181 11.7168Z" fill="white"/>
<path fill-rule="evenodd" clip-rule="evenodd" d="M82.5081 0.168648L50.7715 10.0082C49.2549 10.4784 48.224 11.8585 48.224 13.4186V75.1175C48.224 77.3637 50.3102 79.054 52.559 78.6299L86.2198 72.2817C87.9758 71.9505 89.2279 70.4191 89.1762 68.6658L87.2521 3.47552C87.182 1.10186 84.8165 -0.547044 82.5081 0.168648ZM83.0576 1.87383L51.321 11.7134C50.5627 11.9485 50.0473 12.6385 50.0473 13.4186V75.1175C50.0473 76.2406 51.0903 77.0858 52.2147 76.8737L85.8755 70.5255C86.7535 70.3599 87.3796 69.5942 87.3537 68.7176L85.4296 3.52727C85.3946 2.34044 84.2118 1.51599 83.0576 1.87383Z" fill="#DE8A2E"/>
<path d="M58.374 8.25306L63.9714 6.46094V21.1581L61.1727 19.474L58.374 22.2191V8.25306Z" fill="#DE8A2E"/>
<path fill-rule="evenodd" clip-rule="evenodd" d="M56.5479 8.24845C56.5479 7.47459 57.0553 6.78853 57.8053 6.54839L63.4026 4.75626C63.9579 4.57849 64.5663 4.67239 65.0391 5.00881C65.5118 5.34523 65.7916 5.88344 65.7916 6.45632V21.1535C65.7916 21.801 65.4349 22.3979 64.8589 22.7141C64.2829 23.0303 63.5776 23.0164 63.015 22.6778L61.4421 21.7313L59.6603 23.479C59.1389 23.9905 58.3547 24.1435 57.6734 23.8667C56.9921 23.5899 56.5479 22.9378 56.5479 22.2145V8.24845ZM63.9684 21.1535L61.1697 19.4694L58.3711 22.2145V8.24845L63.9684 6.45632V21.1535Z" fill="#DE8A2E"/>
<path d="M46.5343 11.8522L9.82657 5.74436C8.73456 5.56266 7.731 6.37014 7.69916 7.4561L5.78397 72.7587C5.7558 73.7191 6.50638 74.5297 7.48372 74.5944L46.1067 77.1503C47.1595 77.2199 48.0526 76.401 48.0526 75.366V13.6154C48.0526 12.7431 47.4111 11.9981 46.5343 11.8522Z" fill="white"/>
<path fill-rule="evenodd" clip-rule="evenodd" d="M10.1364 3.98091L46.8442 10.0888C48.5977 10.3805 49.8808 11.8706 49.8808 13.6151V75.3657C49.8808 77.4358 48.0946 79.0736 45.9888 78.9343L7.36588 76.3784C5.4112 76.249 3.91004 74.6278 3.96638 72.707L5.88156 7.40437C5.94526 5.23246 7.95237 3.61751 10.1364 3.98091ZM9.83146 5.74406L46.5392 11.8519C47.416 11.9978 48.0575 12.7428 48.0575 13.6151V75.3657C48.0575 76.4008 47.1644 77.2197 46.1116 77.15L7.48861 74.5941C6.51127 74.5294 5.76069 73.7188 5.78886 72.7584L7.70404 7.4558C7.73589 6.36984 8.73945 5.56236 9.83146 5.74406Z" fill="#DE8A2E"/>
<path fill-rule="evenodd" clip-rule="evenodd" d="M37.9081 29.5986C39.111 29.0753 40.4859 29.1259 41.5358 29.612C41.991 29.8229 42.1859 30.3558 41.9709 30.8024C41.756 31.2489 41.2127 31.44 40.7574 31.2292C40.1838 30.9636 39.3629 30.9221 38.6473 31.2334C37.9761 31.5254 37.3469 32.1499 37.1397 33.3418C36.9338 34.5257 37.2068 35.6596 37.8094 36.412C38.3807 37.1252 39.3102 37.5795 40.6821 37.3518C41.1785 37.2694 41.6491 37.5973 41.7331 38.0842C41.8171 38.5711 41.4828 39.0326 40.9864 39.115C38.9878 39.4469 37.3792 38.7697 36.3757 37.5168C35.4035 36.3031 35.0651 34.6362 35.3424 33.0412C35.6489 31.278 36.6608 30.1412 37.9081 29.5986Z" fill="#DE8A2E"/>
<path fill-rule="evenodd" clip-rule="evenodd" d="M83.4989 25.1292C83.4024 24.6445 82.9235 24.3283 82.4294 24.423L53.3604 29.9929C52.8662 30.0876 52.5439 30.5573 52.6404 31.042C52.737 31.5266 53.2158 31.8428 53.7099 31.7481L82.779 26.1782C83.2731 26.0835 83.5954 25.6138 83.4989 25.1292Z" fill="#DE8A2E"/>
<path fill-rule="evenodd" clip-rule="evenodd" d="M83.4989 29.2404C83.4024 28.7557 82.9235 28.4395 82.4294 28.5342L53.3604 34.1041C52.8662 34.1988 52.5439 34.6685 52.6404 35.1532C52.737 35.6378 53.2158 35.954 53.7099 35.8593L82.779 30.2894C83.2731 30.1947 83.5954 29.725 83.4989 29.2404Z" fill="#DE8A2E"/>
<path fill-rule="evenodd" clip-rule="evenodd" d="M83.4989 45.7514C83.4024 45.2667 82.9235 44.9505 82.4294 45.0452L53.3604 50.6152C52.8662 50.7098 52.5439 51.1795 52.6404 51.6642C52.737 52.1488 53.2158 52.465 53.7099 52.3703L82.779 46.8004C83.2731 46.7057 83.5954 46.236 83.4989 45.7514Z" fill="#DE8A2E"/>
<path fill-rule="evenodd" clip-rule="evenodd" d="M83.4989 33.4842C83.4024 32.9996 82.9235 32.6834 82.4294 32.7781L53.3604 38.348C52.8662 38.4427 52.5439 38.9124 52.6404 39.397C52.737 39.8817 53.2158 40.1979 53.7099 40.1032L82.779 34.5333C83.2731 34.4386 83.5954 33.9689 83.4989 33.4842Z" fill="#DE8A2E"/>
<path fill-rule="evenodd" clip-rule="evenodd" d="M83.4989 49.9952C83.4024 49.5106 82.9235 49.1944 82.4294 49.2891L53.3604 54.859C52.8662 54.9537 52.5439 55.4234 52.6404 55.908C52.737 56.3927 53.2158 56.7089 53.7099 56.6142L82.779 51.0443C83.2731 50.9496 83.5954 50.4799 83.4989 49.9952Z" fill="#DE8A2E"/>
<path fill-rule="evenodd" clip-rule="evenodd" d="M83.4989 37.8939C83.4024 37.4093 82.9235 37.0931 82.4294 37.1878L53.3604 42.7577C52.8662 42.8524 52.5439 43.3221 52.6404 43.8067C52.737 44.2914 53.2158 44.6076 53.7099 44.5129L82.779 38.943C83.2731 38.8483 83.5954 38.3786 83.4989 37.8939Z" fill="#DE8A2E"/>
<path fill-rule="evenodd" clip-rule="evenodd" d="M83.4989 54.4051C83.4024 53.9204 82.9235 53.6042 82.4294 53.6989L53.3604 59.2688C52.8662 59.3635 52.5439 59.8332 52.6404 60.3179C52.737 60.8025 53.2158 61.1187 53.7099 61.024L82.779 55.4541C83.2731 55.3594 83.5954 54.8897 83.4989 54.4051Z" fill="#DE8A2E"/>
<path fill-rule="evenodd" clip-rule="evenodd" d="M70.3197 61.5523C70.2342 61.0656 69.7627 60.7391 69.2665 60.823L53.38 63.5087C52.8838 63.5926 52.5509 64.0551 52.6364 64.5418C52.722 65.0285 53.1935 65.355 53.6897 65.2711L69.5762 62.5853C70.0724 62.5015 70.4053 62.0389 70.3197 61.5523Z" fill="#DE8A2E"/>
<path fill-rule="evenodd" clip-rule="evenodd" d="M11.791 44.3243C11.837 43.8325 12.2807 43.4704 12.7821 43.5155L42.2567 46.1679C42.7581 46.213 43.1272 46.6482 43.0812 47.14C43.0352 47.6318 42.5915 47.9938 42.0901 47.9487L12.6155 45.2964C12.1141 45.2513 11.745 44.816 11.791 44.3243Z" fill="#DE8A2E"/>
<path fill-rule="evenodd" clip-rule="evenodd" d="M11.791 56.2566C11.837 55.7648 12.2807 55.4027 12.7821 55.4479L42.2567 58.1002C42.7581 58.1453 43.1272 58.5806 43.0812 59.0723C43.0352 59.5641 42.5915 59.9262 42.0901 59.8811L12.6155 57.2287C12.1141 57.1836 11.745 56.7484 11.791 56.2566Z" fill="#DE8A2E"/>
<path fill-rule="evenodd" clip-rule="evenodd" d="M11.7892 48.5824C11.823 48.0897 12.2576 47.7171 12.7599 47.7502L28.8493 48.8112C29.3516 48.8443 29.7315 49.2706 29.6977 49.7633C29.664 50.256 29.2294 50.6286 28.727 50.5955L12.6376 49.5346C12.1353 49.5014 11.7555 49.0752 11.7892 48.5824Z" fill="#DE8A2E"/>
<path fill-rule="evenodd" clip-rule="evenodd" d="M11.7894 60.5124C11.8246 60.0198 12.2602 59.6484 12.7624 59.6829L35.8529 61.2683C36.3551 61.3028 36.7338 61.7301 36.6986 62.2228C36.6635 62.7154 36.2278 63.0868 35.7256 63.0523L12.6351 61.4668C12.1329 61.4324 11.7542 61.005 11.7894 60.5124Z" fill="#DE8A2E"/>
<path fill-rule="evenodd" clip-rule="evenodd" d="M11.7892 64.3219C11.823 63.8291 12.2576 63.4566 12.7599 63.4897L28.8493 64.5506C29.3516 64.5837 29.7315 65.01 29.6977 65.5028C29.664 65.9955 29.2294 66.3681 28.727 66.3349L12.6376 65.274C12.1353 65.2409 11.7555 64.8146 11.7892 64.3219Z" fill="#DE8A2E"/>
<path fill-rule="evenodd" clip-rule="evenodd" d="M17.7811 18.3057C18.17 18.3239 18.5042 18.5824 18.613 18.9491L24.0212 37.184C24.1618 37.6582 23.8839 38.1544 23.4005 38.2923C22.9171 38.4303 22.4111 38.1577 22.2705 37.6835L17.6038 21.9486L11.4865 37.0348C11.3004 37.4937 10.7703 37.7177 10.3025 37.5352C9.83467 37.3527 9.60625 36.8328 9.79232 36.3739L16.8906 18.8684C17.0345 18.5135 17.3922 18.2875 17.7811 18.3057Z" fill="#DE8A2E"/>
<path fill-rule="evenodd" clip-rule="evenodd" d="M21.727 30.5016C21.727 30.9955 21.3189 31.3958 20.8154 31.3958L13.21 31.3958C12.7065 31.3958 12.2984 30.9955 12.2984 30.5016C12.2984 30.0078 12.7066 29.6074 13.21 29.6075L20.8154 29.6075C21.3189 29.6075 21.727 30.0078 21.727 30.5016Z" fill="#DE8A2E"/>
<path fill-rule="evenodd" clip-rule="evenodd" d="M27.9775 25.6258V29.279C28.217 29.2882 28.4737 29.3143 28.7325 29.3532C29.0879 29.325 29.4765 29.2635 29.8435 29.1506C30.2754 29.0176 30.6088 28.8338 30.8254 28.613C31.022 28.4127 31.1569 28.1501 31.1569 27.7475C31.1569 26.9654 30.6861 26.441 29.8254 26.0695C29.2514 25.8218 28.5817 25.6853 27.9775 25.6258ZM31.5946 30.3006C31.7877 30.1721 31.9714 30.024 32.1391 29.8532C32.6587 29.3236 32.9801 28.6181 32.9801 27.7475C32.9801 25.9834 31.7833 24.9607 30.5597 24.4326C29.3557 23.913 27.9602 23.7791 27.0413 23.8035C26.5476 23.8166 26.1543 24.2129 26.1543 24.6973V37.5613C26.1543 37.957 26.4194 38.3056 26.8061 38.4184C27.7936 38.7063 29.4074 38.8116 30.8668 38.356C31.61 38.124 32.3518 37.7343 32.9417 37.11C33.5401 36.4768 33.941 35.6451 34.0564 34.6081C34.2971 32.4436 32.9873 31.0747 31.5946 30.3006ZM27.9775 31.156C28.1822 31.1635 28.4055 31.1627 28.6403 31.1511C29.1885 31.2488 29.8243 31.4298 30.4106 31.7096C31.6073 32.2807 32.3866 33.1312 32.2439 34.4141C32.1686 35.0909 31.9221 35.5583 31.6046 35.8943C31.2785 36.2393 30.8357 36.489 30.3139 36.6519C29.5299 36.8966 28.6562 36.9173 27.9775 36.8329V31.156Z" fill="#DE8A2E"/>
</svg>
