<svg width="96" height="96" viewBox="0 0 96 96" fill="none" xmlns="http://www.w3.org/2000/svg">
<path d="M13.9318 56.5059C13.9318 53.1921 16.6181 50.5059 19.9318 50.5059H91.8181C92.8702 50.5059 93.4168 52.2688 92.6677 53.0076C90.8563 54.7943 88.9819 57.5412 88.9819 61.2582C88.9819 65.0982 90.9825 67.9599 92.8473 69.7932C93.589 70.5223 93.056 72.2106 92.016 72.2106H19.9318C16.6181 72.2106 13.9318 69.5243 13.9318 66.2106V56.5059Z" fill="hsl(0,62%,61%)"/>
<path d="M55.0111 15.3948C55.0111 20.9994 50.8304 27.5724 42.4689 27.5724C34.1074 27.5724 29.9266 20.9994 29.9266 15.3948C29.9266 9.35255 33.8859 8.04116 38.1774 8.1686C39.9387 8.22091 42.4689 9.55452 42.4689 9.55452C42.4689 9.55452 44.9991 8.22091 46.7604 8.1686C51.0519 8.04116 55.0111 9.30606 55.0111 15.3948Z" fill="white" stroke="hsl(0,62%,61%)" stroke-width="2" stroke-linecap="round" stroke-linejoin="round"/>
<path d="M46.1793 23.9347C47.4857 23.4322 50.3391 21.4607 51.3007 17.5938" stroke="hsl(0,62%,61%)" stroke-width="2" stroke-linecap="round" stroke-linejoin="round"/>
<path d="M42.7928 9.14935C40.2157 9.17355 37.8588 7.43527 37.2365 2.47656C39.6918 3.42839 43.6906 2.98243 42.7928 9.14935Z" fill="white" stroke="hsl(0,62%,61%)" stroke-width="2" stroke-linecap="round" stroke-linejoin="round"/>
<path d="M42.8348 9.06958C43.9845 7.64028 45.7091 3.22243 44.2197 0" stroke="hsl(0,62%,61%)" stroke-width="2" stroke-linecap="round" stroke-linejoin="round"/>
<path d="M35.5714 17.0571C35.0349 16.0571 34.8834 14.4076 35.4312 13.1394" stroke="hsl(0,62%,61%)" stroke-width="2" stroke-linecap="round" stroke-linejoin="round"/>
<path d="M6.97205 34.4929C6.97205 31.2715 9.59774 28.6602 12.8367 28.6602H82.7515C82.7515 28.6602 77.3374 32.1356 76.7738 38.7037C76.2101 45.2718 82.7515 48.7017 82.7515 48.7017H12.8367C9.59774 48.7017 6.97205 46.0903 6.97205 42.869V34.4929Z" fill="white"/>
<path fill-rule="evenodd" clip-rule="evenodd" d="M83.8154 30.2921C83.8145 30.2926 83.8137 30.2932 83.8128 30.2937L83.7939 30.3066C83.769 30.3235 83.726 30.3533 83.6674 30.3956C83.55 30.4805 83.3709 30.6155 83.149 30.7996C82.7036 31.1691 82.0959 31.7284 81.4722 32.4686C80.2207 33.9539 78.9593 36.0992 78.7215 38.87C78.5025 41.422 79.6437 43.4064 80.9847 44.8447C81.6527 45.5612 82.3422 46.1084 82.8652 46.4754C83.1249 46.6577 83.3385 46.792 83.4809 46.8774C83.552 46.92 83.6049 46.9502 83.6365 46.9679C83.6522 46.9767 83.6626 46.9823 83.6672 46.9848L83.6656 46.984L83.6644 46.9834C83.666 46.9842 83.6676 46.9851 83.6692 46.9859C84.4602 47.4042 84.8644 48.3041 84.6491 49.1696C84.4332 50.0373 83.6502 50.6468 82.7514 50.6468H12.8366C8.51802 50.6468 5.01709 47.1649 5.01709 42.8699V34.4937C5.01709 30.1986 8.51801 26.7168 12.8366 26.7168H82.7514C83.6182 26.7168 84.3815 27.2845 84.6266 28.1114C84.8709 28.936 84.5417 29.8219 83.8178 30.2905C83.817 30.291 83.8162 30.2915 83.8154 30.2921ZM80.1389 46.7583C81.4999 48.0463 82.7514 48.7026 82.7514 48.7026H12.8366C9.59767 48.7026 6.97197 46.0912 6.97197 42.8699V34.4937C6.97197 31.2724 9.59767 28.661 12.8366 28.661H82.7514C82.7514 28.661 81.7255 29.3196 80.5203 30.6053C78.9569 32.273 77.092 34.9957 76.7737 38.7046C76.4566 42.3998 78.3883 45.1017 80.1389 46.7583Z" fill="hsl(0,62%,61%)"/>
<path d="M1.95496 79.8464C1.95496 76.6251 4.58065 74.0137 7.8196 74.0137H77.7344C77.7344 74.0137 72.8241 77.0669 72.0086 83.9069C71.193 90.7469 77.7344 94.0552 77.7344 94.0552H7.81961C4.58065 94.0552 1.95496 91.4438 1.95496 88.2225V79.8464Z" fill="white"/>
<path fill-rule="evenodd" clip-rule="evenodd" d="M78.7755 75.6601C78.7753 75.6602 78.7757 75.66 78.7755 75.6601C78.7744 75.6607 78.7734 75.6614 78.7723 75.6621C78.7722 75.6621 78.7723 75.6621 78.7723 75.6621M75.5518 75.9588C76.7285 74.64 77.7343 74.0145 77.7343 74.0145H7.81953C4.58058 74.0145 1.95488 76.6259 1.95488 79.8472V88.2234C1.95488 91.4447 4.58058 94.0561 7.81954 94.0561H77.7343C77.7343 94.0561 76.4655 93.4144 75.1151 92.1118C73.3994 90.4569 71.5521 87.7353 72.0085 83.9078C72.4549 80.1635 74.1284 77.5539 75.5518 75.9588ZM78.6219 92.3238C78.6238 92.3247 78.6257 92.3257 78.6276 92.3267C78.6283 92.3271 78.6285 92.3272 78.6276 92.3267C79.4288 92.736 79.8455 93.6373 79.6354 94.5092C79.4247 95.3837 78.6385 96.0003 77.7343 96.0003H7.81954C3.50093 96.0003 0 92.5185 0 88.2234V79.8472C0 75.5522 3.50092 72.0703 7.81953 72.0703H77.7343C78.6064 72.0703 79.3729 72.6448 79.6134 73.4784C79.8528 74.3083 79.5131 75.1954 78.7806 75.6569C78.7791 75.6578 78.777 75.6591 78.7755 75.6601M78.6264 92.326C78.6224 92.324 78.6127 92.3189 78.5977 92.3107C78.5675 92.2943 78.5162 92.2658 78.4468 92.2252C78.3078 92.1438 78.0984 92.0148 77.8442 91.8382C77.3319 91.4824 76.6589 90.9486 76.0139 90.241C74.7319 88.8348 73.6282 86.8338 73.9498 84.1367C74.3052 81.1559 75.5463 79.0198 76.6911 77.6263C77.2655 76.9272 77.8138 76.4179 78.2078 76.0905C78.4043 75.9272 78.5608 75.8105 78.6606 75.7393C78.7105 75.7038 78.746 75.6798 78.7651 75.6671L78.7755 75.6601L78.7735 75.6613L78.7723 75.6621M78.6264 92.326L78.6253 92.3255L78.6232 92.3244" fill="hsl(0,62%,61%)"/>
<path d="M19.7885 56.3799H65.3586" stroke="white" stroke-width="2" stroke-linecap="round" stroke-linejoin="round"/>
<path d="M19.7886 61.3584H44.664" stroke="white" stroke-width="2" stroke-linecap="round" stroke-linejoin="round"/>
<path d="M60.6552 27.9941H68.755V39.8546C68.755 40.7442 67.6806 41.191 67.0499 40.5636L65.4103 38.933C65.0202 38.545 64.39 38.545 63.9999 38.933L62.3603 40.5636C61.7296 41.191 60.6552 40.7442 60.6552 39.8546V27.9941Z" fill="hsl(0,62%,61%)"/>
<path d="M6.40991 79.0566H51.9801" stroke="hsl(0,62%,61%)" stroke-width="2" stroke-linecap="round" stroke-linejoin="round"/>
<path d="M6.40985 84.0352H31.2853" stroke="hsl(0,62%,61%)" stroke-width="2" stroke-linecap="round" stroke-linejoin="round"/>
<path d="M12.2631 33.8584H50.517" stroke="hsl(0,62%,61%)" stroke-width="2" stroke-linecap="round" stroke-linejoin="round"/>
</svg>
