<svg width="96" height="96" viewBox="0 0 96 96" fill="none" xmlns="http://www.w3.org/2000/svg">
<path d="M42.1056 32.9492C48.9201 32.9492 54.4444 38.4597 54.4444 45.2572V66.7867C54.4444 73.5842 48.9201 79.0947 42.1056 79.0947H28.8628L21.0922 88.6625C20.5541 89.3252 19.4797 88.9456 19.4797 88.0927V79.0947H19.4464C12.6319 79.0947 7.10767 73.5842 7.10767 66.7867V45.2572C7.10767 38.4597 12.6319 32.9492 19.4464 32.9492H42.1056Z" fill="#CEDA42"/>
<path d="M55.6227 12.2197C48.8082 12.2197 43.2839 17.7302 43.2839 24.5277V57.8619C43.2839 64.6594 48.8082 70.1699 55.6227 70.1699H71.7459L82.0155 82.8147C82.5537 83.4774 83.628 83.0978 83.628 82.2449V70.1699H83.6611C90.4756 70.1699 95.9998 64.6594 95.9998 57.8619V24.5277C95.9998 17.7302 90.4756 12.2197 83.661 12.2197H55.6227Z" fill="#CEDA42"/>
<path fill-rule="evenodd" clip-rule="evenodd" d="M36.4469 29.415C43.4631 29.415 49.1509 35.0886 49.1509 42.0873V62.8882C49.1509 69.8869 43.4631 75.5605 36.4469 75.5605H23.5691L14.1859 87.114V75.5563C7.32326 75.3805 1.81417 69.7761 1.81417 62.8882V42.0873C1.81417 35.0886 7.50195 29.415 14.5182 29.415H36.4469Z" fill="white"/>
<path fill-rule="evenodd" clip-rule="evenodd" d="M23.5696 75.5623H36.4474C43.4637 75.5623 49.1515 69.8887 49.1515 62.89V42.0891C49.1515 35.0904 43.4637 29.4168 36.4475 29.4168H14.5187C7.50251 29.4168 1.81474 35.0904 1.81474 42.0891V62.89C1.81474 69.7779 7.32382 75.3823 14.1865 75.558V87.1157L23.5696 75.5623ZM12.3716 77.2152C5.37082 76.1799 -0.00012207 70.1608 -0.00012207 62.89V42.0891C-0.00012207 34.0905 6.50019 27.6064 14.5187 27.6064H36.4475C44.466 27.6064 50.9663 34.0905 50.9663 42.0891V62.89C50.9663 70.8885 44.466 77.3726 36.4474 77.3726H24.435L15.5967 88.2553C15.1128 88.8511 14.3051 89.0782 13.5805 88.8221C12.8559 88.5661 12.3716 87.8825 12.3716 87.1157V77.2152Z" fill="#CEDA42"/>
<path fill-rule="evenodd" clip-rule="evenodd" d="M2.80444 42.4215C2.80444 35.9226 8.08595 30.6543 14.601 30.6543H36.3637C42.8787 30.6543 48.1602 35.9226 48.1602 42.4214V62.7177C48.1602 69.2166 42.8787 74.4849 36.3637 74.4849H23.3619C22.8607 74.4849 22.4544 74.0796 22.4544 73.5797C22.4544 73.0798 22.8607 72.6746 23.3619 72.6746H36.3637C41.8764 72.6746 46.3454 68.2167 46.3454 62.7177V42.4214C46.3454 36.9224 41.8764 32.4646 36.3637 32.4646H14.601C9.08827 32.4646 4.6193 36.9225 4.6193 42.4215V62.7178C4.6193 68.2167 9.08827 72.6746 14.601 72.6746H15.4891C15.9902 72.6746 16.3965 73.0798 16.3965 73.5797C16.3965 74.0796 15.9902 74.4849 15.4891 74.4849H14.601C8.08595 74.4849 2.80444 69.2166 2.80444 62.7178V42.4215Z" fill="#CEDA42"/>
<path fill-rule="evenodd" clip-rule="evenodd" d="M9.14404 48.8758C9.14404 48.1259 9.75345 47.518 10.5052 47.518H21.7043C22.4561 47.518 23.0655 48.1259 23.0655 48.8758C23.0655 49.6256 22.4561 50.2335 21.7043 50.2335H10.5052C9.75345 50.2335 9.14404 49.6256 9.14404 48.8758Z" fill="#CEDA42"/>
<path fill-rule="evenodd" clip-rule="evenodd" d="M9.14404 40.2904C9.14404 39.5405 9.75345 38.9326 10.5052 38.9326H36.8945C37.6463 38.9326 38.2557 39.5405 38.2557 40.2904C38.2557 41.0402 37.6463 41.6481 36.8945 41.6481H10.5052C9.75345 41.6481 9.14404 41.0402 9.14404 40.2904Z" fill="#CEDA42"/>
<path fill-rule="evenodd" clip-rule="evenodd" d="M9.14404 56.9244C9.14404 56.1745 9.75345 55.5666 10.5052 55.5666H15.1643C15.9161 55.5666 16.5255 56.1745 16.5255 56.9244C16.5255 57.6742 15.9161 58.2821 15.1643 58.2821H10.5052C9.75345 58.2821 9.14404 57.6742 9.14404 56.9244Z" fill="#CEDA42"/>
<path fill-rule="evenodd" clip-rule="evenodd" d="M48.9447 7.81152C41.9285 7.81152 36.2407 13.4851 36.2407 20.4838V53.0894C36.2407 60.0881 41.9285 65.7617 48.9447 65.7617H64.7031L76.5851 80.392V65.7574C83.4477 65.5816 88.9566 59.9772 88.9566 53.0894V20.4838C88.9566 13.4851 83.2688 7.81152 76.2526 7.81152H48.9447Z" fill="white"/>
<path fill-rule="evenodd" clip-rule="evenodd" d="M64.7028 65.7605H48.9444C41.9282 65.7605 36.2404 60.0869 36.2404 53.0882V20.4826C36.2404 13.4839 41.9282 7.81033 48.9444 7.81033H76.2523C83.2685 7.81033 88.9563 13.4839 88.9563 20.4826V53.0882C88.9563 59.976 83.4473 65.5804 76.5848 65.7562V80.3907L64.7028 65.7605ZM78.3996 67.4134C85.4003 66.3779 90.7711 60.3589 90.7711 53.0882V20.4826C90.7711 12.4841 84.2708 6 76.2523 6H48.9444C40.9258 6 34.4255 12.4841 34.4255 20.4826V53.0882C34.4255 61.0867 40.9258 67.5708 48.9444 67.5708H63.8374L75.1746 81.5303C75.6585 82.1261 76.4662 82.3532 77.1908 82.0972C77.9154 81.8411 78.3996 81.1575 78.3996 80.3907V67.4134Z" fill="#CEDA42"/>
<path fill-rule="evenodd" clip-rule="evenodd" d="M37.386 21.0738C37.386 14.575 42.6675 9.30664 49.1826 9.30664H75.8807C82.3957 9.30664 87.6772 14.575 87.6772 21.0738V52.2298C87.6772 58.7286 82.3957 63.9969 75.8807 63.9969H75.5607C75.0595 63.9969 74.6532 63.5917 74.6532 63.0918C74.6532 62.5919 75.0595 62.1866 75.5607 62.1866H75.8807C81.3934 62.1866 85.8624 57.7288 85.8624 52.2298V21.0738C85.8624 15.5748 81.3934 11.117 75.8807 11.117H49.1826C43.6698 11.117 39.2008 15.5748 39.2008 21.0738V52.2298C39.2008 57.7288 43.6698 62.1866 49.1826 62.1866H65.436C65.9372 62.1866 66.3434 62.5919 66.3434 63.0918C66.3434 63.5917 65.9372 63.9969 65.436 63.9969H49.1826C42.6675 63.9969 37.386 58.7286 37.386 52.2298V21.0738Z" fill="#CEDA42"/>
<path fill-rule="evenodd" clip-rule="evenodd" d="M45.8114 39.4348C45.8114 38.435 46.624 37.6244 47.6263 37.6244H77.5823C78.5846 37.6244 79.3972 38.435 79.3972 39.4348C79.3972 40.4346 78.5846 41.2451 77.5823 41.2451H47.6263C46.624 41.2451 45.8114 40.4346 45.8114 39.4348Z" fill="#CEDA42"/>
<path fill-rule="evenodd" clip-rule="evenodd" d="M45.8114 30.0279C45.8114 29.0281 46.624 28.2176 47.6263 28.2176H77.5823C78.5846 28.2176 79.3972 29.0281 79.3972 30.0279C79.3972 31.0278 78.5846 31.8383 77.5823 31.8383H47.6263C46.624 31.8383 45.8114 31.0278 45.8114 30.0279Z" fill="#CEDA42"/>
<path fill-rule="evenodd" clip-rule="evenodd" d="M45.8113 20.9773C45.8113 19.9775 46.6238 19.167 47.6261 19.167H77.5822C78.5845 19.167 79.397 19.9775 79.397 20.9773C79.397 21.9771 78.5845 22.7877 77.5822 22.7877H47.6261C46.6238 22.7877 45.8113 21.9771 45.8113 20.9773Z" fill="#CEDA42"/>
<path fill-rule="evenodd" clip-rule="evenodd" d="M45.8114 48.2526C45.8114 47.2527 46.624 46.4422 47.6263 46.4422H63.8881C64.8905 46.4422 65.703 47.2527 65.703 48.2526C65.703 49.2524 64.8905 50.0629 63.8881 50.0629H47.6263C46.624 50.0629 45.8114 49.2524 45.8114 48.2526Z" fill="#CEDA42"/>
</svg>
