<svg width="68" height="82" viewBox="0 0 68 82" fill="none" xmlns="http://www.w3.org/2000/svg">
<path d="M0 75.3653C0 74.1625 0.972991 73.1875 2.17324 73.1875H65.8268C67.027 73.1875 68 74.1625 68 75.3653C68 76.568 67.027 77.5431 65.8268 77.5431H2.17324C0.972994 77.5431 0 76.568 0 75.3653Z" fill="#64A8DF"/>
<path d="M0 5.67681C0 4.47405 0.972991 3.49902 2.17324 3.49902H65.8268C67.027 3.49902 68 4.47405 68 5.67681C68 6.87957 67.027 7.8546 65.8268 7.8546H2.17324C0.972994 7.8546 0 6.87957 0 5.67681Z" fill="#64A8DF"/>
<path d="M8.0957 11.6574C8.0957 8.33552 10.783 5.64258 14.098 5.64258H53.7929C57.1078 5.64258 59.7952 8.33553 59.7952 11.6574V69.5959C59.7952 72.9178 57.1078 75.6107 53.7929 75.6107H14.098C10.783 75.6107 8.0957 72.9178 8.0957 69.5959V11.6574Z" fill="white"/>
<path fill-rule="evenodd" clip-rule="evenodd" d="M14.0976 4.13965H53.7925C57.9362 4.13965 61.2953 7.50584 61.2953 11.6582V69.5967C61.2953 73.7491 57.9362 77.1152 53.7925 77.1152H14.0976C9.95387 77.1152 6.59473 73.7491 6.59473 69.5967V11.6582C6.59473 7.50583 9.95388 4.13965 14.0976 4.13965ZM14.0976 5.64337C10.7826 5.64337 8.0953 8.33631 8.0953 11.6582V69.5967C8.0953 72.9186 10.7826 75.6115 14.0976 75.6115H53.7925C57.1074 75.6115 59.7948 72.9186 59.7948 69.5967V11.6582C59.7948 8.33631 57.1074 5.64337 53.7925 5.64337H14.0976Z" fill="#64A8DF"/>
<path d="M8.0957 67.1221H59.7952V69.7495H8.0957V67.1221Z" fill="#64A8DF"/>
<path d="M3.2207 6.01506C3.2207 3.52362 5.23619 1.50391 7.72243 1.50391H60.1675C62.6538 1.50391 64.6693 3.52362 64.6693 6.01506V6.43663C64.6693 8.92807 62.6538 10.9478 60.1675 10.9478H7.72242C5.23619 10.9478 3.2207 8.92807 3.2207 6.43663V6.01506Z" fill="white"/>
<path fill-rule="evenodd" clip-rule="evenodd" d="M7.72202 0H60.1671C63.4821 0 66.1694 2.69295 66.1694 6.01487V6.43644C66.1694 9.75836 63.4821 12.4513 60.1671 12.4513H7.72202C4.40704 12.4513 1.71973 9.75836 1.71973 6.43644V6.01487C1.71973 2.69295 4.40705 0 7.72202 0ZM7.72202 1.50372C5.23579 1.50372 3.2203 3.52343 3.2203 6.01487V6.43644C3.2203 8.92788 5.23579 10.9476 7.72202 10.9476H60.1671C62.6534 10.9476 64.6689 8.92788 64.6689 6.43644V6.01487C64.6689 3.52343 62.6534 1.50372 60.1671 1.50372H7.72202Z" fill="#64A8DF"/>
<path fill-rule="evenodd" clip-rule="evenodd" d="M47.9141 3.86514C47.9141 3.4499 48.25 3.11328 48.6643 3.11328H61.8256C62.24 3.11328 62.5759 3.4499 62.5759 3.86514C62.5759 4.28038 62.24 4.617 61.8256 4.617H48.6643C48.25 4.617 47.9141 4.28038 47.9141 3.86514Z" fill="#64A8DF"/>
<path d="M7.11973 10.948H60.769C62.1962 10.948 63.4444 10.1796 64.1241 9.0332L3.80469 9.09918C4.4926 10.209 5.72005 10.948 7.11973 10.948Z" fill="#64A8DF"/>
<path d="M3.2207 75.0522C3.2207 72.5607 5.23619 70.541 7.72243 70.541H60.1675C62.6538 70.541 64.6693 72.5607 64.6693 75.0522V75.9845C64.6693 78.4759 62.6538 80.4956 60.1675 80.4956H7.72242C5.23619 80.4956 3.2207 78.4759 3.2207 75.9845V75.0522Z" fill="white"/>
<path fill-rule="evenodd" clip-rule="evenodd" d="M7.72202 69.0381H60.1671C63.4821 69.0381 66.1694 71.731 66.1694 75.053V75.9853C66.1694 79.3072 63.4821 82.0001 60.1671 82.0001H7.72202C4.40704 82.0001 1.71973 79.3072 1.71973 75.9853V75.053C1.71973 71.731 4.40705 69.0381 7.72202 69.0381ZM7.72202 70.5418C5.23579 70.5418 3.2203 72.5615 3.2203 75.053V75.9853C3.2203 78.4767 5.23579 80.4964 7.72202 80.4964H60.1671C62.6534 80.4964 64.6689 78.4767 64.6689 75.9853V75.053C64.6689 72.5615 62.6534 70.5418 60.1671 70.5418H7.72202Z" fill="#64A8DF"/>
<path fill-rule="evenodd" clip-rule="evenodd" d="M5.01758 73.5546C5.01758 73.1394 5.35349 72.8027 5.76787 72.8027H24.1287C24.5431 72.8027 24.879 73.1394 24.879 73.5546C24.879 73.9698 24.5431 74.3065 24.1287 74.3065H5.76787C5.35349 74.3065 5.01758 73.9698 5.01758 73.5546Z" fill="#64A8DF"/>
<path fill-rule="evenodd" clip-rule="evenodd" d="M55.957 77.2128C55.957 76.7976 56.2929 76.4609 56.7073 76.4609H64.6691C65.0835 76.4609 65.4194 76.7976 65.4194 77.2128C65.4194 77.628 65.0835 77.9647 64.6691 77.9647H56.7073C56.2929 77.9647 55.957 77.628 55.957 77.2128Z" fill="#64A8DF"/>
<path d="M7.11973 80.6374H60.769C62.1962 80.6374 63.4444 79.8691 64.1241 78.7227L3.80469 78.7886C4.4926 79.8985 5.72005 80.6374 7.11973 80.6374Z" fill="#64A8DF"/>
<path fill-rule="evenodd" clip-rule="evenodd" d="M13.9551 19.1698C13.9551 18.7546 14.291 18.418 14.7054 18.418H53.6206C54.0349 18.418 54.3708 18.7546 54.3708 19.1698C54.3708 19.5851 54.0349 19.9217 53.6206 19.9217H14.7054C14.291 19.9217 13.9551 19.5851 13.9551 19.1698Z" fill="#64A8DF"/>
<path fill-rule="evenodd" clip-rule="evenodd" d="M13.9551 32.1144C13.9551 31.6992 14.291 31.3626 14.7054 31.3626H53.6205C54.0349 31.3626 54.3708 31.6992 54.3708 32.1144C54.3708 32.5297 54.0349 32.8663 53.6205 32.8663H14.7054C14.291 32.8663 13.9551 32.5297 13.9551 32.1144Z" fill="#64A8DF"/>
<path fill-rule="evenodd" clip-rule="evenodd" d="M13.9551 36.1036C13.9551 35.6884 14.291 35.3518 14.7054 35.3518H53.6205C54.0349 35.3518 54.3708 35.6884 54.3708 36.1036C54.3708 36.5189 54.0349 36.8555 53.6205 36.8555H14.7054C14.291 36.8555 13.9551 36.5189 13.9551 36.1036Z" fill="#64A8DF"/>
<path fill-rule="evenodd" clip-rule="evenodd" d="M13.9551 40.0929C13.9551 39.6777 14.291 39.3411 14.7054 39.3411H53.6205C54.0349 39.3411 54.3708 39.6777 54.3708 40.0929C54.3708 40.5082 54.0349 40.8448 53.6205 40.8448H14.7054C14.291 40.8448 13.9551 40.5082 13.9551 40.0929Z" fill="#64A8DF"/>
<path fill-rule="evenodd" clip-rule="evenodd" d="M13.9551 44.0007C13.9551 43.5855 14.291 43.2489 14.7054 43.2489H38.022C38.4363 43.2489 38.7723 43.5855 38.7723 44.0007C38.7723 44.416 38.4363 44.7526 38.022 44.7526H14.7054C14.291 44.7526 13.9551 44.416 13.9551 44.0007Z" fill="#64A8DF"/>
<path fill-rule="evenodd" clip-rule="evenodd" d="M13.9551 23.0687C13.9551 22.6535 14.291 22.3169 14.7054 22.3169H35.9481C36.3624 22.3169 36.6983 22.6535 36.6983 23.0687C36.6983 23.484 36.3624 23.8206 35.9481 23.8206H14.7054C14.291 23.8206 13.9551 23.484 13.9551 23.0687Z" fill="#64A8DF"/>
<path fill-rule="evenodd" clip-rule="evenodd" d="M13.9551 58.8089C13.9551 58.3937 14.291 58.057 14.7054 58.057H25.549C25.9634 58.057 26.2993 58.3937 26.2993 58.8089C26.2993 59.2241 25.9634 59.5608 25.549 59.5608H14.7054C14.291 59.5608 13.9551 59.2241 13.9551 58.8089Z" fill="#64A8DF"/>
<path fill-rule="evenodd" clip-rule="evenodd" d="M44.3419 54.7432C44.6233 54.4612 45.0049 54.3027 45.4029 54.3027H50.4157C51.2445 54.3027 51.9163 54.976 51.9163 55.8065V63.3993C51.9163 63.9672 51.597 64.4867 51.0908 64.7422C50.5847 64.9978 49.978 64.9457 49.5226 64.6076L47.9093 63.4102L46.2961 64.6076C45.8406 64.9457 45.234 64.9978 44.7278 64.7422C44.2217 64.4867 43.9023 63.9672 43.9023 63.3993V55.8065C43.9023 55.4076 44.0604 55.0252 44.3419 54.7432ZM47.9093 61.5389L50.4157 63.3993V55.8065H45.4029V63.3993L47.9093 61.5389Z" fill="#64A8DF"/>
<path d="M53.7821 53.7165C53.7821 54.437 52.9403 54.8251 52.6979 55.4602C52.4518 56.1052 52.8015 56.9955 52.3535 57.5041C51.8104 58.1207 50.8361 57.9088 50.0754 58.2459C49.3695 58.5586 48.8892 59.4427 48.0678 59.4427C47.2463 59.4427 46.7661 58.5586 46.0602 58.2459C45.2995 57.9088 44.3252 58.1207 43.7821 57.5041C43.3341 56.9955 43.6838 56.1052 43.4376 55.4602C43.1952 54.8251 42.3535 54.437 42.3535 53.7165C42.3535 52.9959 43.1952 52.6079 43.4376 51.9728C43.6561 51.4003 43.2547 50.5707 43.6343 50.1035C44.1392 49.4821 44.7717 49.6792 45.4917 49.3142C46.2657 48.9217 47.141 47.9902 48.0678 47.9902C48.9946 47.9902 49.8698 48.9217 50.6439 49.3142C51.3639 49.6792 51.9964 49.4821 52.5013 50.1035C52.8809 50.5707 52.4795 51.4003 52.6979 51.9728C52.9403 52.6079 53.7821 52.9959 53.7821 53.7165Z" fill="white"/>
<path fill-rule="evenodd" clip-rule="evenodd" d="M46.5178 49.5598C46.3088 49.7048 46.0733 49.862 45.8307 49.985C45.4497 50.1781 45.0535 50.2604 44.8004 50.3129C44.7448 50.3245 44.696 50.3346 44.6559 50.3441C44.4245 50.3992 44.3247 50.4486 44.2241 50.5687C44.2228 50.5788 44.2026 50.6594 44.224 50.9416C44.2261 50.9695 44.2287 51.0007 44.2314 51.0343C44.2425 51.1681 44.2568 51.34 44.2577 51.5004C44.2589 51.709 44.2407 51.974 44.1387 52.2413C44.0366 52.5086 43.8817 52.7245 43.7445 52.8908C43.654 53.0006 43.5428 53.1205 43.4535 53.2168C43.4185 53.2546 43.3869 53.2887 43.3612 53.3171C43.1231 53.5806 43.1041 53.6677 43.1041 53.7164C43.1041 53.7651 43.1231 53.8521 43.3612 54.1157C43.3869 54.1441 43.4185 54.1782 43.4535 54.216C43.5428 54.3122 43.654 54.4322 43.7445 54.5419C43.8817 54.7082 44.0366 54.9241 44.1387 55.1915C44.2406 55.4583 44.2714 55.7243 44.282 55.9435C44.2895 56.0976 44.2875 56.2676 44.2859 56.4057C44.2853 56.4531 44.2848 56.4967 44.2848 56.5345C44.2841 56.9197 44.3299 56.9894 44.3449 57.0065C44.4302 57.1033 44.5735 57.1746 44.9602 57.2376C45.0164 57.2468 45.0819 57.2559 45.1545 57.266C45.4834 57.3118 45.9569 57.3778 46.3639 57.5581C46.6273 57.6748 46.8485 57.835 47.0272 57.9793C47.1188 58.0532 47.2419 58.16 47.346 58.2503C47.4083 58.3044 47.4638 58.3526 47.5017 58.3843C47.7964 58.6308 47.9423 58.6908 48.0681 58.6908C48.1938 58.6908 48.3397 58.6308 48.6344 58.3843C48.6723 58.3526 48.7279 58.3044 48.7902 58.2503C48.8943 58.16 49.0174 58.0532 49.109 57.9793C49.2876 57.835 49.5089 57.6748 49.7723 57.5581C50.1793 57.3778 50.6528 57.3118 50.9817 57.266C51.0542 57.2559 51.1197 57.2468 51.1759 57.2376C51.5626 57.1746 51.706 57.1033 51.7913 57.0065C51.8063 56.9894 51.8521 56.9197 51.8514 56.5345C51.8513 56.4967 51.8508 56.4531 51.8503 56.4057C51.8486 56.2676 51.8467 56.0976 51.8541 55.9435C51.8648 55.7243 51.8956 55.4583 51.9974 55.1915C52.0995 54.9241 52.2544 54.7082 52.3916 54.5419C52.4822 54.4322 52.5934 54.3122 52.6827 54.216C52.7177 54.1782 52.7493 54.1441 52.775 54.1157C53.013 53.8521 53.0321 53.7651 53.0321 53.7164C53.0321 53.6677 53.013 53.5806 52.775 53.3171C52.7493 53.2887 52.7177 53.2546 52.6827 53.2168C52.5934 53.1205 52.4822 53.0006 52.3916 52.8908C52.2544 52.7245 52.0995 52.5086 51.9974 52.2413C51.8954 51.974 51.8772 51.709 51.8784 51.5004C51.8794 51.34 51.8936 51.1681 51.9047 51.0343C51.9075 51.0007 51.9101 50.9696 51.9122 50.9416C51.9336 50.6594 51.9134 50.5788 51.912 50.5687C51.8115 50.4486 51.7117 50.3992 51.4803 50.3441C51.4401 50.3346 51.3914 50.3245 51.3357 50.3129C51.0827 50.2604 50.6864 50.1781 50.3055 49.985C50.0629 49.862 49.8273 49.7048 49.6183 49.5598C49.5467 49.5101 49.479 49.4624 49.4133 49.4162C49.2734 49.3177 49.1427 49.2257 49.0036 49.1347C48.5864 48.8621 48.296 48.742 48.0681 48.742C47.8402 48.742 47.5497 48.8621 47.1326 49.1347C46.9934 49.2257 46.8627 49.3177 46.7229 49.4162C46.6571 49.4624 46.5894 49.5101 46.5178 49.5598ZM46.3129 47.8752C46.7586 47.5839 47.3692 47.2383 48.0681 47.2383C48.7669 47.2383 49.3775 47.5839 49.8232 47.8752C49.9848 47.9808 50.1508 48.0976 50.3005 48.203C50.361 48.2455 50.4188 48.2862 50.4725 48.3235C50.6743 48.4635 50.8384 48.5699 50.9829 48.6432C51.1705 48.7383 51.3223 48.7707 51.5484 48.819C51.6298 48.8364 51.7209 48.8559 51.8268 48.881C52.2119 48.9727 52.6817 49.1343 53.0834 49.6287C53.4802 50.1171 53.4329 50.7351 53.4098 51.0377C53.4093 51.0438 53.4089 51.0498 53.4084 51.0556C53.4046 51.1064 53.4008 51.1524 53.3973 51.195C53.3873 51.3181 53.3796 51.4122 53.379 51.5093C53.3783 51.6317 53.3918 51.6852 53.399 51.7041C53.4182 51.7543 53.4594 51.8251 53.5481 51.9326C53.6111 52.009 53.6701 52.0725 53.7425 52.1504C53.785 52.1961 53.8321 52.2467 53.8874 52.3079C54.1308 52.5773 54.5326 53.0445 54.5326 53.7164C54.5326 54.3882 54.1308 54.8554 53.8874 55.1248C53.8321 55.186 53.785 55.2367 53.7425 55.2824C53.6701 55.3603 53.6111 55.4237 53.5481 55.5001C53.4594 55.6077 53.4182 55.6785 53.399 55.7287C53.3778 55.7843 53.36 55.8715 53.3529 56.0165C53.3478 56.1227 53.349 56.2207 53.3504 56.3403C53.3511 56.398 53.3518 56.4608 53.352 56.5319C53.3526 56.8802 53.3492 57.51 52.9163 58.0016C52.4585 58.5214 51.8432 58.6524 51.4167 58.7219C51.29 58.7425 51.1779 58.7588 51.0769 58.7734C50.778 58.8168 50.5764 58.846 50.379 58.9334C50.2895 58.9731 50.186 59.0407 50.0504 59.1502C49.96 59.2232 49.8959 59.2794 49.8233 59.3432C49.7611 59.3977 49.6927 59.4578 49.596 59.5387C49.2687 59.8124 48.7638 60.1945 48.0681 60.1945C47.3724 60.1945 46.8674 59.8124 46.5402 59.5387C46.4435 59.4578 46.375 59.3977 46.3128 59.3432C46.2402 59.2794 46.1762 59.2232 46.0857 59.1502C45.9501 59.0407 45.8467 58.9731 45.7571 58.9334C45.5598 58.846 45.3582 58.8168 45.0592 58.7734C44.9583 58.7588 44.8462 58.7425 44.7194 58.7219C44.293 58.6524 43.6777 58.5214 43.2199 58.0016C42.7869 57.51 42.7836 56.8802 42.7842 56.5319C42.7843 56.4608 42.7851 56.398 42.7857 56.3403C42.7872 56.2207 42.7883 56.1227 42.7832 56.0165C42.7762 55.8715 42.7584 55.7843 42.7371 55.7287C42.718 55.6785 42.6768 55.6077 42.588 55.5001C42.525 55.4237 42.466 55.3603 42.3936 55.2824C42.3511 55.2367 42.304 55.186 42.2487 55.1248C42.0053 54.8554 41.6035 54.3882 41.6035 53.7164C41.6035 53.0445 42.0053 52.5773 42.2487 52.3079C42.304 52.2467 42.3511 52.1961 42.3936 52.1504C42.466 52.0725 42.525 52.009 42.588 51.9326C42.6768 51.8251 42.718 51.7543 42.7371 51.7041C42.7444 51.6852 42.7579 51.6317 42.7572 51.5093C42.7566 51.4122 42.7489 51.3181 42.7388 51.195C42.7353 51.1524 42.7316 51.1064 42.7277 51.0556C42.7273 51.0498 42.7268 51.0438 42.7263 51.0377C42.7032 50.7351 42.6559 50.1171 43.0527 49.6287C43.4544 49.1343 43.9242 48.9727 44.3093 48.881C44.4152 48.8559 44.5063 48.8364 44.5877 48.819C44.8139 48.7707 44.9656 48.7383 45.1533 48.6432C45.2977 48.5699 45.4618 48.4635 45.6636 48.3235C45.7174 48.2862 45.7752 48.2455 45.8356 48.203C45.9853 48.0976 46.1513 47.9808 46.3129 47.8752Z" fill="#64A8DF"/>
<path fill-rule="evenodd" clip-rule="evenodd" d="M50.8907 53.629C50.8907 55.2324 49.6061 56.5578 47.9903 56.5578C46.3744 56.5578 45.0898 55.2324 45.0898 53.629C45.0898 52.0255 46.3744 50.7002 47.9903 50.7002C49.6061 50.7002 50.8907 52.0255 50.8907 53.629ZM47.9903 55.389C48.948 55.389 49.7244 54.601 49.7244 53.629C49.7244 52.6569 48.948 51.8689 47.9903 51.8689C47.0325 51.8689 46.2561 52.6569 46.2561 53.629C46.2561 54.601 47.0325 55.389 47.9903 55.389Z" fill="#64A8DF"/>
</svg>
