<svg width="70" height="84" viewBox="0 0 70 84" fill="none" xmlns="http://www.w3.org/2000/svg">
<path d="M0 77.2036C0 75.9715 1.00161 74.9727 2.23716 74.9727H67.7628C68.9984 74.9727 70 75.9715 70 77.2036C70 78.4357 68.9984 79.4345 67.7628 79.4345H2.23716C1.00161 79.4345 0 78.4357 0 77.2036Z" fill="#DE8A2E"/>
<path d="M0 5.81489C0 4.5828 1.00161 3.58398 2.23716 3.58398H67.7628C68.9984 3.58398 70 4.5828 70 5.81489C70 7.04699 68.9984 8.0458 67.7628 8.0458H2.23716C1.00161 8.0458 0 7.04699 0 5.81489Z" fill="#DE8A2E"/>
<path d="M8.33398 11.9428C8.33398 8.53988 11.1003 5.78125 14.5128 5.78125H55.3752C58.7876 5.78125 61.554 8.53988 61.554 11.9428V71.2944C61.554 74.6973 58.7876 77.456 55.3752 77.456H14.5128C11.1003 77.456 8.33398 74.6973 8.33398 71.2944V11.9428Z" fill="white"/>
<path fill-rule="evenodd" clip-rule="evenodd" d="M14.5116 4.24023H55.374C59.6396 4.24023 63.0975 7.68852 63.0975 11.9422V71.2938C63.0975 75.5474 59.6396 78.9957 55.374 78.9957H14.5116C10.246 78.9957 6.78809 75.5474 6.78809 71.2938V11.9422C6.78809 7.68852 10.246 4.24023 14.5116 4.24023ZM14.5116 5.78063C11.0992 5.78063 8.33279 8.53926 8.33279 11.9422V71.2938C8.33279 74.6967 11.0992 77.4553 14.5116 77.4553H55.374C58.7865 77.4553 61.5528 74.6967 61.5528 71.2938V11.9422C61.5528 8.53926 58.7865 5.78063 55.374 5.78063H14.5116Z" fill="#DE8A2E"/>
<path d="M8.33398 68.7598H61.554V71.4513H8.33398V68.7598Z" fill="#DE8A2E"/>
<path d="M3.31543 6.1622C3.31543 3.60999 5.3902 1.54102 7.94956 1.54102H61.9372C64.4965 1.54102 66.5713 3.60999 66.5713 6.1622V6.59405C66.5713 9.14625 64.4965 11.2152 61.9372 11.2152H7.94955C5.39019 11.2152 3.31543 9.14625 3.31543 6.59405V6.1622Z" fill="white"/>
<path fill-rule="evenodd" clip-rule="evenodd" d="M7.94934 0H61.937C65.3494 0 68.1158 2.75863 68.1158 6.16157V6.59342C68.1158 9.99637 65.3494 12.755 61.937 12.755H7.94934C4.53686 12.755 1.77051 9.99636 1.77051 6.59342V6.16157C1.77051 2.75863 4.53687 0 7.94934 0ZM7.94934 1.54039C5.38999 1.54039 3.31522 3.60937 3.31522 6.16157V6.59342C3.31522 9.14563 5.38998 11.2146 7.94934 11.2146H61.937C64.4963 11.2146 66.5711 9.14563 66.5711 6.59342V6.16157C66.5711 3.60937 64.4963 1.54039 61.937 1.54039H7.94934Z" fill="#DE8A2E"/>
<path fill-rule="evenodd" clip-rule="evenodd" d="M49.3232 3.95867C49.3232 3.53331 49.669 3.18848 50.0956 3.18848H63.644C64.0705 3.18848 64.4163 3.53331 64.4163 3.95867C64.4163 4.38404 64.0705 4.72887 63.644 4.72887H50.0956C49.669 4.72887 49.3232 4.38404 49.3232 3.95867Z" fill="#DE8A2E"/>
<path d="M7.32954 11.2144H62.5567C64.0259 11.2144 65.3108 10.4273 66.0105 9.25293L3.91699 9.32052C4.62514 10.4574 5.88869 11.2144 7.32954 11.2144Z" fill="#DE8A2E"/>
<path d="M3.31543 76.8829C3.31543 74.3307 5.3902 72.2617 7.94956 72.2617H61.9372C64.4965 72.2617 66.5713 74.3307 66.5713 76.8829V77.8379C66.5713 80.3901 64.4965 82.4591 61.9372 82.4591H7.94955C5.39019 82.4591 3.31543 80.3902 3.31543 77.8379V76.8829Z" fill="white"/>
<path fill-rule="evenodd" clip-rule="evenodd" d="M7.94934 70.7217H61.937C65.3494 70.7217 68.1158 73.4803 68.1158 76.8833V77.8383C68.1158 81.2412 65.3494 83.9999 61.937 83.9999H7.94934C4.53686 83.9999 1.77051 81.2412 1.77051 77.8383V76.8833C1.77051 73.4803 4.53687 70.7217 7.94934 70.7217ZM7.94934 72.2621C5.38999 72.2621 3.31522 74.331 3.31522 76.8833V77.8383C3.31522 80.3905 5.38998 82.4595 7.94934 82.4595H61.937C64.4963 82.4595 66.5711 80.3905 66.5711 77.8383V76.8833C66.5711 74.331 64.4963 72.2621 61.937 72.2621H7.94934Z" fill="#DE8A2E"/>
<path fill-rule="evenodd" clip-rule="evenodd" d="M5.16504 75.3483C5.16504 74.923 5.51083 74.5781 5.93739 74.5781H24.8382C25.2648 74.5781 25.6106 74.923 25.6106 75.3483C25.6106 75.7737 25.2648 76.1185 24.8382 76.1185H5.93739C5.51083 76.1185 5.16504 75.7737 5.16504 75.3483Z" fill="#DE8A2E"/>
<path fill-rule="evenodd" clip-rule="evenodd" d="M57.6025 79.0964C57.6025 78.671 57.9483 78.3262 58.3749 78.3262H66.5708C66.9974 78.3262 67.3432 78.671 67.3432 79.0964C67.3432 79.5217 66.9974 79.8666 66.5708 79.8666H58.3749C57.9483 79.8666 57.6025 79.5217 57.6025 79.0964Z" fill="#DE8A2E"/>
<path d="M7.32954 82.6041H62.5567C64.0259 82.6041 65.3108 81.817 66.0105 80.6426L3.91699 80.7102C4.62514 81.8471 5.88869 82.6041 7.32954 82.6041Z" fill="#DE8A2E"/>
<path fill-rule="evenodd" clip-rule="evenodd" d="M14.3652 19.6374C14.3652 19.212 14.711 18.8672 15.1376 18.8672H55.1973C55.6239 18.8672 55.9697 19.212 55.9697 19.6374C55.9697 20.0628 55.6239 20.4076 55.1973 20.4076H15.1376C14.711 20.4076 14.3652 20.0628 14.3652 19.6374Z" fill="#DE8A2E"/>
<path fill-rule="evenodd" clip-rule="evenodd" d="M14.3652 32.8977C14.3652 32.4723 14.711 32.1275 15.1376 32.1275H55.1973C55.6239 32.1275 55.9697 32.4723 55.9697 32.8977C55.9697 33.3231 55.6239 33.6679 55.1973 33.6679H15.1376C14.711 33.6679 14.3652 33.3231 14.3652 32.8977Z" fill="#DE8A2E"/>
<path fill-rule="evenodd" clip-rule="evenodd" d="M14.3652 36.9842C14.3652 36.5588 14.711 36.214 15.1376 36.214H55.1973C55.6239 36.214 55.9697 36.5588 55.9697 36.9842C55.9697 37.4096 55.6239 37.7544 55.1973 37.7544H15.1376C14.711 37.7544 14.3652 37.4096 14.3652 36.9842Z" fill="#DE8A2E"/>
<path fill-rule="evenodd" clip-rule="evenodd" d="M14.3652 41.0708C14.3652 40.6454 14.711 40.3006 15.1376 40.3006H55.1973C55.6239 40.3006 55.9697 40.6454 55.9697 41.0708C55.9697 41.4962 55.6239 41.841 55.1973 41.841H15.1376C14.711 41.841 14.3652 41.4962 14.3652 41.0708Z" fill="#DE8A2E"/>
<path fill-rule="evenodd" clip-rule="evenodd" d="M14.3652 45.0739C14.3652 44.6485 14.711 44.3037 15.1376 44.3037H39.14C39.5665 44.3037 39.9123 44.6485 39.9123 45.0739C39.9123 45.4993 39.5665 45.8441 39.14 45.8441H15.1376C14.711 45.8441 14.3652 45.4993 14.3652 45.0739Z" fill="#DE8A2E"/>
<path fill-rule="evenodd" clip-rule="evenodd" d="M14.3652 23.6314C14.3652 23.206 14.711 22.8612 15.1376 22.8612H37.0051C37.4316 22.8612 37.7774 23.206 37.7774 23.6314C37.7774 24.0567 37.4316 24.4016 37.0051 24.4016H15.1376C14.711 24.4016 14.3652 24.0567 14.3652 23.6314Z" fill="#DE8A2E"/>
<path fill-rule="evenodd" clip-rule="evenodd" d="M14.3652 60.2433C14.3652 59.8179 14.711 59.4731 15.1376 59.4731H26.3002C26.7267 59.4731 27.0725 59.8179 27.0725 60.2433C27.0725 60.6686 26.7267 61.0135 26.3002 61.0135H15.1376C14.711 61.0135 14.3652 60.6686 14.3652 60.2433Z" fill="#DE8A2E"/>
<path fill-rule="evenodd" clip-rule="evenodd" d="M45.6458 56.0781C45.9355 55.7892 46.3284 55.627 46.7381 55.627H51.8983C52.7514 55.627 53.443 56.3166 53.443 57.1673V64.9454C53.443 65.5272 53.1143 66.0593 52.5933 66.3211C52.0722 66.5828 51.4477 66.5295 50.9789 66.1832L49.3182 64.9566L47.6575 66.1832C47.1887 66.5295 46.5642 66.5828 46.0431 66.3211C45.5221 66.0593 45.1934 65.5272 45.1934 64.9454V57.1673C45.1934 56.7588 45.3561 56.367 45.6458 56.0781ZM49.3182 63.0397L51.8983 64.9454V57.1673H46.7381V64.9454L49.3182 63.0397Z" fill="#DE8A2E"/>
<path d="M55.3638 55.027C55.3638 55.7651 54.4973 56.1627 54.2478 56.8133C53.9944 57.474 54.3544 58.3861 53.8932 58.9071C53.3341 59.5387 52.3312 59.3217 51.5481 59.6669C50.8214 59.9873 50.3271 60.8929 49.4815 60.8929C48.6358 60.8929 48.1415 59.9873 47.4148 59.6669C46.6317 59.3217 45.6288 59.5387 45.0697 58.9071C44.6086 58.3861 44.9685 57.474 44.7151 56.8133C44.4656 56.1627 43.5991 55.7651 43.5991 55.027C43.5991 54.2889 44.4656 53.8914 44.7151 53.2408C44.94 52.6544 44.5268 51.8045 44.9176 51.326C45.4373 50.6893 46.0884 50.8913 46.8296 50.5173C47.6264 50.1153 48.5274 49.1611 49.4815 49.1611C50.4355 49.1611 51.3365 50.1153 52.1333 50.5173C52.8745 50.8913 53.5256 50.6893 54.0454 51.326C54.4361 51.8045 54.0229 52.6544 54.2478 53.2408C54.4973 53.8914 55.3638 54.2889 55.3638 55.027Z" fill="white"/>
<path fill-rule="evenodd" clip-rule="evenodd" d="M47.886 50.7687C47.6709 50.9173 47.4284 51.0783 47.1786 51.2043C46.7865 51.4021 46.3786 51.4864 46.1181 51.5402C46.0608 51.5521 46.0106 51.5624 45.9693 51.5722C45.7311 51.6286 45.6283 51.6792 45.5248 51.8023C45.5234 51.8126 45.5026 51.8952 45.5247 52.1842C45.5269 52.2129 45.5295 52.2448 45.5324 52.2792C45.5438 52.4163 45.5584 52.5924 45.5594 52.7567C45.5607 52.9704 45.5419 53.2418 45.4369 53.5156C45.3318 53.7895 45.1724 54.0107 45.0311 54.1811C44.9379 54.2934 44.8234 54.4163 44.7315 54.515C44.6955 54.5536 44.6629 54.5886 44.6365 54.6177C44.3914 54.8876 44.3719 54.9769 44.3719 55.0267C44.3719 55.0766 44.3914 55.1658 44.6365 55.4357C44.6629 55.4649 44.6955 55.4998 44.7315 55.5385C44.8234 55.6371 44.9379 55.76 45.0311 55.8724C45.1724 56.0428 45.3318 56.2639 45.4369 56.5378C45.5417 56.8112 45.5735 57.0836 45.5844 57.3082C45.5921 57.466 45.5901 57.6402 45.5884 57.7817C45.5878 57.8302 45.5873 57.8748 45.5873 57.9136C45.5865 58.3082 45.6337 58.3796 45.6492 58.3971C45.7369 58.4963 45.8845 58.5693 46.2826 58.6339C46.3404 58.6432 46.4079 58.6526 46.4825 58.6629C46.8211 58.7099 47.3085 58.7775 47.7275 58.9622C47.9986 59.0817 48.2264 59.2458 48.4103 59.3936C48.5046 59.4693 48.6313 59.5787 48.7385 59.6713C48.8027 59.7266 48.8598 59.776 48.8988 59.8085C49.2022 60.061 49.3524 60.1224 49.4818 60.1224C49.6113 60.1224 49.7615 60.061 50.0648 59.8085C50.1039 59.776 50.161 59.7266 50.2252 59.6713C50.3324 59.5787 50.4591 59.4693 50.5533 59.3936C50.7372 59.2458 50.965 59.0817 51.2362 58.9622C51.6551 58.7775 52.1426 58.7099 52.4811 58.6629C52.5558 58.6526 52.6232 58.6432 52.6811 58.6339C53.0792 58.5693 53.2268 58.4963 53.3145 58.3971C53.33 58.3796 53.3771 58.3082 53.3764 57.9136C53.3764 57.8748 53.3758 57.8302 53.3753 57.7817C53.3736 57.6402 53.3716 57.466 53.3793 57.3082C53.3902 57.0836 53.4219 56.8112 53.5268 56.5378C53.6318 56.2639 53.7913 56.0428 53.9326 55.8724C54.0258 55.76 54.1402 55.6371 54.2321 55.5385C54.2682 55.4998 54.3007 55.4649 54.3272 55.4357C54.5722 55.1658 54.5918 55.0766 54.5918 55.0267C54.5918 54.9769 54.5722 54.8876 54.3272 54.6177C54.3007 54.5886 54.2682 54.5536 54.2321 54.515C54.1403 54.4163 54.0258 54.2934 53.9326 54.1811C53.7913 54.0107 53.6318 53.7895 53.5268 53.5156C53.4218 53.2418 53.403 52.9704 53.4043 52.7567C53.4052 52.5924 53.4199 52.4163 53.4313 52.2792C53.4342 52.2448 53.4368 52.2129 53.439 52.1842C53.461 51.8952 53.4402 51.8126 53.4388 51.8023C53.3354 51.6792 53.2326 51.6286 52.9944 51.5722C52.9531 51.5624 52.9029 51.5521 52.8456 51.5402C52.5851 51.4864 52.1772 51.4021 51.785 51.2043C51.5353 51.0783 51.2928 50.9173 51.0777 50.7687C51.004 50.7179 50.9343 50.669 50.8666 50.6216C50.7227 50.5208 50.5881 50.4265 50.4448 50.3333C50.0154 50.0541 49.7165 49.931 49.4818 49.931C49.2472 49.931 48.9482 50.0541 48.5188 50.3333C48.3756 50.4265 48.241 50.5208 48.0971 50.6216C48.0294 50.669 47.9597 50.7179 47.886 50.7687ZM47.6751 49.043C48.1339 48.7447 48.7624 48.3906 49.4818 48.3906C50.2013 48.3906 50.8298 48.7447 51.2886 49.043C51.455 49.1512 51.6258 49.2709 51.7799 49.3788C51.8422 49.4224 51.9017 49.4641 51.957 49.5023C52.1648 49.6457 52.3337 49.7548 52.4824 49.8298C52.6755 49.9272 52.8318 49.9604 53.0645 50.0099C53.1484 50.0277 53.2421 50.0477 53.3511 50.0735C53.7476 50.1673 54.2312 50.3329 54.6447 50.8394C55.0532 51.3396 55.0045 51.9728 54.9807 52.2827C54.9802 52.289 54.9797 52.2951 54.9793 52.301C54.9753 52.3531 54.9714 52.4002 54.9678 52.4438C54.9575 52.57 54.9495 52.6663 54.9489 52.7658C54.9482 52.8912 54.9621 52.946 54.9696 52.9653C54.9893 53.0168 55.0317 53.0893 55.1231 53.1995C55.1879 53.2777 55.2486 53.3427 55.3232 53.4225C55.3669 53.4693 55.4154 53.5212 55.4723 53.5839C55.7229 53.8599 56.1365 54.3385 56.1365 55.0267C56.1365 55.715 55.7229 56.1936 55.4723 56.4695C55.4154 56.5322 55.3669 56.5841 55.3232 56.6309C55.2486 56.7107 55.1879 56.7757 55.1231 56.854C55.0317 56.9642 54.9893 57.0367 54.9696 57.0881C54.9477 57.1451 54.9294 57.2344 54.9221 57.383C54.9168 57.4917 54.9181 57.5921 54.9195 57.7147C54.9202 57.7738 54.921 57.838 54.9211 57.9109C54.9218 58.2678 54.9183 58.9129 54.4727 59.4164C54.0014 59.9489 53.3679 60.0831 52.929 60.1543C52.7985 60.1754 52.6831 60.1921 52.5792 60.2071C52.2715 60.2515 52.0639 60.2815 51.8608 60.371C51.7686 60.4117 51.6621 60.4809 51.5225 60.5931C51.4294 60.6679 51.3635 60.7255 51.2887 60.7908C51.2247 60.8466 51.1542 60.9082 51.0547 60.991C50.7178 61.2715 50.198 61.6628 49.4818 61.6628C48.7657 61.6628 48.2459 61.2715 47.909 60.991C47.8094 60.9082 47.739 60.8466 47.675 60.7907C47.6002 60.7255 47.5343 60.6679 47.4412 60.5931C47.3016 60.4809 47.1951 60.4117 47.1029 60.371C46.8998 60.2815 46.6922 60.2515 46.3845 60.2071C46.2806 60.1921 46.1652 60.1754 46.0347 60.1543C45.5957 60.0831 44.9623 59.9489 44.491 59.4164C44.0454 58.9129 44.0419 58.2678 44.0425 57.9109C44.0427 57.838 44.0434 57.7738 44.0442 57.7147C44.0456 57.5921 44.0468 57.4917 44.0415 57.383C44.0343 57.2344 44.016 57.1451 43.9941 57.0881C43.9744 57.0367 43.932 56.9642 43.8406 56.854C43.7757 56.7757 43.715 56.7107 43.6405 56.6309C43.5967 56.5841 43.5483 56.5322 43.4914 56.4695C43.2408 56.1936 42.8271 55.715 42.8271 55.0267C42.8271 54.3385 43.2408 53.8599 43.4914 53.5839C43.5482 53.5212 43.5967 53.4693 43.6405 53.4225C43.715 53.3427 43.7757 53.2777 43.8406 53.1995C43.932 53.0893 43.9744 53.0168 43.9941 52.9653C44.0016 52.946 44.0155 52.8912 44.0147 52.7658C44.0141 52.6663 44.0062 52.57 43.9958 52.4438C43.9923 52.4002 43.9884 52.3531 43.9844 52.301C43.9839 52.2951 43.9835 52.289 43.983 52.2827C43.9592 51.9728 43.9105 51.3396 44.319 50.8394C44.7325 50.3329 45.2161 50.1673 45.6126 50.0735C45.7215 50.0477 45.8153 50.0277 45.8991 50.0099C46.1319 49.9604 46.2881 49.9272 46.4813 49.8298C46.63 49.7548 46.7989 49.6457 47.0066 49.5023C47.062 49.4641 47.1215 49.4224 47.1837 49.3788C47.3378 49.2709 47.5087 49.1512 47.6751 49.043Z" fill="#DE8A2E"/>
<path fill-rule="evenodd" clip-rule="evenodd" d="M52.387 54.9377C52.387 56.5803 51.0646 57.9379 49.4013 57.9379C47.7379 57.9379 46.4155 56.5803 46.4155 54.9377C46.4155 53.2952 47.7379 51.9375 49.4013 51.9375C51.0646 51.9375 52.387 53.2952 52.387 54.9377ZM49.4013 56.7407C50.3872 56.7407 51.1864 55.9335 51.1864 54.9377C51.1864 53.9419 50.3872 53.1347 49.4013 53.1347C48.4153 53.1347 47.6161 53.9419 47.6161 54.9377C47.6161 55.9335 48.4153 56.7407 49.4013 56.7407Z" fill="#DE8A2E"/>
</svg>
