<svg width="90" height="82" viewBox="0 0 90 82" fill="none" xmlns="http://www.w3.org/2000/svg">
<path d="M42.4219 3.47225C42.4219 2.51299 43.221 1.73535 44.2067 1.73535H45.695C46.6808 1.73535 47.4799 2.51299 47.4799 3.47225V17.9575C47.4799 18.9168 46.6808 19.6944 45.695 19.6944H44.2067C43.221 19.6944 42.4219 18.9168 42.4219 17.9575V3.47225Z" fill="white"/>
<path fill-rule="evenodd" clip-rule="evenodd" d="M44.2064 0H45.6947C47.6662 0 49.2644 1.55527 49.2644 3.4738V17.9591C49.2644 19.8776 47.6662 21.4329 45.6947 21.4329H44.2064C42.2349 21.4329 40.6367 19.8776 40.6367 17.9591V3.4738C40.6367 1.55527 42.2349 0 44.2064 0ZM44.2064 1.7369C43.2207 1.7369 42.4216 2.51454 42.4216 3.4738V17.9591C42.4216 18.9183 43.2207 19.696 44.2064 19.696H45.6947C46.6805 19.696 47.4796 18.9183 47.4796 17.9591V3.4738C47.4796 2.51454 46.6805 1.7369 45.6947 1.7369H44.2064Z" fill="#8E4B98"/>
<path d="M56.6835 43.8868L65.26 78.6526C65.6686 80.3643 64.3331 82.0003 62.5273 82.0003H62.1427C60.9509 82.0003 59.8892 81.2676 59.4951 80.1731L46.9291 45.4072C46.29 43.6321 47.6438 41.7744 49.5768 41.7744H53.9508C55.2557 41.7744 56.3883 42.6499 56.6835 43.8868Z" fill="#8E4B98"/>
<path d="M31.0694 43.8868L22.4929 78.6526C22.0843 80.3643 23.4198 82.0003 25.2256 82.0003H25.6102C26.802 82.0003 27.8637 81.2676 28.2578 80.1731L40.8238 45.4072C41.463 43.6321 40.1091 41.7744 38.1762 41.7744H33.8021C32.4972 41.7744 31.3647 42.6499 31.0694 43.8868Z" fill="#8E4B98"/>
<path d="M40.2019 42.9225L41.3936 77.2695C41.4587 78.6803 42.653 79.7915 44.1042 79.7915C45.5319 79.7915 46.7154 78.7148 46.8114 77.3286L49.0036 42.9995C49.1413 41.0104 47.5204 39.3232 45.4718 39.3232H43.7381C41.7208 39.3232 40.1114 40.9614 40.2019 42.9225Z" fill="#8E4B98"/>
<path d="M4.38184 10.9068C4.38184 9.94756 5.18094 9.16992 6.16669 9.16992H81.9529C82.9387 9.16992 83.7378 9.94756 83.7378 10.9068V55.3238C83.7378 56.2831 82.9387 57.0607 81.9529 57.0607H6.16669C5.18094 57.0607 4.38184 56.2831 4.38184 55.3238V10.9068Z" fill="white"/>
<path fill-rule="evenodd" clip-rule="evenodd" d="M6.16736 7.43359H81.9536C83.9251 7.43359 85.5233 8.98887 85.5233 10.9074V55.3244C85.5233 57.243 83.9251 58.7982 81.9536 58.7982H6.16736C4.19586 58.7982 2.59766 57.2429 2.59766 55.3244V10.9074C2.59766 8.98887 4.19587 7.43359 6.16736 7.43359ZM6.16736 9.1705C5.18162 9.1705 4.38251 9.94813 4.38251 10.9074V55.3244C4.38251 56.2837 5.18161 57.0613 6.16736 57.0613H81.9536C82.9393 57.0613 83.7384 56.2837 83.7384 55.3244V10.9074C83.7384 9.94813 82.9393 9.1705 81.9536 9.1705H6.16736Z" fill="#8E4B98"/>
<path d="M13.71 54.5357C13.71 53.5765 14.5091 52.7988 15.4948 52.7988H22.998C23.9838 52.7988 24.7829 53.5765 24.7829 54.5357V55.3189C24.7829 56.2782 23.9838 57.0558 22.998 57.0558H15.4948C14.5091 57.0558 13.71 56.2782 13.71 55.3189V54.5357Z" fill="#8E4B98"/>
<path d="M1.78613 7.50272C1.78613 6.58434 2.55118 5.83984 3.49492 5.83984H86.5077C87.4514 5.83984 88.2164 6.58434 88.2164 7.50272C88.2164 8.4211 87.4514 9.1656 86.5077 9.1656H3.49492C2.55118 9.1656 1.78613 8.4211 1.78613 7.50272Z" fill="white"/>
<path fill-rule="evenodd" clip-rule="evenodd" d="M3.49364 4.10449H86.5064C88.4358 4.10449 90 5.62662 90 7.50427C90 9.38191 88.4358 10.904 86.5064 10.904H3.49364C1.56416 10.904 0 9.38192 0 7.50427C0 5.62663 1.56415 4.10449 3.49364 4.10449ZM3.49364 5.84139C2.5499 5.84139 1.78485 6.58589 1.78485 7.50427C1.78485 8.42265 2.5499 9.16715 3.49364 9.16715H86.5064C87.4501 9.16715 88.2151 8.42265 88.2151 7.50427C88.2151 6.58589 87.4501 5.84139 86.5064 5.84139H3.49364Z" fill="#8E4B98"/>
<path d="M1.78613 58.7224C1.78613 57.8041 2.55118 57.0596 3.49492 57.0596H86.5077C87.4514 57.0596 88.2164 57.8041 88.2164 58.7224C88.2164 59.6408 87.4514 60.3853 86.5077 60.3853H3.49492C2.55118 60.3853 1.78613 59.6408 1.78613 58.7224Z" fill="white"/>
<path fill-rule="evenodd" clip-rule="evenodd" d="M3.49364 55.3242H86.5064C88.4358 55.3242 90 56.8463 90 58.724C90 60.6016 88.4358 62.1238 86.5064 62.1238H3.49364C1.56416 62.1238 0 60.6016 0 58.724C0 56.8464 1.56415 55.3242 3.49364 55.3242ZM3.49364 57.0611C2.5499 57.0611 1.78485 57.8056 1.78485 58.724C1.78485 59.6424 2.5499 60.3869 3.49364 60.3869H86.5064C87.4501 60.3869 88.2151 59.6424 88.2151 58.724C88.2151 57.8056 87.4501 57.0611 86.5064 57.0611H3.49364Z" fill="#8E4B98"/>
<path fill-rule="evenodd" clip-rule="evenodd" d="M18.2236 26.597C18.2236 26.1173 18.6232 25.7285 19.1161 25.7285H26.0371C26.53 25.7285 26.9296 26.1173 26.9296 26.597C26.9296 27.0766 26.53 27.4654 26.0371 27.4654H20.0085V36.5763H26.0371C26.53 36.5763 26.9296 36.9651 26.9296 37.4447C26.9296 37.9243 26.53 38.3132 26.0371 38.3132H19.1161C18.6232 38.3132 18.2236 37.9243 18.2236 37.4447V26.597Z" fill="#8E4B98"/>
<path fill-rule="evenodd" clip-rule="evenodd" d="M29.7617 31.4759C29.7617 30.9962 30.1613 30.6074 30.6541 30.6074H35.7228C36.2156 30.6074 36.6152 30.9962 36.6152 31.4759C36.6152 31.9555 36.2156 32.3443 35.7228 32.3443H30.6541C30.1613 32.3443 29.7617 31.9555 29.7617 31.4759Z" fill="#8E4B98"/>
<path fill-rule="evenodd" clip-rule="evenodd" d="M29.7617 34.5306C29.7617 34.0509 30.1613 33.6621 30.6541 33.6621H35.7228C36.2156 33.6621 36.6152 34.0509 36.6152 34.5306C36.6152 35.0102 36.2156 35.399 35.7228 35.399H30.6541C30.1613 35.399 29.7617 35.0102 29.7617 34.5306Z" fill="#8E4B98"/>
<path fill-rule="evenodd" clip-rule="evenodd" d="M19.3369 31.6624C19.3369 31.1828 19.7365 30.7939 20.2293 30.7939H24.615C25.1078 30.7939 25.5074 31.1828 25.5074 31.6624C25.5074 32.142 25.1078 32.5308 24.615 32.5308H20.2293C19.7365 32.5308 19.3369 32.142 19.3369 31.6624Z" fill="#8E4B98"/>
<path fill-rule="evenodd" clip-rule="evenodd" d="M57.2283 30.0284C57.9778 29.047 59.1249 28.5216 60.5867 28.5215C61.7713 28.5214 62.6225 29.0183 63.186 29.6257C63.7274 30.2093 63.9961 30.8822 64.11 31.3024C64.2356 31.7662 63.9511 32.2413 63.4745 32.3636C62.9979 32.4859 62.5097 32.209 62.3841 31.7452C62.3179 31.5008 62.1553 31.1067 61.8611 30.7895C61.5889 30.4961 61.2 30.2584 60.5868 30.2584C59.6039 30.2584 59.0256 30.5869 58.6608 31.0645C58.2632 31.585 58.0282 32.4041 58.028 33.518C58.0279 34.5929 58.3249 35.373 58.7562 35.869C59.1744 36.3498 59.7802 36.6372 60.5868 36.6372C61.4505 36.6372 62.0373 36.0895 62.4377 35.2508C62.6453 34.8158 63.176 34.627 63.623 34.8291C64.07 35.0311 64.264 35.5476 64.0564 35.9826C63.5215 37.1029 62.4551 38.3741 60.5868 38.3741C59.2973 38.3741 58.1773 37.892 57.3938 36.991C56.6234 36.1052 56.243 34.8913 56.2432 33.5177C56.2434 32.2116 56.5116 30.9667 57.2283 30.0284Z" fill="#8E4B98"/>
<path fill-rule="evenodd" clip-rule="evenodd" d="M68.5817 24.097C69.5697 24.1652 70.5709 24.7313 70.9898 25.733C71.2949 26.4628 71.2679 27.118 71.0294 27.6911C70.8178 28.1997 70.4533 28.5971 70.2117 28.8605C70.2064 28.8663 70.2011 28.872 70.196 28.8777C70.1784 28.8969 70.1599 28.9153 70.1406 28.9329L68.7897 30.1662H70.889C71.3819 30.1662 71.7814 30.555 71.7814 31.0347C71.7814 31.5143 71.3819 31.9031 70.889 31.9031H66.5341C66.1679 31.9031 65.8389 31.6855 65.7042 31.3542C65.5695 31.0229 65.6564 30.6451 65.9235 30.4013L68.8901 27.6929C69.1428 27.4162 69.2952 27.231 69.3751 27.0391C69.4355 26.8939 69.4703 26.7075 69.3366 26.3877C69.2149 26.0968 68.8803 25.8589 68.4553 25.8295C68.0654 25.8026 67.6705 25.9592 67.4277 26.3974C67.1937 26.8196 66.6524 26.9773 66.2186 26.7496C65.7848 26.522 65.6227 25.9952 65.8567 25.573C66.4632 24.4784 67.5585 24.0263 68.5817 24.097Z" fill="#8E4B98"/>
<path fill-rule="evenodd" clip-rule="evenodd" d="M40.6854 28.835C41.1783 28.835 41.5778 29.2238 41.5778 29.7034V37.5044C41.5778 37.984 41.1783 38.3728 40.6854 38.3728C40.1925 38.3728 39.793 37.984 39.793 37.5044V29.7034C39.793 29.2238 40.1925 28.835 40.6854 28.835Z" fill="#8E4B98"/>
<path fill-rule="evenodd" clip-rule="evenodd" d="M39.793 33.0651C39.7931 30.9144 41.965 29.0267 44.5011 29.4453C45.6392 29.6332 46.3607 30.3334 46.7789 31.0505C47.1859 31.7486 47.3415 32.5129 47.3643 33.0277C47.3649 33.0402 47.3651 33.0526 47.3651 33.0651V37.5425C47.3651 38.0221 46.9656 38.411 46.4727 38.411C45.9798 38.411 45.5803 38.0221 45.5803 37.5425V33.0857C45.5642 32.7888 45.4638 32.3146 45.2265 31.9078C44.9958 31.5121 44.6749 31.2358 44.2025 31.1578C42.7124 30.9118 41.5779 32.0323 41.5778 33.0651C41.5778 33.5448 41.1782 33.9336 40.6854 33.9335C40.1925 33.9335 39.7929 33.5447 39.793 33.0651Z" fill="#8E4B98"/>
<path fill-rule="evenodd" clip-rule="evenodd" d="M45.5801 33.0651C45.5802 30.9144 47.7522 29.0267 50.2882 29.4453C51.4263 29.6332 52.1478 30.3334 52.566 31.0505C52.973 31.7486 53.1286 32.5129 53.1514 33.0277C53.152 33.0402 53.1522 33.0526 53.1522 33.0651V37.5425C53.1522 38.0221 52.7527 38.411 52.2598 38.411C51.7669 38.411 51.3674 38.0221 51.3674 37.5425V33.0857C51.3513 32.7888 51.2509 32.3146 51.0136 31.9078C50.7829 31.5121 50.462 31.2358 49.9896 31.1578C48.4995 30.9118 47.365 32.0323 47.3649 33.0651C47.3649 33.5448 46.9653 33.9336 46.4725 33.9335C45.9796 33.9335 45.5801 33.5447 45.5801 33.0651Z" fill="#8E4B98"/>
</svg>
