<svg width="96" height="96" viewBox="0 0 96 96" fill="none" xmlns="http://www.w3.org/2000/svg">
<path fill-rule="evenodd" clip-rule="evenodd" d="M48.5295 70.5645C49.5819 70.5645 50.435 71.4182 50.435 72.4713V89.108C50.435 90.1611 49.5819 91.0148 48.5295 91.0148C47.4772 91.0148 46.624 90.1611 46.624 89.108V72.4713C46.624 71.4182 47.4772 70.5645 48.5295 70.5645Z" fill="#8E4B98"/>
<path fill-rule="evenodd" clip-rule="evenodd" d="M49.7112 1.67404C49.8398 2.71929 49.0973 3.67098 48.0528 3.79969C45.2217 4.14856 42.3872 4.87064 39.6126 5.99458C22.5763 12.8957 14.3561 32.3109 21.2522 49.3595C28.1484 66.4081 47.5495 74.6343 64.5858 67.7331C67.628 66.5008 70.3863 64.8711 72.827 62.9292C73.6508 62.2738 74.8495 62.4107 75.5045 63.2351C76.1594 64.0594 76.0225 65.259 75.1988 65.9144C72.4751 68.0815 69.4002 69.8973 66.0157 71.2683C47.0285 78.9597 25.4056 69.7915 17.7197 50.7905C10.0338 31.7894 19.1954 10.1509 38.1827 2.45944C41.2691 1.20918 44.4279 0.403782 47.5871 0.0144911C48.6316 -0.114219 49.5826 0.628785 49.7112 1.67404Z" fill="#8E4B98"/>
<path fill-rule="evenodd" clip-rule="evenodd" d="M36.0908 0.913227C37.0296 0.43734 38.1762 0.813169 38.6517 1.75266L72.713 69.0451C73.1885 69.9846 72.813 71.132 71.8741 71.6078C70.9353 72.0837 69.7888 71.7079 69.3132 70.7684L35.2519 3.476C34.7764 2.53651 35.152 1.38911 36.0908 0.913227Z" fill="#8E4B98"/>
<path d="M80.0949 37.6195C80.0949 53.1625 67.5039 65.7625 51.9722 65.7625C36.4405 65.7625 23.8496 53.1625 23.8496 37.6195C23.8496 22.0766 36.4405 9.47656 51.9722 9.47656C67.5039 9.47656 80.0949 22.0766 80.0949 37.6195Z" fill="white"/>
<path fill-rule="evenodd" clip-rule="evenodd" d="M81.9996 37.6202C81.9996 54.2163 68.5556 67.6701 51.9715 67.6701C35.3874 67.6701 21.9434 54.2163 21.9434 37.6202C21.9434 21.0241 35.3874 7.57031 51.9715 7.57031C68.5556 7.57031 81.9996 21.0241 81.9996 37.6202ZM51.9715 65.7632C67.5032 65.7632 80.0941 53.1631 80.0941 37.6202C80.0941 22.0772 67.5032 9.4772 51.9715 9.4772C36.4398 9.4772 23.8489 22.0772 23.8489 37.6202C23.8489 53.1631 36.4398 65.7632 51.9715 65.7632Z" fill="#8E4B98"/>
<path fill-rule="evenodd" clip-rule="evenodd" d="M43.0551 20.5356C43.3307 20.223 43.7773 20.1258 44.1577 20.2957L52.074 23.8301C52.0867 23.8358 52.0993 23.8418 52.1118 23.848L56.2527 25.9199C56.6674 26.1275 56.8727 26.6037 56.7388 27.048L54.4248 34.7263C54.3034 35.1289 53.9328 35.4044 53.5126 35.4044H49.285L49.6209 37.3542L53.9474 39.5745C54.2088 39.7087 54.3938 39.9562 54.4486 40.2451C54.5034 40.534 54.422 40.832 54.2278 41.0528L49.1066 46.8766V50.295C49.1066 50.5725 48.9858 50.8363 48.7756 51.0175L44.3912 54.7956C44.0571 55.0836 43.5691 55.1044 43.2117 54.8461L38.8574 51.699L33.8957 48.6715C33.6932 48.5479 33.544 48.3531 33.4774 48.1252L32.0159 43.1283C31.9502 42.9037 31.9694 42.6628 32.0697 42.4514L34.2004 37.9624L32.0526 32.8718C31.9423 32.6104 31.9541 32.3134 32.0847 32.0616L35.373 25.724C35.3931 25.6852 35.4159 25.6479 35.4411 25.6122L37.5115 22.6872C37.6901 22.4348 37.98 22.2848 38.289 22.2848H41.5127L43.0551 20.5356ZM44.0207 22.3226L42.6571 23.8691C42.4762 24.0742 42.216 24.1917 41.9427 24.1917H38.7817L37.034 26.6609L33.9821 32.5427L36.122 37.6145C36.2277 37.8651 36.2215 38.1488 36.1049 38.3945L33.9467 42.9414L35.2026 47.2355L39.8811 50.0903C39.9022 50.1032 39.9229 50.1169 39.9429 50.1314L43.7177 52.8596L47.2011 49.8578V46.5168C47.2011 46.2849 47.2856 46.061 47.4386 45.8869L51.9888 40.7125L48.3281 38.8338C48.0616 38.697 47.8748 38.4428 47.8239 38.1474L47.215 34.613C47.1672 34.3358 47.2442 34.0518 47.4252 33.8367C47.6062 33.6216 47.8729 33.4975 48.1539 33.4975H52.8048L54.6827 27.2663L51.2784 25.563L44.0207 22.3226Z" fill="#8E4B98"/>
<path fill-rule="evenodd" clip-rule="evenodd" d="M73.6907 31.813C73.9829 31.984 74.1625 32.2973 74.1625 32.6361V39.3787C74.1625 39.5154 74.1331 39.6506 74.0762 39.7751L71.8189 44.7165V49.4925C71.8189 49.8537 71.615 50.1838 71.2922 50.3453L64.5545 53.7166C64.2881 53.8499 63.9748 53.8509 63.7076 53.7192C63.4404 53.5875 63.2501 53.3384 63.1932 53.0458L62.1679 47.769C62.1333 47.5908 62.1502 47.4064 62.2167 47.2376L64.0192 42.6587L63.1931 38.3872C63.1503 38.166 63.1872 37.9368 63.2972 37.7402L65.3478 34.0757C65.4957 33.8113 65.7604 33.6331 66.0609 33.5955L70.5622 33.0324L72.7426 31.8051C73.0376 31.639 73.3985 31.642 73.6907 31.813ZM72.257 34.2663L71.3333 34.7863C71.2255 34.8469 71.107 34.886 70.9843 34.9013L66.7751 35.4279L65.1301 38.3674L65.9427 42.5688C65.9771 42.7467 65.9601 42.9308 65.8937 43.0994L64.0914 47.6779L64.8243 51.4497L69.9134 48.9033V44.5089C69.9134 44.3721 69.9428 44.2369 69.9997 44.1125L72.257 39.1711V34.2663Z" fill="#8E4B98"/>
<path d="M48.253 83.2314C39.2719 83.2314 31.9912 86.8496 31.9912 91.3129H64.5148C64.5148 86.8496 57.2342 83.2314 48.253 83.2314Z" fill="white"/>
<path fill-rule="evenodd" clip-rule="evenodd" d="M31.9915 93.2194C30.9391 93.2194 30.0859 92.3657 30.0859 91.3125C30.0859 87.9627 32.7664 85.4509 35.9069 83.8902C39.1651 82.271 43.5328 81.3242 48.2533 81.3242C52.9737 81.3242 57.3414 82.271 60.5996 83.8902C63.7401 85.4509 66.4206 87.9627 66.4206 91.3125C66.4206 92.3657 65.5674 93.2194 64.5151 93.2194H31.9915ZM64.0597 89.4057C62.3352 85.8626 55.9126 83.2311 48.2533 83.2311C40.5939 83.2311 34.1714 85.8626 32.4468 89.4057C32.1492 90.0171 31.9915 90.6557 31.9915 91.3125H64.5151C64.5151 90.6557 64.3574 90.0171 64.0597 89.4057Z" fill="#8E4B98"/>
<path d="M27.5107 93.1789C27.5107 92.6745 27.9194 92.2656 28.4234 92.2656H68.6354C69.1395 92.2656 69.5481 92.6745 69.5481 93.1789C69.5481 93.6833 69.1395 94.0923 68.6354 94.0923H28.4234C27.9194 94.0923 27.5107 93.6833 27.5107 93.1789Z" fill="#8E4B98"/>
<path fill-rule="evenodd" clip-rule="evenodd" d="M68.6356 94.0929C69.1397 94.0929 69.5483 93.684 69.5483 93.1796C69.5483 92.6752 69.1397 92.2663 68.6356 92.2663H28.4236C27.9196 92.2663 27.511 92.6752 27.511 93.1796C27.511 93.684 27.9196 94.0929 28.4236 94.0929H68.6356ZM28.4236 90.3594H68.6356C70.1921 90.3594 71.4538 91.622 71.4538 93.1796C71.4538 94.7371 70.1921 95.9998 68.6356 95.9998H28.4236C26.8672 95.9998 25.6055 94.7371 25.6055 93.1796C25.6055 91.622 26.8672 90.3594 28.4236 90.3594Z" fill="#8E4B98"/>
</svg>
