<svg width="96" height="96" viewBox="0 0 96 96" fill="none" xmlns="http://www.w3.org/2000/svg">
<path fill-rule="evenodd" clip-rule="evenodd" d="M48.5299 70.5645C49.5823 70.5645 50.4354 71.4182 50.4354 72.4713V89.108C50.4354 90.1611 49.5823 91.0148 48.5299 91.0148C47.4775 91.0148 46.6244 90.1611 46.6244 89.108V72.4713C46.6244 71.4182 47.4775 70.5645 48.5299 70.5645Z" fill="#64A8DF"/>
<path fill-rule="evenodd" clip-rule="evenodd" d="M49.7112 1.67404C49.8398 2.71929 49.0973 3.67098 48.0528 3.79969C45.2217 4.14856 42.3872 4.87064 39.6126 5.99458C22.5763 12.8957 14.3561 32.3109 21.2522 49.3595C28.1484 66.4081 47.5495 74.6343 64.5858 67.7331C67.628 66.5008 70.3863 64.8711 72.827 62.9292C73.6508 62.2738 74.8495 62.4107 75.5045 63.2351C76.1594 64.0594 76.0225 65.259 75.1988 65.9144C72.4751 68.0815 69.4002 69.8973 66.0157 71.2683C47.0285 78.9597 25.4056 69.7915 17.7197 50.7905C10.0338 31.7894 19.1954 10.1509 38.1827 2.45944C41.2691 1.20918 44.4279 0.403782 47.5871 0.0144911C48.6316 -0.114219 49.5826 0.628785 49.7112 1.67404Z" fill="#64A8DF"/>
<path fill-rule="evenodd" clip-rule="evenodd" d="M36.0908 0.913227C37.0296 0.43734 38.1762 0.813169 38.6517 1.75266L72.713 69.0451C73.1885 69.9846 72.813 71.132 71.8741 71.6078C70.9353 72.0837 69.7888 71.7079 69.3132 70.7684L35.2519 3.476C34.7764 2.53651 35.152 1.38911 36.0908 0.913227Z" fill="#64A8DF"/>
<path d="M80.0946 37.6195C80.0946 53.1625 67.5037 65.7625 51.972 65.7625C36.4403 65.7625 23.8494 53.1625 23.8494 37.6195C23.8494 22.0766 36.4403 9.47656 51.972 9.47656C67.5037 9.47656 80.0946 22.0766 80.0946 37.6195Z" fill="white"/>
<path fill-rule="evenodd" clip-rule="evenodd" d="M81.9999 37.6202C81.9999 54.2163 68.5558 67.6701 51.9717 67.6701C35.3877 67.6701 21.9436 54.2163 21.9436 37.6202C21.9436 21.0241 35.3877 7.57031 51.9717 7.57031C68.5558 7.57031 81.9999 21.0241 81.9999 37.6202ZM51.9717 65.7632C67.5034 65.7632 80.0944 53.1631 80.0944 37.6202C80.0944 22.0772 67.5034 9.4772 51.9717 9.4772C36.44 9.4772 23.8491 22.0772 23.8491 37.6202C23.8491 53.1631 36.44 65.7632 51.9717 65.7632Z" fill="#64A8DF"/>
<path fill-rule="evenodd" clip-rule="evenodd" d="M43.055 20.5356C43.3306 20.223 43.7771 20.1258 44.1576 20.2957L52.0738 23.8301C52.0866 23.8358 52.0992 23.8418 52.1117 23.848L56.2525 25.9199C56.6673 26.1275 56.8725 26.6037 56.7386 27.048L54.4246 34.7263C54.3033 35.1289 53.9327 35.4044 53.5125 35.4044H49.2848L49.6208 37.3542L53.9472 39.5745C54.2087 39.7087 54.3937 39.9562 54.4485 40.2451C54.5033 40.534 54.4219 40.832 54.2277 41.0528L49.1065 46.8766V50.295C49.1065 50.5725 48.9856 50.8363 48.7755 51.0175L44.3911 54.7956C44.0569 55.0836 43.569 55.1044 43.2115 54.8461L38.8573 51.699L33.8956 48.6715C33.6931 48.5479 33.5439 48.3531 33.4772 48.1252L32.0158 43.1283C31.9501 42.9037 31.9692 42.6628 32.0696 42.4514L34.2003 37.9624L32.0524 32.8718C31.9422 32.6104 31.9539 32.3134 32.0846 32.0616L35.3729 25.724C35.393 25.6852 35.4158 25.6479 35.441 25.6122L37.5114 22.6872C37.69 22.4348 37.9799 22.2848 38.2889 22.2848H41.5126L43.055 20.5356ZM44.0206 22.3226L42.657 23.8691C42.4761 24.0742 42.2159 24.1917 41.9425 24.1917H38.7816L37.0338 26.6609L33.982 32.5427L36.1219 37.6145C36.2276 37.8651 36.2214 38.1488 36.1048 38.3945L33.9466 42.9414L35.2025 47.2355L39.881 50.0903C39.9021 50.1032 39.9227 50.1169 39.9428 50.1314L43.7175 52.8596L47.201 49.8578V46.5168C47.201 46.2849 47.2854 46.061 47.4385 45.8869L51.9887 40.7125L48.328 38.8338C48.0614 38.697 47.8747 38.4428 47.8238 38.1474L47.2149 34.613C47.1671 34.3358 47.244 34.0518 47.4251 33.8367C47.6061 33.6216 47.8728 33.4975 48.1538 33.4975H52.8047L54.6826 27.2663L51.2783 25.563L44.0206 22.3226Z" fill="#64A8DF"/>
<path fill-rule="evenodd" clip-rule="evenodd" d="M73.6912 31.813C73.9834 31.984 74.163 32.2973 74.163 32.6361V39.3787C74.163 39.5154 74.1335 39.6506 74.0767 39.7751L71.8194 44.7165V49.4925C71.8194 49.8537 71.6155 50.1838 71.2927 50.3453L64.555 53.7166C64.2886 53.8499 63.9753 53.8509 63.7081 53.7192C63.4409 53.5875 63.2505 53.3384 63.1937 53.0458L62.1684 47.769C62.1338 47.5908 62.1507 47.4064 62.2172 47.2376L64.0197 42.6587L63.1935 38.3872C63.1508 38.166 63.1876 37.9368 63.2977 37.7402L65.3483 34.0757C65.4962 33.8113 65.7609 33.6331 66.0614 33.5955L70.5627 33.0324L72.7431 31.8051C73.0381 31.639 73.399 31.642 73.6912 31.813ZM72.2574 34.2663L71.3337 34.7863C71.226 34.8469 71.1075 34.886 70.9848 34.9013L66.7755 35.4279L65.1306 38.3674L65.9432 42.5688C65.9776 42.7467 65.9606 42.9308 65.8942 43.0994L64.0919 47.6779L64.8248 51.4497L69.9139 48.9033V44.5089C69.9139 44.3721 69.9433 44.2369 70.0001 44.1125L72.2574 39.1711V34.2663Z" fill="#64A8DF"/>
<path d="M48.2533 83.2314C39.2721 83.2314 31.9915 86.8496 31.9915 91.3129H64.5151C64.5151 86.8496 57.2344 83.2314 48.2533 83.2314Z" fill="white"/>
<path fill-rule="evenodd" clip-rule="evenodd" d="M31.9915 93.2194C30.9391 93.2194 30.0859 92.3657 30.0859 91.3125C30.0859 87.9627 32.7664 85.4509 35.9069 83.8902C39.1651 82.271 43.5328 81.3242 48.2533 81.3242C52.9737 81.3242 57.3414 82.271 60.5996 83.8902C63.7401 85.4509 66.4206 87.9627 66.4206 91.3125C66.4206 92.3657 65.5674 93.2194 64.5151 93.2194H31.9915ZM64.0597 89.4057C62.3352 85.8626 55.9126 83.2311 48.2533 83.2311C40.5939 83.2311 34.1714 85.8626 32.4468 89.4057C32.1492 90.0171 31.9915 90.6557 31.9915 91.3125H64.5151C64.5151 90.6557 64.3574 90.0171 64.0597 89.4057Z" fill="#64A8DF"/>
<path d="M27.5109 93.1789C27.5109 92.6745 27.9195 92.2656 28.4235 92.2656H68.6355C69.1396 92.2656 69.5482 92.6745 69.5482 93.1789C69.5482 93.6833 69.1396 94.0923 68.6355 94.0923H28.4235C27.9195 94.0923 27.5109 93.6833 27.5109 93.1789Z" fill="#64A8DF"/>
<path fill-rule="evenodd" clip-rule="evenodd" d="M68.6358 94.0929C69.1398 94.0929 69.5484 93.684 69.5484 93.1796C69.5484 92.6752 69.1398 92.2663 68.6358 92.2663H28.4238C27.9197 92.2663 27.5111 92.6752 27.5111 93.1796C27.5111 93.684 27.9197 94.0929 28.4238 94.0929H68.6358ZM28.4238 90.3594H68.6358C70.1922 90.3594 71.4539 91.622 71.4539 93.1796C71.4539 94.7371 70.1922 95.9998 68.6358 95.9998H28.4238C26.8673 95.9998 25.6056 94.7371 25.6056 93.1796C25.6056 91.622 26.8673 90.3594 28.4238 90.3594Z" fill="#64A8DF"/>
</svg>
