<svg width="96" height="74" viewBox="0 0 96 74" fill="none" xmlns="http://www.w3.org/2000/svg">
<path d="M7.24566 20.6665C6.93847 19.7359 7.4309 18.7281 8.34552 18.4155L46.0039 5.54627C46.9185 5.23371 47.909 5.73475 48.2162 6.66538L64.7169 56.6553C65.0241 57.586 64.5317 58.5938 63.6171 58.9063L25.9587 71.7756C25.0441 72.0881 24.0536 71.5871 23.7464 70.6564L7.24566 20.6665Z" fill="#64A8DF"/>
<path d="M2.92144 18.4702C2.61426 17.5396 3.10668 16.5318 4.0213 16.2192L41.6797 3.34998C42.5943 3.03742 43.5848 3.53846 43.892 4.46909L60.3927 54.459C60.6999 55.3897 60.2075 56.3975 59.2929 56.71L21.6345 69.5793C20.7199 69.8918 19.7294 69.3908 19.4222 68.4602L2.92144 18.4702Z" fill="white"/>
<path fill-rule="evenodd" clip-rule="evenodd" d="M3.46741 14.5322L41.1258 1.66295C42.955 1.03783 44.936 2.03992 45.5503 3.90117L62.0511 53.8911C62.6655 55.7524 61.6806 57.768 59.8514 58.3931L22.193 71.2623C20.3638 71.8875 18.3828 70.8854 17.7685 69.0241L1.26768 19.0342C0.653316 17.1729 1.63817 15.1573 3.46741 14.5322ZM4.02362 16.2172C3.109 16.5298 2.61657 17.5376 2.92375 18.4682L19.4245 68.4582C19.7317 69.3888 20.7222 69.8898 21.6368 69.5773L59.2952 56.708C60.2098 56.3955 60.7022 55.3877 60.395 54.4571L43.8943 4.46711C43.5871 3.53648 42.5966 3.03544 41.682 3.348L4.02362 16.2172Z" fill="#64A8DF"/>
<path fill-rule="evenodd" clip-rule="evenodd" d="M14.201 25.7321C14.0474 25.2668 14.2936 24.7629 14.7509 24.6066L37.1822 16.941C37.6396 16.7847 38.1348 17.0353 38.2884 17.5006C38.442 17.9659 38.1958 18.4698 37.7385 18.6261L15.3071 26.2917C14.8498 26.448 14.3546 26.1974 14.201 25.7321Z" fill="#64A8DF"/>
<path fill-rule="evenodd" clip-rule="evenodd" d="M15.9896 31.1516C15.836 30.6863 16.0822 30.1824 16.5396 30.0261L38.9709 22.3605C39.4282 22.2042 39.9234 22.4547 40.077 22.92C40.2306 23.3853 39.9844 23.8892 39.5271 24.0455L17.0958 31.7111C16.6384 31.8674 16.1432 31.6169 15.9896 31.1516Z" fill="#64A8DF"/>
<path fill-rule="evenodd" clip-rule="evenodd" d="M17.7789 36.5711C17.6253 36.1058 17.8715 35.6019 18.3288 35.4456L40.7602 27.78C41.2175 27.6238 41.7127 27.8743 41.8663 28.3396C42.0199 28.8049 41.7737 29.3088 41.3164 29.4651L18.885 37.1307C18.4277 37.287 17.9325 37.0365 17.7789 36.5711Z" fill="#64A8DF"/>
<path fill-rule="evenodd" clip-rule="evenodd" d="M19.5676 41.9905C19.414 41.5252 19.6602 41.0213 20.1175 40.865L42.5489 33.1994C43.0062 33.0431 43.5014 33.2936 43.655 33.7589C43.8086 34.2242 43.5624 34.7281 43.1051 34.8844L20.6737 42.55C20.2164 42.7063 19.7212 42.4558 19.5676 41.9905Z" fill="#64A8DF"/>
<path fill-rule="evenodd" clip-rule="evenodd" d="M21.3562 47.4097C21.2026 46.9444 21.4488 46.4405 21.9062 46.2842L44.3375 38.6186C44.7948 38.4623 45.2901 38.7128 45.4436 39.1782C45.5972 39.6435 45.351 40.1474 44.8937 40.3037L22.4624 47.9693C22.0051 48.1256 21.5098 47.875 21.3562 47.4097Z" fill="#64A8DF"/>
<path fill-rule="evenodd" clip-rule="evenodd" d="M33.8569 49.1611C34.0108 49.6263 33.7649 50.1304 33.3077 50.287L24.2516 53.3885C23.7944 53.5451 23.299 53.2949 23.1451 52.8297C22.9912 52.3645 23.2371 51.8604 23.6943 51.7038L32.7504 48.6023C33.2076 48.4457 33.703 48.6959 33.8569 49.1611Z" fill="#64A8DF"/>
<path d="M51.5739 6.64444C51.8281 5.69741 52.7887 5.13936 53.7194 5.398L92.0416 16.0472C92.9723 16.3058 93.5208 17.2832 93.2666 18.2302L79.6123 69.1013C79.3581 70.0483 78.3976 70.6064 77.4668 70.3477L39.1447 59.6985C38.214 59.4399 37.6655 58.4625 37.9197 57.5155L51.5739 6.64444Z" fill="white"/>
<path fill-rule="evenodd" clip-rule="evenodd" d="M54.1801 3.68071L92.5024 14.3293C94.3639 14.8466 95.4608 16.8014 94.9524 18.6954L81.2989 69.5667C80.7905 71.4607 78.8694 72.5769 77.0079 72.0596L38.6856 61.411C36.8241 60.8937 35.7272 58.939 36.2356 57.0449L49.8891 6.17366C50.3975 4.27959 52.3186 3.16346 54.1801 3.68071ZM53.7199 5.39547C52.7891 5.13684 51.8286 5.69491 51.5744 6.64194L37.9208 57.5132C37.6667 58.4602 38.2151 59.4376 39.1459 59.6962L77.4681 70.3449C78.3989 70.6035 79.3595 70.0454 79.6136 69.0984L93.2672 18.2272C93.5213 17.2801 92.9729 16.3027 92.0421 16.0441L53.7199 5.39547Z" fill="#64A8DF"/>
<path fill-rule="evenodd" clip-rule="evenodd" d="M70.2678 51.0135C70.6052 51.1106 70.8528 51.4037 70.8966 51.7577L71.9755 60.4865C72.0357 60.9735 71.6965 61.418 71.2178 61.4793C70.7392 61.5405 70.3024 61.1954 70.2422 60.7083L69.4204 54.06L65.2539 59.3379C64.9518 59.7206 64.402 59.7816 64.0259 59.4742C63.6498 59.1668 63.5898 58.6074 63.8919 58.2247L69.3489 51.3121C69.5685 51.0339 69.9304 50.9163 70.2678 51.0135Z" fill="#64A8DF"/>
<path fill-rule="evenodd" clip-rule="evenodd" d="M66.1634 55.6953C66.2905 55.2218 66.7708 54.9427 67.2362 55.072L70.8812 56.085C71.3466 56.2143 71.6208 56.703 71.4937 57.1765C71.3666 57.65 70.8863 57.929 70.421 57.7997L66.7759 56.7868C66.3106 56.6575 66.0363 56.1688 66.1634 55.6953Z" fill="#64A8DF"/>
<path fill-rule="evenodd" clip-rule="evenodd" d="M75.5086 55.7908C75.974 55.9201 76.2482 56.4088 76.1211 56.8823L75.4346 59.4401C75.3075 59.9137 74.8272 60.1927 74.3619 60.0634C73.8965 59.934 73.6223 59.4453 73.7493 58.9718L74.4359 56.414C74.563 55.9405 75.0433 55.6615 75.5086 55.7908Z" fill="#64A8DF"/>
<path fill-rule="evenodd" clip-rule="evenodd" d="M77.0296 58.5078C76.9025 58.9813 76.4223 59.2603 75.9569 59.131L73.4431 58.4324C72.9777 58.3031 72.7035 57.8144 72.8306 57.3409C72.9577 56.8674 73.4379 56.5884 73.9033 56.7177L76.4171 57.4162C76.8825 57.5456 77.1567 58.0343 77.0296 58.5078Z" fill="#64A8DF"/>
<path d="M77.0312 34.944C77.7927 34.5017 78.0575 33.5149 77.6227 32.7401C77.188 31.9653 76.2182 31.6959 75.4568 32.1382L66.1242 37.56C65.2863 38.0468 64.2193 37.7503 63.7409 36.8977L60.7538 31.5745C60.3191 30.7997 59.3493 30.5302 58.5878 30.9726C57.8264 31.415 57.5615 32.4017 57.9963 33.1765L61.8485 40.0415C61.8491 40.0425 61.8487 40.0439 61.8477 40.0445C61.8467 40.0451 61.8463 40.0464 61.8469 40.0475L63.4192 42.8494C63.4198 42.8505 63.4211 42.8509 63.4221 42.8503L63.4222 42.8502C63.4232 42.8497 63.4245 42.85 63.4251 42.851C63.4257 42.8521 63.4269 42.8524 63.428 42.8519L66.1818 41.252C66.1828 41.2514 66.1832 41.2501 66.1826 41.249C66.182 41.248 66.1824 41.2467 66.1834 41.2461L77.0312 34.944Z" fill="white"/>
<path fill-rule="evenodd" clip-rule="evenodd" d="M65.2572 36.013L74.5898 30.5912C76.1891 29.662 78.2259 30.228 79.1391 31.8554C80.0522 33.4827 79.496 35.5552 77.8966 36.4843L67.1518 42.7266C67.1179 42.7495 67.0831 42.7714 67.0473 42.7923L64.2934 44.3921C63.8772 44.6339 63.4044 44.6827 62.9752 44.5661C62.537 44.4488 62.1437 44.1594 61.9013 43.7274L60.329 40.9254C60.3083 40.8886 60.2891 40.8513 60.2712 40.8136L56.4784 34.0545C55.5652 32.4271 56.1215 30.3547 57.7209 29.4256C59.3202 28.4964 61.357 29.0624 62.2702 30.6897L65.2572 36.013ZM77.622 32.7367C78.0567 33.5115 77.7919 34.4983 77.0304 34.9406L66.1826 41.2427C66.1816 41.2433 66.1813 41.2446 66.1818 41.2457C66.1821 41.246 66.1821 41.2464 66.1821 41.2468C66.1821 41.2476 66.1817 41.2482 66.1811 41.2486L63.4272 42.8485C63.4262 42.8491 63.4249 42.8487 63.4243 42.8477C63.4237 42.8466 63.4224 42.8463 63.4214 42.8469L63.4214 42.8469C63.4203 42.8475 63.419 42.8471 63.4184 42.8461L61.8461 40.0441C61.8455 40.043 61.8459 40.0417 61.8469 40.0411C61.848 40.0405 61.8483 40.0391 61.8477 40.0381L57.9955 33.1731C57.5608 32.3983 57.8256 31.4116 58.5871 30.9692C59.3485 30.5268 60.3183 30.7963 60.7531 31.5711L63.7401 36.8943C64.2185 37.7469 65.2856 38.0434 66.1234 37.5566L75.456 32.1348C76.2175 31.6925 77.1872 31.9619 77.622 32.7367Z" fill="#64A8DF"/>
</svg>
