<svg width="108" height="82" viewBox="0 0 108 82" fill="none" xmlns="http://www.w3.org/2000/svg">
<path d="M8.56249 22.9004C8.22001 21.8692 8.76901 20.7524 9.78872 20.4061L51.7736 6.14607C52.7933 5.79973 53.8976 6.35492 54.24 7.38613L72.6365 62.7785C72.979 63.8097 72.43 64.9265 71.4103 65.2728L29.4254 79.5328C28.4057 79.8792 27.3015 79.324 26.959 78.2928L8.56249 22.9004Z" fill="#CEDA42"/>
<path d="M3.74218 20.4668C3.3997 19.4356 3.9487 18.3188 4.9684 17.9725L46.9533 3.71248C47.973 3.36614 49.0772 3.92133 49.4197 4.95253L67.8162 60.3449C68.1587 61.3762 67.6097 62.4929 66.59 62.8392L24.6051 77.0992C23.5854 77.4456 22.4812 76.8904 22.1387 75.8592L3.74218 20.4668Z" fill="white"/>
<path fill-rule="evenodd" clip-rule="evenodd" d="M4.35087 16.1032L46.3357 1.84319C48.3751 1.15051 50.5837 2.2609 51.2686 4.32331L69.6651 59.7157C70.3501 61.7781 69.2521 64.0116 67.2127 64.7042L25.2278 78.9643C23.1884 79.6569 20.9799 78.5465 20.2949 76.4841L1.89842 21.0917C1.21346 19.0293 2.31147 16.7959 4.35087 16.1032ZM4.97097 17.9704C3.95127 18.3167 3.40227 19.4334 3.74475 20.4646L22.1413 75.857C22.4837 76.8882 23.588 77.4434 24.6077 77.0971L66.5926 62.8371C67.6123 62.4907 68.1613 61.374 67.8188 60.3428L49.4223 4.95041C49.0798 3.9192 47.9755 3.36401 46.9558 3.71035L4.97097 17.9704Z" fill="#CEDA42"/>
<path fill-rule="evenodd" clip-rule="evenodd" d="M16.3175 28.5134C16.1463 27.9978 16.4208 27.4394 16.9307 27.2663L41.9391 18.7722C42.4489 18.599 43.0011 18.8766 43.1723 19.3922C43.3436 19.9078 43.0691 20.4662 42.5592 20.6394L17.5508 29.1334C17.0409 29.3066 16.4888 29.029 16.3175 28.5134Z" fill="#CEDA42"/>
<path fill-rule="evenodd" clip-rule="evenodd" d="M18.3117 34.5185C18.1405 34.0029 18.415 33.4446 18.9248 33.2714L43.9332 24.7774C44.4431 24.6042 44.9952 24.8818 45.1665 25.3974C45.3377 25.913 45.0632 26.4713 44.5534 26.6445L19.5449 35.1386C19.0351 35.3117 18.4829 35.0341 18.3117 34.5185Z" fill="#CEDA42"/>
<path fill-rule="evenodd" clip-rule="evenodd" d="M20.3065 40.5238C20.1353 40.0082 20.4098 39.4498 20.9197 39.2766L45.9281 30.7826C46.4379 30.6094 46.9901 30.887 47.1613 31.4026C47.3326 31.9182 47.0581 32.4766 46.5482 32.6498L21.5398 41.1438C21.0299 41.317 20.4778 41.0394 20.3065 40.5238Z" fill="#CEDA42"/>
<path fill-rule="evenodd" clip-rule="evenodd" d="M22.3007 46.5288C22.1295 46.0132 22.404 45.4548 22.9138 45.2817L47.9223 36.7876C48.4321 36.6145 48.9842 36.8921 49.1555 37.4077C49.3267 37.9233 49.0522 38.4816 48.5424 38.6548L23.5339 47.1488C23.0241 47.322 22.4719 47.0444 22.3007 46.5288Z" fill="#CEDA42"/>
<path fill-rule="evenodd" clip-rule="evenodd" d="M24.2949 52.5337C24.1236 52.0181 24.3981 51.4597 24.908 51.2866L49.9164 42.7925C50.4263 42.6194 50.9784 42.8969 51.1496 43.4125C51.3209 43.9281 51.0464 44.4865 50.5365 44.6597L25.5281 53.1537C25.0182 53.3269 24.4661 53.0493 24.2949 52.5337Z" fill="#CEDA42"/>
<path fill-rule="evenodd" clip-rule="evenodd" d="M38.2317 54.4744C38.4033 54.9898 38.1291 55.5484 37.6194 55.7219L27.5228 59.1586C27.0131 59.3321 26.4608 59.0549 26.2892 58.5394C26.1176 58.0239 26.3918 57.4654 26.9015 57.2919L36.9981 53.8551C37.5078 53.6816 38.0601 53.9589 38.2317 54.4744Z" fill="#CEDA42"/>
<path d="M57.9839 7.36296C58.2673 6.31358 59.3383 5.69522 60.3759 5.98181L103.101 17.7818C104.138 18.0684 104.75 19.1515 104.467 20.2008L89.2436 76.5696C88.9602 77.6189 87.8893 78.2373 86.8516 77.9507L44.1267 66.1507C43.0891 65.8641 42.4776 64.7811 42.761 63.7317L57.9839 7.36296Z" fill="white"/>
<path fill-rule="evenodd" clip-rule="evenodd" d="M60.8896 4.07884L103.615 15.8787C105.69 16.4519 106.913 18.6179 106.346 20.7167L91.1233 77.0855C90.5565 79.1842 88.4146 80.421 86.3393 79.8478L43.6144 68.0479C41.539 67.4747 40.3161 65.3087 40.8829 63.21L56.1056 6.84115C56.6724 4.74239 58.8142 3.50567 60.8896 4.07884ZM60.3765 5.97891C59.3388 5.69232 58.2679 6.31069 57.9845 7.36007L42.7618 63.7289C42.4784 64.7782 43.0898 65.8613 44.1275 66.1479L86.8524 77.9477C87.8901 78.2343 88.961 77.6159 89.2444 76.5666L104.467 20.1978C104.751 19.1484 104.139 18.0654 103.101 17.7788L60.3765 5.97891Z" fill="#CEDA42"/>
<path fill-rule="evenodd" clip-rule="evenodd" d="M78.8258 56.5264C79.202 56.6341 79.478 56.9589 79.5268 57.3511L80.7296 67.0233C80.7967 67.5629 80.4185 68.0554 79.8849 68.1233C79.3512 68.1912 78.8642 67.8087 78.7971 67.269L77.881 59.9022L73.2357 65.7504C72.8989 66.1744 72.286 66.2421 71.8666 65.9015C71.4473 65.5608 71.3805 64.941 71.7173 64.5169L77.8013 56.8573C78.0462 56.549 78.4496 56.4187 78.8258 56.5264Z" fill="#CEDA42"/>
<path fill-rule="evenodd" clip-rule="evenodd" d="M74.2493 61.7137C74.391 61.189 74.9265 60.8798 75.4453 61.0231L79.5091 62.1455C80.0279 62.2888 80.3337 62.8303 80.192 63.355C80.0503 63.8797 79.5148 64.1889 78.996 64.0456L74.9322 62.9232C74.4133 62.7799 74.1076 62.2384 74.2493 61.7137Z" fill="#CEDA42"/>
<path fill-rule="evenodd" clip-rule="evenodd" d="M84.6689 61.82C85.1878 61.9633 85.4935 62.5048 85.3518 63.0295L84.5864 65.8637C84.4447 66.3884 83.9092 66.6976 83.3904 66.5543C82.8715 66.411 82.5658 65.8695 82.7075 65.3448L83.4729 62.5106C83.6146 61.9859 84.1501 61.6767 84.6689 61.82Z" fill="#CEDA42"/>
<path fill-rule="evenodd" clip-rule="evenodd" d="M86.3655 64.8309C86.2238 65.3556 85.6883 65.6648 85.1695 65.5215L82.3669 64.7474C81.848 64.6041 81.5423 64.0626 81.684 63.5379C81.8257 63.0132 82.3612 62.7041 82.88 62.8474L85.6826 63.6214C86.2015 63.7647 86.5072 64.3062 86.3655 64.8309Z" fill="#CEDA42"/>
<path d="M86.3671 38.7205C87.2161 38.2303 87.5113 37.1369 87.0266 36.2784C86.5419 35.4198 85.4607 35.1212 84.6118 35.6114L74.2071 41.6191C73.2729 42.1585 72.0833 41.8299 71.5499 40.8853L68.2197 34.9868C67.735 34.1282 66.6538 33.8296 65.8048 34.3198C64.9559 34.81 64.6606 35.9034 65.1453 36.7619L69.4401 44.3688C69.4408 44.3699 69.4404 44.3714 69.4392 44.3721C69.438 44.3728 69.4376 44.3743 69.4383 44.3754L71.1912 47.4802C71.1919 47.4814 71.1934 47.4818 71.1945 47.4811L71.1946 47.4811C71.1957 47.4804 71.1972 47.4808 71.1978 47.482C71.1985 47.4831 71.1999 47.4835 71.201 47.4829L74.2713 45.7101C74.2724 45.7095 74.2728 45.708 74.2722 45.7069C74.2715 45.7057 74.2719 45.7042 74.273 45.7036L86.3671 38.7205Z" fill="white"/>
<path fill-rule="evenodd" clip-rule="evenodd" d="M73.2391 39.906L83.6439 33.8983C85.427 32.8687 87.6978 33.4959 88.7159 35.2991C89.7339 37.1023 89.1138 39.3987 87.3307 40.4283L75.3513 47.3452C75.3136 47.3706 75.2748 47.3949 75.2348 47.4179L72.1646 49.1907C71.7005 49.4586 71.1735 49.5127 70.695 49.3835C70.2064 49.2535 69.7679 48.9328 69.4977 48.4542L67.7447 45.3494C67.7217 45.3085 67.7002 45.2672 67.6803 45.2255L63.4517 37.7359C62.4337 35.9327 63.0538 33.6362 64.8369 32.6067C66.62 31.5771 68.8908 32.2043 69.9089 34.0075L73.2391 39.906ZM87.0244 36.2757C87.5092 37.1342 87.2139 38.2276 86.3649 38.7178L74.2709 45.7009C74.2697 45.7016 74.2693 45.703 74.27 45.7042C74.2702 45.7046 74.2703 45.7051 74.2703 45.7055C74.2702 45.7063 74.2698 45.707 74.2691 45.7075L71.1989 47.4802C71.1977 47.4809 71.1963 47.4805 71.1956 47.4793C71.195 47.4782 71.1935 47.4778 71.1924 47.4784L71.1924 47.4785C71.1912 47.4791 71.1897 47.4787 71.1891 47.4775L69.4361 44.3728C69.4355 44.3716 69.4359 44.3701 69.437 44.3694C69.4382 44.3688 69.4386 44.3673 69.4379 44.3661L65.1431 36.7592C64.6584 35.9007 64.9537 34.8074 65.8027 34.3172C66.6516 33.827 67.7328 34.1256 68.2175 34.9841L71.5477 40.8826C72.0811 41.8273 73.2707 42.1558 74.2049 41.6165L84.6096 35.6088C85.4586 35.1186 86.5397 35.4172 87.0244 36.2757Z" fill="#CEDA42"/>
</svg>
