<svg width="96" height="96" viewBox="0 0 96 96" fill="none" xmlns="http://www.w3.org/2000/svg">
<g clip-path="url(#clip0_132_27236)">
<path d="M79.9615 48.7951C79.9615 66.7741 65.5284 81.349 47.7243 81.349C29.9201 81.349 15.4871 66.7741 15.4871 48.7951C15.4871 30.8161 29.9201 16.2412 47.7243 16.2412C65.5284 16.2412 79.9615 30.8161 79.9615 48.7951Z" fill="white"/>
<path fill-rule="evenodd" clip-rule="evenodd" d="M81.9898 48.7956C81.9898 67.9058 66.6486 83.3978 47.7242 83.3978C28.7998 83.3978 13.4586 67.9058 13.4586 48.7956C13.4586 29.6853 28.7998 14.1934 47.7242 14.1934C66.6486 14.1934 81.9898 29.6853 81.9898 48.7956ZM47.7242 81.3495C65.5283 81.3495 79.9614 66.7746 79.9614 48.7956C79.9614 30.8165 65.5283 16.2417 47.7242 16.2417C29.9201 16.2417 15.487 30.8165 15.487 48.7956C15.487 66.7746 29.9201 81.3495 47.7242 81.3495Z" fill="#8E4B98"/>
<path fill-rule="evenodd" clip-rule="evenodd" d="M43.6667 79.3004C61.4708 79.3004 75.9039 64.7256 75.9039 46.7465C75.9039 34.8097 69.5418 24.3735 60.0549 18.707C71.7408 23.5964 79.9611 35.226 79.9611 48.7945C79.9611 66.7735 65.528 81.3484 47.7239 81.3484C41.7405 81.3484 36.1378 79.7023 31.3357 76.834C35.1343 78.4233 39.2991 79.3004 43.6667 79.3004Z" fill="#8E4B98"/>
<path fill-rule="evenodd" clip-rule="evenodd" d="M10.2118 26.5215C13.4601 37.1215 20.2288 49.8039 29.6956 62.1252C39.1624 74.4466 49.6459 84.2184 59.0066 90.0294C63.6803 92.9306 68.1695 94.9044 72.1804 95.6586C76.1886 96.4123 79.9626 95.9829 82.8516 93.7194C85.7405 91.456 87.09 87.871 87.3629 83.7631C87.6359 79.6525 86.8581 74.7709 85.2363 69.4785C81.9879 58.8785 75.2193 46.1961 65.7524 33.8748C56.2856 21.5534 45.8021 11.7816 36.4414 5.97066C31.7678 3.06936 27.2785 1.09563 23.2677 0.341447C19.2594 -0.412254 15.4854 0.0170943 12.5965 2.28056C9.70756 4.54403 8.35806 8.12896 8.08517 12.2369C7.8121 16.3475 8.58997 21.2291 10.2118 26.5215ZM31.2982 60.8696C12.5845 36.5132 4.76816 11.0066 13.8399 3.89889C22.9116 -3.2088 45.4362 10.774 64.1498 35.1304C82.8635 59.4868 90.6799 84.9934 81.6082 92.1011C72.5364 99.2088 50.0119 85.226 31.2982 60.8696Z" fill="#8E4B98"/>
<path fill-rule="evenodd" clip-rule="evenodd" d="M89.8785 35.9031C84.323 45.6521 74.8643 56.6081 62.8733 66.5788C50.8823 76.5496 38.4197 83.8216 27.8791 87.457C22.6199 89.2709 17.6799 90.2351 13.4348 90.0722C9.19365 89.9095 5.27826 88.5916 2.70416 85.4349C0.130049 82.2781 -0.399495 78.1448 0.256102 73.9104C0.912316 69.672 2.79722 64.9611 5.56909 60.097C11.1247 50.348 20.5833 39.3921 32.5743 29.4213C44.5653 19.4505 57.0279 12.1785 67.5686 8.54307C72.8277 6.72924 77.7678 5.76505 82.0129 5.92791C86.254 6.09062 90.1694 7.40846 92.7435 10.5652C95.3176 13.722 95.8471 17.8553 95.1915 22.0897C94.5353 26.3281 92.6504 31.039 89.8785 35.9031ZM60.9393 64.207C84.5058 44.611 97.6934 21.4691 90.3947 12.5183C83.096 3.56745 58.0748 12.1971 34.5083 31.7931C10.9419 51.3892 -2.24579 74.531 5.05292 83.4818C12.3516 92.4327 37.3728 83.803 60.9393 64.207Z" fill="#8E4B98"/>
<path d="M95.9998 26.4861C95.9998 28.6455 94.2663 30.3961 92.1279 30.3961C89.9895 30.3961 88.256 28.6455 88.256 26.4861C88.256 24.3267 89.9895 22.5762 92.1279 22.5762C94.2663 22.5762 95.9998 24.3267 95.9998 26.4861Z" fill="#8E4B98"/>
<path d="M39.1742 30.3963C39.1742 32.5557 37.4407 34.3062 35.3023 34.3062C33.1639 34.3062 31.4304 32.5557 31.4304 30.3963C31.4304 28.2369 33.1639 26.4863 35.3023 26.4863C37.4407 26.4863 39.1742 28.2369 39.1742 30.3963Z" fill="#8E4B98"/>
<path d="M38.5477 82.0882C38.5477 85.4226 35.871 88.1256 32.569 88.1256C29.2671 88.1256 26.5903 85.4226 26.5903 82.0882C26.5903 78.7538 29.2671 76.0508 32.569 76.0508C35.871 76.0508 38.5477 78.7538 38.5477 82.0882Z" fill="#8E4B98"/>
</g>
<defs>
<clipPath id="clip0_132_27236">
<rect width="96" height="96" fill="white"/>
</clipPath>
</defs>
</svg>
