<svg width="96" height="96" viewBox="0 0 96 96" fill="none" xmlns="http://www.w3.org/2000/svg">
<path d="M80.7394 47.4999C80.7394 64.9653 66.7118 79.1238 49.4079 79.1238C32.104 79.1238 18.0764 64.9653 18.0764 47.4999C18.0764 30.0345 32.104 15.876 49.4079 15.876C66.7118 15.876 80.7394 30.0345 80.7394 47.4999Z" fill="white"/>
<path fill-rule="evenodd" clip-rule="evenodd" d="M82.598 47.5C82.598 66.0015 67.7383 81 49.4078 81C31.0774 81 16.2176 66.0015 16.2176 47.5C16.2176 28.9985 31.0774 14 49.4078 14C67.7383 14 82.598 28.9985 82.598 47.5ZM49.4078 79.1239C66.7117 79.1239 80.7393 64.9654 80.7393 47.5C80.7393 30.0346 66.7117 15.8761 49.4078 15.8761C32.1039 15.8761 18.0763 30.0346 18.0763 47.5C18.0763 64.9654 32.1039 79.1239 49.4078 79.1239Z" fill="#EFDB34"/>
<path fill-rule="evenodd" clip-rule="evenodd" d="M45.6905 75.3718C62.9944 75.3718 77.022 61.2133 77.022 43.7479C77.022 35.9703 74.2403 28.8486 69.6263 23.3408C76.4235 29.1417 80.7395 37.8122 80.7395 47.5C80.7395 64.9654 66.7119 79.1239 49.408 79.1239C39.8097 79.1239 31.2195 74.7677 25.4722 67.9071C30.929 72.5641 37.9849 75.3718 45.6905 75.3718Z" fill="#EFDB34"/>
<path d="M57.1638 63.5121C82.1319 48.9622 98.2719 29.9983 93.2134 21.1549C90.1563 15.8105 80.0563 15.3855 67.0315 19.0976C68.7772 20.2371 70.6313 21.7336 71.3401 22.3394C78.0192 21.1672 82.8684 21.8793 84.5278 24.7803C88.2102 31.218 74.7893 45.9973 54.5514 57.7907C34.3134 69.5842 14.9221 73.9259 11.2396 67.4881C9.4565 64.3709 11.6836 59.2978 16.7529 53.5549C16.4031 51.7271 16.213 49.0574 16.2028 47.925C5.05393 58.1951 -0.480649 68.1169 2.79579 73.8448C7.85428 82.6881 32.1957 78.062 57.1638 63.5121Z" fill="white"/>
<path fill-rule="evenodd" clip-rule="evenodd" d="M18.024 43.7077L18.0618 47.908C18.0712 48.9536 18.2543 51.5067 18.5783 53.1992L18.7526 54.1102L18.1411 54.803C15.6785 57.5928 14.0027 60.1159 13.1461 62.2195C12.2767 64.3541 12.3745 65.7196 12.8496 66.5502C13.3405 67.4083 14.5249 68.1991 16.9315 68.4841C19.2959 68.764 22.4704 68.4987 26.2849 67.6446C33.8917 65.9415 43.6209 61.9943 53.6223 56.1661C63.6237 50.3379 71.8751 43.8071 77.1398 38.0096C79.7799 35.1022 81.5948 32.46 82.5367 30.2533C83.4956 28.0072 83.4092 26.5765 82.9184 25.7184C82.4763 24.9457 81.4788 24.227 79.4994 23.881C77.536 23.5378 74.8879 23.6211 71.6589 24.1878L70.8026 24.3381L70.1393 23.7712C69.4649 23.1949 67.6774 21.7533 66.0224 20.673L62.5705 18.4196L66.5267 17.2921C73.1506 15.4044 79.1595 14.5281 83.9864 14.8583C88.7441 15.1838 92.8291 16.7305 94.8234 20.217C96.4745 23.1034 96.2609 26.5888 94.9692 30.1095C93.6725 33.6442 91.1995 37.4909 87.8588 41.4161C81.1657 49.2803 70.7096 57.7851 58.0935 65.137C45.4774 72.4888 32.9521 77.3763 22.8579 79.2947C17.8197 80.2522 13.2827 80.4904 9.60146 79.8566C5.93484 79.2253 2.83748 77.6694 1.18639 74.7829C-0.945357 71.0561 -0.0102553 66.3609 2.45011 61.7053C4.95423 56.967 9.28974 51.7535 14.9501 46.5393L18.024 43.7077ZM69.403 18.4593C81.2735 15.4566 90.3448 16.1395 93.2137 21.155C98.2722 29.9983 82.1322 48.9623 57.1641 63.5122C32.196 78.0621 7.8546 82.6882 2.7961 73.8449C-0.300476 68.4314 4.47316 59.2719 14.4184 49.6126C14.996 49.0515 15.5911 48.4888 16.2031 47.925C16.208 48.4687 16.2544 49.3668 16.34 50.3559C16.4327 51.427 16.5714 52.6048 16.7533 53.555C11.6839 59.2979 9.45681 64.3709 11.2399 67.4882C14.9224 73.9259 34.3137 69.5843 54.5517 57.7908C74.7896 45.9974 88.2105 31.2181 84.5281 24.7804C82.8687 21.8794 78.0195 21.1673 71.3404 22.3395C70.9035 21.966 70.0313 21.2541 69.0175 20.4959C68.3868 20.0243 67.7014 19.5347 67.0318 19.0976C67.8336 18.8691 68.6243 18.6563 69.403 18.4593Z" fill="#EFDB34"/>
<path fill-rule="evenodd" clip-rule="evenodd" d="M91.3549 20.2168C96.4134 29.0601 80.2734 48.0241 55.3053 62.574C34.627 74.624 14.3787 79.8674 5.15771 76.29C13.2481 81.543 34.9582 76.4523 57.164 63.5121C82.1321 48.9622 98.2721 29.9982 93.2136 21.1548C92.3445 19.6354 90.9061 18.5136 88.9932 17.7715C89.9996 18.4249 90.7952 19.2384 91.3549 20.2168ZM70.0683 21.3024C70.6162 21.7338 71.0648 22.1039 71.3403 22.3393C75.5154 21.6066 78.9755 21.6101 81.3884 22.4244C79.1857 20.8001 75.1967 20.4744 70.0683 21.3024ZM16.4158 51.1528C15.8908 51.6176 15.3219 52.148 14.8944 52.6168C10.9629 56.9276 7.59797 63.4328 9.38108 66.55C10.0032 67.6376 11.0736 68.4175 12.5207 68.9058C11.985 68.5108 11.5549 68.0389 11.2398 67.4881C9.45671 64.3708 11.6838 59.2977 16.7532 53.5548C16.6156 52.8361 16.5027 51.9872 16.4158 51.1528Z" fill="#EFDB34"/>
<path fill-rule="evenodd" clip-rule="evenodd" d="M82.3431 18.6956C80.0663 18.551 77.5512 18.816 75.2387 19.2421C74.9862 19.2886 74.7442 19.1198 74.6981 18.865C74.652 18.6101 74.8193 18.3659 75.0717 18.3193C77.4254 17.8856 80.0218 17.6083 82.4015 17.7594C84.7701 17.9097 86.9927 18.4887 88.5289 19.8336C88.7228 20.0033 88.7436 20.2995 88.5755 20.4952C88.4073 20.6909 88.1138 20.7119 87.92 20.5422C86.61 19.3953 84.6311 18.8408 82.3431 18.6956Z" fill="#EFDB34"/>
<path fill-rule="evenodd" clip-rule="evenodd" d="M36.129 71.1461C36.3428 71.617 36.1379 72.1738 35.6713 72.3896C27.7086 76.0733 17.9518 77.1826 14.0483 77.2821C13.5352 77.2952 13.1087 76.8859 13.0958 76.368C13.0828 75.8501 13.4883 75.4197 14.0014 75.4066C17.7652 75.3107 27.2462 74.2234 34.8969 70.6842C35.3635 70.4683 35.9151 70.6751 36.129 71.1461Z" fill="white"/>
<path d="M69.7244 40.4736C69.7244 41.4126 68.9703 42.1738 68.0399 42.1738C67.1096 42.1738 66.3555 41.4126 66.3555 40.4736C66.3555 39.5346 67.1096 38.7734 68.0399 38.7734C68.9703 38.7734 69.7244 39.5346 69.7244 40.4736Z" fill="#EFDB34"/>
<path d="M41.857 25.041C41.857 25.98 41.1028 26.7412 40.1725 26.7412C39.2422 26.7412 38.488 25.98 38.488 25.041C38.488 24.102 39.2422 23.3408 40.1725 23.3408C41.1028 23.3408 41.857 24.102 41.857 25.041Z" fill="#EFDB34"/>
<path d="M29.5916 38.0107C29.5916 38.9497 28.8374 39.7109 27.9071 39.7109C26.9768 39.7109 26.2227 38.9497 26.2227 38.0107C26.2227 37.0718 26.9768 36.3105 27.9071 36.3105C28.8374 36.3105 29.5916 37.0718 29.5916 38.0107Z" fill="#EFDB34"/>
<path d="M37.8981 55.1304C37.8981 56.5875 36.7278 57.7687 35.2843 57.7687C33.8407 57.7687 32.6704 56.5875 32.6704 55.1304C32.6704 53.6734 33.8407 52.4922 35.2843 52.4922C36.7278 52.4922 37.8981 53.6734 37.8981 55.1304Z" fill="#EFDB34"/>
<path d="M49.6493 37.8355C49.6493 39.2926 48.4791 40.4738 47.0355 40.4738C45.5919 40.4738 44.4216 39.2926 44.4216 37.8355C44.4216 36.3784 45.5919 35.1973 47.0355 35.1973C48.4791 35.1973 49.6493 36.3784 49.6493 37.8355Z" fill="#EFDB34"/>
<path d="M62.549 26.7418C62.549 28.1988 61.3787 29.38 59.9351 29.38C58.4915 29.38 57.3213 28.1988 57.3213 26.7418C57.3213 25.2847 58.4915 24.1035 59.9351 24.1035C61.3787 24.1035 62.549 25.2847 62.549 26.7418Z" fill="#EFDB34"/>
<path d="M58.3339 52.4918C58.3339 53.9488 57.1636 55.13 55.72 55.13C54.2765 55.13 53.1062 53.9488 53.1062 52.4918C53.1062 51.0347 54.2765 49.8535 55.72 49.8535C57.1636 49.8535 58.3339 51.0347 58.3339 52.4918Z" fill="#EFDB34"/>
</svg>
