<svg width="90" height="42" viewBox="0 0 90 42" fill="none" xmlns="http://www.w3.org/2000/svg">
<path d="M44.7302 14.6914L42.6887 12.0664C41.1421 10.0664 39.5954 8.44141 38.0488 7.00391C34.0276 3.37891 29.5115 1.19142 24.6861 0.566418C23.6963 0.441418 22.7065 0.378906 21.6548 0.378906C20.0463 0.378906 18.4378 0.503914 16.9531 0.816414C14.1073 3.81641 11.076 7.81641 9.34375 12.5664C9.65307 12.1289 10.2099 11.4414 10.6429 11.0039C10.6429 11.0039 10.6429 11.0039 10.7048 11.0039C13.1794 8.44141 16.7675 6.75391 21.7166 6.75391C30.5014 6.75391 36.0073 13.0664 40.2141 19.2539L40.7709 20.0664L41.1421 20.6289L44.7302 14.6914Z" fill="#EFDB34"/>
<path d="M79.6187 29.5684C79.5569 29.6309 79.5569 29.6308 79.5569 29.6933L79.495 29.7559C77.0823 32.6934 73.2467 34.6933 67.8645 34.6933C59.0798 34.6933 53.5738 28.3808 49.367 22.1933L48.8102 21.3809L48.4391 20.8184L44.7891 26.7559V26.8184L46.8306 29.4434C48.3772 31.4434 49.9238 33.0684 51.4704 34.5059C55.4916 38.1309 60.0077 40.3183 64.8331 40.9433C65.823 41.0683 66.8128 41.1309 67.8645 41.1309C69.473 41.1309 71.0814 41.0059 72.5662 40.6934C75.412 37.6934 78.4433 33.6934 80.1755 28.9434L79.6187 29.5684Z" fill="#CEDA42"/>
<path d="M75.0396 1.4961C74.9777 1.4961 74.9777 1.43359 74.9159 1.43359C74.6684 1.37109 74.4209 1.30858 74.1735 1.24608C73.7404 1.12108 73.3693 1.05858 72.9362 0.933582C72.7506 0.871082 72.565 0.871094 72.3794 0.808594C71.9464 0.746094 71.4515 0.683582 71.0184 0.621082C70.8947 0.621082 70.7091 0.621098 70.5854 0.558598C70.0904 0.496098 69.5955 0.496094 69.1006 0.496094C69.0388 0.496094 68.9769 0.496094 68.915 0.496094C68.4201 0.496094 67.9252 0.558598 67.4303 0.558598C67.1828 0.558598 66.9354 0.558598 66.6879 0.558598C66.4405 0.558598 66.1311 0.621082 65.8837 0.621082C65.4506 0.683582 64.9557 0.683594 64.5227 0.808594C64.2133 0.871094 63.904 0.933586 63.5947 0.996086C63.2235 1.05859 62.8523 1.12108 62.4811 1.24608C62.1718 1.30858 61.8006 1.3711 61.4913 1.4961C61.3676 1.5586 61.2438 1.55859 61.1201 1.62109C58.1506 2.43359 55.4904 3.80859 53.0159 5.68359C52.954 5.68359 52.954 5.74609 52.8921 5.74609C52.5828 5.99609 52.2735 6.18359 52.026 6.43359C51.8404 6.55859 51.6549 6.74609 51.4693 6.93359C51.2837 7.12109 51.0981 7.2461 50.9125 7.4336C50.8506 7.4961 50.7887 7.55859 50.7269 7.62109C50.665 7.68359 50.665 7.6836 50.6032 7.7461C46.8294 11.3086 44.6642 14.7461 44.6642 14.7461L41.0142 20.6836L40.0862 22.1836C39.7769 22.6211 39.4676 23.1211 39.1582 23.5586C39.0964 23.6836 38.9726 23.8086 38.9108 23.9336C38.6633 24.3086 38.4159 24.6836 38.1065 24.9961C38.0447 25.1211 37.921 25.2461 37.8591 25.3711C37.1786 26.3086 36.4362 27.1836 35.632 28.0586C35.5701 28.1836 35.4464 28.2461 35.3845 28.3086C35.0752 28.6836 34.704 28.9961 34.3328 29.3086C34.271 29.3711 34.1472 29.4961 34.0854 29.5586C33.2193 30.3711 32.2294 31.0586 31.2396 31.6836C31.1159 31.7461 30.9921 31.8086 30.9303 31.8711C30.4972 32.1211 30.0642 32.3711 29.5693 32.5586L29.5074 32.6211C29.4455 32.6211 29.4455 32.6836 29.3837 32.6836C23.6303 37.4961 17.382 38.8711 12.3091 39.0586C12.9896 39.3711 13.732 39.6836 14.4743 39.9336C14.5362 39.9336 14.5362 39.9961 14.5981 39.9961C14.8455 40.0586 15.093 40.1211 15.3405 40.1836C15.7735 40.3086 16.1447 40.3711 16.5777 40.4961C16.7633 40.5586 16.9489 40.5586 17.1345 40.6211C17.5676 40.6836 18.0625 40.7461 18.4955 40.8086C18.6193 40.8086 18.8049 40.8086 18.9286 40.8711C19.4235 40.9336 19.9184 40.9336 20.4133 40.9336C20.4752 40.9336 20.5371 40.9336 20.5989 40.9336C21.0938 40.9336 21.5888 40.8711 22.0837 40.8711C22.3311 40.8711 22.5786 40.8711 22.826 40.8711C23.0735 40.8711 23.3828 40.8086 23.6303 40.8086C24.0633 40.7461 24.5582 40.7461 24.9913 40.6211C25.3006 40.5586 25.6099 40.4961 25.9193 40.4336C26.2904 40.3711 26.6616 40.3086 27.0328 40.1836C27.3421 40.1211 27.7133 40.0586 28.0227 39.9336C28.1464 39.8711 28.2701 39.8711 28.3938 39.8086C31.7345 38.8711 34.7659 37.2461 37.5498 34.9961C37.9828 34.6211 38.4159 34.2461 38.8489 33.8086C39.282 33.3711 39.715 32.9336 40.1481 32.4961C40.5811 32.0586 41.0142 31.5586 41.4472 31.0586C41.8803 30.5586 42.3133 29.9961 42.7464 29.4961L44.3549 27.4336L44.9116 26.7461L48.5616 20.8086L48.9328 20.1836L49.4896 19.3711C49.7989 18.9336 50.1082 18.4336 50.4176 17.9961C50.4794 17.8711 50.6031 17.7461 50.665 17.6211C50.9125 17.2461 51.1599 16.8711 51.4693 16.5586C51.5311 16.4336 51.6549 16.3086 51.7167 16.1836C52.3972 15.2461 53.1396 14.3711 53.9438 13.4961C54.0057 13.3711 54.1294 13.3086 54.1913 13.2461C54.5006 12.8711 54.8718 12.5586 55.243 12.2461C55.3049 12.1836 55.4286 12.0586 55.4904 11.9961C56.3566 11.1836 57.3464 10.4961 58.3362 9.87109C58.4599 9.80859 58.5837 9.74608 58.6455 9.68358C59.0786 9.43358 59.5116 9.1836 60.0065 8.9961L60.0684 8.93359C60.1303 8.93359 60.1303 8.87109 60.1921 8.87109C65.9455 4.05859 72.1938 2.68358 77.2667 2.49608C76.5243 1.99608 75.782 1.7461 75.0396 1.4961Z" fill="#8E4B98"/>
<path d="M16.5796 33.9434C16.2703 33.8809 15.9609 33.7559 15.6516 33.6309C15.5897 33.6309 15.5279 33.6309 15.5279 33.5684H15.466C15.1567 33.4434 14.8474 33.3184 14.538 33.1934C14.4143 33.1309 14.2906 33.0684 14.1668 33.0059C13.9813 32.8809 13.7957 32.8184 13.6101 32.6934C13.4863 32.6309 13.3008 32.5684 13.177 32.4434C13.0533 32.3809 12.9296 32.2558 12.8058 32.1933C9.09398 29.6933 6.68127 25.5059 6.68127 20.6934C6.68127 17.6309 7.67109 14.8809 9.27956 12.5684C11.0118 7.81835 14.105 3.81836 16.8889 0.818359C16.1465 0.943359 15.466 1.13085 14.7855 1.31835C14.7855 1.31835 14.7855 1.31835 14.7236 1.31835C14.4143 1.44335 14.0431 1.50585 13.7338 1.63085C13.4245 1.75585 13.1152 1.88086 12.8058 2.00586C12.8058 2.00586 12.744 2.00586 12.744 2.06836C11.4448 2.63086 10.2075 3.25586 9.09398 4.00586C7.98042 4.75586 6.92872 5.63085 6.00076 6.63085C2.47449 10.3809 0.494823 15.5059 0.371094 21.0684C0.556687 29.0684 5.38211 35.9433 12.1872 39.0683C17.2601 38.9433 23.5084 37.5059 29.2618 32.6934C29.2618 32.6934 29.0762 32.7558 28.9525 32.8183C28.8287 32.8808 28.6431 32.9434 28.5194 33.0059C28.2101 33.1309 27.9626 33.2559 27.6533 33.3184C27.4677 33.3809 27.2821 33.4434 27.1584 33.5059C26.8491 33.6309 26.4779 33.6934 26.1067 33.8184C25.983 33.8809 25.8592 33.8809 25.7355 33.9434C25.2406 34.0684 24.8075 34.1309 24.2508 34.2559C24.127 34.2559 23.9414 34.3184 23.8177 34.3184C23.4465 34.3809 23.0135 34.4434 22.6423 34.4434C22.4567 34.4434 22.333 34.4434 22.1474 34.5059C21.5906 34.5684 21.0338 34.5684 20.4152 34.5684C19.6109 34.5684 18.7448 34.5059 17.9406 34.3184C17.8787 34.3184 17.755 34.2559 17.6931 34.2559C17.5075 34.1934 17.3219 34.1934 17.1982 34.1309C16.9508 34.0684 16.7652 34.0059 16.5796 33.9434Z" fill="#DE8A2E"/>
<path d="M74.7253 1.37695C74.6015 1.31445 74.4778 1.31444 74.4159 1.25194C74.3541 1.25194 74.2303 1.18945 74.1685 1.18945C74.4159 1.25195 74.6634 1.31445 74.9108 1.37695C74.849 1.43945 74.7871 1.43945 74.7253 1.37695Z" fill="#564292"/>
<path d="M72.866 7.43751C73.1753 7.50001 73.4846 7.62501 73.794 7.75001C73.8558 7.75001 73.9177 7.74999 73.9177 7.81249H73.9796C74.2889 7.93749 74.5982 8.0625 74.9075 8.1875C75.0312 8.25 75.155 8.31251 75.2787 8.37501C75.4643 8.50001 75.6499 8.56251 75.8355 8.68751C75.9592 8.75001 76.1448 8.8125 76.2685 8.9375C76.3923 9 76.516 9.125 76.6397 9.1875C80.3516 11.6875 82.7643 15.875 82.7643 20.6875C82.7643 23.75 81.7745 26.5 80.166 28.8125C78.4338 33.5625 75.3406 37.5625 72.5567 40.5625C73.299 40.4375 73.9796 40.25 74.6601 40.0625C74.6601 40.0625 74.6601 40.0625 74.7219 40.0625C75.0313 39.9375 75.4024 39.875 75.7117 39.75C76.0211 39.625 76.3304 39.5 76.6397 39.375C76.6397 39.375 76.7016 39.375 76.7016 39.3125C78.0007 38.75 79.238 38.125 80.3516 37.375C81.4651 36.625 82.5168 35.75 83.4448 34.75C86.9711 31 88.9507 25.875 89.0745 20.3125C88.8889 12.3125 84.0634 5.4375 77.2584 2.3125C72.1855 2.4375 65.9372 3.87501 60.1838 8.68751C60.1219 8.68751 60.1219 8.74999 60.0601 8.74999C60.2457 8.68749 60.3694 8.625 60.555 8.5C60.6787 8.4375 60.8643 8.375 60.988 8.3125C61.2973 8.1875 61.5448 8.0625 61.8541 8C62.0397 7.9375 62.2253 7.87499 62.349 7.81249C62.6584 7.68749 63.0295 7.62499 63.4007 7.49999C63.5245 7.43749 63.6482 7.4375 63.7719 7.375C64.2668 7.25 64.6999 7.1875 65.2567 7.0625C65.3804 7.0625 65.566 7 65.6897 7C66.0609 6.9375 66.494 6.87499 66.8651 6.87499C67.0507 6.87499 67.1745 6.87501 67.3601 6.81251C67.9168 6.75001 68.4736 6.75 69.0923 6.75C69.8965 6.75 70.7626 6.8125 71.5668 7C71.6287 7 71.7524 7.0625 71.8143 7.0625C71.9999 7.125 72.1855 7.12499 72.3092 7.18749C72.4948 7.37499 72.6804 7.37501 72.866 7.43751Z" fill="#64A8DF"/>
</svg>
