<svg width="511" height="80" viewBox="0 0 511 80" fill="none" xmlns="http://www.w3.org/2000/svg">
<g clip-path="url(#clip0_991_29522)">
<path d="M92.1689 66.123H95.0766V79.5605H92.1689V66.123Z" fill="white"/>
<path d="M102.208 66.123H104.93L111.178 74.3731V66.123H114.085V79.5605H111.549L105.115 70.9981V79.5605H102.208V66.123Z" fill="white"/>
<path d="M124.159 68.8106H120.076V66.123H131.149V68.8106H127.066V79.5605H124.159V68.8106Z" fill="white"/>
<path d="M137.149 66.123H147.233V68.7481H140.057V71.4355H146.367V74.1231H140.057V76.9356H147.295V79.5605H137.149V66.123Z" fill="white"/>
<path d="M153.719 66.123H159.781C161.452 66.123 162.813 66.6231 163.679 67.4981C164.421 68.2481 164.792 69.3106 164.792 70.5606V70.6231C164.792 72.8106 163.617 74.1856 161.947 74.8106L165.226 79.6231H161.823L158.977 75.3106H156.688V79.6231H153.781V66.123H153.719ZM159.596 72.6231C161.019 72.6231 161.823 71.8731 161.823 70.7481V70.6856C161.823 69.4356 160.957 68.7481 159.534 68.7481H156.626V72.6231H159.596Z" fill="white"/>
<path d="M171.296 66.123H173.956L180.204 74.3731V66.123H183.112V79.5605H180.576L174.142 70.9981V79.5605H171.296V66.123Z" fill="white"/>
<path d="M194.681 65.9961H197.403L203.094 79.5586H200.063L198.826 76.5586H193.196L191.959 79.5586H188.989L194.681 65.9961ZM197.712 73.9336L195.918 69.5586L194.124 73.9336H197.712Z" fill="white"/>
<path d="M210.339 68.8106H206.256V66.123H217.268V68.8106H213.247V79.5605H210.339V68.8106Z" fill="white"/>
<path d="M223.446 66.123H226.416V79.5605H223.446V66.123Z" fill="white"/>
<path d="M232.923 72.8789C232.923 69.0039 235.892 65.8789 240.037 65.8789C244.12 65.8789 247.09 68.9414 247.09 72.8164V72.8789C247.09 76.6914 244.12 79.8164 239.975 79.8164C235.892 79.8164 232.923 76.6914 232.923 72.8789ZM244.058 72.8789C244.058 70.5039 242.388 68.6289 240.037 68.6289C237.686 68.6289 236.016 70.5039 236.016 72.8164V72.8789C236.016 75.1914 237.686 77.1289 240.037 77.1289C242.388 77.0664 244.058 75.1914 244.058 72.8789Z" fill="white"/>
<path d="M253.523 66.123H256.184L262.432 74.3731V66.123H265.34V79.5605H262.865L256.369 70.9981V79.5605H253.523V66.123Z" fill="white"/>
<path d="M276.908 65.9961H279.63L285.322 79.5586H282.291L281.053 76.5586H275.424L274.186 79.5586H271.217L276.908 65.9961ZM279.94 73.9336L278.146 69.5586L276.352 73.9336H279.94Z" fill="white"/>
<path d="M291.139 66.123H294.109V76.8731H300.728V79.5605H291.139V66.123Z" fill="white"/>
<path d="M358.328 77.5606L360.06 75.4356C361.236 76.4356 362.535 77.0605 364.02 77.0605C365.195 77.0605 365.937 76.5605 365.937 75.8105V75.7481C365.937 74.9981 365.504 74.6231 363.277 74.0606C360.617 73.3731 358.885 72.6231 358.885 69.9356V69.873C358.885 67.4355 360.803 65.8105 363.525 65.8105C365.443 65.8105 367.113 66.4356 368.474 67.4981L366.927 69.7481C365.752 68.9356 364.576 68.4356 363.463 68.4356C362.349 68.4356 361.731 68.9356 361.731 69.6231V69.6856C361.731 70.5606 362.287 70.873 364.576 71.4355C367.298 72.123 368.783 73.123 368.783 75.498V75.5606C368.783 78.2481 366.742 79.7481 363.896 79.7481C361.978 79.7481 359.937 79.0606 358.328 77.5606Z" fill="white"/>
<path d="M374.646 72.8789C374.646 69.0039 377.491 65.8789 381.574 65.8789C384.111 65.8789 385.596 66.7539 386.833 67.9414L384.977 70.1289C383.925 69.1914 382.873 68.6289 381.574 68.6289C379.347 68.6289 377.739 70.5039 377.739 72.8164V72.8789C377.739 75.1914 379.347 77.1289 381.574 77.1289C383.121 77.1289 384.049 76.5039 385.101 75.5664L386.957 77.4414C385.596 78.9414 384.049 79.8164 381.512 79.8164C377.553 79.8164 374.646 76.7539 374.646 72.8789Z" fill="white"/>
<path d="M393.017 66.123H395.987V71.4355H401.369V66.123H404.276V79.5605H401.369V74.1231H395.987V79.5605H393.017V66.123Z" fill="white"/>
<path d="M410.711 72.8789C410.711 69.0039 413.68 65.8789 417.825 65.8789C421.908 65.8789 424.878 68.9414 424.878 72.8164V72.8789C424.878 76.6914 421.908 79.8164 417.763 79.8164C413.68 79.8164 410.711 76.6914 410.711 72.8789ZM421.785 72.8789C421.785 70.5039 420.114 68.6289 417.763 68.6289C415.413 68.6289 413.742 70.5039 413.742 72.8164V72.8789C413.742 75.1914 415.413 77.1289 417.763 77.1289C420.176 77.0664 421.785 75.1914 421.785 72.8789Z" fill="white"/>
<path d="M430.691 72.8789C430.691 69.0039 433.66 65.8789 437.805 65.8789C441.888 65.8789 444.858 68.9414 444.858 72.8164V72.8789C444.858 76.6914 441.888 79.8164 437.743 79.8164C433.599 79.8164 430.691 76.6914 430.691 72.8789ZM441.765 72.8789C441.765 70.5039 440.094 68.6289 437.743 68.6289C435.393 68.6289 433.722 70.5039 433.722 72.8164V72.8789C433.722 75.1914 435.393 77.1289 437.743 77.1289C440.094 77.0664 441.765 75.1914 441.765 72.8789Z" fill="white"/>
<path d="M451.233 66.123H454.141V76.8731H460.822V79.5605H451.233V66.123Z" fill="white"/>
<path d="M33.4664 23.3086C31.6723 21.6211 29.5689 20.3711 27.218 19.4961C24.8672 18.6836 22.5164 18.2461 20.1036 18.2461C18.0621 18.2461 16.0206 18.5586 14.1028 19.1211C12.1231 19.6836 10.3291 20.6211 8.65873 21.7461C8.34941 21.9961 8.04008 22.1211 7.73076 22.1211C7.29771 22.1211 6.98838 21.9961 6.74093 21.7461C6.49347 21.4961 6.36975 21.1836 6.36975 20.8086V2.68359C6.36975 1.87109 6.06042 1.30859 5.50364 0.93359C4.88499 0.55859 4.26635 0.371094 3.52398 0.371094C2.78161 0.371094 2.1011 0.55859 1.54432 0.93359C0.987541 1.30859 0.678223 1.87109 0.678223 2.68359V54.9961C0.678223 55.8086 0.925677 56.4336 1.54432 56.9336C2.1011 57.4336 2.78161 57.6836 3.58585 57.6836C4.82314 57.6836 5.62737 57.2461 6.12228 56.3086C6.30788 55.9961 6.55534 55.7461 6.80279 55.4961C7.05025 55.2461 7.35957 55.1211 7.66889 55.1211C8.04008 55.1211 8.41127 55.2461 8.7206 55.4961C10.3909 56.7461 12.2469 57.6211 14.1647 58.1836C16.1443 58.7461 18.124 59.0586 20.1655 59.0586C22.5782 59.0586 24.9291 58.6211 27.2799 57.8086C29.6308 56.9961 31.7341 55.7461 33.5901 54.0586C35.446 52.3711 36.9308 50.2461 38.0443 47.7461C39.1579 45.1836 39.7147 42.1836 39.7147 38.7461C39.7147 35.3086 39.1579 32.3086 37.9825 29.7461C36.807 27.1836 35.3223 25.0586 33.4664 23.3086ZM32.724 45.2461C31.9816 47.0586 30.9299 48.6211 29.6308 49.7461C28.3316 50.9336 26.8469 51.8086 25.2384 52.3711C23.568 52.9336 21.8977 53.2461 20.1655 53.2461C18.4333 53.2461 16.763 52.9961 15.0926 52.3711C13.4223 51.8086 11.9375 50.9336 10.7003 49.7461C9.4011 48.5586 8.41127 47.0586 7.60703 45.2461C6.86466 43.3711 6.4316 41.2461 6.4316 38.7461C6.4316 36.1836 6.8028 33.9961 7.60703 32.1836C8.34941 30.3711 9.4011 28.8711 10.7003 27.6211C11.9994 26.4336 13.4841 25.5586 15.0926 24.9961C16.763 24.4336 18.4333 24.1211 20.1655 24.1211C21.8977 24.1211 23.568 24.4336 25.2384 24.9961C26.9087 25.5586 28.3935 26.4336 29.6308 27.6211C30.9299 28.8086 31.9197 30.3086 32.724 32.1836C33.5282 33.9961 33.8994 36.1836 33.8994 38.7461C33.8994 41.2461 33.5282 43.3711 32.724 45.2461ZM229.886 24.0586C228.092 22.3711 225.988 21.1211 223.638 20.3086C221.287 19.4961 218.936 19.0586 216.585 19.0586C213.368 19.0586 210.213 19.8086 207.243 21.2461C204.212 22.6836 201.799 24.9961 200.005 28.0586C198.149 24.9961 195.737 22.7461 192.767 21.2461C189.736 19.8086 186.643 19.0586 183.426 19.0586C181.384 19.0586 179.343 19.3086 177.425 19.9336C175.445 20.4961 173.651 21.3711 171.981 22.6211C171.671 22.8711 171.3 22.9961 170.929 22.9961C170.558 22.9961 170.249 22.8711 169.939 22.5586C169.63 22.2461 169.444 21.9336 169.321 21.6836C169.073 21.2461 168.764 20.8711 168.331 20.7461C167.898 20.5586 167.403 20.4961 166.908 20.4961C166.042 20.4961 165.299 20.7461 164.804 21.3086C164.31 21.8711 164.062 22.3711 164.062 22.9961V56.0586C164.062 56.8711 164.371 57.4961 164.928 57.9336C165.547 58.3711 166.165 58.5586 166.908 58.5586C167.65 58.5586 168.331 58.3711 168.888 57.9336C169.444 57.4961 169.754 56.8711 169.754 56.0586V39.4336C169.754 36.9336 170.125 34.7461 170.929 32.9336C171.733 31.1211 172.785 29.6211 174.022 28.4336C175.321 27.2461 176.744 26.3711 178.415 25.8086C180.023 25.2461 181.755 24.9336 183.488 24.9336C185.22 24.9336 186.89 25.2461 188.56 25.8086C190.231 26.3711 191.716 27.2461 192.953 28.4961C194.252 29.6836 195.242 31.1836 196.046 33.0586C196.85 34.8711 197.221 37.0586 197.221 39.6211V56.1211C197.221 56.9336 197.531 57.5586 198.088 57.9961C198.706 58.4336 199.325 58.6211 200.067 58.6211C200.81 58.6211 201.49 58.4336 202.047 57.9961C202.604 57.5586 202.913 56.9336 202.913 56.1211V39.3711C202.913 36.8711 203.284 34.6836 204.088 32.8711C204.831 31.0586 205.882 29.4961 207.182 28.3086C208.481 27.1211 209.904 26.2461 211.574 25.6836C213.182 25.1211 214.915 24.8086 216.709 24.8086C218.441 24.8086 220.111 25.1211 221.782 25.6836C223.452 26.2461 224.937 27.1211 226.174 28.3086C227.473 29.4961 228.463 30.9961 229.267 32.8711C230.071 34.6836 230.443 36.8711 230.443 39.3711V55.9336C230.443 56.7461 230.752 57.3711 231.309 57.8086C231.866 58.2461 232.546 58.4336 233.288 58.4336C234.031 58.4336 234.711 58.2461 235.268 57.8086C235.825 57.3711 236.134 56.7461 236.134 55.9336V39.4336C236.134 35.9961 235.577 32.9961 234.402 30.3711C233.227 27.8711 231.742 25.7461 229.886 24.0586ZM256.673 53.9961C254.693 52.6211 253.023 50.8711 251.786 48.6211C250.549 46.4336 249.93 44.1211 249.93 41.6836V22.8086C249.93 21.9961 249.621 21.3711 249.064 20.9336C248.507 20.4961 247.827 20.2461 247.084 20.2461C246.342 20.2461 245.661 20.4961 245.104 20.9336C244.548 21.3711 244.238 21.9961 244.238 22.8086V41.9961C244.3 43.8711 244.61 45.7461 245.166 47.5586C245.723 49.3711 246.527 51.0586 247.517 52.6211C247.888 53.1836 248.383 53.8086 248.94 54.5586C249.497 55.3086 250.177 55.9961 250.858 56.6836C251.538 57.3711 252.219 57.9336 252.899 58.3711C253.58 58.8086 254.26 59.0586 254.817 59.0586C255.621 59.0586 256.364 58.7461 256.982 58.1836C257.663 57.6211 257.972 56.9336 257.972 56.0586C257.972 55.3711 257.539 54.6211 256.673 53.9961ZM247.022 13.6836C248.012 13.6836 248.754 13.3711 249.188 12.8086C249.682 12.2461 249.868 11.6211 249.868 10.8711C249.868 10.1836 249.621 9.55858 249.188 8.93358C248.754 8.37108 248.012 8.05859 247.022 8.05859C246.032 8.05859 245.29 8.37108 244.857 8.93358C244.362 9.49608 244.177 10.1211 244.177 10.8711C244.177 11.5586 244.424 12.2461 244.857 12.8086C245.29 13.3711 246.032 13.6836 247.022 13.6836ZM297.504 24.0586C295.648 22.3711 293.544 21.1211 291.255 20.3086C288.904 19.4961 286.554 19.0586 284.141 19.0586C282.099 19.0586 280.058 19.3711 278.14 19.9336C276.16 20.4961 274.366 21.4336 272.696 22.5586C272.387 22.8086 272.016 22.9336 271.644 22.9336C271.026 22.9336 270.593 22.6211 270.221 21.9336C269.727 20.8711 268.86 20.3711 267.561 20.3711C266.819 20.3711 266.138 20.6211 265.582 21.1836C265.025 21.7461 264.716 22.4336 264.716 23.2461V55.9336C264.716 56.7461 265.025 57.3711 265.582 57.8086C266.2 58.2461 266.819 58.4336 267.561 58.4336C268.304 58.4336 268.984 58.2461 269.541 57.8086C270.098 57.3711 270.407 56.7461 270.407 55.9336V39.3086C270.407 36.8086 270.778 34.6211 271.582 32.8086C272.387 30.9961 273.438 29.4961 274.738 28.3086C276.037 27.1211 277.46 26.2461 279.13 25.6836C280.738 25.1211 282.471 24.8086 284.203 24.8086C285.935 24.8086 287.605 25.1211 289.276 25.6836C290.946 26.2461 292.431 27.1211 293.668 28.3711C294.967 29.5586 295.957 31.0586 296.761 32.9336C297.566 34.7461 297.937 36.9336 297.937 39.4961V55.9961C297.937 56.8086 298.246 57.4336 298.803 57.8711C299.36 58.3086 300.04 58.4961 300.782 58.4961C301.525 58.4961 302.205 58.3086 302.762 57.8711C303.319 57.4336 303.628 56.8086 303.628 55.9961V39.3711C303.628 35.9336 303.071 32.9336 301.958 30.3711C300.844 27.8711 299.36 25.7461 297.504 24.0586ZM347.923 20.1836C347.305 19.7461 346.686 19.4961 345.943 19.4961C345.139 19.4961 344.582 19.6836 344.149 19.9961C343.778 20.3086 343.469 20.6836 343.283 21.0586C343.16 21.3711 342.912 21.5586 342.603 21.7461C342.293 21.9336 342.046 22.0586 341.799 22.0586C341.489 22.0586 341.118 21.9336 340.809 21.6836C339.138 20.4961 337.282 19.6211 335.303 18.9961C333.323 18.4336 331.343 18.1211 329.302 18.1211C326.889 18.1211 324.538 18.5586 322.249 19.3711C319.899 20.1836 317.795 21.4336 316.001 23.1211C314.145 24.8086 312.66 26.9336 311.547 29.4961C310.433 32.0586 309.877 35.0586 309.877 38.4961C309.877 41.9336 310.433 44.9336 311.609 47.4961C312.784 50.0586 314.269 52.1836 316.063 53.8711C317.857 55.5586 319.96 56.8086 322.311 57.6836C324.662 58.4961 327.013 58.9336 329.364 58.9336C331.405 58.9336 333.385 58.6211 335.365 58.0586C337.344 57.4961 339.2 56.6211 340.871 55.3711C341.056 55.2461 341.366 55.1211 341.86 54.9961C342.232 54.9961 342.541 55.1211 342.788 55.3711C343.036 55.6211 343.16 55.9336 343.16 56.3086V57.3086C343.036 59.6836 342.603 61.7461 341.799 63.4336C340.994 65.1836 339.943 66.5586 338.705 67.6836C337.468 68.8086 335.983 69.6211 334.375 70.1836C332.766 70.7461 331.096 70.9961 329.426 70.9961C327.26 70.9961 325.281 70.5586 323.425 69.7461C323.301 69.6836 323.054 69.6211 322.806 69.5586C322.497 69.4961 322.249 69.4961 321.878 69.5586C321.569 69.6211 321.198 69.8086 320.888 70.1211C320.517 70.4336 320.208 70.8711 319.96 71.4961C319.589 72.2461 319.527 72.9336 319.775 73.5586C320.022 74.1836 320.455 74.6836 321.136 74.9961C323.734 76.1836 326.58 76.7461 329.549 76.7461C331.9 76.7461 334.313 76.3086 336.664 75.4961C339.015 74.6836 341.056 73.4336 342.912 71.7461C344.768 70.0586 346.191 67.9336 347.366 65.4336C348.542 62.8711 349.099 59.8711 349.099 56.4336V22.4336C348.851 21.3711 348.542 20.6211 347.923 20.1836ZM341.922 45.0586C341.18 46.8711 340.128 48.3711 338.829 49.6211C337.53 50.8086 336.045 51.7461 334.437 52.3086C332.766 52.8711 331.096 53.1836 329.364 53.1836C327.632 53.1836 325.961 52.8711 324.291 52.3086C322.621 51.7461 321.136 50.8711 319.899 49.6211C318.599 48.4336 317.61 46.9336 316.805 45.0586C316.063 43.2461 315.63 41.0586 315.63 38.4961C315.63 35.9961 316.001 33.8086 316.805 31.9961C317.548 30.1836 318.599 28.6211 319.899 27.4336C321.198 26.2461 322.621 25.3711 324.291 24.8086C325.899 24.2461 327.632 23.9336 329.426 23.9336C331.158 23.9336 332.828 24.2461 334.499 24.8086C336.169 25.3711 337.654 26.2461 338.891 27.4336C340.19 28.6211 341.18 30.1211 341.984 31.9961C342.788 33.8086 343.16 35.9961 343.16 38.4961C343.098 41.0586 342.727 43.2461 341.922 45.0586ZM393.208 0.996094C392.651 0.621094 391.971 0.433588 391.228 0.433588C390.486 0.433588 389.805 0.621094 389.249 0.996094C388.692 1.37109 388.382 1.99609 388.382 2.74609V20.8711C388.382 21.2461 388.259 21.5586 388.011 21.8086C387.764 22.0586 387.454 22.1836 387.021 22.1836C386.712 22.1836 386.465 22.0586 386.093 21.8086C384.423 20.6211 382.567 19.7461 380.649 19.1836C378.67 18.6211 376.69 18.3086 374.587 18.3086C372.174 18.3086 369.823 18.7461 367.472 19.5586C365.121 20.3711 363.08 21.6211 361.224 23.3711C359.43 25.0586 357.883 27.1836 356.77 29.7461C355.594 32.3086 355.038 35.3086 355.038 38.7461C355.038 42.1836 355.594 45.1836 356.708 47.7461C357.821 50.3086 359.306 52.4336 361.162 54.0586C363.018 55.7461 365.121 56.9961 367.41 57.8086C369.761 58.6211 372.112 59.0586 374.525 59.0586C376.566 59.0586 378.608 58.7461 380.588 58.1836C382.567 57.6211 384.361 56.7461 386.032 55.4961C386.341 55.2461 386.712 55.1211 387.083 55.1211C387.393 55.1211 387.702 55.2461 387.949 55.4961C388.197 55.7461 388.444 55.9961 388.63 56.3086C389.125 57.1836 389.929 57.6836 391.166 57.6836C391.971 57.6836 392.651 57.4336 393.208 56.9336C393.765 56.4336 394.074 55.8086 394.074 54.9961V2.74609C394.074 1.99609 393.827 1.37109 393.208 0.996094ZM387.207 45.2461C386.465 47.1211 385.413 48.6211 384.114 49.8086C382.815 50.9961 381.33 51.8711 379.721 52.4336C378.051 52.9961 376.381 53.3086 374.649 53.3086C372.916 53.3086 371.246 53.0586 369.576 52.4336C367.905 51.8711 366.421 50.9961 365.183 49.8086C363.884 48.6211 362.894 47.1211 362.09 45.2461C361.348 43.4336 360.915 41.2461 360.915 38.7461C360.915 36.1836 361.286 33.9961 362.09 32.1836C362.832 30.3711 363.884 28.8711 365.183 27.6211C366.482 26.4336 367.967 25.4961 369.576 24.9336C371.246 24.3711 372.916 24.0586 374.649 24.0586C376.381 24.0586 378.051 24.3711 379.721 24.9336C381.392 25.4961 382.877 26.3711 384.114 27.6211C385.413 28.8086 386.403 30.3086 387.207 32.1836C388.011 33.9961 388.382 36.1836 388.382 38.7461C388.321 41.2461 387.949 43.3711 387.207 45.2461ZM438.988 20.3086C438.369 19.8086 437.688 19.6211 436.884 19.6211C436.389 19.6211 435.894 19.7461 435.399 19.9961C434.904 20.2461 434.595 20.6211 434.348 21.1211C434.224 21.4336 433.977 21.6836 433.729 21.8711C433.482 22.0586 433.172 22.1836 432.863 22.1836C432.554 22.1836 432.182 22.0586 431.873 21.8086C430.203 20.6211 428.347 19.7461 426.367 19.1211C424.388 18.5586 422.408 18.2461 420.366 18.2461C417.954 18.2461 415.603 18.6836 413.314 19.4961C410.963 20.3086 408.921 21.5586 407.066 23.2461C405.271 24.9336 403.787 27.0586 402.611 29.5586C401.498 32.1211 400.879 35.1211 400.879 38.5586C400.879 41.9961 401.436 44.9961 402.611 47.5586C403.787 50.1211 405.271 52.2461 407.066 53.9336C408.921 55.6211 410.963 56.8711 413.314 57.7461C415.665 58.5586 418.016 58.9961 420.366 58.9961C422.346 58.9961 424.388 58.6836 426.367 58.1211C428.347 57.4961 430.203 56.6211 431.873 55.4336C432.182 55.1836 432.554 55.0586 432.863 55.0586C433.543 55.0586 433.977 55.3711 434.348 56.0586C434.595 56.5586 434.904 56.9961 435.399 57.2461C435.894 57.4961 436.389 57.6211 436.884 57.6211C437.688 57.6211 438.369 57.3711 438.988 56.9336C439.606 56.4961 439.915 55.7461 439.915 54.8711V22.3711C439.915 21.4336 439.606 20.7461 438.988 20.3086ZM432.987 45.1211C432.244 46.9336 431.193 48.4336 429.893 49.6836C428.594 50.8711 427.11 51.7461 425.501 52.3711C423.831 52.9336 422.16 53.2461 420.428 53.2461C418.696 53.2461 417.026 52.9336 415.355 52.3711C413.685 51.8086 412.2 50.9336 410.963 49.6836C409.664 48.4961 408.674 46.9961 407.87 45.1211C407.127 43.3086 406.694 41.1211 406.694 38.5586C406.694 36.0586 407.065 33.8711 407.87 32.0586C408.674 30.2461 409.664 28.6836 410.963 27.4961C412.262 26.3086 413.685 25.4336 415.355 24.8711C416.964 24.3086 418.696 23.9961 420.49 23.9961C422.222 23.9961 423.893 24.3086 425.563 24.8711C427.233 25.4336 428.718 26.3086 429.955 27.4961C431.255 28.6836 432.244 30.1836 433.049 32.0586C433.791 33.8711 434.224 36.0586 434.224 38.5586C434.162 41.1211 433.729 43.3086 432.987 45.1211ZM466.827 53.2461C465.094 53.2461 463.424 52.9961 461.754 52.3711C460.083 51.8086 458.599 50.9336 457.361 49.7461C456.062 48.5586 455.072 47.0586 454.268 45.1836C453.526 43.3711 453.093 41.1836 453.093 38.6211V2.93359C453.093 2.12109 452.783 1.49609 452.227 1.12109C451.67 0.683592 450.989 0.496092 450.185 0.496092C449.381 0.496092 448.7 0.683592 448.143 1.12109C447.587 1.55859 447.277 2.18359 447.277 2.93359V38.6211C447.277 42.0586 447.834 45.0586 449.01 47.6211C450.185 50.1836 451.67 52.3086 453.464 53.9961C455.32 55.6836 457.361 56.9336 459.712 57.8086C462.063 58.6211 464.414 59.0586 466.765 59.0586C467.569 59.0586 468.188 58.7461 468.621 58.1836C469.054 57.6211 469.301 56.9336 469.301 56.1836C469.301 55.4336 469.054 54.7461 468.621 54.1836C468.249 53.5586 467.631 53.2461 466.827 53.2461ZM508.771 29.5586C507.595 27.0586 506.11 24.9336 504.254 23.2461C502.399 21.5586 500.295 20.3086 498.006 19.4961C495.717 18.6836 493.366 18.2461 490.954 18.2461C488.541 18.2461 486.19 18.6836 483.901 19.4961C481.55 20.3086 479.447 21.5586 477.653 23.2461C475.797 24.9336 474.312 27.0586 473.199 29.6211C472.085 32.1836 471.528 35.1836 471.528 38.6211C471.528 42.0586 472.085 45.0586 473.26 47.6211C474.374 50.1836 475.859 52.3086 477.715 53.9961C479.509 55.6836 481.612 56.9336 483.963 57.8086C486.314 58.6211 488.665 59.0586 491.016 59.0586C493.985 59.0586 496.831 58.4961 499.429 57.3086C500.233 56.9336 500.728 56.3711 500.852 55.6836C501.038 54.9961 500.914 54.3086 500.604 53.6211C500.357 52.9336 499.986 52.4961 499.615 52.2461C499.243 51.9961 498.872 51.8086 498.501 51.7461C498.13 51.6836 497.821 51.6836 497.573 51.8086C497.326 51.8711 497.14 51.9961 497.016 51.9961C495.099 52.8711 493.057 53.2461 490.892 53.2461C488.417 53.2461 486.066 52.6836 483.901 51.5586C481.674 50.4336 480.004 48.6836 478.766 46.2461L507.966 41.5586C508.709 41.4336 509.327 41.0586 509.76 40.4961C510.193 39.9336 510.441 39.3086 510.441 38.5586C510.503 35.0586 509.884 32.0586 508.771 29.5586ZM504.316 35.8086C504.193 36.0586 504.007 36.1836 503.698 36.2461L478.148 40.3711C477.591 40.4336 477.282 40.1836 477.158 39.6211V38.6211C477.158 36.1211 477.529 33.9336 478.333 32.1211C479.138 30.3086 480.127 28.7461 481.427 27.5586C482.726 26.3711 484.149 25.4961 485.819 24.9336C487.427 24.3711 489.16 24.0586 490.954 24.0586C492.438 24.0586 493.923 24.2461 495.408 24.6836C496.893 25.1211 498.254 25.8086 499.429 26.6836C500.666 27.6211 501.656 28.7461 502.522 30.1836C503.388 31.5586 504.007 33.1836 504.378 35.1211C504.502 35.3086 504.44 35.5586 504.316 35.8086ZM65.5121 53.2461C63.7799 53.2461 62.1096 52.9961 60.4392 52.3711C58.7689 51.8086 57.2842 50.9336 56.0469 49.7461C54.7477 48.5586 53.7579 47.0586 52.9536 45.1836C52.2113 43.3711 51.7782 41.1836 51.7782 38.6211V2.93359C51.7782 2.12109 51.4689 1.49609 50.9121 1.05859C50.3553 0.621088 49.6748 0.433588 48.8706 0.433588C48.0664 0.433588 47.3859 0.621088 46.8291 1.05859C46.2723 1.49609 45.963 2.12109 45.963 2.93359V38.6211C45.963 42.0586 46.5197 45.0586 47.6952 47.6211C48.8087 50.1836 50.3553 52.3086 52.1494 53.9961C53.9435 55.6836 56.0469 56.9336 58.3977 57.8086C60.7486 58.6211 63.0994 59.0586 65.5121 59.0586C66.3164 59.0586 66.935 58.7461 67.368 58.1836C67.8011 57.6211 68.0486 56.9336 68.0486 56.1836C68.0486 55.4336 67.8011 54.7461 67.368 54.1836C66.935 53.5586 66.3164 53.2461 65.5121 53.2461Z" fill="white"/>
<path d="M112.73 32.6914L110.689 30.0664C109.142 28.0664 107.595 26.4414 106.049 25.0039C102.028 21.3789 97.5115 19.1914 92.6861 18.5664C91.6963 18.4414 90.7065 18.3789 89.6548 18.3789C88.0463 18.3789 86.4378 18.5039 84.9531 18.8164C82.1073 21.8164 79.076 25.8164 77.3438 30.5664C77.6531 30.1289 78.2099 29.4414 78.6429 29.0039C78.6429 29.0039 78.6429 29.0039 78.7048 29.0039C81.1794 26.4414 84.7675 24.7539 89.7166 24.7539C98.5014 24.7539 104.007 31.0664 108.214 37.2539L108.771 38.0664L109.142 38.6289L112.73 32.6914Z" fill="#EFDB34"/>
<path d="M147.619 47.5684C147.557 47.6309 147.557 47.6308 147.557 47.6933L147.495 47.7559C145.082 50.6934 141.247 52.6933 135.864 52.6933C127.08 52.6933 121.574 46.3808 117.367 40.1933L116.81 39.3809L116.439 38.8184L112.789 44.7559V44.8184L114.831 47.4434C116.377 49.4434 117.924 51.0684 119.47 52.5059C123.492 56.1309 128.008 58.3183 132.833 58.9433C133.823 59.0683 134.813 59.1309 135.864 59.1309C137.473 59.1309 139.081 59.0059 140.566 58.6934C143.412 55.6934 146.443 51.6934 148.176 46.9434L147.619 47.5684Z" fill="#CEDA42"/>
<path d="M143.04 19.4961C142.978 19.4961 142.978 19.4336 142.916 19.4336C142.668 19.3711 142.421 19.3086 142.173 19.2461C141.74 19.1211 141.369 19.0586 140.936 18.9336C140.751 18.8711 140.565 18.8711 140.379 18.8086C139.946 18.7461 139.451 18.6836 139.018 18.6211C138.895 18.6211 138.709 18.6211 138.585 18.5586C138.09 18.4961 137.596 18.4961 137.101 18.4961C137.039 18.4961 136.977 18.4961 136.915 18.4961C136.42 18.4961 135.925 18.5586 135.43 18.5586C135.183 18.5586 134.935 18.5586 134.688 18.5586C134.44 18.5586 134.131 18.6211 133.884 18.6211C133.451 18.6836 132.956 18.6836 132.523 18.8086C132.213 18.8711 131.904 18.9336 131.595 18.9961C131.224 19.0586 130.852 19.1211 130.481 19.2461C130.172 19.3086 129.801 19.3711 129.491 19.4961C129.368 19.5586 129.244 19.5586 129.12 19.6211C126.151 20.4336 123.49 21.8086 121.016 23.6836C120.954 23.6836 120.954 23.7461 120.892 23.7461C120.583 23.9961 120.273 24.1836 120.026 24.4336C119.84 24.5586 119.655 24.7461 119.469 24.9336C119.284 25.1211 119.098 25.2461 118.912 25.4336C118.851 25.4961 118.789 25.5586 118.727 25.6211C118.665 25.6836 118.665 25.6836 118.603 25.7461C114.829 29.3086 112.664 32.7461 112.664 32.7461L109.014 38.6836L108.086 40.1836C107.777 40.6211 107.468 41.1211 107.158 41.5586C107.096 41.6836 106.973 41.8086 106.911 41.9336C106.663 42.3086 106.416 42.6836 106.107 42.9961C106.045 43.1211 105.921 43.2461 105.859 43.3711C105.179 44.3086 104.436 45.1836 103.632 46.0586C103.57 46.1836 103.446 46.2461 103.385 46.3086C103.075 46.6836 102.704 46.9961 102.333 47.3086C102.271 47.3711 102.147 47.4961 102.085 47.5586C101.219 48.3711 100.229 49.0586 99.2396 49.6836C99.1159 49.7461 98.9921 49.8086 98.9303 49.8711C98.4972 50.1211 98.0642 50.3711 97.5693 50.5586L97.5074 50.6211C97.4455 50.6211 97.4455 50.6836 97.3837 50.6836C91.6303 55.4961 85.382 56.8711 80.3091 57.0586C80.9896 57.3711 81.732 57.6836 82.4743 57.9336C82.5362 57.9336 82.5362 57.9961 82.5981 57.9961C82.8455 58.0586 83.093 58.1211 83.3405 58.1836C83.7735 58.3086 84.1447 58.3711 84.5777 58.4961C84.7633 58.5586 84.9489 58.5586 85.1345 58.6211C85.5676 58.6836 86.0625 58.7461 86.4955 58.8086C86.6193 58.8086 86.8049 58.8086 86.9286 58.8711C87.4235 58.9336 87.9184 58.9336 88.4133 58.9336C88.4752 58.9336 88.5371 58.9336 88.5989 58.9336C89.0938 58.9336 89.5888 58.8711 90.0837 58.8711C90.3311 58.8711 90.5786 58.8711 90.826 58.8711C91.0735 58.8711 91.3828 58.8086 91.6303 58.8086C92.0633 58.7461 92.5582 58.7461 92.9913 58.6211C93.3006 58.5586 93.6099 58.4961 93.9193 58.4336C94.2904 58.3711 94.6616 58.3086 95.0328 58.1836C95.3421 58.1211 95.7133 58.0586 96.0227 57.9336C96.1464 57.8711 96.2701 57.8711 96.3938 57.8086C99.7345 56.8711 102.766 55.2461 105.55 52.9961C105.983 52.6211 106.416 52.2461 106.849 51.8086C107.282 51.3711 107.715 50.9336 108.148 50.4961C108.581 50.0586 109.014 49.5586 109.447 49.0586C109.88 48.5586 110.313 47.9961 110.746 47.4961L112.355 45.4336L112.912 44.7461L116.562 38.8086L116.933 38.1836L117.49 37.3711C117.799 36.9336 118.108 36.4336 118.418 35.9961C118.479 35.8711 118.603 35.7461 118.665 35.6211C118.912 35.2461 119.16 34.8711 119.469 34.5586C119.531 34.4336 119.655 34.3086 119.717 34.1836C120.397 33.2461 121.14 32.3711 121.944 31.4961C122.006 31.3711 122.129 31.3086 122.191 31.2461C122.501 30.8711 122.872 30.5586 123.243 30.2461C123.305 30.1836 123.429 30.0586 123.49 29.9961C124.357 29.1836 125.346 28.4961 126.336 27.8711C126.46 27.8086 126.584 27.7461 126.646 27.6836C127.079 27.4336 127.512 27.1836 128.007 26.9961L128.068 26.9336C128.13 26.9336 128.13 26.8711 128.192 26.8711C133.946 22.0586 140.194 20.6836 145.267 20.4961C144.524 19.9961 143.782 19.7461 143.04 19.4961Z" fill="#8E4B98"/>
<path d="M84.5796 51.9434C84.2703 51.8809 83.9609 51.7559 83.6516 51.6309C83.5897 51.6309 83.5279 51.6309 83.5279 51.5684H83.466C83.1567 51.4434 82.8474 51.3184 82.538 51.1934C82.4143 51.1309 82.2906 51.0684 82.1668 51.0059C81.9813 50.8809 81.7957 50.8184 81.6101 50.6934C81.4863 50.6309 81.3008 50.5684 81.177 50.4434C81.0533 50.3809 80.9296 50.2558 80.8058 50.1933C77.094 47.6933 74.6813 43.5059 74.6813 38.6934C74.6813 35.6309 75.6711 32.8809 77.2796 30.5684C79.0118 25.8184 82.105 21.8184 84.8889 18.8184C84.1465 18.9434 83.466 19.1309 82.7855 19.3184C82.7855 19.3184 82.7855 19.3184 82.7236 19.3184C82.4143 19.4434 82.0431 19.5059 81.7338 19.6309C81.4245 19.7559 81.1152 19.8809 80.8058 20.0059C80.8058 20.0059 80.744 20.0059 80.744 20.0684C79.4448 20.6309 78.2075 21.2559 77.094 22.0059C75.9804 22.7559 74.9287 23.6309 74.0008 24.6309C70.4745 28.3809 68.4948 33.5059 68.3711 39.0684C68.5567 47.0684 73.3821 53.9433 80.1872 57.0683C85.2601 56.9433 91.5084 55.5059 97.2618 50.6934C97.2618 50.6934 97.0762 50.7558 96.9525 50.8183C96.8287 50.8808 96.6431 50.9434 96.5194 51.0059C96.2101 51.1309 95.9626 51.2559 95.6533 51.3184C95.4677 51.3809 95.2821 51.4434 95.1584 51.5059C94.8491 51.6309 94.4779 51.6934 94.1067 51.8184C93.983 51.8809 93.8592 51.8809 93.7355 51.9434C93.2406 52.0684 92.8075 52.1309 92.2508 52.2559C92.127 52.2559 91.9414 52.3184 91.8177 52.3184C91.4465 52.3809 91.0135 52.4434 90.6423 52.4434C90.4567 52.4434 90.333 52.4434 90.1474 52.5059C89.5906 52.5684 89.0338 52.5684 88.4152 52.5684C87.6109 52.5684 86.7448 52.5059 85.9406 52.3184C85.8787 52.3184 85.755 52.2559 85.6931 52.2559C85.5075 52.1934 85.3219 52.1934 85.1982 52.1309C84.9508 52.0684 84.7652 52.0059 84.5796 51.9434Z" fill="#DE8A2E"/>
<path d="M142.725 19.3769C142.602 19.3144 142.478 19.3144 142.416 19.2519C142.354 19.2519 142.23 19.1895 142.168 19.1895C142.416 19.252 142.663 19.3144 142.911 19.3769C142.849 19.4394 142.787 19.4394 142.725 19.3769Z" fill="#564292"/>
<path d="M140.866 25.4375C141.175 25.5 141.485 25.625 141.794 25.75C141.856 25.75 141.918 25.75 141.918 25.8125H141.98C142.289 25.9375 142.598 26.0625 142.908 26.1875C143.031 26.25 143.155 26.3125 143.279 26.375C143.464 26.5 143.65 26.5625 143.835 26.6875C143.959 26.75 144.145 26.8125 144.269 26.9375C144.392 27 144.516 27.125 144.64 27.1875C148.352 29.6875 150.764 33.875 150.764 38.6875C150.764 41.75 149.774 44.5 148.166 46.8125C146.434 51.5625 143.341 55.5625 140.557 58.5625C141.299 58.4375 141.98 58.25 142.66 58.0625C142.66 58.0625 142.66 58.0625 142.722 58.0625C143.031 57.9375 143.402 57.875 143.712 57.75C144.021 57.625 144.33 57.5 144.64 57.375C144.64 57.375 144.702 57.375 144.702 57.3125C146.001 56.75 147.238 56.125 148.352 55.375C149.465 54.625 150.517 53.75 151.445 52.75C154.971 49 156.951 43.875 157.074 38.3125C156.889 30.3125 152.063 23.4375 145.258 20.3125C140.185 20.4375 133.937 21.875 128.184 26.6875C128.122 26.6875 128.122 26.75 128.06 26.75C128.246 26.6875 128.369 26.625 128.555 26.5C128.679 26.4375 128.864 26.375 128.988 26.3125C129.297 26.1875 129.545 26.0625 129.854 26C130.04 25.9375 130.225 25.875 130.349 25.8125C130.658 25.6875 131.03 25.625 131.401 25.5C131.524 25.4375 131.648 25.4375 131.772 25.375C132.267 25.25 132.7 25.1875 133.257 25.0625C133.38 25.0625 133.566 25 133.69 25C134.061 24.9375 134.494 24.875 134.865 24.875C135.051 24.875 135.174 24.875 135.36 24.8125C135.917 24.75 136.474 24.75 137.092 24.75C137.897 24.75 138.763 24.8125 139.567 25C139.629 25 139.752 25.0625 139.814 25.0625C140 25.125 140.185 25.125 140.309 25.1875C140.495 25.375 140.68 25.375 140.866 25.4375Z" fill="#64A8DF"/>
</g>
<defs>
<clipPath id="clip0_991_29522">
<rect width="511" height="80" fill="white"/>
</clipPath>
</defs>
</svg>
