<?xml version="1.0" encoding="UTF-8" standalone="no"?>
<!DOCTYPE svg PUBLIC "-//W3C//DTD SVG 1.1//EN" "http://www.w3.org/Graphics/SVG/1.1/DTD/svg11.dtd">
<svg width="100%" height="100%" viewBox="0 0 720 480" version="1.1" xmlns="http://www.w3.org/2000/svg" xmlns:xlink="http://www.w3.org/1999/xlink" xml:space="preserve" xmlns:serif="http://www.serif.com/" style="fill-rule:evenodd;clip-rule:evenodd;stroke-linejoin:round;stroke-miterlimit:2;">
    <g transform="matrix(1,0,0,1,104.5,200)">
        <g transform="matrix(1,0,0,1,-104.5,-200)">
            <rect x="1.238" y="0.622" width="718.481" height="478.258" style="fill:white;"/>
        </g>
        <g transform="matrix(0.687121,0,0,0.687121,79.8982,12.4507)">
            <rect x="92.169" y="66.123" width="2.908" height="13.438" style="fill:rgb(30,21,21);fill-opacity:0.6;fill-rule:nonzero;"/>
            <path d="M102.208,66.123L104.93,66.123L111.178,74.373L111.178,66.123L114.085,66.123L114.085,79.561L111.549,79.561L105.115,70.998L105.115,79.561L102.208,79.561L102.208,66.123Z" style="fill:rgb(30,21,21);fill-opacity:0.6;fill-rule:nonzero;"/>
            <path d="M124.159,68.811L120.076,68.811L120.076,66.123L131.149,66.123L131.149,68.811L127.066,68.811L127.066,79.561L124.159,79.561L124.159,68.811Z" style="fill:rgb(30,21,21);fill-opacity:0.6;fill-rule:nonzero;"/>
            <path d="M137.149,66.123L147.233,66.123L147.233,68.748L140.057,68.748L140.057,71.436L146.367,71.436L146.367,74.123L140.057,74.123L140.057,76.936L147.295,76.936L147.295,79.561L137.149,79.561L137.149,66.123Z" style="fill:rgb(30,21,21);fill-opacity:0.6;fill-rule:nonzero;"/>
            <path d="M153.719,66.123L159.781,66.123C161.452,66.123 162.813,66.623 163.679,67.498C164.421,68.248 164.792,69.311 164.792,70.561L164.792,70.623C164.792,72.811 163.617,74.186 161.947,74.811L165.226,79.623L161.823,79.623L158.977,75.311L156.688,75.311L156.688,79.623L153.781,79.623L153.781,66.123L153.719,66.123ZM159.596,72.623C161.019,72.623 161.823,71.873 161.823,70.748L161.823,70.686C161.823,69.436 160.957,68.748 159.534,68.748L156.626,68.748L156.626,72.623L159.596,72.623Z" style="fill:rgb(30,21,21);fill-opacity:0.6;fill-rule:nonzero;"/>
            <path d="M171.296,66.123L173.956,66.123L180.204,74.373L180.204,66.123L183.112,66.123L183.112,79.561L180.576,79.561L174.142,70.998L174.142,79.561L171.296,79.561L171.296,66.123Z" style="fill:rgb(30,21,21);fill-opacity:0.6;fill-rule:nonzero;"/>
            <path d="M194.681,65.996L197.403,65.996L203.094,79.559L200.063,79.559L198.826,76.559L193.196,76.559L191.959,79.559L188.989,79.559L194.681,65.996ZM197.712,73.934L195.918,69.559L194.124,73.934L197.712,73.934Z" style="fill:rgb(30,21,21);fill-opacity:0.6;fill-rule:nonzero;"/>
            <path d="M210.339,68.811L206.256,68.811L206.256,66.123L217.268,66.123L217.268,68.811L213.247,68.811L213.247,79.561L210.339,79.561L210.339,68.811Z" style="fill:rgb(30,21,21);fill-opacity:0.6;fill-rule:nonzero;"/>
            <rect x="223.446" y="66.123" width="2.97" height="13.438" style="fill:rgb(30,21,21);fill-opacity:0.6;fill-rule:nonzero;"/>
            <path d="M232.923,72.879C232.923,69.004 235.892,65.879 240.037,65.879C244.12,65.879 247.09,68.941 247.09,72.816L247.09,72.879C247.09,76.691 244.12,79.816 239.975,79.816C235.892,79.816 232.923,76.691 232.923,72.879ZM244.058,72.879C244.058,70.504 242.388,68.629 240.037,68.629C237.686,68.629 236.016,70.504 236.016,72.816L236.016,72.879C236.016,75.191 237.686,77.129 240.037,77.129C242.388,77.066 244.058,75.191 244.058,72.879Z" style="fill:rgb(30,21,21);fill-opacity:0.6;fill-rule:nonzero;"/>
            <path d="M253.523,66.123L256.184,66.123L262.432,74.373L262.432,66.123L265.34,66.123L265.34,79.561L262.865,79.561L256.369,70.998L256.369,79.561L253.523,79.561L253.523,66.123Z" style="fill:rgb(30,21,21);fill-opacity:0.6;fill-rule:nonzero;"/>
            <path d="M276.908,65.996L279.63,65.996L285.322,79.559L282.291,79.559L281.053,76.559L275.424,76.559L274.186,79.559L271.217,79.559L276.908,65.996ZM279.94,73.934L278.146,69.559L276.352,73.934L279.94,73.934Z" style="fill:rgb(30,21,21);fill-opacity:0.6;fill-rule:nonzero;"/>
            <path d="M291.139,66.123L294.109,66.123L294.109,76.873L300.728,76.873L300.728,79.561L291.139,79.561L291.139,66.123Z" style="fill:rgb(30,21,21);fill-opacity:0.6;fill-rule:nonzero;"/>
            <path d="M358.328,77.561L360.06,75.436C361.236,76.436 362.535,77.061 364.02,77.061C365.195,77.061 365.937,76.561 365.937,75.811L365.937,75.748C365.937,74.998 365.504,74.623 363.277,74.061C360.617,73.373 358.885,72.623 358.885,69.936L358.885,69.873C358.885,67.436 360.803,65.811 363.525,65.811C365.443,65.811 367.113,66.436 368.474,67.498L366.927,69.748C365.752,68.936 364.576,68.436 363.463,68.436C362.349,68.436 361.731,68.936 361.731,69.623L361.731,69.686C361.731,70.561 362.287,70.873 364.576,71.436C367.298,72.123 368.783,73.123 368.783,75.498L368.783,75.561C368.783,78.248 366.742,79.748 363.896,79.748C361.978,79.748 359.937,79.061 358.328,77.561Z" style="fill:rgb(30,21,21);fill-opacity:0.6;fill-rule:nonzero;"/>
            <path d="M374.646,72.879C374.646,69.004 377.491,65.879 381.574,65.879C384.111,65.879 385.596,66.754 386.833,67.941L384.977,70.129C383.925,69.191 382.873,68.629 381.574,68.629C379.347,68.629 377.739,70.504 377.739,72.816L377.739,72.879C377.739,75.191 379.347,77.129 381.574,77.129C383.121,77.129 384.049,76.504 385.101,75.566L386.957,77.441C385.596,78.941 384.049,79.816 381.512,79.816C377.553,79.816 374.646,76.754 374.646,72.879Z" style="fill:rgb(30,21,21);fill-opacity:0.6;fill-rule:nonzero;"/>
            <path d="M393.017,66.123L395.987,66.123L395.987,71.436L401.369,71.436L401.369,66.123L404.276,66.123L404.276,79.561L401.369,79.561L401.369,74.123L395.987,74.123L395.987,79.561L393.017,79.561L393.017,66.123Z" style="fill:rgb(30,21,21);fill-opacity:0.6;fill-rule:nonzero;"/>
            <path d="M410.711,72.879C410.711,69.004 413.68,65.879 417.825,65.879C421.908,65.879 424.878,68.941 424.878,72.816L424.878,72.879C424.878,76.691 421.908,79.816 417.763,79.816C413.68,79.816 410.711,76.691 410.711,72.879ZM421.785,72.879C421.785,70.504 420.114,68.629 417.763,68.629C415.413,68.629 413.742,70.504 413.742,72.816L413.742,72.879C413.742,75.191 415.413,77.129 417.763,77.129C420.176,77.066 421.785,75.191 421.785,72.879Z" style="fill:rgb(30,21,21);fill-opacity:0.6;fill-rule:nonzero;"/>
            <path d="M430.691,72.879C430.691,69.004 433.66,65.879 437.805,65.879C441.888,65.879 444.858,68.941 444.858,72.816L444.858,72.879C444.858,76.691 441.888,79.816 437.743,79.816C433.599,79.816 430.691,76.691 430.691,72.879ZM441.765,72.879C441.765,70.504 440.094,68.629 437.743,68.629C435.393,68.629 433.722,70.504 433.722,72.816L433.722,72.879C433.722,75.191 435.393,77.129 437.743,77.129C440.094,77.066 441.765,75.191 441.765,72.879Z" style="fill:rgb(30,21,21);fill-opacity:0.6;fill-rule:nonzero;"/>
            <path d="M451.233,66.123L454.141,66.123L454.141,76.873L460.822,76.873L460.822,79.561L451.233,79.561L451.233,66.123Z" style="fill:rgb(30,21,21);fill-opacity:0.6;fill-rule:nonzero;"/>
            <path d="M33.466,23.309C31.672,21.621 29.569,20.371 27.218,19.496C24.867,18.684 22.516,18.246 20.104,18.246C18.062,18.246 16.021,18.559 14.103,19.121C12.123,19.684 10.329,20.621 8.659,21.746C8.349,21.996 8.04,22.121 7.731,22.121C7.298,22.121 6.988,21.996 6.741,21.746C6.493,21.496 6.37,21.184 6.37,20.809L6.37,2.684C6.37,1.871 6.06,1.309 5.504,0.934C4.885,0.559 4.266,0.371 3.524,0.371C2.782,0.371 2.101,0.559 1.544,0.934C0.988,1.309 0.678,1.871 0.678,2.684L0.678,54.996C0.678,55.809 0.926,56.434 1.544,56.934C2.101,57.434 2.782,57.684 3.586,57.684C4.823,57.684 5.627,57.246 6.122,56.309C6.308,55.996 6.555,55.746 6.803,55.496C7.05,55.246 7.36,55.121 7.669,55.121C8.04,55.121 8.411,55.246 8.721,55.496C10.391,56.746 12.247,57.621 14.165,58.184C16.144,58.746 18.124,59.059 20.166,59.059C22.578,59.059 24.929,58.621 27.28,57.809C29.631,56.996 31.734,55.746 33.59,54.059C35.446,52.371 36.931,50.246 38.044,47.746C39.158,45.184 39.715,42.184 39.715,38.746C39.715,35.309 39.158,32.309 37.983,29.746C36.807,27.184 35.322,25.059 33.466,23.309ZM32.724,45.246C31.982,47.059 30.93,48.621 29.631,49.746C28.332,50.934 26.847,51.809 25.238,52.371C23.568,52.934 21.898,53.246 20.166,53.246C18.433,53.246 16.763,52.996 15.093,52.371C13.422,51.809 11.938,50.934 10.7,49.746C9.401,48.559 8.411,47.059 7.607,45.246C6.865,43.371 6.432,41.246 6.432,38.746C6.432,36.184 6.803,33.996 7.607,32.184C8.349,30.371 9.401,28.871 10.7,27.621C11.999,26.434 13.484,25.559 15.093,24.996C16.763,24.434 18.433,24.121 20.166,24.121C21.898,24.121 23.568,24.434 25.238,24.996C26.909,25.559 28.394,26.434 29.631,27.621C30.93,28.809 31.92,30.309 32.724,32.184C33.528,33.996 33.899,36.184 33.899,38.746C33.899,41.246 33.528,43.371 32.724,45.246ZM229.886,24.059C228.092,22.371 225.988,21.121 223.638,20.309C221.287,19.496 218.936,19.059 216.585,19.059C213.368,19.059 210.213,19.809 207.243,21.246C204.212,22.684 201.799,24.996 200.005,28.059C198.149,24.996 195.737,22.746 192.767,21.246C189.736,19.809 186.643,19.059 183.426,19.059C181.384,19.059 179.343,19.309 177.425,19.934C175.445,20.496 173.651,21.371 171.981,22.621C171.671,22.871 171.3,22.996 170.929,22.996C170.558,22.996 170.249,22.871 169.939,22.559C169.63,22.246 169.444,21.934 169.321,21.684C169.073,21.246 168.764,20.871 168.331,20.746C167.898,20.559 167.403,20.496 166.908,20.496C166.042,20.496 165.299,20.746 164.804,21.309C164.31,21.871 164.062,22.371 164.062,22.996L164.062,56.059C164.062,56.871 164.371,57.496 164.928,57.934C165.547,58.371 166.165,58.559 166.908,58.559C167.65,58.559 168.331,58.371 168.888,57.934C169.444,57.496 169.754,56.871 169.754,56.059L169.754,39.434C169.754,36.934 170.125,34.746 170.929,32.934C171.733,31.121 172.785,29.621 174.022,28.434C175.321,27.246 176.744,26.371 178.415,25.809C180.023,25.246 181.755,24.934 183.488,24.934C185.22,24.934 186.89,25.246 188.56,25.809C190.231,26.371 191.716,27.246 192.953,28.496C194.252,29.684 195.242,31.184 196.046,33.059C196.85,34.871 197.221,37.059 197.221,39.621L197.221,56.121C197.221,56.934 197.531,57.559 198.088,57.996C198.706,58.434 199.325,58.621 200.067,58.621C200.81,58.621 201.49,58.434 202.047,57.996C202.604,57.559 202.913,56.934 202.913,56.121L202.913,39.371C202.913,36.871 203.284,34.684 204.088,32.871C204.831,31.059 205.882,29.496 207.182,28.309C208.481,27.121 209.904,26.246 211.574,25.684C213.182,25.121 214.915,24.809 216.709,24.809C218.441,24.809 220.111,25.121 221.782,25.684C223.452,26.246 224.937,27.121 226.174,28.309C227.473,29.496 228.463,30.996 229.267,32.871C230.071,34.684 230.443,36.871 230.443,39.371L230.443,55.934C230.443,56.746 230.752,57.371 231.309,57.809C231.866,58.246 232.546,58.434 233.288,58.434C234.031,58.434 234.711,58.246 235.268,57.809C235.825,57.371 236.134,56.746 236.134,55.934L236.134,39.434C236.134,35.996 235.577,32.996 234.402,30.371C233.227,27.871 231.742,25.746 229.886,24.059ZM256.673,53.996C254.693,52.621 253.023,50.871 251.786,48.621C250.549,46.434 249.93,44.121 249.93,41.684L249.93,22.809C249.93,21.996 249.621,21.371 249.064,20.934C248.507,20.496 247.827,20.246 247.084,20.246C246.342,20.246 245.661,20.496 245.104,20.934C244.548,21.371 244.238,21.996 244.238,22.809L244.238,41.996C244.3,43.871 244.61,45.746 245.166,47.559C245.723,49.371 246.527,51.059 247.517,52.621C247.888,53.184 248.383,53.809 248.94,54.559C249.497,55.309 250.177,55.996 250.858,56.684C251.538,57.371 252.219,57.934 252.899,58.371C253.58,58.809 254.26,59.059 254.817,59.059C255.621,59.059 256.364,58.746 256.982,58.184C257.663,57.621 257.972,56.934 257.972,56.059C257.972,55.371 257.539,54.621 256.673,53.996ZM247.022,13.684C248.012,13.684 248.754,13.371 249.188,12.809C249.682,12.246 249.868,11.621 249.868,10.871C249.868,10.184 249.621,9.559 249.188,8.934C248.754,8.371 248.012,8.059 247.022,8.059C246.032,8.059 245.29,8.371 244.857,8.934C244.362,9.496 244.177,10.121 244.177,10.871C244.177,11.559 244.424,12.246 244.857,12.809C245.29,13.371 246.032,13.684 247.022,13.684ZM297.504,24.059C295.648,22.371 293.544,21.121 291.255,20.309C288.904,19.496 286.554,19.059 284.141,19.059C282.099,19.059 280.058,19.371 278.14,19.934C276.16,20.496 274.366,21.434 272.696,22.559C272.387,22.809 272.016,22.934 271.644,22.934C271.026,22.934 270.593,22.621 270.221,21.934C269.727,20.871 268.86,20.371 267.561,20.371C266.819,20.371 266.138,20.621 265.582,21.184C265.025,21.746 264.716,22.434 264.716,23.246L264.716,55.934C264.716,56.746 265.025,57.371 265.582,57.809C266.2,58.246 266.819,58.434 267.561,58.434C268.304,58.434 268.984,58.246 269.541,57.809C270.098,57.371 270.407,56.746 270.407,55.934L270.407,39.309C270.407,36.809 270.778,34.621 271.582,32.809C272.387,30.996 273.438,29.496 274.738,28.309C276.037,27.121 277.46,26.246 279.13,25.684C280.738,25.121 282.471,24.809 284.203,24.809C285.935,24.809 287.605,25.121 289.276,25.684C290.946,26.246 292.431,27.121 293.668,28.371C294.967,29.559 295.957,31.059 296.761,32.934C297.566,34.746 297.937,36.934 297.937,39.496L297.937,55.996C297.937,56.809 298.246,57.434 298.803,57.871C299.36,58.309 300.04,58.496 300.782,58.496C301.525,58.496 302.205,58.309 302.762,57.871C303.319,57.434 303.628,56.809 303.628,55.996L303.628,39.371C303.628,35.934 303.071,32.934 301.958,30.371C300.844,27.871 299.36,25.746 297.504,24.059ZM347.923,20.184C347.305,19.746 346.686,19.496 345.943,19.496C345.139,19.496 344.582,19.684 344.149,19.996C343.778,20.309 343.469,20.684 343.283,21.059C343.16,21.371 342.912,21.559 342.603,21.746C342.293,21.934 342.046,22.059 341.799,22.059C341.489,22.059 341.118,21.934 340.809,21.684C339.138,20.496 337.282,19.621 335.303,18.996C333.323,18.434 331.343,18.121 329.302,18.121C326.889,18.121 324.538,18.559 322.249,19.371C319.899,20.184 317.795,21.434 316.001,23.121C314.145,24.809 312.66,26.934 311.547,29.496C310.433,32.059 309.877,35.059 309.877,38.496C309.877,41.934 310.433,44.934 311.609,47.496C312.784,50.059 314.269,52.184 316.063,53.871C317.857,55.559 319.96,56.809 322.311,57.684C324.662,58.496 327.013,58.934 329.364,58.934C331.405,58.934 333.385,58.621 335.365,58.059C337.344,57.496 339.2,56.621 340.871,55.371C341.056,55.246 341.366,55.121 341.86,54.996C342.232,54.996 342.541,55.121 342.788,55.371C343.036,55.621 343.16,55.934 343.16,56.309L343.16,57.309C343.036,59.684 342.603,61.746 341.799,63.434C340.994,65.184 339.943,66.559 338.705,67.684C337.468,68.809 335.983,69.621 334.375,70.184C332.766,70.746 331.096,70.996 329.426,70.996C327.26,70.996 325.281,70.559 323.425,69.746C323.301,69.684 323.054,69.621 322.806,69.559C322.497,69.496 322.249,69.496 321.878,69.559C321.569,69.621 321.198,69.809 320.888,70.121C320.517,70.434 320.208,70.871 319.96,71.496C319.589,72.246 319.527,72.934 319.775,73.559C320.022,74.184 320.455,74.684 321.136,74.996C323.734,76.184 326.58,76.746 329.549,76.746C331.9,76.746 334.313,76.309 336.664,75.496C339.015,74.684 341.056,73.434 342.912,71.746C344.768,70.059 346.191,67.934 347.366,65.434C348.542,62.871 349.099,59.871 349.099,56.434L349.099,22.434C348.851,21.371 348.542,20.621 347.923,20.184ZM341.922,45.059C341.18,46.871 340.128,48.371 338.829,49.621C337.53,50.809 336.045,51.746 334.437,52.309C332.766,52.871 331.096,53.184 329.364,53.184C327.632,53.184 325.961,52.871 324.291,52.309C322.621,51.746 321.136,50.871 319.899,49.621C318.599,48.434 317.61,46.934 316.805,45.059C316.063,43.246 315.63,41.059 315.63,38.496C315.63,35.996 316.001,33.809 316.805,31.996C317.548,30.184 318.599,28.621 319.899,27.434C321.198,26.246 322.621,25.371 324.291,24.809C325.899,24.246 327.632,23.934 329.426,23.934C331.158,23.934 332.828,24.246 334.499,24.809C336.169,25.371 337.654,26.246 338.891,27.434C340.19,28.621 341.18,30.121 341.984,31.996C342.788,33.809 343.16,35.996 343.16,38.496C343.098,41.059 342.727,43.246 341.922,45.059ZM393.208,0.996C392.651,0.621 391.971,0.434 391.228,0.434C390.486,0.434 389.805,0.621 389.249,0.996C388.692,1.371 388.382,1.996 388.382,2.746L388.382,20.871C388.382,21.246 388.259,21.559 388.011,21.809C387.764,22.059 387.454,22.184 387.021,22.184C386.712,22.184 386.465,22.059 386.093,21.809C384.423,20.621 382.567,19.746 380.649,19.184C378.67,18.621 376.69,18.309 374.587,18.309C372.174,18.309 369.823,18.746 367.472,19.559C365.121,20.371 363.08,21.621 361.224,23.371C359.43,25.059 357.883,27.184 356.77,29.746C355.594,32.309 355.038,35.309 355.038,38.746C355.038,42.184 355.594,45.184 356.708,47.746C357.821,50.309 359.306,52.434 361.162,54.059C363.018,55.746 365.121,56.996 367.41,57.809C369.761,58.621 372.112,59.059 374.525,59.059C376.566,59.059 378.608,58.746 380.588,58.184C382.567,57.621 384.361,56.746 386.032,55.496C386.341,55.246 386.712,55.121 387.083,55.121C387.393,55.121 387.702,55.246 387.949,55.496C388.197,55.746 388.444,55.996 388.63,56.309C389.125,57.184 389.929,57.684 391.166,57.684C391.971,57.684 392.651,57.434 393.208,56.934C393.765,56.434 394.074,55.809 394.074,54.996L394.074,2.746C394.074,1.996 393.827,1.371 393.208,0.996ZM387.207,45.246C386.465,47.121 385.413,48.621 384.114,49.809C382.815,50.996 381.33,51.871 379.721,52.434C378.051,52.996 376.381,53.309 374.649,53.309C372.916,53.309 371.246,53.059 369.576,52.434C367.905,51.871 366.421,50.996 365.183,49.809C363.884,48.621 362.894,47.121 362.09,45.246C361.348,43.434 360.915,41.246 360.915,38.746C360.915,36.184 361.286,33.996 362.09,32.184C362.832,30.371 363.884,28.871 365.183,27.621C366.482,26.434 367.967,25.496 369.576,24.934C371.246,24.371 372.916,24.059 374.649,24.059C376.381,24.059 378.051,24.371 379.721,24.934C381.392,25.496 382.877,26.371 384.114,27.621C385.413,28.809 386.403,30.309 387.207,32.184C388.011,33.996 388.382,36.184 388.382,38.746C388.321,41.246 387.949,43.371 387.207,45.246ZM438.988,20.309C438.369,19.809 437.688,19.621 436.884,19.621C436.389,19.621 435.894,19.746 435.399,19.996C434.904,20.246 434.595,20.621 434.348,21.121C434.224,21.434 433.977,21.684 433.729,21.871C433.482,22.059 433.172,22.184 432.863,22.184C432.554,22.184 432.182,22.059 431.873,21.809C430.203,20.621 428.347,19.746 426.367,19.121C424.388,18.559 422.408,18.246 420.366,18.246C417.954,18.246 415.603,18.684 413.314,19.496C410.963,20.309 408.921,21.559 407.066,23.246C405.271,24.934 403.787,27.059 402.611,29.559C401.498,32.121 400.879,35.121 400.879,38.559C400.879,41.996 401.436,44.996 402.611,47.559C403.787,50.121 405.271,52.246 407.066,53.934C408.921,55.621 410.963,56.871 413.314,57.746C415.665,58.559 418.016,58.996 420.366,58.996C422.346,58.996 424.388,58.684 426.367,58.121C428.347,57.496 430.203,56.621 431.873,55.434C432.182,55.184 432.554,55.059 432.863,55.059C433.543,55.059 433.977,55.371 434.348,56.059C434.595,56.559 434.904,56.996 435.399,57.246C435.894,57.496 436.389,57.621 436.884,57.621C437.688,57.621 438.369,57.371 438.988,56.934C439.606,56.496 439.915,55.746 439.915,54.871L439.915,22.371C439.915,21.434 439.606,20.746 438.988,20.309ZM432.987,45.121C432.244,46.934 431.193,48.434 429.893,49.684C428.594,50.871 427.11,51.746 425.501,52.371C423.831,52.934 422.16,53.246 420.428,53.246C418.696,53.246 417.026,52.934 415.355,52.371C413.685,51.809 412.2,50.934 410.963,49.684C409.664,48.496 408.674,46.996 407.87,45.121C407.127,43.309 406.694,41.121 406.694,38.559C406.694,36.059 407.065,33.871 407.87,32.059C408.674,30.246 409.664,28.684 410.963,27.496C412.262,26.309 413.685,25.434 415.355,24.871C416.964,24.309 418.696,23.996 420.49,23.996C422.222,23.996 423.893,24.309 425.563,24.871C427.233,25.434 428.718,26.309 429.955,27.496C431.255,28.684 432.244,30.184 433.049,32.059C433.791,33.871 434.224,36.059 434.224,38.559C434.162,41.121 433.729,43.309 432.987,45.121ZM466.827,53.246C465.094,53.246 463.424,52.996 461.754,52.371C460.083,51.809 458.599,50.934 457.361,49.746C456.062,48.559 455.072,47.059 454.268,45.184C453.526,43.371 453.093,41.184 453.093,38.621L453.093,2.934C453.093,2.121 452.783,1.496 452.227,1.121C451.67,0.684 450.989,0.496 450.185,0.496C449.381,0.496 448.7,0.684 448.143,1.121C447.587,1.559 447.277,2.184 447.277,2.934L447.277,38.621C447.277,42.059 447.834,45.059 449.01,47.621C450.185,50.184 451.67,52.309 453.464,53.996C455.32,55.684 457.361,56.934 459.712,57.809C462.063,58.621 464.414,59.059 466.765,59.059C467.569,59.059 468.188,58.746 468.621,58.184C469.054,57.621 469.301,56.934 469.301,56.184C469.301,55.434 469.054,54.746 468.621,54.184C468.249,53.559 467.631,53.246 466.827,53.246ZM508.771,29.559C507.595,27.059 506.11,24.934 504.254,23.246C502.399,21.559 500.295,20.309 498.006,19.496C495.717,18.684 493.366,18.246 490.954,18.246C488.541,18.246 486.19,18.684 483.901,19.496C481.55,20.309 479.447,21.559 477.653,23.246C475.797,24.934 474.312,27.059 473.199,29.621C472.085,32.184 471.528,35.184 471.528,38.621C471.528,42.059 472.085,45.059 473.26,47.621C474.374,50.184 475.859,52.309 477.715,53.996C479.509,55.684 481.612,56.934 483.963,57.809C486.314,58.621 488.665,59.059 491.016,59.059C493.985,59.059 496.831,58.496 499.429,57.309C500.233,56.934 500.728,56.371 500.852,55.684C501.038,54.996 500.914,54.309 500.604,53.621C500.357,52.934 499.986,52.496 499.615,52.246C499.243,51.996 498.872,51.809 498.501,51.746C498.13,51.684 497.821,51.684 497.573,51.809C497.326,51.871 497.14,51.996 497.016,51.996C495.099,52.871 493.057,53.246 490.892,53.246C488.417,53.246 486.066,52.684 483.901,51.559C481.674,50.434 480.004,48.684 478.766,46.246L507.966,41.559C508.709,41.434 509.327,41.059 509.76,40.496C510.193,39.934 510.441,39.309 510.441,38.559C510.503,35.059 509.884,32.059 508.771,29.559ZM504.316,35.809C504.193,36.059 504.007,36.184 503.698,36.246L478.148,40.371C477.591,40.434 477.282,40.184 477.158,39.621L477.158,38.621C477.158,36.121 477.529,33.934 478.333,32.121C479.138,30.309 480.127,28.746 481.427,27.559C482.726,26.371 484.149,25.496 485.819,24.934C487.427,24.371 489.16,24.059 490.954,24.059C492.438,24.059 493.923,24.246 495.408,24.684C496.893,25.121 498.254,25.809 499.429,26.684C500.666,27.621 501.656,28.746 502.522,30.184C503.388,31.559 504.007,33.184 504.378,35.121C504.502,35.309 504.44,35.559 504.316,35.809ZM65.512,53.246C63.78,53.246 62.11,52.996 60.439,52.371C58.769,51.809 57.284,50.934 56.047,49.746C54.748,48.559 53.758,47.059 52.954,45.184C52.211,43.371 51.778,41.184 51.778,38.621L51.778,2.934C51.778,2.121 51.469,1.496 50.912,1.059C50.355,0.621 49.675,0.434 48.871,0.434C48.066,0.434 47.386,0.621 46.829,1.059C46.272,1.496 45.963,2.121 45.963,2.934L45.963,38.621C45.963,42.059 46.52,45.059 47.695,47.621C48.809,50.184 50.355,52.309 52.149,53.996C53.944,55.684 56.047,56.934 58.398,57.809C60.749,58.621 63.099,59.059 65.512,59.059C66.316,59.059 66.935,58.746 67.368,58.184C67.801,57.621 68.049,56.934 68.049,56.184C68.049,55.434 67.801,54.746 67.368,54.184C66.935,53.559 66.316,53.246 65.512,53.246Z" style="fill:rgb(30,21,21);fill-rule:nonzero;"/>
            <path d="M112.73,32.691L110.689,30.066C109.142,28.066 107.595,26.441 106.049,25.004C102.028,21.379 97.512,19.191 92.686,18.566C91.696,18.441 90.707,18.379 89.655,18.379C88.046,18.379 86.438,18.504 84.953,18.816C82.107,21.816 79.076,25.816 77.344,30.566C77.653,30.129 78.21,29.441 78.643,29.004L78.705,29.004C81.179,26.441 84.768,24.754 89.717,24.754C98.501,24.754 104.007,31.066 108.214,37.254L108.771,38.066L109.142,38.629L112.73,32.691Z" style="fill:rgb(239,219,52);fill-rule:nonzero;"/>
            <path d="M147.619,47.568C147.557,47.631 147.557,47.631 147.557,47.693L147.495,47.756C145.082,50.693 141.247,52.693 135.864,52.693C127.08,52.693 121.574,46.381 117.367,40.193L116.81,39.381L116.439,38.818L112.789,44.756L112.789,44.818L114.831,47.443C116.377,49.443 117.924,51.068 119.47,52.506C123.492,56.131 128.008,58.318 132.833,58.943C133.823,59.068 134.813,59.131 135.864,59.131C137.473,59.131 139.081,59.006 140.566,58.693C143.412,55.693 146.443,51.693 148.176,46.943L147.619,47.568Z" style="fill:rgb(206,218,66);fill-rule:nonzero;"/>
            <path d="M143.04,19.496C142.978,19.496 142.978,19.434 142.916,19.434C142.668,19.371 142.421,19.309 142.173,19.246C141.74,19.121 141.369,19.059 140.936,18.934C140.751,18.871 140.565,18.871 140.379,18.809C139.946,18.746 139.451,18.684 139.018,18.621C138.895,18.621 138.709,18.621 138.585,18.559C138.09,18.496 137.596,18.496 137.101,18.496L136.915,18.496C136.42,18.496 135.925,18.559 135.43,18.559L134.688,18.559C134.44,18.559 134.131,18.621 133.884,18.621C133.451,18.684 132.956,18.684 132.523,18.809C132.213,18.871 131.904,18.934 131.595,18.996C131.224,19.059 130.852,19.121 130.481,19.246C130.172,19.309 129.801,19.371 129.491,19.496C129.368,19.559 129.244,19.559 129.12,19.621C126.151,20.434 123.49,21.809 121.016,23.684C120.954,23.684 120.954,23.746 120.892,23.746C120.583,23.996 120.273,24.184 120.026,24.434C119.84,24.559 119.655,24.746 119.469,24.934C119.284,25.121 119.098,25.246 118.912,25.434C118.851,25.496 118.789,25.559 118.727,25.621C118.665,25.684 118.665,25.684 118.603,25.746C114.829,29.309 112.664,32.746 112.664,32.746L109.014,38.684L108.086,40.184C107.777,40.621 107.468,41.121 107.158,41.559C107.096,41.684 106.973,41.809 106.911,41.934C106.663,42.309 106.416,42.684 106.107,42.996C106.045,43.121 105.921,43.246 105.859,43.371C105.179,44.309 104.436,45.184 103.632,46.059C103.57,46.184 103.446,46.246 103.385,46.309C103.075,46.684 102.704,46.996 102.333,47.309C102.271,47.371 102.147,47.496 102.085,47.559C101.219,48.371 100.229,49.059 99.24,49.684C99.116,49.746 98.992,49.809 98.93,49.871C98.497,50.121 98.064,50.371 97.569,50.559L97.507,50.621C97.446,50.621 97.446,50.684 97.384,50.684C91.63,55.496 85.382,56.871 80.309,57.059C80.99,57.371 81.732,57.684 82.474,57.934C82.536,57.934 82.536,57.996 82.598,57.996C82.846,58.059 83.093,58.121 83.341,58.184C83.774,58.309 84.145,58.371 84.578,58.496C84.763,58.559 84.949,58.559 85.135,58.621C85.568,58.684 86.063,58.746 86.496,58.809C86.619,58.809 86.805,58.809 86.929,58.871C87.424,58.934 87.918,58.934 88.413,58.934L88.599,58.934C89.094,58.934 89.589,58.871 90.084,58.871L90.826,58.871C91.074,58.871 91.383,58.809 91.63,58.809C92.063,58.746 92.558,58.746 92.991,58.621C93.301,58.559 93.61,58.496 93.919,58.434C94.29,58.371 94.662,58.309 95.033,58.184C95.342,58.121 95.713,58.059 96.023,57.934C96.146,57.871 96.27,57.871 96.394,57.809C99.735,56.871 102.766,55.246 105.55,52.996C105.983,52.621 106.416,52.246 106.849,51.809C107.282,51.371 107.715,50.934 108.148,50.496C108.581,50.059 109.014,49.559 109.447,49.059C109.88,48.559 110.313,47.996 110.746,47.496L112.355,45.434L112.912,44.746L116.562,38.809L116.933,38.184L117.49,37.371C117.799,36.934 118.108,36.434 118.418,35.996C118.479,35.871 118.603,35.746 118.665,35.621C118.912,35.246 119.16,34.871 119.469,34.559C119.531,34.434 119.655,34.309 119.717,34.184C120.397,33.246 121.14,32.371 121.944,31.496C122.006,31.371 122.129,31.309 122.191,31.246C122.501,30.871 122.872,30.559 123.243,30.246C123.305,30.184 123.429,30.059 123.49,29.996C124.357,29.184 125.346,28.496 126.336,27.871C126.46,27.809 126.584,27.746 126.646,27.684C127.079,27.434 127.512,27.184 128.007,26.996L128.068,26.934C128.13,26.934 128.13,26.871 128.192,26.871C133.946,22.059 140.194,20.684 145.267,20.496C144.524,19.996 143.782,19.746 143.04,19.496Z" style="fill:rgb(142,75,152);fill-rule:nonzero;"/>
            <path d="M84.58,51.943C84.27,51.881 83.961,51.756 83.652,51.631C83.59,51.631 83.528,51.631 83.528,51.568L83.466,51.568C83.157,51.443 82.847,51.318 82.538,51.193C82.414,51.131 82.291,51.068 82.167,51.006C81.981,50.881 81.796,50.818 81.61,50.693C81.486,50.631 81.301,50.568 81.177,50.443C81.053,50.381 80.93,50.256 80.806,50.193C77.094,47.693 74.681,43.506 74.681,38.693C74.681,35.631 75.671,32.881 77.28,30.568C79.012,25.818 82.105,21.818 84.889,18.818C84.147,18.943 83.466,19.131 82.786,19.318L82.724,19.318C82.414,19.443 82.043,19.506 81.734,19.631C81.425,19.756 81.115,19.881 80.806,20.006C80.806,20.006 80.744,20.006 80.744,20.068C79.445,20.631 78.208,21.256 77.094,22.006C75.98,22.756 74.929,23.631 74.001,24.631C70.475,28.381 68.495,33.506 68.371,39.068C68.557,47.068 73.382,53.943 80.187,57.068C85.26,56.943 91.508,55.506 97.262,50.693C97.262,50.693 97.076,50.756 96.953,50.818C96.829,50.881 96.643,50.943 96.519,51.006C96.21,51.131 95.963,51.256 95.653,51.318C95.468,51.381 95.282,51.443 95.158,51.506C94.849,51.631 94.478,51.693 94.107,51.818C93.983,51.881 93.859,51.881 93.736,51.943C93.241,52.068 92.808,52.131 92.251,52.256C92.127,52.256 91.941,52.318 91.818,52.318C91.447,52.381 91.013,52.443 90.642,52.443C90.457,52.443 90.333,52.443 90.147,52.506C89.591,52.568 89.034,52.568 88.415,52.568C87.611,52.568 86.745,52.506 85.941,52.318C85.879,52.318 85.755,52.256 85.693,52.256C85.507,52.193 85.322,52.193 85.198,52.131C84.951,52.068 84.765,52.006 84.58,51.943Z" style="fill:rgb(222,138,46);fill-rule:nonzero;"/>
            <path d="M142.725,19.377C142.602,19.314 142.478,19.314 142.416,19.252C142.354,19.252 142.23,19.19 142.168,19.19C142.416,19.252 142.663,19.314 142.911,19.377C142.849,19.439 142.787,19.439 142.725,19.377Z" style="fill:rgb(86,66,146);fill-rule:nonzero;"/>
            <path d="M140.866,25.438C141.175,25.5 141.485,25.625 141.794,25.75C141.856,25.75 141.918,25.75 141.918,25.813L141.98,25.813C142.289,25.938 142.598,26.063 142.908,26.188C143.031,26.25 143.155,26.313 143.279,26.375C143.464,26.5 143.65,26.563 143.835,26.688C143.959,26.75 144.145,26.813 144.269,26.938C144.392,27 144.516,27.125 144.64,27.188C148.352,29.688 150.764,33.875 150.764,38.688C150.764,41.75 149.774,44.5 148.166,46.813C146.434,51.563 143.341,55.563 140.557,58.563C141.299,58.438 141.98,58.25 142.66,58.063L142.722,58.063C143.031,57.938 143.402,57.875 143.712,57.75C144.021,57.625 144.33,57.5 144.64,57.375C144.64,57.375 144.702,57.375 144.702,57.313C146.001,56.75 147.238,56.125 148.352,55.375C149.465,54.625 150.517,53.75 151.445,52.75C154.971,49 156.951,43.875 157.074,38.313C156.889,30.313 152.063,23.438 145.258,20.313C140.185,20.438 133.937,21.875 128.184,26.688C128.122,26.688 128.122,26.75 128.06,26.75C128.246,26.688 128.369,26.625 128.555,26.5C128.679,26.438 128.864,26.375 128.988,26.313C129.297,26.188 129.545,26.063 129.854,26C130.04,25.938 130.225,25.875 130.349,25.813C130.658,25.688 131.03,25.625 131.401,25.5C131.524,25.438 131.648,25.438 131.772,25.375C132.267,25.25 132.7,25.188 133.257,25.063C133.38,25.063 133.566,25 133.69,25C134.061,24.938 134.494,24.875 134.865,24.875C135.051,24.875 135.174,24.875 135.36,24.813C135.917,24.75 136.474,24.75 137.092,24.75C137.897,24.75 138.763,24.813 139.567,25C139.629,25 139.752,25.063 139.814,25.063C140,25.125 140.185,25.125 140.309,25.188C140.495,25.375 140.68,25.375 140.866,25.438Z" style="fill:rgb(100,168,223);fill-rule:nonzero;"/>
        </g>
    </g>
</svg>
